<?xml version="1.0" encoding="UTF-8" standalone="no"?>
<!-- Created with Inkscape (http://www.inkscape.org/) -->

<svg
   width="164.23331mm"
   height="164.76247mm"
   viewBox="0 0 164.23331 164.76247"
   version="1.1"
   id="svg392"
   xml:space="preserve"
   xmlns="http://www.w3.org/2000/svg"
   xmlns:svg="http://www.w3.org/2000/svg"><defs
     id="defs389"><style
       id="style6869">.cls-1{fill:#ffe8c2;}.cls-2{fill:none;stroke:#e5af6e;stroke-miterlimit:10;stroke-width:25.51px;}.cls-3{opacity:0.05;}.cls-4{fill:#534741;}</style></defs><path
     id="path1143322-5"
     style="display:inline;fill:#f53f64;fill-opacity:1;fill-rule:nonzero;stroke:none;stroke-width:0.306513"
     d="m 132.78827,61.203855 c 0.59128,-0.244364 1.27177,3.89e-4 1.57133,0.565551 2.1059,3.967175 5.95753,6.054709 5.85905,11.350864 -0.18618,10.008785 -18.96687,15.152091 -28.64349,9.098739 -3.31717,-2.075044 -2.51207,-5.35589 -3.83764,-9.429747 -0.20011,-0.613876 0.11272,-1.278506 0.70939,-1.525172 z M 67.870758,126.17378 c 0.05539,0.59945 -0.353696,1.14319 -0.945013,1.25547 -4.151557,0.79089 -7.09839,3.67343 -11.832195,2.11337 -8.946024,-2.94831 -8.351584,-21.26095 -0.221063,-28.27818 2.78711,-2.405529 5.512841,-0.77017 9.543494,-0.82993 0.607469,-0.009 1.118052,0.45654 1.174008,1.0615 z M 112.17413,103.009 c 0.36478,-0.4789 1.03389,-0.60252 1.54529,-0.28513 3.59222,2.22642 7.71245,2.09751 10.14282,6.44906 4.59294,8.22367 -8.23456,21.30653 -18.96934,20.97301 -3.67988,-0.11429 -4.58063,-3.16268 -7.589146,-5.84568 -0.453638,-0.40411 -0.514394,-1.09265 -0.146301,-1.57597 z M 83.3504,69.220796 c 0.36478,-0.478899 1.033895,-0.602518 1.545292,-0.285128 3.592219,2.22642 7.712451,2.097506 10.142824,6.44906 4.592936,8.223672 -8.234562,21.306539 -18.969348,20.973017 -3.679874,-0.114288 -4.58062,-3.162674 -7.589139,-5.845684 -0.45364,-0.404123 -0.514395,-1.092644 -0.146304,-1.57597 z M 56.805198,35.998832 c 0.36478,-0.478899 1.033895,-0.602518 1.545292,-0.285128 3.59222,2.22642 7.712452,2.097506 10.142823,6.44906 4.592939,8.223667 -8.234561,21.306538 -18.969346,20.973017 -3.679874,-0.114287 -4.58062,-3.162679 -7.589139,-5.845685 -0.45364,-0.404126 -0.514395,-1.092643 -0.146306,-1.575966 z" /><path
     id="path1143322-5-7"
     style="display:inline;fill:#f53f64;fill-opacity:1;fill-rule:nonzero;stroke:none;stroke-width:0.306513"
     d="m 107.00469,54.064035 c 0.0554,0.59945 -0.3537,1.14319 -0.94502,1.25547 -4.15155,0.79089 -7.098387,3.67343 -11.832192,2.11337 -8.946024,-2.94831 -8.351584,-21.260951 -0.221063,-28.278181 2.78711,-2.405529 5.512841,-0.77017 9.543495,-0.82993 0.60747,-0.009 1.11805,0.45654 1.17401,1.0615 z" /><path
     id="path1143326-4"
     style="display:inline;fill:#feffdd;fill-opacity:1;fill-rule:nonzero;stroke:none;stroke-width:0.306513"
     d="m 132.10606,61.48599 c 0.55719,-0.230333 0.85815,-0.694629 1.13842,-0.167547 1.96925,3.701832 5.95031,7.356955 5.81672,11.283075 -0.31846,9.353263 -17.89596,14.223301 -26.98299,8.595012 -3.11514,-1.929587 -2.41223,-5.480905 -3.64705,-9.285008 -0.1862,-0.573472 0.17505,-0.713127 0.73765,-0.945748 z m -64.29938,63.99609 c 0.05227,0.56491 0.386028,0.96446 -0.165683,1.06999 -3.875046,0.74176 -8.267091,3.30511 -11.7595,2.09415 -8.319966,-2.8851 -7.814165,-20.04016 -0.229586,-26.64545 2.600209,-2.264336 5.597489,-0.64569 9.360413,-0.69881 0.567287,-0.008 0.592448,0.3555 0.645266,0.9259 z m 43.94665,-21.92037 c 0.34374,-0.45134 0.36834,-0.97136 0.84592,-0.67582 3.35537,2.07551 8.32386,3.15944 10.0763,6.41402 4.17467,7.75357 -7.80437,20.04398 -17.85843,19.77649 -3.44672,-0.0918 -4.55872,-3.31161 -7.365601,-5.81838 -0.423193,-0.37787 -0.195742,-0.66262 0.151236,-1.1184 z M 82.929602,69.773505 c 0.343735,-0.451334 0.368243,-0.971397 0.845926,-0.675823 3.355359,2.075517 8.323856,3.159447 10.076289,6.414032 4.174681,7.753557 -7.804359,20.043969 -17.858425,19.776484 -3.446722,-0.09181 -4.558724,-3.311621 -7.365612,-5.818377 -0.423181,-0.37788 -0.195727,-0.662626 0.151284,-1.118388 z M 56.384401,36.551542 c 0.343734,-0.451335 0.368243,-0.971398 0.845926,-0.675824 3.355359,2.075517 8.323856,3.159447 10.076288,6.414032 4.174683,7.753557 -7.804358,20.043976 -17.858426,19.776481 -3.446722,-0.09181 -4.558723,-3.311617 -7.365612,-5.81837 -0.423179,-0.377885 -0.195726,-0.662629 0.151285,-1.118393 z" /><path
     id="path1143330-7"
     style="display:inline;fill:#eaecc2;fill-opacity:1;fill-rule:nonzero;stroke:none;stroke-width:0.306513"
     d="m 121.14908,67.208863 c 3.11473,-1.086722 5.28502,-0.182848 5.59131,1.695467 0.32472,1.990818 -5.21818,4.934971 -7.48576,2.337575 -1.74066,-1.993559 0.34568,-3.492405 1.89445,-4.033042 M 65.706285,114.04183 c 0.111527,3.10203 -1.304058,4.80196 -3.077739,4.55541 -1.879953,-0.26117 -2.986598,-6.06225 -0.02154,-7.37908 2.275829,-1.01091 3.04358,1.28113 3.099279,2.82367 m 39.853615,-0.63471 c 2.0166,-2.35973 4.20914,-2.65377 5.34844,-1.2722 1.20761,1.46427 -1.90227,6.48475 -4.9766,5.44838 -2.35982,-0.79536 -1.37447,-3.00259 -0.37184,-4.17618 M 76.736166,79.618932 c 2.016613,-2.359731 4.209136,-2.653778 5.348441,-1.272214 1.207609,1.464279 -1.902265,6.484757 -4.976595,5.448379 -2.359833,-0.795339 -1.374465,-3.002584 -0.371848,-4.176165 M 50.190965,46.396972 c 2.016613,-2.359738 4.209136,-2.653782 5.34844,-1.272217 1.20761,1.46428 -1.902264,6.484757 -4.976594,5.448373 -2.359834,-0.79533 -1.374464,-3.002585 -0.37185,-4.176157" /><path
     id="path1143334-5"
     style="display:inline;fill:#a78b78;fill-opacity:1;fill-rule:nonzero;stroke:none;stroke-width:0.306513"
     d="m 123.60768,68.704458 c 0.113,0.07708 0.1232,0.18692 0.0262,0.283663 -0.2813,0.280504 -0.8105,0.499124 -1.4333,0.557083 -0.62253,0.05807 -1.18332,-0.05902 -1.51146,-0.283223 -0.11329,-0.07714 -0.12361,-0.186765 -0.0262,-0.283565 0.2816,-0.280377 0.8109,-0.499282 1.43344,-0.557352 0.62281,-0.05794 1.18347,0.05942 1.51174,0.283277 M 63.678645,115.83652 c -0.10066,0.0802 -0.202267,0.0588 -0.262206,-0.0556 -0.174002,-0.33083 -0.22351,-0.86731 -0.102557,-1.44331 0.12077,-0.57577 0.381828,-1.04738 0.674137,-1.2803 0.100864,-0.0805 0.202244,-0.0592 0.262302,0.0546 0.173812,0.33105 0.223537,0.86772 0.102778,1.44349 -0.120919,0.57602 -0.382237,1.04741 -0.674331,1.28054 m 44.588482,-2.37857 c 0.12837,0.009 0.18876,0.0935 0.15577,0.21815 -0.0957,0.36134 -0.42221,0.7899 -0.90098,1.13222 -0.47847,0.34228 -0.9898,0.51292 -1.36264,0.48667 -0.12868,-0.009 -0.18901,-0.0932 -0.15601,-0.21783 0.096,-0.36135 0.42246,-0.79021 0.90094,-1.13249 0.47878,-0.34232 0.99013,-0.51268 1.36292,-0.48672 M 79.443515,79.669196 c 0.128379,0.0091 0.188751,0.09353 0.155763,0.218158 -0.0957,0.36134 -0.422206,0.78989 -0.900977,1.132207 -0.478481,0.342285 -0.989792,0.512933 -1.362639,0.48669 -0.128662,-0.009 -0.189003,-0.09321 -0.156015,-0.217839 0.09598,-0.361374 0.422466,-0.79021 0.900946,-1.132495 0.478764,-0.342316 0.990116,-0.51268 1.362922,-0.486721 M 52.898314,46.447233 c 0.128379,0.0091 0.188752,0.09352 0.155763,0.218158 -0.0957,0.361338 -0.422206,0.789891 -0.900978,1.132203 -0.478479,0.342287 -0.989792,0.512936 -1.36264,0.486696 -0.128665,-0.009 -0.189011,-0.09316 -0.156014,-0.21784 0.09598,-0.361376 0.422467,-0.790218 0.900946,-1.132495 0.478765,-0.342323 0.990116,-0.51268 1.362923,-0.486722" /><path
     id="path1143326-4-3"
     style="display:inline;fill:#feffdd;fill-opacity:1;fill-rule:nonzero;stroke:none;stroke-width:0.306513"
     d="m 107.02023,53.022195 c 0.0523,0.56491 0.38603,0.96446 -0.16568,1.06999 -3.87505,0.74176 -8.267096,3.30511 -11.759505,2.09415 -8.319966,-2.8851 -7.814165,-20.040161 -0.229586,-26.645451 2.600209,-2.264336 5.597491,-0.64569 9.360411,-0.69881 0.56729,-0.008 0.59245,0.3555 0.64527,0.9259 z" /><path
     id="path1143330-7-5"
     style="display:inline;fill:#eaecc2;fill-opacity:1;fill-rule:nonzero;stroke:none;stroke-width:0.306513"
     d="m 105.22781,40.725689 c 0.11153,3.10203 -1.30406,4.80196 -3.07774,4.55541 -1.87996,-0.26117 -2.986602,-6.06225 -0.0215,-7.37908 2.27583,-1.01091 3.04358,1.28113 3.09928,2.82367" /><path
     id="path1143334-5-3"
     style="display:inline;fill:#a78b78;fill-opacity:1;fill-rule:nonzero;stroke:none;stroke-width:0.306513"
     d="m 102.65145,42.979143 c -0.10066,0.0802 -0.20226,0.0588 -0.2622,-0.0556 -0.174,-0.33083 -0.22351,-0.86731 -0.10256,-1.44331 0.12077,-0.57577 0.38183,-1.04738 0.67414,-1.2803 0.10086,-0.0805 0.20224,-0.0592 0.2623,0.0546 0.17381,0.33105 0.22354,0.86772 0.10278,1.44349 -0.12092,0.57602 -0.38224,1.04741 -0.67433,1.28054" /></svg>
