<?xml version="1.0" encoding="UTF-8" standalone="no"?>
<!-- Created with Inkscape (http://www.inkscape.org/) -->

<svg
   width="164.23331mm"
   height="164.76247mm"
   viewBox="0 0 164.23331 164.76247"
   version="1.1"
   id="svg392"
   xml:space="preserve"
   xmlns="http://www.w3.org/2000/svg"
   xmlns:svg="http://www.w3.org/2000/svg"><defs
     id="defs389"><style
       id="style6869">.cls-1{fill:#ffe8c2;}.cls-2{fill:none;stroke:#e5af6e;stroke-miterlimit:10;stroke-width:25.51px;}.cls-3{opacity:0.05;}.cls-4{fill:#534741;}</style></defs><path
     id="path1143322-5"
     style="display:inline;fill:#f53f64;fill-opacity:1;fill-rule:nonzero;stroke:none;stroke-width:0.306513"
     d="m 131.40443,63.132101 c 0.61448,-0.178151 1.26407,0.139631 1.49995,0.734205 1.65884,4.173914 5.25873,6.670638 4.58092,11.924164 -1.281,9.928213 -20.51194,12.984147 -29.46755,5.907622 -3.07,-2.425793 -1.9105,-5.598749 -2.78202,-9.793261 -0.13169,-0.632095 0.25204,-1.258476 0.87213,-1.438327 z M 59.763187,120.60302 c -0.01058,0.60191 -0.476746,1.09758 -1.076802,1.14444 -4.213195,0.33155 -7.457944,2.87409 -11.992459,0.80506 -8.569399,-3.91015 -5.973337,-22.04758 2.87667,-28.132348 3.03375,-2.085877 5.564025,-0.161897 9.576986,0.220053 0.604835,0.05724 1.061323,0.576251 1.050715,1.183671 z m 46.573473,-18.17436 c 0.41502,-0.43608 1.09365,-0.48569 1.56722,-0.11421 3.32683,2.60637 7.4364,2.92939 9.37567,7.5209 3.66485,8.67714 -10.51807,20.27675 -21.151785,18.7698 -3.645232,-0.51654 -4.20677,-3.64523 -6.903414,-6.64153 -0.406663,-0.45136 -0.391661,-1.1424 0.02714,-1.58251 z M 81.385986,65.687485 c 0.415026,-0.436078 1.093653,-0.485685 1.567223,-0.114211 3.326831,2.606372 7.436403,2.929394 9.375675,7.520901 3.664844,8.677141 -10.51807,20.276756 -21.151789,18.769802 -3.645232,-0.51654 -4.20677,-3.645227 -6.903414,-6.641531 -0.406662,-0.451364 -0.39166,-1.142398 0.02714,-1.582513 z M 58.638139,29.758637 c 0.415026,-0.436078 1.093653,-0.485685 1.567223,-0.114211 3.326832,2.606373 7.436404,2.929394 9.375675,7.520901 3.664845,8.677141 -10.51807,20.276754 -21.151789,18.769805 -3.645231,-0.516544 -4.20677,-3.645229 -6.903413,-6.641534 -0.406663,-0.451363 -0.391661,-1.142397 0.02714,-1.582513 z" /><path
     id="path1143326-4"
     style="display:inline;fill:#feffdd;fill-opacity:1;fill-rule:nonzero;stroke:none;stroke-width:0.306513"
     d="m 130.69542,63.337835 c 0.57907,-0.167932 0.92905,-0.596489 1.14993,-0.04189 1.55206,3.895202 5.10896,7.96427 4.54627,11.852154 -1.34072,9.262152 -19.34578,12.178202 -27.76189,5.588743 -2.88512,-2.259085 -1.79756,-5.712081 -2.60842,-9.628514 -0.12229,-0.59042 0.25209,-0.689664 0.83677,-0.859295 z M 59.775233,119.90846 c -0.0099,0.56724 0.278099,1.00094 -0.281848,1.04541 -3.932969,0.313 -8.579286,2.38001 -11.918097,0.79392 -7.954026,-3.77877 -5.572821,-20.77529 2.689419,-26.510373 2.832516,-1.966004 5.634532,-0.02889 9.380649,0.330336 0.564755,0.05412 0.549953,0.418252 0.539997,0.991 z m 46.082637,-16.97649 c 0.39109,-0.41099 0.47242,-0.92522 0.91484,-0.57913 3.10792,2.43044 7.92785,4.05189 9.31338,7.47879 3.30058,8.16406 -9.95221,19.06889 -19.916531,17.70211 -3.415943,-0.46867 -4.168697,-3.79088 -6.68422,-6.58991 -0.379261,-0.42195 -0.121998,-0.68007 0.272837,-1.0951 z M 80.907199,66.190792 c 0.391089,-0.410986 0.472418,-0.925223 0.91484,-0.57913 3.107917,2.430442 7.927853,4.05189 9.313378,7.478793 3.30058,8.164057 -9.952207,19.068885 -19.916529,17.702107 -3.415944,-0.468669 -4.168697,-3.790878 -6.684222,-6.58991 -0.379259,-0.421945 -0.121994,-0.680073 0.272839,-1.095097 z M 58.159353,30.261944 c 0.391088,-0.410986 0.472417,-0.925223 0.914839,-0.57913 3.107918,2.430442 7.927854,4.051891 9.313378,7.478793 3.30058,8.164058 -9.952206,19.068888 -19.916529,17.702107 -3.415943,-0.468669 -4.168697,-3.790878 -6.684222,-6.58991 -0.379258,-0.421945 -0.121994,-0.680073 0.272839,-1.095097 z" /><path
     id="path1143330-7"
     style="display:inline;fill:#eaecc2;fill-opacity:1;fill-rule:nonzero;stroke:none;stroke-width:0.306513"
     d="m 119.17769,67.826527 c 3.21499,-0.739134 5.27326,0.396948 5.37204,2.297509 0.10477,2.014406 -5.72718,4.333915 -7.69671,1.503848 -1.5119,-2.172177 0.72601,-3.433556 2.32467,-3.801357 M 58.940154,108.30701 c -0.22881,3.09559 -1.822022,4.63029 -3.558045,4.19102 -1.840034,-0.46551 -2.304836,-6.35282 0.786587,-7.33707 2.372836,-0.75564 2.884996,1.60669 2.771458,3.14605 m 39.683466,3.73301 c 2.26287,-2.12473 4.47441,-2.17693 5.45559,-0.67892 1.04001,1.5877 -2.6009,6.23747 -5.543267,4.87069 -2.258549,-1.04895 -1.037415,-3.13503 0.08768,-4.19177 M 73.67295,75.298848 c 2.262872,-2.124726 4.474409,-2.176928 5.455585,-0.67892 1.040013,1.587705 -2.600894,6.23747 -5.543258,4.87069 -2.258555,-1.048952 -1.037423,-3.13503 0.08767,-4.19177 M 50.925103,39.370001 c 2.262872,-2.124726 4.47441,-2.176928 5.455585,-0.678921 1.040014,1.587705 -2.600893,6.237471 -5.543258,4.87069 -2.258555,-1.048952 -1.037422,-3.13503 0.08767,-4.191769" /><path
     id="path1143334-5"
     style="display:inline;fill:#a78b78;fill-opacity:1;fill-rule:nonzero;stroke:none;stroke-width:0.306513"
     d="m 121.45774,69.582345 c 0.10389,0.08897 0.102,0.199284 -0.005,0.284837 -0.31033,0.248009 -0.86028,0.407376 -1.48569,0.396778 -0.62514,-0.01044 -1.16973,-0.188226 -1.4715,-0.446526 -0.10415,-0.08912 -0.10242,-0.199174 0.005,-0.284727 0.3106,-0.247854 0.8607,-0.407487 1.48584,-0.397043 0.62541,0.0106 1.16985,0.188646 1.47177,0.446681 M 56.728188,109.86889 c -0.108845,0.0687 -0.207495,0.0363 -0.254671,-0.0836 -0.136731,-0.34789 -0.127197,-0.88657 0.0561,-1.44586 0.183084,-0.55909 0.494221,-0.99927 0.810276,-1.19879 0.109058,-0.0689 0.207512,-0.0367 0.254688,0.0832 0.136519,0.34809 0.12718,0.88698 -0.0559,1.44607 -0.183296,0.55929 -0.494628,0.99926 -0.810488,1.19899 m 44.580997,2.51753 c 0.12661,0.0231 0.17737,0.11363 0.13094,0.2339 -0.13469,0.34869 -0.50616,0.73891 -1.01954,1.02675 -0.513079,0.28783 -1.040006,0.40146 -1.407731,0.33455 -0.1269,-0.0231 -0.177661,-0.11334 -0.131227,-0.23361 0.134977,-0.34869 0.506451,-0.7392 1.019534,-1.02703 0.513374,-0.28784 1.040304,-0.40118 1.408024,-0.33456 M 76.358516,75.64526 c 0.126613,0.02307 0.177375,0.113633 0.130938,0.233901 -0.13469,0.348689 -0.506158,0.73891 -1.019534,1.026745 -0.513083,0.287834 -1.040006,0.401468 -1.407737,0.334557 -0.126899,-0.02307 -0.177661,-0.113346 -0.131224,-0.233613 0.134976,-0.34869 0.506452,-0.739199 1.019534,-1.027033 0.513369,-0.287835 1.0403,-0.401181 1.408023,-0.334557 M 53.61067,39.716412 c 0.126613,0.02307 0.177374,0.113634 0.130937,0.233902 -0.13469,0.348689 -0.506157,0.738909 -1.019534,1.026744 -0.513082,0.287834 -1.040006,0.401468 -1.407737,0.334557 -0.126899,-0.02307 -0.17766,-0.113346 -0.131224,-0.233613 0.134977,-0.34869 0.506452,-0.739199 1.019534,-1.027033 0.513369,-0.287834 1.0403,-0.40118 1.408024,-0.334557" /></svg>
