<?xml version="1.0" encoding="UTF-8" standalone="no"?>
<!-- Created with Inkscape (http://www.inkscape.org/) -->

<svg
   width="164.23331mm"
   height="164.76247mm"
   viewBox="0 0 164.23331 164.76247"
   version="1.1"
   id="svg392"
   xml:space="preserve"
   xmlns="http://www.w3.org/2000/svg"
   xmlns:svg="http://www.w3.org/2000/svg"><defs
     id="defs389"><style
       id="style6869">.cls-1{fill:#ffe8c2;}.cls-2{fill:none;stroke:#e5af6e;stroke-miterlimit:10;stroke-width:25.51px;}.cls-3{opacity:0.05;}.cls-4{fill:#534741;}</style></defs><path
     id="path86140-7-37-8"
     style="display:inline;opacity:0.510638;fill:#333333;fill-opacity:1;stroke-width:7.95856;stop-color:#000000"
     d="m 30.524313,39.39259 c -0.636545,-2.072979 0.697146,-4.233651 2.880095,-4.799363 2.182949,-0.565713 4.432746,0.665835 5.025062,2.750737 0.592316,2.084903 -0.591114,4.648909 -2.848091,4.791069 -3.01136,0.189677 -4.597743,-1.246611 -5.057066,-2.742443 z m 6.3138,85.08599 c -0.636545,-2.07298 0.697146,-4.23365 2.880095,-4.79937 2.182949,-0.56571 4.432746,0.66584 5.025062,2.75074 0.592316,2.0849 -0.591114,4.64891 -2.848091,4.79107 -3.01136,0.18968 -4.597743,-1.24661 -5.057066,-2.74244 z m 57.12486,12.32694 c -0.636545,-2.07298 0.697146,-4.23365 2.880095,-4.79937 2.182949,-0.56571 4.432742,0.66584 5.025062,2.75074 0.59232,2.0849 -0.59111,4.64891 -2.848091,4.79107 -3.01136,0.18968 -4.597743,-1.24661 -5.057066,-2.74244 z M 76.224203,54.124791 c -0.636545,-2.072979 0.697146,-4.233651 2.880095,-4.799363 2.182949,-0.565713 4.432746,0.665835 5.025062,2.750737 0.592316,2.084903 -0.591114,4.648909 -2.848091,4.791069 -3.01136,0.189677 -4.597743,-1.246611 -5.057066,-2.742443 z m 31.857337,-9.878899 c -0.63654,-2.072979 0.69715,-4.233651 2.8801,-4.799363 2.18295,-0.565713 4.43274,0.665835 5.02506,2.750737 0.59232,2.084903 -0.59111,4.648909 -2.84809,4.791069 -3.01136,0.189677 -4.59774,-1.246611 -5.05707,-2.742443 z M 58.542889,73.117228 c 0.05208,2.562843 -2.078023,4.641396 -4.641395,4.641396 -2.563372,0 -4.641396,-2.078024 -4.641396,-4.641396 0,-2.563372 2.091084,-5.148408 4.603814,-4.641395 3.352596,0.676479 4.641395,2.792084 4.678977,4.641395 z M 113.2625,70.71197 c 0.0521,2.562843 -2.07803,4.641396 -4.6414,4.641396 -2.56337,0 -4.6414,-2.078024 -4.6414,-4.641396 0,-2.563372 2.09109,-5.148408 4.60382,-4.641395 3.3526,0.676479 4.64139,2.792084 4.67898,4.641395 z m 23.45126,-22.24863 c 0.0521,2.562843 -2.07803,4.641396 -4.6414,4.641396 -2.56337,0 -4.6414,-2.078024 -4.6414,-4.641396 0,-2.563372 2.09109,-5.148408 4.60382,-4.641396 3.35259,0.676479 4.64139,2.792085 4.67898,4.641396 z m -34.87613,65.22107 c 0.0459,2.40872 -1.82944,4.36228 -4.086184,4.36228 -2.25674,0 -4.086189,-1.95306 -4.086189,-4.36228 0,-2.40922 1.840947,-4.8388 4.053103,-4.36228 2.95156,0.6358 4.08619,2.62418 4.11927,4.36228 z M 63.052859,96.246291 c 0.04585,2.408722 -1.829449,4.362279 -4.086189,4.362279 -2.25674,0 -4.086189,-1.953059 -4.086189,-4.362279 0,-2.40922 1.840947,-4.838802 4.053103,-4.362279 2.951556,0.635798 4.086188,2.624179 4.119275,4.362279 z M 93.419234,32.807626 c 0.04585,2.408723 -1.829448,4.362279 -4.086188,4.362279 -2.25674,0 -4.08619,-1.953059 -4.08619,-4.362279 0,-2.40922 1.840948,-4.838801 4.053103,-4.362278 2.951557,0.635798 4.086189,2.624178 4.119275,4.362278 z M 81.045433,20.551944 c 0.05208,2.562843 -2.078023,4.641396 -4.641395,4.641396 -2.563372,0 -4.641396,-2.078024 -4.641396,-4.641396 0,-2.563372 2.091084,-5.148408 4.603814,-4.641395 3.352596,0.676479 4.641395,2.792084 4.678977,4.641395 z" /><path
     id="path86140-0-4"
     style="display:inline;fill:#442178;stroke-width:7.95856;stop-color:#000000"
     d="m 31.330714,39.753127 c -0.636545,-2.072979 0.697146,-4.233651 2.880095,-4.799364 2.182949,-0.565712 4.432746,0.665835 5.025062,2.750738 0.592316,2.084903 -0.591114,4.648909 -2.848092,4.791069 -3.011359,0.189677 -4.597742,-1.246612 -5.057065,-2.742443 z m 6.3138,85.085993 c -0.636545,-2.07298 0.697146,-4.23366 2.880095,-4.79937 2.182949,-0.56571 4.432746,0.66584 5.025062,2.75074 0.592316,2.0849 -0.591114,4.64891 -2.848092,4.79107 -3.011359,0.18968 -4.597742,-1.24661 -5.057065,-2.74244 z m 57.124858,12.32694 c -0.636545,-2.07298 0.697146,-4.23366 2.880095,-4.79937 2.182949,-0.56571 4.432743,0.66584 5.025063,2.75074 0.59232,2.0849 -0.59111,4.64891 -2.848093,4.79107 -3.011359,0.18968 -4.597742,-1.24661 -5.057065,-2.74244 z M 77.030602,54.485326 c -0.636545,-2.072979 0.697146,-4.233651 2.880095,-4.799364 2.182949,-0.565712 4.432746,0.665835 5.025062,2.750738 0.592316,2.084903 -0.591114,4.648909 -2.848092,4.791069 -3.011359,0.189677 -4.597742,-1.246612 -5.057065,-2.742443 z m 31.857338,-9.878897 c -0.63654,-2.072979 0.69715,-4.233651 2.8801,-4.799364 2.18295,-0.565712 4.43274,0.665835 5.02506,2.750738 0.59232,2.084903 -0.59111,4.648909 -2.84809,4.791069 -3.01136,0.189677 -4.59775,-1.246612 -5.05707,-2.742443 z M 57.772922,72.46503 c 0.05208,2.562843 -2.078023,4.641396 -4.641395,4.641396 -2.563372,0 -4.641396,-2.078024 -4.641396,-4.641396 0,-2.563372 2.091084,-5.148408 4.603814,-4.641395 3.352596,0.676479 4.641395,2.792084 4.678977,4.641395 z m 54.719608,-2.405258 c 0.0521,2.562843 -2.07802,4.641396 -4.6414,4.641396 -2.56337,0 -4.64139,-2.078024 -4.64139,-4.641396 0,-2.563372 2.09108,-5.148408 4.60381,-4.641395 3.3526,0.676479 4.6414,2.792084 4.67898,4.641395 z m 23.45126,-22.24863 c 0.0521,2.562843 -2.07802,4.641396 -4.6414,4.641396 -2.56337,0 -4.64139,-2.078024 -4.64139,-4.641396 0,-2.563372 2.09108,-5.148408 4.60381,-4.641395 3.3526,0.676479 4.6414,2.792084 4.67898,4.641395 z m -34.78402,65.260288 c 0.0459,2.40872 -1.829447,4.36228 -4.086187,4.36228 -2.25674,0 -4.086189,-1.95306 -4.086189,-4.36228 0,-2.40922 1.840947,-4.8388 4.053103,-4.36228 2.951556,0.6358 4.086193,2.62418 4.119273,4.36228 z M 62.374996,95.633314 c 0.04585,2.408722 -1.829449,4.362279 -4.086189,4.362279 -2.25674,0 -4.086189,-1.953059 -4.086189,-4.362279 0,-2.40922 1.840947,-4.838802 4.053103,-4.362279 2.951556,0.635798 4.086189,2.624179 4.119275,4.362279 z M 92.741371,32.194649 c 0.04585,2.408722 -1.829449,4.362279 -4.086189,4.362279 -2.25674,0 -4.086189,-1.953059 -4.086189,-4.362279 0,-2.40922 1.840947,-4.838802 4.053103,-4.362279 2.951556,0.635798 4.086189,2.624179 4.119275,4.362279 z M 80.274996,19.931838 c 0.240011,2.647403 -3.255783,6.378056 -7.425792,3.690933 6.314639,2.15239 7.966374,-5.060825 4.926584,-7.561894 1.46409,0.901972 2.332202,2.028823 2.499208,3.870961 z m 4.7e-4,-0.03209 c 0.05208,2.562843 -2.078023,4.641396 -4.641395,4.641396 -2.563372,0 -4.641396,-2.078024 -4.641396,-4.641396 0,-2.563372 2.091084,-5.148408 4.603814,-4.641395 3.352596,0.676479 4.641395,2.792084 4.678977,4.641395 z" /><path
     id="path86140-1-3-4"
     style="display:inline;opacity:0.468085;fill:#1a1a1a;fill-opacity:1;stroke-width:7.95856;stop-color:#000000"
     d="m 31.323699,39.726921 c -0.816125,-2.10028 1.298829,-5.906073 5.47089,-4.640801 -5.874852,-0.35705 -5.614706,5.874296 -2.448123,7.237672 -1.455227,-0.410503 -2.454885,-1.135436 -3.022767,-2.596871 z m 6.3138,85.085989 c -0.816125,-2.10028 1.298829,-5.90608 5.47089,-4.6408 -5.874852,-0.35705 -5.614706,5.87429 -2.448123,7.23767 -1.455227,-0.4105 -2.454885,-1.13544 -3.022767,-2.59687 z m 57.12486,12.32694 c -0.816125,-2.10028 1.298829,-5.90608 5.470891,-4.6408 -5.874853,-0.35705 -5.614707,5.87429 -2.448124,7.23767 -1.455227,-0.4105 -2.454885,-1.13544 -3.022767,-2.59687 z M 77.023589,54.459122 c -0.816125,-2.10028 1.298829,-5.906073 5.47089,-4.640801 -5.874852,-0.35705 -5.614706,5.874296 -2.448123,7.237672 -1.455227,-0.410503 -2.454885,-1.135436 -3.022767,-2.596871 z m 31.857341,-9.878899 c -0.81613,-2.10028 1.29883,-5.906073 5.47089,-4.640801 -5.87485,-0.35705 -5.61471,5.874296 -2.44812,7.237672 -1.45523,-0.410503 -2.45489,-1.135436 -3.02277,-2.596871 z M 57.772452,72.497122 c 0.240011,2.647403 -3.255783,6.378056 -7.425792,3.690933 6.314639,2.15239 7.966374,-5.060825 4.926584,-7.561894 1.46409,0.901972 2.332202,2.028823 2.499208,3.870961 z m 54.719608,-2.405258 c 0.24001,2.647403 -3.25578,6.378056 -7.42579,3.690933 6.31464,2.15239 7.96637,-5.060825 4.92658,-7.561894 1.46409,0.901972 2.3322,2.028823 2.49921,3.870961 z m 23.45126,-22.24863 c 0.24001,2.647402 -3.25578,6.378056 -7.42579,3.690933 6.31464,2.15239 7.96637,-5.060825 4.92658,-7.561894 1.46409,0.901972 2.3322,2.028823 2.49921,3.870961 z m -34.78396,65.258356 c 0.2113,2.4882 -2.866326,5.9945 -6.537516,3.46898 5.559276,2.02295 7.013436,-4.75649 4.337263,-7.10715 1.288953,0.84773 2.053223,1.90681 2.200253,3.63817 z M 62.374582,95.663476 c 0.211301,2.488197 -2.866324,5.994504 -6.537514,3.468973 5.559278,2.022951 7.013431,-4.756485 4.337263,-7.107149 1.288954,0.847731 2.053222,1.906817 2.200251,3.638176 z M 92.740957,32.224811 c 0.211301,2.488197 -2.866324,5.994502 -6.537514,3.468973 5.559278,2.022953 7.013432,-4.756485 4.337263,-7.107149 1.288955,0.847731 2.053223,1.906817 2.200251,3.638176 z" /><path
     id="path90966-6-8"
     style="display:inline;fill:#000900;fill-opacity:1;stroke-width:7.16734;stop-color:#000000"
     d="m 32.716553,36.976777 c 0.141843,-0.226531 0.519935,0.05617 0.780246,-0.04515 0.322221,-0.125419 0.119445,-0.612449 0.565008,-0.776899 0.25876,-0.0955 0.171068,0.51635 0.425989,0.612104 0.283412,0.106456 0.63819,-0.484924 0.858828,-0.205171 0.236818,0.300267 -0.527536,0.723103 -0.485945,0.850869 0.09843,0.302383 0.772056,0.37997 0.675768,0.667304 -0.336871,0.41742 -0.802015,-0.01922 -1.010384,0.307424 -0.198603,0.346091 0.258307,0.484358 -0.02154,0.643265 -0.454309,0.153685 -0.303597,-0.29485 -0.561234,-0.275683 -0.195522,0.01454 -0.310333,0.306232 -0.621599,0.291995 -0.290204,-0.08606 0.0077,-0.537794 -0.151547,-0.688712 -0.0985,-0.09337 -0.565668,0.07401 -0.651625,-0.140443 -0.100153,-0.249868 0.433949,-0.28365 0.492812,-0.54713 0.07644,-0.342139 -0.434092,-0.471281 -0.294777,-0.693771 z m 6.3138,85.085983 c 0.141843,-0.22653 0.519935,0.0562 0.780246,-0.0451 0.322221,-0.12542 0.119445,-0.61245 0.565008,-0.7769 0.25876,-0.0955 0.171068,0.51635 0.425989,0.6121 0.283412,0.10646 0.63819,-0.48492 0.858828,-0.20517 0.236818,0.30027 -0.527536,0.7231 -0.485945,0.85087 0.09843,0.30238 0.772056,0.37997 0.675768,0.6673 -0.336871,0.41742 -0.802015,-0.0192 -1.010384,0.30743 -0.198603,0.34609 0.258307,0.48436 -0.02154,0.64326 -0.454309,0.15369 -0.303597,-0.29485 -0.561234,-0.27568 -0.195522,0.0145 -0.310333,0.30623 -0.621599,0.29199 -0.290204,-0.0861 0.0077,-0.53779 -0.151547,-0.68871 -0.0985,-0.0934 -0.565668,0.074 -0.651625,-0.14044 -0.100153,-0.24987 0.433949,-0.28365 0.492812,-0.54713 0.07644,-0.34214 -0.434092,-0.47128 -0.294777,-0.69377 z m 57.12486,12.32694 c 0.141843,-0.22653 0.519935,0.0562 0.780246,-0.0451 0.322221,-0.12542 0.119445,-0.61245 0.565008,-0.7769 0.25876,-0.0955 0.171068,0.51635 0.425989,0.6121 0.283412,0.10646 0.63819,-0.48492 0.858828,-0.20517 0.236818,0.30027 -0.527536,0.7231 -0.485945,0.85087 0.09843,0.30238 0.772056,0.37997 0.675768,0.6673 -0.336871,0.41742 -0.802015,-0.0192 -1.010384,0.30743 -0.198603,0.34609 0.258307,0.48436 -0.02154,0.64326 -0.454309,0.15369 -0.303597,-0.29485 -0.561234,-0.27568 -0.195522,0.0145 -0.310333,0.30623 -0.621599,0.29199 -0.290204,-0.0861 0.0077,-0.53779 -0.151547,-0.68871 -0.0985,-0.0934 -0.565668,0.074 -0.651625,-0.14044 -0.100153,-0.24987 0.433949,-0.28365 0.492812,-0.54713 0.07644,-0.34214 -0.434092,-0.47128 -0.294777,-0.69377 z M 78.416443,51.708978 c 0.141843,-0.226531 0.519935,0.05617 0.780246,-0.04515 0.322221,-0.125419 0.119445,-0.612449 0.565008,-0.776899 0.25876,-0.0955 0.171068,0.51635 0.425989,0.612104 0.283412,0.106456 0.63819,-0.484924 0.858828,-0.205171 0.236818,0.300267 -0.527536,0.723103 -0.485945,0.850869 0.09843,0.302383 0.772056,0.37997 0.675768,0.667304 -0.336871,0.41742 -0.802015,-0.01922 -1.010384,0.307424 -0.198603,0.346091 0.258307,0.484358 -0.02154,0.643265 -0.454309,0.153685 -0.303597,-0.29485 -0.561234,-0.275683 -0.195522,0.01454 -0.310333,0.306232 -0.621599,0.291995 -0.290204,-0.08606 0.0077,-0.537794 -0.151547,-0.688712 -0.0985,-0.09337 -0.565668,0.07401 -0.651625,-0.140443 -0.100153,-0.249868 0.433949,-0.28365 0.492812,-0.54713 0.07644,-0.342139 -0.434092,-0.471281 -0.294777,-0.693771 z m 31.857337,-9.878899 c 0.14185,-0.226531 0.51994,0.05617 0.78025,-0.04515 0.32222,-0.125419 0.11944,-0.612449 0.56501,-0.776899 0.25876,-0.0955 0.17107,0.51635 0.42599,0.612104 0.28341,0.106456 0.63819,-0.484924 0.85882,-0.205171 0.23682,0.300267 -0.52753,0.723103 -0.48594,0.850869 0.0984,0.302383 0.77206,0.37997 0.67577,0.667304 -0.33687,0.41742 -0.80202,-0.01922 -1.01039,0.307424 -0.1986,0.346091 0.25831,0.484358 -0.0215,0.643265 -0.45431,0.153685 -0.30359,-0.29485 -0.56123,-0.275683 -0.19552,0.01455 -0.31034,0.306232 -0.6216,0.291995 -0.2902,-0.08606 0.008,-0.537794 -0.15155,-0.688712 -0.0985,-0.09337 -0.56567,0.07401 -0.65162,-0.140443 -0.10016,-0.249868 0.43395,-0.28365 0.49281,-0.54713 0.0764,-0.342139 -0.43409,-0.471281 -0.29478,-0.693771 z M 55.394473,75.233168 c -0.225531,0.217324 -0.551222,-0.218628 -0.867418,-0.179856 -0.391399,0.048 -0.320949,0.665916 -0.85938,0.722009 -0.312692,0.03257 -0.02666,-0.642082 -0.275725,-0.827391 -0.276901,-0.206021 -0.848697,0.365927 -1.003091,-0.01992 -0.165716,-0.414142 0.80168,-0.671524 0.795891,-0.830182 -0.0137,-0.375495 -0.726364,-0.66426 -0.531766,-0.964734 0.498156,-0.378046 0.871226,0.260032 1.200628,-0.0522 0.324762,-0.337396 -0.132018,-0.631335 0.223442,-0.730261 0.544652,-0.04117 0.240438,0.427756 0.528183,0.482266 0.218371,0.04137 0.434581,-0.258592 0.770602,-0.149912 0.290669,0.184675 -0.175499,0.613594 -0.04825,0.833674 0.07872,0.136161 0.641694,0.08312 0.669072,0.354218 0.0319,0.315867 -0.562768,0.196046 -0.709021,0.480308 -0.189916,0.369126 0.328345,0.668529 0.106836,0.881975 z M 110.11408,72.82791 c -0.22553,0.217324 -0.55122,-0.218628 -0.86742,-0.179856 -0.3914,0.048 -0.32095,0.665916 -0.85938,0.722009 -0.31269,0.03257 -0.0267,-0.642082 -0.27572,-0.827391 -0.2769,-0.206021 -0.8487,0.365927 -1.00309,-0.01992 -0.16572,-0.414142 0.80168,-0.671524 0.79589,-0.830182 -0.0137,-0.375495 -0.72637,-0.66426 -0.53177,-0.964734 0.49816,-0.378046 0.87123,0.260032 1.20063,-0.0522 0.32476,-0.337396 -0.13202,-0.631335 0.22344,-0.730261 0.54465,-0.04117 0.24044,0.427756 0.52818,0.482266 0.21838,0.04137 0.43458,-0.258592 0.77061,-0.149912 0.29066,0.184675 -0.1755,0.613594 -0.0482,0.833674 0.0787,0.136161 0.64169,0.08312 0.66907,0.354218 0.0319,0.315867 -0.56277,0.196046 -0.70902,0.480308 -0.18992,0.369126 0.32834,0.668529 0.10683,0.881975 z m 23.45126,-22.24863 c -0.22553,0.217324 -0.55122,-0.218628 -0.86742,-0.179856 -0.3914,0.048 -0.32095,0.665916 -0.85938,0.722009 -0.31269,0.03257 -0.0267,-0.642082 -0.27572,-0.827391 -0.2769,-0.206021 -0.8487,0.365927 -1.00309,-0.01992 -0.16572,-0.414142 0.80168,-0.671524 0.79589,-0.830182 -0.0137,-0.375495 -0.72637,-0.66426 -0.53177,-0.964734 0.49816,-0.378046 0.87123,0.260032 1.20063,-0.0522 0.32476,-0.337396 -0.13202,-0.631335 0.22344,-0.730261 0.54465,-0.04117 0.24044,0.427756 0.52818,0.482266 0.21837,0.04137 0.43458,-0.258592 0.77061,-0.149912 0.29066,0.184675 -0.1755,0.613594 -0.0482,0.833674 0.0787,0.136161 0.64169,0.08312 0.66907,0.354218 0.0319,0.315867 -0.56277,0.196046 -0.70902,0.480308 -0.18992,0.369126 0.32834,0.668529 0.10683,0.881975 z M 99.065834,115.6731 c -0.198553,0.20426 -0.485284,-0.20548 -0.763657,-0.16904 -0.344579,0.0451 -0.282557,0.62587 -0.75658,0.67859 -0.275288,0.0306 -0.02347,-0.60347 -0.242743,-0.77763 -0.243778,-0.19363 -0.747175,0.34392 -0.8831,-0.0187 -0.145893,-0.38923 0.705782,-0.63114 0.700686,-0.78025 -0.01206,-0.35292 -0.639476,-0.62432 -0.468156,-0.90672 0.438566,-0.35531 0.767009,0.24439 1.057008,-0.0491 0.285914,-0.31711 -0.116226,-0.59337 0.196714,-0.68635 0.4795,-0.0387 0.211676,0.40203 0.465001,0.45327 0.192249,0.0389 0.382596,-0.24305 0.678422,-0.1409 0.255899,0.17357 -0.154505,0.57669 -0.04248,0.78354 0.0693,0.12797 0.564934,0.0781 0.589037,0.33292 0.02808,0.29687 -0.495449,0.18425 -0.624207,0.45142 -0.167198,0.34693 0.289068,0.62833 0.09406,0.82894 z M 60.281058,98.234986 c -0.198553,0.204254 -0.485284,-0.205481 -0.763657,-0.169041 -0.344579,0.04511 -0.282557,0.625871 -0.75658,0.67859 -0.275288,0.03061 -0.02347,-0.603469 -0.242743,-0.777634 -0.243778,-0.193632 -0.747175,0.343921 -0.8831,-0.01872 -0.145893,-0.389237 0.705782,-0.631141 0.700686,-0.780258 -0.01206,-0.352914 -0.639476,-0.624314 -0.468156,-0.906719 0.438566,-0.355311 0.767009,0.244395 1.057008,-0.04906 0.285914,-0.317107 -0.116226,-0.593369 0.196714,-0.686346 0.4795,-0.03869 0.211676,0.402032 0.465001,0.453264 0.192249,0.03888 0.382596,-0.243041 0.678422,-0.140897 0.255899,0.17357 -0.154505,0.576695 -0.04248,0.78354 0.0693,0.127973 0.564934,0.07812 0.589037,0.332917 0.02808,0.296872 -0.495449,0.184256 -0.624207,0.451424 -0.167198,0.346928 0.289068,0.628326 0.09406,0.828936 z M 90.647434,34.796321 c -0.198553,0.204255 -0.485285,-0.205481 -0.763657,-0.16904 -0.34458,0.04511 -0.282557,0.62587 -0.756581,0.67859 -0.275287,0.03061 -0.02347,-0.60347 -0.242742,-0.777635 -0.243778,-0.193632 -0.747176,0.343921 -0.883101,-0.01872 -0.145893,-0.389237 0.705783,-0.631141 0.700686,-0.780258 -0.01206,-0.352914 -0.639476,-0.624314 -0.468156,-0.906718 0.438566,-0.355312 0.76701,0.244394 1.057008,-0.04906 0.285914,-0.317106 -0.116226,-0.593369 0.196714,-0.686346 0.4795,-0.03869 0.211677,0.402032 0.465002,0.453264 0.192249,0.03888 0.382596,-0.243041 0.678422,-0.140897 0.255899,0.17357 -0.154506,0.576695 -0.04248,0.78354 0.0693,0.127973 0.564935,0.07812 0.589038,0.332917 0.02808,0.296872 -0.49545,0.184256 -0.624208,0.451424 -0.167198,0.346928 0.289068,0.628326 0.09406,0.828936 z M 77.897017,22.667884 c -0.225531,0.217324 -0.551222,-0.218628 -0.867418,-0.179856 -0.391399,0.048 -0.320949,0.665916 -0.85938,0.722009 -0.312692,0.03257 -0.02666,-0.642082 -0.275725,-0.827391 -0.276901,-0.206021 -0.848697,0.365927 -1.003091,-0.01992 -0.165716,-0.414142 0.80168,-0.671524 0.795891,-0.830182 -0.0137,-0.375495 -0.726364,-0.66426 -0.531766,-0.964734 0.498156,-0.378046 0.871226,0.260032 1.200628,-0.0522 0.324762,-0.337396 -0.132018,-0.631335 0.223442,-0.730261 0.544652,-0.04117 0.240438,0.427756 0.528183,0.482266 0.218371,0.04137 0.434581,-0.258592 0.770602,-0.149912 0.290669,0.184675 -0.175499,0.613594 -0.04825,0.833674 0.07872,0.136161 0.641694,0.08312 0.669072,0.354218 0.0319,0.315867 -0.562768,0.196046 -0.709021,0.480308 -0.189916,0.369126 0.328345,0.668529 0.106836,0.881975 z" /><path
     id="path87891-3-0-9"
     style="display:inline;opacity:0.255319;fill:#cccccc;stroke-width:6.78683;stop-color:#000000"
     d="m 34.559351,41.589747 c -0.111779,-0.393452 0.191943,-0.727292 0.477793,-0.941688 0.52452,-0.393407 1.055718,-0.05913 1.859799,-0.698969 0.796245,-0.633602 0.368027,-1.419751 1.105607,-1.478069 1.102212,-0.08714 0.978274,1.451436 0.104392,2.357773 -0.873881,0.906338 -1.226091,1.242195 -2.446314,1.316144 -0.290404,0.0176 -0.989499,-0.161739 -1.101277,-0.555191 z m 2.632176,-4.126669 c -0.121101,-0.426265 0.03633,-0.764221 0.416356,-0.862706 0.380028,-0.09848 0.704212,0.09005 0.825313,0.516313 0.121102,0.426266 -0.02033,0.760075 -0.400354,0.85856 -0.380028,0.09848 -0.720215,-0.0859 -0.841315,-0.512167 z m 3.681624,89.212652 c -0.111779,-0.39345 0.191943,-0.72729 0.477793,-0.94169 0.52452,-0.3934 1.055718,-0.0591 1.859799,-0.69896 0.796245,-0.63361 0.368027,-1.41976 1.105607,-1.47807 1.102212,-0.0872 0.978274,1.45143 0.104392,2.35777 -0.873881,0.90634 -1.226091,1.24219 -2.446314,1.31614 -0.290404,0.0176 -0.989499,-0.16173 -1.101277,-0.55519 z m 2.632176,-4.12667 c -0.121101,-0.42626 0.03633,-0.76422 0.416356,-0.8627 0.380028,-0.0985 0.704212,0.0901 0.825313,0.51631 0.121102,0.42627 -0.02033,0.76008 -0.400354,0.85856 -0.380028,0.0985 -0.720215,-0.0859 -0.841315,-0.51217 z m 54.492684,16.45361 c -0.111779,-0.39345 0.191943,-0.72729 0.477793,-0.94169 0.52452,-0.3934 1.055718,-0.0591 1.859796,-0.69896 0.79625,-0.63361 0.36803,-1.41976 1.10561,-1.47807 1.10221,-0.0872 0.97827,1.45143 0.10439,2.35777 -0.87388,0.90634 -1.22609,1.24219 -2.446312,1.31614 -0.290404,0.0176 -0.989499,-0.16173 -1.101277,-0.55519 z m 2.632179,-4.12667 c -0.1211,-0.42626 0.0363,-0.76422 0.41635,-0.8627 0.38003,-0.0985 0.70421,0.0901 0.82532,0.51631 0.1211,0.42627 -0.0203,0.76008 -0.40036,0.85856 -0.38003,0.0985 -0.72021,-0.0859 -0.84131,-0.51217 z M 80.259241,56.321948 c -0.111779,-0.393452 0.191943,-0.727292 0.477793,-0.941688 0.52452,-0.393407 1.055718,-0.05913 1.859799,-0.698969 0.796245,-0.633602 0.368027,-1.419751 1.105607,-1.478069 1.102212,-0.08714 0.978274,1.451436 0.104392,2.357773 -0.873881,0.906338 -1.226091,1.242195 -2.446314,1.316144 -0.290404,0.0176 -0.989499,-0.161739 -1.101277,-0.555191 z m 2.632176,-4.126669 c -0.121101,-0.426265 0.03633,-0.764221 0.416356,-0.862706 0.380028,-0.09848 0.704212,0.09005 0.825313,0.516313 0.121102,0.426266 -0.02033,0.760075 -0.400354,0.85856 -0.380028,0.09848 -0.720215,-0.0859 -0.841315,-0.512167 z m 29.225163,-5.75223 c -0.11178,-0.393452 0.19194,-0.727292 0.47779,-0.941688 0.52452,-0.393407 1.05572,-0.05913 1.8598,-0.698969 0.79625,-0.633602 0.36803,-1.419751 1.10561,-1.478069 1.10221,-0.08714 0.97827,1.451436 0.10439,2.357773 -0.87388,0.906338 -1.22609,1.242195 -2.44631,1.316144 -0.29041,0.0176 -0.9895,-0.161739 -1.10128,-0.555191 z m 2.63218,-4.126669 c -0.1211,-0.426265 0.0363,-0.764221 0.41635,-0.862706 0.38003,-0.09848 0.70421,0.09005 0.82532,0.516313 0.1211,0.426266 -0.0203,0.760075 -0.40036,0.85856 -0.38003,0.09848 -0.72021,-0.0859 -0.84131,-0.512167 z M 54.812312,69.403595 c 0,0.483746 -0.435928,0.775916 -0.815194,0.936606 -0.695935,0.294857 -1.173059,-0.245597 -2.251336,0.248504 -1.067767,0.489284 -0.843687,1.51665 -1.668532,1.364539 -1.232616,-0.22731 -0.618976,-1.95248 0.618453,-2.731054 1.237429,-0.778574 1.727018,-1.058664 3.084608,-0.781219 0.323097,0.06603 1.032002,0.478878 1.032001,0.962624 z m -4.161208,3.944616 c 0,0.52409 -0.277201,0.864389 -0.723456,0.864389 -0.446255,0 -0.742247,-0.312112 -0.742247,-0.836202 -10e-7,-0.524091 0.25841,-0.86439 0.704665,-0.864391 0.446255,10e-7 0.761039,0.312114 0.761038,0.836204 z m 58.880816,-6.349874 c 0,0.483746 -0.43593,0.775916 -0.8152,0.936606 -0.69593,0.294857 -1.17305,-0.245597 -2.25133,0.248504 -1.06777,0.489284 -0.84369,1.51665 -1.66853,1.364539 -1.23262,-0.22731 -0.61898,-1.95248 0.61845,-2.731054 1.23743,-0.778574 1.72702,-1.058664 3.08461,-0.781219 0.3231,0.06603 1.032,0.478878 1.032,0.962624 z m -4.16121,3.944616 c 0,0.52409 -0.2772,0.864389 -0.72345,0.864389 -0.44626,0 -0.74225,-0.312112 -0.74225,-0.836202 0,-0.524091 0.25841,-0.86439 0.70466,-0.864391 0.44626,1e-6 0.76104,0.312114 0.76104,0.836204 z m 27.61247,-26.193246 c 0,0.483746 -0.43593,0.775916 -0.8152,0.936605 -0.69593,0.294857 -1.17305,-0.245596 -2.25133,0.248504 -1.06777,0.489284 -0.84369,1.51665 -1.66853,1.364539 -1.23262,-0.22731 -0.61898,-1.95248 0.61845,-2.731054 1.23743,-0.778574 1.72702,-1.058664 3.08461,-0.781219 0.3231,0.06603 1.032,0.478878 1.032,0.962625 z m -4.16121,3.944616 c 0,0.52409 -0.2772,0.864389 -0.72346,0.864389 -0.44625,0 -0.74224,-0.312112 -0.74224,-0.836202 0,-0.524091 0.25841,-0.86439 0.70466,-0.864391 0.44626,10e-7 0.76104,0.312114 0.76104,0.836204 z M 98.553312,110.1941 c 0,0.45465 -0.383782,0.72925 -0.71768,0.88028 -0.612687,0.27713 -1.032737,-0.23083 -1.98203,0.23356 -0.94004,0.45986 -0.742765,1.42544 -1.468941,1.28248 -1.08517,-0.21364 -0.544934,-1.83506 0.544473,-2.56682 1.089407,-0.73175 1.520431,-0.995 2.715625,-0.73424 0.284448,0.0621 0.908554,0.45008 0.908553,0.90474 z m -3.663442,3.7074 c 0,0.49257 -0.244042,0.81241 -0.636916,0.81241 -0.392874,0 -0.653459,-0.29335 -0.653459,-0.78592 -10e-7,-0.49257 0.227499,-0.81241 0.620373,-0.81241 0.392873,0 0.670003,0.29335 0.670002,0.78592 z M 59.768536,92.755982 c 0,0.454655 -0.383782,0.729255 -0.71768,0.880282 -0.612687,0.277125 -1.032737,-0.230828 -1.98203,0.23356 -0.94004,0.45986 -0.742765,1.425444 -1.468941,1.28248 -1.08517,-0.21364 -0.544934,-1.835064 0.544473,-2.566818 1.089407,-0.731753 1.520431,-0.995 2.715625,-0.734239 0.284448,0.06206 0.908554,0.45008 0.908553,0.904735 z m -3.663442,3.707401 c 0,0.492573 -0.244042,0.812408 -0.636916,0.812408 -0.392874,0 -0.653459,-0.293343 -0.653459,-0.785916 -10e-7,-0.492574 0.227499,-0.812409 0.620373,-0.81241 0.392873,10e-7 0.670003,0.293345 0.670002,0.785918 z M 90.134911,29.317317 c 0,0.454656 -0.383782,0.729256 -0.71768,0.880282 -0.612687,0.277126 -1.032737,-0.230827 -1.98203,0.23356 -0.94004,0.45986 -0.742764,1.425444 -1.468941,1.282481 -1.08517,-0.213641 -0.544934,-1.835065 0.544473,-2.566819 1.089407,-0.731753 1.520431,-0.994999 2.715626,-0.734239 0.284448,0.06206 0.908553,0.45008 0.908552,0.904735 z m -3.663442,3.707401 c 0,0.492573 -0.244042,0.812408 -0.636916,0.812408 -0.392873,0 -0.653458,-0.293343 -0.653458,-0.785916 -10e-7,-0.492574 0.227498,-0.812408 0.620372,-0.812409 0.392874,10e-7 0.670003,0.293344 0.670002,0.785917 z M 77.314856,16.838311 c 0,0.483746 -0.435928,0.775916 -0.815194,0.936606 -0.695935,0.294857 -1.173059,-0.245597 -2.251336,0.248504 -1.067767,0.489284 -0.843687,1.51665 -1.668532,1.364539 -1.232616,-0.22731 -0.618976,-1.95248 0.618453,-2.731054 1.237429,-0.778574 1.727018,-1.058664 3.084608,-0.781219 0.323097,0.06603 1.032002,0.478878 1.032001,0.962624 z m -4.161208,3.944616 c 0,0.52409 -0.277201,0.864389 -0.723456,0.864389 -0.446255,0 -0.742247,-0.312112 -0.742247,-0.836202 -10e-7,-0.524091 0.25841,-0.86439 0.704665,-0.864391 0.446255,1e-6 0.761039,0.312114 0.761038,0.836204 z" /></svg>
