<?xml version="1.0" encoding="UTF-8" standalone="no"?>
<!-- Created with Inkscape (http://www.inkscape.org/) -->

<svg
   width="164.23331mm"
   height="164.76247mm"
   viewBox="0 0 164.23331 164.76247"
   version="1.1"
   id="svg392"
   xml:space="preserve"
   xmlns="http://www.w3.org/2000/svg"
   xmlns:svg="http://www.w3.org/2000/svg"><defs
     id="defs389"><style
       id="style6869">.cls-1{fill:#ffe8c2;}.cls-2{fill:none;stroke:#e5af6e;stroke-miterlimit:10;stroke-width:25.51px;}.cls-3{opacity:0.05;}.cls-4{fill:#534741;}</style></defs><path
     id="path406102-8"
     style="display:inline;fill:#c86a34;fill-opacity:1;stroke-width:5.62339;stop-color:#000000"
     d="m 29.554422,96.798381 c -0.333494,4.557799 -4.78962,4.655289 -5.941567,5.675929 -2.300622,-1.99763 -4.770635,-4.485697 -3.988561,-7.511433 0.5255,-2.03308 2.627331,-2.130768 5.36946,-1.623907 2.742128,0.50686 4.726422,1.194089 4.560668,3.459411 z M 131.76051,119.77802 c -2.20321,4.00383 -6.29429,2.23476 -7.76685,2.68225 -1.25839,-2.77486 -2.4663,-6.06612 -0.49405,-8.49036 1.32521,-1.62891 3.27642,-0.84149 5.5576,0.76237 2.28119,1.60387 3.79834,3.05575 2.7033,5.04574 z m -45.918745,3.43876 c -4.164303,1.88239 -6.376881,-1.98686 -7.823576,-2.51198 0.657313,-2.97511 1.664737,-6.33317 4.696857,-7.09011 2.037371,-0.50861 3.126417,1.29173 3.989836,3.94327 0.863419,2.65154 1.206627,4.72324 -0.863117,5.65882 z M 122.81522,76.535199 c 4.06537,2.087461 2.41437,6.227601 2.90391,7.686719 -2.73762,1.337464 -5.99288,2.639278 -8.47269,0.737368 -1.66626,-1.277949 -0.93512,-3.250936 0.60265,-5.577183 1.53778,-2.326247 2.94555,-3.884415 4.96613,-2.846904 z M 67.168977,45.100197 c 0.589503,4.531807 -3.756069,5.523058 -4.679339,6.754417 -2.655217,-1.494395 -5.574951,-3.435161 -5.417061,-6.556344 0.106092,-2.097214 2.145384,-2.615409 4.933428,-2.670105 2.788043,-0.0547 4.869977,0.219631 5.162972,2.472032 z M 52.368815,65.575266 c -4.164303,1.882384 -6.376881,-1.986862 -7.823576,-2.511977 0.657313,-2.975119 1.664737,-6.333171 4.696857,-7.090114 2.037371,-0.508612 3.126417,1.291726 3.989836,3.94327 0.863419,2.651543 1.206627,4.723237 -0.863117,5.658821 z" /><path
     id="path410473-51"
     style="display:inline;opacity:0.670213;fill:#ce966b;fill-opacity:1;stroke-width:6.55797;stop-color:#000000"
     d="m 22.994254,96.424524 c -0.214464,1.160256 -0.01039,2.659523 -0.764558,2.520121 -0.754166,-0.139402 -1.371766,-1.687948 -1.157302,-2.848204 0.214464,-1.160255 0.73453,-2.162618 1.794682,-1.922347 1.375265,0.311691 0.341642,1.090174 0.127178,2.25043 z M 125.95343,116.70337 c -0.67863,0.96522 -1.11815,2.41307 -1.74555,1.97196 -0.62739,-0.44111 -0.5432,-2.10614 0.13543,-3.07136 0.67863,-0.96522 1.56922,-1.65952 2.43269,-0.99917 1.12012,0.85664 -0.14394,1.13335 -0.82257,2.09857 z m -42.91431,0.57028 c -1.121927,0.36534 -2.34199,1.26026 -2.579456,0.53101 -0.237465,-0.72925 0.828525,-2.01108 1.950452,-2.37642 1.121926,-0.36533 2.250971,-0.38675 2.545845,0.65953 0.382519,1.35727 -0.794914,0.82055 -1.916841,1.18588 z m 36.86927,-34.845577 c 0.98429,0.650667 2.44415,1.048484 2.02121,1.688271 -0.42293,0.639786 -2.08969,0.603388 -3.07398,-0.04728 -0.98429,-0.650667 -1.70385,-1.520974 -1.06853,-2.40303 0.82416,-1.144231 1.13702,0.111371 2.1213,0.762039 z M 60.667563,46.052667 c 0.02314,1.179684 0.524427,2.607326 -0.242368,2.622369 -0.766793,0.01504 -1.683069,-1.377748 -1.706212,-2.557431 -0.02314,-1.179682 0.284816,-2.266127 1.371627,-2.243867 1.409848,0.02888 0.55381,0.999246 0.576953,2.178929 z M 49.56617,59.632138 c -1.121927,0.365332 -2.34199,1.260259 -2.579456,0.531006 -0.237465,-0.729252 0.828525,-2.011083 1.950452,-2.376415 1.121926,-0.365332 2.250971,-0.386758 2.545845,0.659523 0.382519,1.357271 -0.794914,0.820554 -1.916841,1.185886 z" /></svg>
