<?xml version="1.0" encoding="UTF-8" standalone="no"?>
<!-- Created with Inkscape (http://www.inkscape.org/) -->

<svg
   width="164.23331mm"
   height="164.76247mm"
   viewBox="0 0 164.23331 164.76247"
   version="1.1"
   id="svg392"
   xml:space="preserve"
   xmlns="http://www.w3.org/2000/svg"
   xmlns:svg="http://www.w3.org/2000/svg"><defs
     id="defs389"><style
       id="style6869">.cls-1{fill:#ffe8c2;}.cls-2{fill:none;stroke:#e5af6e;stroke-miterlimit:10;stroke-width:25.51px;}.cls-3{opacity:0.05;}.cls-4{fill:#534741;}</style></defs><path
     id="path140990-0-3-1"
     style="display:inline;opacity:0.164894;fill:#1a1a1a;fill-opacity:1;stroke-width:2.50981;stop-color:#000000"
     d="m 78.2084,34.614235 c 0.482104,-1.681488 4.293088,-3.017917 4.293088,-3.017917 0,0 11.070873,-6.176902 11.62453,-5.759657 0.966114,0.728077 2.833455,6.683061 2.020594,15.369418 -0.81286,8.686362 -8.308016,12.641553 -8.308016,12.641553 L 80.369459,39.730865 c 0,0 -2.67133,-3.336908 -2.161059,-5.11663 z M 92.64855,88.92468 c -0.907202,-1.383252 0.487446,-4.938626 0.487446,-4.938626 0,0 2.407401,-11.74457 3.048074,-11.883729 1.117952,-0.24283 6.53715,2.094727 12.2591,8.038444 5.72194,5.943717 3.92969,13.755075 3.92969,13.755075 L 97.64837,90.534352 c 0,0 -4.03962,-0.145607 -4.99982,-1.609672 z m -34.608918,36.66438 c -0.196175,1.71445 -3.600099,3.55362 -3.600099,3.55362 0,0 -9.532691,7.59089 -10.121981,7.25907 -1.028293,-0.57901 -3.720738,-6.15373 -4.296951,-14.7771 -0.576215,-8.62337 5.912703,-13.54045 5.912703,-13.54045 l 9.265521,12.79234 c 0,0 3.048444,2.89792 2.840807,4.71252 z M 51.967095,41.608211 c -0.196175,1.714444 -3.600099,3.553621 -3.600099,3.553621 0,0 -9.532691,7.590886 -10.121981,7.259067 -1.028293,-0.57901 -3.720738,-6.153731 -4.296951,-14.7771 -0.576215,-8.623374 5.912703,-13.540447 5.912703,-13.540447 l 9.265521,12.792342 c 0,0 3.048444,2.897915 2.840807,4.712517 z m 79.936375,22.960448 c -0.19618,1.714444 -3.6001,3.553621 -3.6001,3.553621 0,0 -9.53269,7.590886 -10.12198,7.259067 -1.02829,-0.57901 -3.72074,-6.153731 -4.29695,-14.7771 -0.57622,-8.623374 5.9127,-13.540447 5.9127,-13.540447 l 9.26552,12.792342 c 0,0 3.04845,2.897915 2.84081,4.712517 z M 114.17574,111.7982 c -0.63297,-1.70536 -4.66103,-2.79361 -4.66103,-2.79361 0,0 -11.888678,-5.53978 -12.423984,-5.06414 -0.934093,0.82998 -2.368476,7.14813 -0.823822,16.08857 1.544652,8.94044 9.574986,12.45601 9.574986,12.45601 l 6.52902,-15.21479 c 0,0 2.47478,-3.66705 1.80483,-5.47204 z M 72.870962,81.725338 c 0.979427,1.501541 -0.541633,5.350865 -0.541633,5.350865 0,0 -2.64079,12.721536 -3.335489,12.870614 -1.212227,0.260133 -7.078902,-2.287836 -13.263907,-8.744766 -6.185008,-6.456932 -4.221526,-14.917556 -4.221526,-14.917556 l 15.948411,3.682843 c 0,0 4.377501,0.168736 5.414144,1.758 z" /><path
     id="path149836-16-6"
     style="display:inline;fill:#fcf7b5;fill-opacity:1;stroke-width:1.90175;stop-color:#000000"
     d="m 78.234808,34.999282 c 0.250985,-0.823347 2.032865,-1.529 2.032865,-1.529 l 1.971955,-1.108151 c 0,0 1.10698,2.435924 0.461106,4.713599 -0.645873,2.277676 -2.488638,3.022244 -2.488638,3.022244 L 78.97508,37.444752 c 0,0 -1.018128,-1.533973 -0.740272,-2.44547 z M 92.94073,89.143415 c -0.435006,-0.688006 0.159199,-2.400234 0.159199,-2.400234 l 0.423138,-2.096839 c 0,0 2.428544,0.710342 3.661825,2.578907 1.233282,1.868565 0.62938,3.648435 0.62938,3.648435 l -2.664494,-0.751293 c 0,0 -1.72747,-0.217311 -2.209048,-0.978976 z M 57.954925,125.21549 c -0.110196,0.84156 -1.689227,1.78064 -1.689227,1.78064 l -1.696745,1.35985 c 0,0 -1.426496,-2.23267 -1.167555,-4.55399 0.258942,-2.32132 1.889631,-3.30699 1.889631,-3.30699 l 1.583393,2.42748 c 0,0 1.202496,1.36135 1.080503,2.29301 z M 51.882388,41.234637 c -0.110196,0.841559 -1.689227,1.780642 -1.689227,1.780642 l -1.696745,1.35985 c 0,0 -1.426496,-2.23267 -1.167555,-4.55399 0.258942,-2.32132 1.889631,-3.306994 1.889631,-3.306994 l 1.583393,2.427487 c 0,0 1.202496,1.361348 1.080503,2.293005 z m 79.936372,22.960448 c -0.11019,0.841559 -1.68922,1.780642 -1.68922,1.780642 l -1.69675,1.35985 c 0,0 -1.4265,-2.23267 -1.16755,-4.55399 0.25894,-2.32132 1.88963,-3.306994 1.88963,-3.306994 l 1.58339,2.427487 c 0,0 1.2025,1.361348 1.0805,2.293005 z M 114.18,112.19938 c -0.32528,-0.83388 -2.21525,-1.42644 -2.21525,-1.42644 l -2.11827,-0.99496 c 0,0 -0.9396,2.61122 -0.0896,4.9218 0.85002,2.31057 2.80577,2.93872 2.80577,2.93872 l 1.0556,-2.84659 c 0,0 0.92182,-1.66938 0.56172,-2.59253 z M 72.554908,81.487496 c 0.46957,0.746796 -0.179029,2.600797 -0.179029,2.600797 l -0.464247,2.271282 c 0,0 -2.629986,-0.776401 -3.961484,-2.804777 -1.331497,-2.028376 -0.672206,-3.955657 -0.672206,-3.955657 l 2.885584,0.82142 c 0,0 1.871538,0.240185 2.391382,1.066935 z" /><path
     id="path140990-4-4"
     style="display:inline;fill:#bfed6e;fill-opacity:1;stroke-width:2.3868;stop-color:#000000"
     d="m 82.836391,36.626242 c 0.360796,-1.389133 -0.596763,-4.264111 -0.596763,-4.264111 0,0 10.528248,-5.874148 11.05477,-5.477359 0.918761,0.692392 2.694576,6.355502 1.921555,14.616111 -0.773018,8.260613 -7.90081,12.021945 -7.90081,12.021945 L 80.212096,40.097974 c 0,0 2.25962,-2.067653 2.624295,-3.471732 z m 14.110178,50.224382 c -0.772606,-1.115893 -3.423502,-2.204282 -3.423502,-2.204282 0,0 2.289406,-11.168925 2.898674,-11.301267 1.063158,-0.230928 6.216749,1.992058 11.658239,7.644453 5.44149,5.652395 3.73708,13.080889 3.73708,13.080889 L 97.814272,90.873684 c 0,0 -0.08678,-2.895163 -0.867703,-4.02306 z M 53.342531,124.26123 c -0.126547,1.41115 1.226422,4.09475 1.226422,4.09475 0,0 -9.06546,7.21883 -9.625867,6.90328 -0.977892,-0.55063 -3.538371,-5.85212 -4.086341,-14.05283 -0.547973,-8.20071 5.6229,-12.87678 5.6229,-12.87678 l 8.811384,12.16535 c 0,0 -1.820593,2.3399 -1.948498,3.76623 z M 47.269994,40.28038 c -0.126547,1.411147 1.226422,4.094749 1.226422,4.094749 0,0 -9.06546,7.218828 -9.625867,6.903278 -0.977892,-0.550631 -3.538371,-5.852116 -4.086341,-14.052824 -0.547973,-8.200712 5.6229,-12.876781 5.6229,-12.876781 l 8.811384,12.165343 c 0,0 -1.820593,2.339905 -1.948498,3.766235 z m 79.936376,22.960448 c -0.12655,1.411147 1.22642,4.094749 1.22642,4.094749 0,0 -9.06546,7.218828 -9.62587,6.903278 -0.97789,-0.550632 -3.53837,-5.852116 -4.08634,-14.052825 -0.54797,-8.200711 5.6229,-12.87678 5.6229,-12.87678 l 8.81139,12.165343 c 0,0 -1.8206,2.339905 -1.9485,3.766235 z m -17.62564,51.003602 c -0.48437,-1.41177 0.26575,-4.46645 0.26575,-4.46645 0,0 -11.30597,-5.26826 -11.815041,-4.81593 -0.88831,0.7893 -2.252389,6.79777 -0.783443,15.30001 1.468944,8.50224 9.105684,11.8455 9.105684,11.8455 l 6.209,-14.46906 c 0,0 -2.49238,-1.9671 -2.98195,-3.39407 z M 68.207414,83.961439 c 0.834284,1.211428 3.704218,2.398136 3.704218,2.398136 0,0 -2.511356,12.098006 -3.172002,12.239781 C 67.586819,98.846743 62.007689,96.423654 56.125834,90.2832 50.243974,84.142745 52.11122,76.096808 52.11122,76.096808 l 15.166722,3.502333 c 0,0 0.08621,3.137838 0.929472,4.362298 z" /><path
     id="path140990-2-4-6"
     style="display:inline;fill:#9ec86e;fill-opacity:1;stroke-width:2.39693;stop-color:#000000"
     d="m 94.60667,41.342599 c 0.928138,-3.196653 -0.200818,-9.983982 -0.200818,-9.983982 0,0 -0.228855,-3.232504 -1.422723,-3.946957 -0.777947,-0.465551 -2.674596,0.745083 -2.674596,0.745083 -0.07584,-0.490426 3.109368,-1.521777 3.372369,-1.322284 0.917862,0.696213 2.683693,6.401585 1.894603,14.730235 -0.789088,8.328653 -8.158702,12.103071 -8.158702,12.103071 l -0.472499,-0.76319 c 6.585902,-4.030287 6.373186,-7.12184 7.662366,-11.561976 z m 12.98384,39.985777 c -1.7175,-2.638006 -7.27732,-6.018337 -7.27732,-6.018337 0,0 -2.457296,-1.831165 -3.70606,-1.416744 -0.813718,0.270045 -1.116948,2.376182 -1.116948,2.376182 -0.398191,-0.248359 0.828804,-3.167074 1.134065,-3.232381 1.06534,-0.227925 6.243043,2.028299 11.723373,7.734203 5.48032,5.705904 3.63603,13.315736 3.63603,13.315736 l -0.83844,-0.13251 c 1.17724,-7.206239 -1.1691,-8.961971 -3.5547,-12.626149 z M 41.458603,121.2768 c -0.383953,3.26092 1.737859,9.75378 1.737859,9.75378 0,0 0.717907,3.13519 1.959894,3.66919 0.809303,0.34796 2.418808,-1.10182 2.418808,-1.10182 0.147878,0.46994 -2.710381,1.92322 -2.99051,1.76433 -0.977631,-0.5545 -3.535201,-5.89877 -4.078492,-14.16838 -0.543293,-8.26961 5.854689,-12.99212 5.854689,-12.99212 l 0.566013,0.68204 c -5.615719,4.86424 -4.934952,7.86358 -5.468261,12.39298 z M 35.386066,37.295954 c -0.383953,3.260919 1.737859,9.753775 1.737859,9.753775 0,0 0.717907,3.135192 1.959894,3.669191 0.809303,0.347964 2.418808,-1.101824 2.418808,-1.101824 0.147878,0.469947 -2.710381,1.923226 -2.99051,1.764339 -0.977631,-0.5545 -3.535201,-5.898778 -4.078492,-14.168384 -0.543293,-8.269607 5.854689,-12.992116 5.854689,-12.992116 l 0.566013,0.682037 c -5.615719,4.864238 -4.934952,7.86358 -5.468261,12.392982 z m 79.936374,22.960448 c -0.38395,3.260919 1.73786,9.753775 1.73786,9.753775 0,0 0.71791,3.135192 1.95989,3.669191 0.80931,0.347964 2.41881,-1.101824 2.41881,-1.101824 0.14788,0.469946 -2.71038,1.923226 -2.99051,1.764339 -0.97763,-0.5545 -3.5352,-5.898779 -4.07849,-14.168384 -0.54329,-8.269607 5.85469,-12.992116 5.85469,-12.992116 l 0.56601,0.682037 c -5.61572,4.864238 -4.93495,7.86358 -5.46826,12.392982 z M 97.861635,120.0505 c -1.215273,-3.24113 -0.608118,-10.36449 -0.608118,-10.36449 0,0 -0.02841,-3.36847 1.141004,-4.20208 0.762013,-0.54319 2.811209,0.56386 2.811209,0.56386 0.038,-0.51426 -3.321678,-1.33505 -3.575857,-1.10777 -0.887072,0.79319 -2.237436,6.84469 -0.746414,15.41621 1.49102,8.57151 9.377501,11.90949 9.377501,11.90949 l 0.42362,-0.82791 c -7.10143,-3.66427 -7.134936,-6.88538 -8.822945,-11.38731 z M 56.657203,89.917302 c 1.85418,2.86356 7.870432,6.54201 7.870432,6.54201 0,0 2.658109,1.991158 4.012566,1.545415 0.882589,-0.290456 1.216913,-2.572139 1.216913,-2.572139 0.430863,0.270235 -0.906781,3.430039 -1.237782,3.499989 -1.155168,0.244127 -6.760345,-2.215049 -12.68414,-8.413599 C 49.911394,84.32043 51.930724,76.078347 51.930724,76.078347 l 0.908298,0.145876 c -1.295338,7.806499 1.242735,9.715607 3.818181,13.693079 z" /><path
     id="path144530-8-8-0"
     style="display:inline;fill:#95c632;stroke-width:4.71987;stop-color:#000000"
     d="m 81.772692,41.053785 c 0.335564,-0.242447 1.480841,1.11573 1.89742,1.69231 1.249526,1.729448 2.822863,4.429431 2.627511,4.570572 -0.0863,0.06234 -2.731511,-2.516849 -3.662499,-3.789259 -0.73845,-1.009277 -1.197995,-2.231178 -0.862432,-2.473623 z m 1.057689,-1.256529 c 0.247824,-0.331611 1.746509,0.622458 2.316296,1.04828 1.709075,1.277251 4.017081,3.384004 3.872807,3.577053 -0.06373,0.08527 -3.358601,-1.586026 -4.627161,-2.522255 -1.006213,-0.742619 -1.809766,-1.771466 -1.561942,-2.103078 z m 0.694214,-1.477328 c 0.154341,-0.384138 1.847793,0.153012 2.507833,0.418209 1.979787,0.795455 4.751459,2.23876 4.661606,2.462389 -0.03969,0.09878 -3.653284,-0.670217 -5.119748,-1.249229 -1.163188,-0.459279 -2.204031,-1.247232 -2.049691,-1.631369 z m 0.676707,-1.76261 c 0.05844,-0.409838 1.831085,-0.291337 2.535284,-0.190918 2.112247,0.301203 5.147854,1.043084 5.11383,1.281673 -0.01503,0.105393 -3.707798,0.218883 -5.269949,0.0057 -1.239089,-0.169121 -2.437606,-0.686596 -2.379165,-1.096434 z m -0.06529,-1.605534 c -0.02403,-0.413286 1.736887,-0.648824 2.447012,-0.690111 2.130016,-0.123843 5.252467,10e-4 5.266455,0.241638 0.0062,0.10628 -3.59067,0.950142 -5.164067,1.051098 -1.248012,0.08007 -2.525371,-0.189339 -2.5494,-0.602625 z m -0.471943,-1.866996 c -0.121084,-0.395881 1.534185,-1.041164 2.214404,-1.249212 2.040313,-0.624043 5.103731,-1.241107 5.174219,-1.010641 0.03113,0.101805 -3.264131,1.772322 -4.769024,2.242496 -1.193679,0.372932 -2.498516,0.413238 -2.619599,0.01736 z M 47.5916,35.794664 c -0.280382,0.284186 -1.576108,-0.88725 -2.060208,-1.394233 -1.452056,-1.52069 -3.361377,-3.947234 -3.198149,-4.112674 0.07211,-0.07308 2.978354,2.086104 4.057738,3.203302 0.856158,0.886164 1.480999,2.01942 1.200619,2.303605 z m -0.807439,1.378115 c -0.183423,0.359347 -1.75138,-0.367036 -2.357283,-0.705015 -1.817407,-1.013767 -4.330904,-2.756963 -4.224122,-2.966158 0.04717,-0.09241 3.428268,1.086959 4.775406,1.827856 1.068542,0.587683 1.989422,1.48397 1.805999,1.843317 z m -0.428804,1.54391 c -0.0867,0.397811 -1.774584,0.106979 -2.441109,-0.06108 -1.999236,-0.504097 -4.84924,-1.532825 -4.798764,-1.764415 0.0223,-0.102299 3.565537,0.148738 5.044827,0.512142 1.173364,0.28826 2.281747,0.915545 2.195046,1.313356 z m -0.367995,1.820977 c 0.0081,0.409659 -1.689877,0.540001 -2.372702,0.539519 -2.048136,-0.0014 -5.039506,-0.306266 -5.044249,-0.544751 -0.0021,-0.105348 3.479376,-0.729928 4.992631,-0.738222 1.200307,-0.0066 2.416168,0.333795 2.42432,0.743454 z m 0.31073,1.563926 c 0.08683,0.401572 -1.545207,0.87715 -2.211682,1.016327 -1.99909,0.41746 -4.977109,0.729208 -5.027657,0.49543 -0.02232,-0.103269 3.255043,-1.430086 4.730258,-1.74774 1.170136,-0.251953 2.42225,-0.165588 2.509081,0.235983 z m 0.736582,1.763557 c 0.176096,0.371026 -1.292323,1.233359 -1.904612,1.53176 -1.836558,0.895055 -4.643635,1.92551 -4.746149,1.709514 -0.04528,-0.09541 2.81819,-2.190211 4.171264,-2.860078 1.073257,-0.531328 2.303401,-0.752223 2.479497,-0.381196 z m 80.493306,14.889962 c -0.28039,0.284187 -1.57611,-0.887249 -2.06021,-1.394232 -1.45206,-1.52069 -3.36138,-3.947234 -3.19815,-4.112674 0.0721,-0.07308 2.97835,2.086104 4.05774,3.203302 0.85616,0.886164 1.481,2.01942 1.20062,2.303604 z m -0.80744,1.378116 c -0.18343,0.359347 -1.75138,-0.367036 -2.35729,-0.705015 -1.8174,-1.013767 -4.3309,-2.756963 -4.22412,-2.966158 0.0472,-0.09241 3.42827,1.086959 4.77541,1.827856 1.06854,0.587683 1.98942,1.48397 1.806,1.843317 z m -0.42881,1.54391 c -0.0867,0.397811 -1.77458,0.106978 -2.44111,-0.06108 -1.99923,-0.504097 -4.84924,-1.532826 -4.79876,-1.764415 0.0223,-0.102299 3.56554,0.148738 5.04483,0.512142 1.17336,0.28826 2.28174,0.915545 2.19504,1.313356 z m -0.36799,1.820977 c 0.008,0.409659 -1.68988,0.540001 -2.3727,0.539519 -2.04814,-0.0014 -5.03951,-0.306266 -5.04425,-0.544751 -0.002,-0.105348 3.47937,-0.729928 4.99263,-0.738222 1.20031,-0.0066 2.41617,0.333795 2.42432,0.743454 z m 0.31073,1.563926 c 0.0868,0.401572 -1.54521,0.87715 -2.21168,1.016327 -1.99909,0.41746 -4.97711,0.729207 -5.02766,0.49543 -0.0223,-0.103269 3.25504,-1.430086 4.73026,-1.74774 1.17013,-0.251953 2.42225,-0.165588 2.50908,0.235983 z m 0.73658,1.763557 c 0.1761,0.371026 -1.29232,1.233359 -1.90461,1.53176 -1.83656,0.895055 -4.64364,1.92551 -4.74615,1.709514 -0.0453,-0.09541 2.81819,-2.190211 4.17126,-2.860078 1.07326,-0.531328 2.3034,-0.752223 2.4795,-0.381196 z M 99.462313,90.345476 c 0.0334,-0.390068 1.713397,-0.37236 2.383627,-0.314962 2.01034,0.172166 4.91592,0.711352 4.89647,0.938432 -0.009,0.100309 -3.4892,0.403662 -4.97548,0.285356 -1.17891,-0.09385 -2.338022,-0.51876 -2.304617,-0.908826 z m -0.247468,-1.533362 c -0.08463,-0.382237 1.523945,-0.867161 2.180725,-1.012583 1.96999,-0.436195 4.90397,-0.789537 4.95324,-0.567015 0.0218,0.0983 -3.20933,1.427477 -4.66309,1.758532 -1.15312,0.262584 -2.386239,0.203303 -2.470875,-0.178934 z m -0.630008,-1.409217 c -0.179968,-0.347677 1.250109,-1.229476 1.847503,-1.538703 1.79188,-0.927525 4.53669,-2.022564 4.64146,-1.82016 0.0463,0.08941 -2.73505,2.203859 -4.05502,2.897187 -1.046998,0.549936 -2.253975,0.809352 -2.433943,0.461676 z m -0.845214,-1.572753 c -0.25757,-0.29483 0.921428,-1.491762 1.428015,-1.934331 1.519512,-1.327488 3.924662,-3.044559 4.074612,-2.872922 0.0662,0.07582 -2.13167,2.791681 -3.248601,3.779347 -0.885952,0.783406 -1.996453,1.322735 -2.254026,1.027906 z M 96.548985,84.88597 c -0.310944,-0.237868 0.607153,-1.644915 1.015868,-2.179193 1.225937,-1.602563 3.242627,-3.762674 3.423647,-3.624197 0.0799,0.06118 -1.535441,3.159101 -2.434225,4.348728 -0.712918,0.943603 -1.694345,1.692529 -2.00529,1.454662 z m -1.628964,-0.81419 c -0.358377,-0.157587 0.200938,-1.741839 0.471712,-2.357616 0.812186,-1.84702 2.260843,-4.422773 2.469474,-4.331031 0.09216,0.04053 -0.744813,3.432599 -1.336777,4.80103 -0.46955,1.085431 -1.246032,2.045205 -1.604409,1.887617 z m 16.115819,34.6791 c -0.36486,-0.22516 -1.43178,1.27191 -1.81312,1.90203 -1.14384,1.89004 -2.54147,4.81131 -2.32906,4.94239 0.0938,0.0579 2.60357,-2.82172 3.45713,-4.21319 0.67703,-1.10371 1.0499,-2.40608 0.68505,-2.63123 z m -1.1902,-1.22002 c -0.2819,-0.32441 -1.74522,0.78133 -2.29642,1.26712 -1.6533,1.45713 -3.85483,3.82075 -3.69072,4.00961 0.0725,0.0834 3.3244,-1.90575 4.55252,-2.97506 0.97415,-0.84818 1.71653,-1.97725 1.43462,-2.30167 z m -0.83443,-1.47721 c -0.19006,-0.38614 -1.88768,0.30262 -2.5448,0.62895 -1.971,0.97883 -4.70347,2.6909 -4.59282,2.91569 0.0489,0.0993 3.70215,-0.97944 5.16294,-1.6939 1.15868,-0.56672 2.16474,-1.46459 1.97468,-1.85074 z m -0.83971,-1.77428 c -0.0935,-0.42026 -1.90676,-0.15927 -2.62272,-3e-4 -2.14755,0.47684 -5.20867,1.48242 -5.15421,1.72708 0.0241,0.10807 3.83076,-0.0621 5.41979,-0.40485 1.26041,-0.27187 2.45068,-0.90167 2.35714,-1.32193 z m -0.0639,-1.6693 c -0.009,-0.43026 -1.83906,-0.53716 -2.57268,-0.52461 -2.2005,0.0376 -5.40127,0.41045 -5.39602,0.66093 0.002,0.11064 3.76997,0.70501 5.39621,0.68703 1.28992,-0.0143 2.5815,-0.39308 2.57249,-0.82335 z m 0.33299,-1.972 c 0.0922,-0.41979 -1.66263,-0.95964 -2.3791,-1.12228 -2.14907,-0.48783 -5.34967,-0.88868 -5.40335,-0.6443 -0.0237,0.10795 3.50126,1.58269 5.08718,1.95275 1.25794,0.29353 2.60305,0.23361 2.69527,-0.18617 z M 65.490465,80.16712 c -0.03726,0.422641 -1.857883,0.398903 -2.58408,0.334883 -2.178224,-0.192025 -5.325656,-0.784228 -5.303964,-1.030271 0.0096,-0.108686 3.78248,-0.428019 5.392899,-0.295783 1.277379,0.104898 2.532403,0.568531 2.495145,0.991171 z m 0.264039,1.662434 c 0.09069,0.414474 -1.653908,0.935651 -2.366074,1.091473 -2.136137,0.467388 -5.316768,0.842376 -5.369561,0.601087 -0.02332,-0.106586 3.481941,-1.538325 5.058338,-1.893167 1.250393,-0.281451 2.586609,-0.213867 2.677297,0.200607 z m 0.67895,1.52893 c 0.194097,0.377278 -1.35812,1.329047 -2.006377,1.662551 -1.944439,1.000345 -4.922066,2.179651 -5.03506,1.960014 -0.04991,-0.09702 2.970045,-2.381005 4.402426,-3.128818 1.136163,-0.593153 2.444914,-0.871024 2.639011,-0.493747 z m 0.911734,1.706742 c 0.278341,0.320216 -1.002626,1.614187 -1.552833,2.092445 -1.650345,1.434537 -4.261556,3.288885 -4.423594,3.102469 -0.07157,-0.08235 2.317729,-3.019684 3.530867,-4.087033 0.962262,-0.84661 2.167217,-1.428096 2.44556,-1.107881 z m 1.287785,1.026462 c 0.336339,0.258629 -0.662448,1.781016 -1.106835,2.358927 -1.332935,1.733442 -3.524346,4.06898 -3.720148,3.918417 -0.08649,-0.06651 1.672566,-3.419485 2.649834,-4.706298 0.775171,-1.02069 1.84081,-1.829674 2.177149,-1.571046 z m 1.763169,0.88678 c 0.38796,0.171754 -0.22248,1.887156 -0.517596,2.553764 -0.885198,1.99949 -2.462137,4.787014 -2.68799,4.687025 -0.09977,-0.04417 0.816476,-3.718027 1.461714,-5.199447 0.511809,-1.175053 1.355911,-2.213096 1.743872,-2.041342 z M 53.664139,119.77551 c -0.280382,0.28419 -1.576108,-0.88725 -2.060208,-1.39423 -1.452056,-1.52069 -3.361377,-3.94723 -3.198149,-4.11267 0.07211,-0.0731 2.978354,2.0861 4.057738,3.2033 0.856158,0.88616 1.480999,2.01942 1.200619,2.3036 z m -0.807439,1.37812 c -0.183423,0.35935 -1.75138,-0.36704 -2.357283,-0.70502 -1.817407,-1.01376 -4.330904,-2.75696 -4.224122,-2.96615 0.04717,-0.0924 3.428268,1.08696 4.775406,1.82785 1.068542,0.58769 1.989422,1.48397 1.805999,1.84332 z m -0.428804,1.54391 c -0.0867,0.39781 -1.774584,0.10698 -2.441109,-0.0611 -1.999236,-0.5041 -4.84924,-1.53283 -4.798764,-1.76442 0.0223,-0.1023 3.565537,0.14874 5.044827,0.51214 1.173364,0.28826 2.281747,0.91555 2.195046,1.31336 z m -0.367995,1.82098 c 0.0081,0.40965 -1.689877,0.54 -2.372702,0.53951 -2.048136,-0.001 -5.039506,-0.30626 -5.044249,-0.54475 -0.0021,-0.10534 3.479376,-0.72992 4.992631,-0.73822 1.200307,-0.007 2.416168,0.3338 2.42432,0.74346 z m 0.31073,1.56392 c 0.08683,0.40157 -1.545207,0.87715 -2.211682,1.01633 -1.99909,0.41746 -4.977109,0.72921 -5.027657,0.49543 -0.02232,-0.10327 3.255043,-1.43009 4.730258,-1.74774 1.170136,-0.25195 2.42225,-0.16559 2.509081,0.23598 z m 0.736582,1.76356 c 0.176096,0.37103 -1.292323,1.23336 -1.904612,1.53176 -1.836558,0.89505 -4.643635,1.92551 -4.746149,1.70951 -0.04528,-0.0954 2.81819,-2.19021 4.171264,-2.86007 1.073257,-0.53133 2.303401,-0.75223 2.479497,-0.3812 z" /><path
     id="path148220-8-0"
     style="display:inline;fill:#ffffff;fill-opacity:0.317647;stroke-width:5.29111;stop-color:#000000"
     d="m 81.781233,39.388175 c 0.560732,-0.359745 3.108247,2.085328 5.190805,4.608534 2.05421,2.48886 3.130384,3.795586 1.948245,5.433195 -1.826473,2.530205 -3.072716,-0.848682 -4.647006,-3.665741 -1.647074,-2.947299 -3.081611,-5.99774 -2.492044,-6.375988 z m 16.492966,49.923149 c 0.08834,-0.623795 3.412551,-0.939927 6.505771,-0.8747 3.05111,0.06434 4.65159,0.0998 5.09528,1.957537 0.68554,2.870311 -2.50458,1.677741 -5.49463,1.066978 -3.12829,-0.639 -6.199298,-1.49394 -6.106421,-2.149815 z M 53.914225,121.40856 c -0.475556,0.43042 -3.268441,-1.61095 -5.632869,-3.7935 -2.332244,-2.15285 -3.554517,-3.28348 -2.688226,-5.05226 1.338469,-2.73286 3.043086,0.4043 4.971457,2.94542 2.017525,2.6586 3.849648,5.44779 3.349638,5.90034 z M 47.841688,37.427713 c -0.475556,0.430413 -3.268441,-1.61095 -5.632869,-3.793504 -2.332244,-2.152844 -3.554517,-3.283478 -2.688226,-5.052256 1.338469,-2.732866 3.043086,0.404301 4.971457,2.945416 2.017525,2.658597 3.849648,5.447795 3.349638,5.900344 z m 79.936372,22.960448 c -0.47555,0.430413 -3.26844,-1.61095 -5.63287,-3.793504 -2.33224,-2.152844 -3.55451,-3.283478 -2.68822,-5.052256 1.33847,-2.732866 3.04308,0.404301 4.97145,2.945416 2.01753,2.658597 3.84965,5.447795 3.34964,5.900344 z m -16.88691,56.636899 c -0.60598,-0.32919 -3.0262,2.40379 -4.96191,5.18152 -1.90937,2.73991 -2.90943,4.17827 -1.56016,5.78359 2.08469,2.48031 3.09057,-1.11918 4.47963,-4.16189 1.45328,-3.18337 2.67958,-6.4571 2.04244,-6.80322 z M 66.775271,81.291087 c -0.09742,0.675792 -3.70086,1.009397 -7.052926,0.930334 -3.306437,-0.07799 -5.04084,-0.120751 -5.51666,-2.135253 -0.735172,-3.112525 2.718856,-1.811454 5.957638,-1.141451 3.38852,0.700978 6.714379,1.635824 6.611948,2.34637 z" /><path
     id="path150846-3-2-4"
     style="display:inline;stroke-width:5.47563;stop-color:#000000"
     d="m 89.041198,37.28718 c 0.05455,-0.122801 0.790786,-0.359904 1.415433,-0.191335 0.301455,0.08136 0.477029,0.402259 0.392157,0.716766 -0.08487,0.314506 -0.398054,0.503517 -0.699513,0.422163 -0.682104,-0.184072 -1.155511,-0.840822 -1.108077,-0.947594 z m -1.399772,-2.510586 c 0.0098,-0.134017 0.622385,-0.606227 1.267227,-0.658935 0.311203,-0.02544 0.584995,0.217144 0.611534,0.541818 0.02654,0.324675 -0.204225,0.608497 -0.515431,0.633933 -0.704155,0.05756 -1.371842,-0.400292 -1.36333,-0.516816 z m -3.334991,-1.920321 c -0.01379,-0.133665 0.506816,-0.705698 1.132513,-0.870329 0.301963,-0.07945 0.613947,0.111529 0.696839,0.426563 0.08289,0.315035 -0.0947,0.63483 -0.396666,0.714281 -0.68325,0.179772 -1.420697,-0.154298 -1.432686,-0.270515 z M 82.863851,40.3348 c 0.09714,-0.09285 0.868234,-0.03229 1.381916,0.361067 0.2479,0.189841 0.288311,0.553396 0.09026,0.812031 -0.198057,0.258635 -0.559574,0.31441 -0.80748,0.124571 -0.560931,-0.429541 -0.749154,-1.216946 -0.664694,-1.297672 z m 0.425706,3.565674 c 0.11538,-0.06888 0.85361,0.161933 1.266756,0.659838 0.199382,0.240293 0.157791,0.603714 -0.0929,0.811732 -0.250694,0.208016 -0.615552,0.181857 -0.81494,-0.05844 -0.45115,-0.543702 -0.459238,-1.353251 -0.358916,-1.413133 z m 3.412567,-2.713978 c 0.07258,-0.113087 0.836288,-0.235577 1.428071,0.02594 0.285594,0.126217 0.410374,0.470067 0.278702,0.768027 -0.131677,0.297959 -0.469935,0.437193 -0.755534,0.310981 -0.646217,-0.285572 -1.014345,-1.006625 -0.951239,-1.10495 z m -1.534153,-2.204309 c 0.07483,-0.11161 0.840842,-0.21876 1.427263,0.05457 0.283006,0.131915 0.400865,0.478201 0.263245,0.773461 -0.137622,0.29526 -0.478608,0.427681 -0.761618,0.295768 -0.640361,-0.298472 -0.993956,-1.026762 -0.92889,-1.123802 z M 101.2498,82.812908 c -0.0543,-0.114882 0.23021,-0.788723 0.73653,-1.132231 0.24435,-0.165775 0.58264,-0.09351 0.75559,0.16142 0.17296,0.254929 0.11508,0.595976 -0.12927,0.761755 -0.55289,0.375106 -1.31563,0.308943 -1.36285,0.209056 z m -2.662758,-0.546645 c -0.08998,-0.08973 -0.05021,-0.820099 0.310029,-1.314651 0.173852,-0.238673 0.516645,-0.285117 0.76565,-0.10374 0.249005,0.181379 0.309929,0.521896 0.136075,0.76057 -0.393375,0.540041 -1.13352,0.73584 -1.211754,0.657821 z m -3.434274,1.204231 c -0.104279,-0.07262 -0.19281,-0.798691 0.07542,-1.348606 0.129449,-0.26539 0.458843,-0.371048 0.735722,-0.235996 0.276879,0.135054 0.396396,0.459675 0.266945,0.725067 -0.292905,0.600496 -0.987421,0.922675 -1.078089,0.859535 z m 4.467878,5.649417 c -0.0066,-0.126905 0.512744,-0.642007 1.111634,-0.767268 0.28902,-0.06045 0.57445,0.13499 0.63752,0.436525 0.0631,0.301537 -0.12011,0.594984 -0.40914,0.655434 -0.65397,0.136782 -1.334307,-0.214354 -1.340016,-0.324693 z m 2.817504,1.89576 c 0.0219,-0.125178 0.64288,-0.511652 1.25462,-0.500353 0.29523,0.0055 0.52994,0.259564 0.52425,0.567571 -0.006,0.308008 -0.24962,0.553278 -0.54485,0.547825 -0.66801,-0.01234 -1.25304,-0.506204 -1.23402,-0.615043 z m 0.16175,-4.120151 c -0.0362,-0.121799 0.34738,-0.744588 0.90001,-1.00718 0.2667,-0.126722 0.59008,-0.0039 0.72229,0.274348 0.13221,0.278248 0.0232,0.606542 -0.24351,0.73327 -0.60346,0.286747 -1.34729,0.105464 -1.37879,-4.38e-4 z m -2.52625,-0.261324 c -0.0338,-0.1225 0.36223,-0.737473 0.92002,-0.988931 0.26919,-0.12135 0.59004,0.0079 0.71665,0.288778 0.12661,0.280841 0.011,0.606884 -0.25817,0.728239 -0.60908,0.274589 -1.34914,0.07843 -1.3785,-0.02809 z m -52.7129,37.842114 c -0.03266,0.1279 -0.693518,0.46255 -1.311529,0.38424 -0.298252,-0.0378 -0.514359,-0.32779 -0.482689,-0.64772 0.03167,-0.31994 0.299126,-0.54866 0.597383,-0.51086 0.674856,0.0855 1.22523,0.66314 1.196835,0.77434 z m 1.715501,2.26512 c 0.0115,0.13266 -0.495769,0.68047 -1.098615,0.82176 -0.290936,0.0682 -0.587967,-0.13142 -0.663441,-0.44582 -0.07547,-0.31441 0.09919,-0.62456 0.390131,-0.69275 0.658297,-0.15429 1.361929,0.20146 1.371925,0.31681 z m 3.457714,1.41776 c 0.03378,0.12904 -0.370843,0.76186 -0.938201,1.01014 -0.273808,0.11982 -0.59903,-0.0239 -0.726405,-0.32104 -0.127375,-0.29713 -0.0087,-0.63513 0.265141,-0.75495 0.619544,-0.27112 1.370091,-0.0464 1.399465,0.0658 z m 0.207698,-7.52756 c -0.07765,0.10447 -0.817685,0.15234 -1.365394,-0.16163 -0.264323,-0.15153 -0.358968,-0.5021 -0.211394,-0.78303 0.147578,-0.28093 0.481486,-0.38583 0.745815,-0.23431 0.598088,0.34286 0.89849,1.08814 0.830973,1.17897 z m -0.956074,-3.43424 c -0.09865,0.0835 -0.833935,-0.04 -1.302588,-0.47036 -0.22617,-0.20771 -0.243093,-0.56955 -0.0378,-0.8082 0.2053,-0.23866 0.555075,-0.26375 0.78125,-0.056 0.511762,0.46997 0.64491,1.26199 0.559134,1.33461 z m -2.812879,3.13342 c -0.05124,0.12088 -0.755904,0.34707 -1.357182,0.17312 -0.290177,-0.084 -0.46171,-0.40349 -0.383131,-0.71372 0.07859,-0.31023 0.377517,-0.49367 0.667698,-0.40972 0.656585,0.18995 1.11717,0.84521 1.072615,0.95032 z m 1.79536,1.94636 c -0.0536,0.11975 -0.762827,0.33123 -1.360855,0.14496 -0.288608,-0.0899 -0.453961,-0.41278 -0.369327,-0.72119 0.08464,-0.30841 0.387209,-0.48556 0.675821,-0.39566 0.653036,0.20339 1.100972,0.86777 1.054361,0.97189 z M 41.288213,40.495461 c -0.03266,0.127898 -0.693518,0.462552 -1.311529,0.38424 -0.298252,-0.0378 -0.514359,-0.32779 -0.482689,-0.647723 0.03167,-0.319934 0.299126,-0.548655 0.597383,-0.51086 0.674856,0.08551 1.22523,0.66314 1.196835,0.774343 z m 1.715501,2.265115 c 0.0115,0.132663 -0.495769,0.680471 -1.098615,0.821761 -0.290936,0.06819 -0.587967,-0.131415 -0.663441,-0.445821 -0.07547,-0.314407 0.09919,-0.624561 0.390131,-0.692747 0.658297,-0.154285 1.361929,0.20146 1.371925,0.316807 z m 3.457714,1.417762 c 0.03378,0.12904 -0.370843,0.761861 -0.938201,1.010144 -0.273808,0.119822 -0.59903,-0.02391 -0.726405,-0.321041 -0.127375,-0.297129 -0.0087,-0.635133 0.265141,-0.754956 0.619544,-0.271119 1.370091,-0.04634 1.399465,0.06585 z m 0.207698,-7.527559 c -0.07765,0.10447 -0.817685,0.152343 -1.365394,-0.161629 -0.264323,-0.15153 -0.358968,-0.5021 -0.211394,-0.783029 0.147578,-0.28093 0.481486,-0.385836 0.745815,-0.234308 0.598088,0.342854 0.89849,1.088137 0.830973,1.17897 z m -0.956074,-3.434244 c -0.09865,0.08352 -0.833935,-0.03998 -1.302588,-0.470357 -0.22617,-0.207705 -0.243093,-0.569545 -0.0378,-0.808201 0.2053,-0.238655 0.555075,-0.26375 0.78125,-0.05605 0.511762,0.469965 0.64491,1.261987 0.559134,1.334603 z m -2.812879,3.133424 c -0.05124,0.120886 -0.755904,0.347069 -1.357182,0.173122 -0.290177,-0.08395 -0.46171,-0.403491 -0.383131,-0.713719 0.07858,-0.310228 0.377517,-0.493668 0.667698,-0.409719 0.656585,0.189945 1.11717,0.845209 1.072615,0.950316 z m 1.79536,1.94636 c -0.0536,0.119751 -0.762827,0.331227 -1.360855,0.144959 -0.288608,-0.0899 -0.453961,-0.412782 -0.369327,-0.721192 0.08464,-0.30841 0.387209,-0.485554 0.675821,-0.39566 0.653036,0.203399 1.100972,0.867773 1.054361,0.971893 z m 76.529057,25.15959 c -0.0327,0.127898 -0.69352,0.462552 -1.31153,0.38424 -0.29825,-0.0378 -0.51436,-0.32779 -0.48269,-0.647723 0.0317,-0.319934 0.29913,-0.548655 0.59738,-0.51086 0.67486,0.08551 1.22523,0.66314 1.19684,0.774343 z m 1.7155,2.265114 c 0.0115,0.132664 -0.49577,0.680471 -1.09862,0.821762 -0.29093,0.06819 -0.58796,-0.131415 -0.66344,-0.445821 -0.0755,-0.314408 0.0992,-0.624561 0.39013,-0.692748 0.6583,-0.154284 1.36193,0.201461 1.37193,0.316807 z m 3.45771,1.417763 c 0.0338,0.12904 -0.37084,0.761861 -0.9382,1.010144 -0.27381,0.119822 -0.59903,-0.02391 -0.7264,-0.321042 -0.12738,-0.297128 -0.009,-0.635132 0.26514,-0.754955 0.61954,-0.271119 1.37009,-0.04634 1.39946,0.06585 z m 0.2077,-7.527559 c -0.0777,0.10447 -0.81769,0.152343 -1.36539,-0.161629 -0.26433,-0.15153 -0.35897,-0.5021 -0.2114,-0.783029 0.14758,-0.28093 0.48149,-0.385836 0.74582,-0.234308 0.59808,0.342853 0.89849,1.088137 0.83097,1.17897 z m -0.95607,-3.434244 c -0.0987,0.08352 -0.83394,-0.03998 -1.30259,-0.470357 -0.22617,-0.207706 -0.24309,-0.569545 -0.0378,-0.808201 0.2053,-0.238655 0.55508,-0.26375 0.78125,-0.05605 0.51176,0.469964 0.64491,1.261987 0.55914,1.334603 z m -2.81288,3.133423 c -0.0512,0.120887 -0.75591,0.34707 -1.35719,0.173122 -0.29017,-0.08395 -0.46171,-0.40349 -0.38313,-0.713718 0.0786,-0.310229 0.37752,-0.493668 0.6677,-0.409719 0.65659,0.189945 1.11717,0.845209 1.07262,0.950315 z m 1.79536,1.946361 c -0.0536,0.119751 -0.76283,0.331227 -1.36086,0.144959 -0.28861,-0.0899 -0.45396,-0.412782 -0.36932,-0.721192 0.0846,-0.30841 0.3872,-0.485555 0.67582,-0.39566 0.65303,0.203399 1.10097,0.867773 1.05436,0.971893 z m -21.37794,54.156353 c -0.0661,-0.12304 -0.84257,-0.31143 -1.47117,-0.088 -0.30336,0.10782 -0.45773,0.45414 -0.34479,0.77352 0.11295,0.31939 0.45042,0.4909 0.75379,0.38307 0.68642,-0.24396 1.11966,-0.9616 1.06217,-1.06858 z m 1.2346,-2.71143 c -0.021,-0.13815 -0.68949,-0.57987 -1.35691,-0.58425 -0.3221,-0.002 -0.58386,0.27067 -0.58466,0.60928 -8e-4,0.33861 0.25966,0.61482 0.58176,0.61693 0.72882,0.005 1.37807,-0.52184 1.35981,-0.64196 z m 3.27284,-2.25042 c 0.003,-0.13963 -0.57876,-0.69199 -1.23563,-0.81387 -0.317,-0.0588 -0.62225,0.16345 -0.68179,0.49646 -0.0595,0.33301 0.14919,0.65065 0.46619,0.70947 0.71729,0.13309 1.44838,-0.27066 1.45123,-0.39206 z m 2.09367,7.63939 c -0.10747,-0.0887 -0.89548,0.0342 -1.39162,0.48197 -0.23944,0.21609 -0.25133,0.59608 -0.0266,0.84874 0.22477,0.25265 0.60109,0.28228 0.84053,0.0662 0.54178,-0.48896 0.67109,-1.31981 0.57765,-1.3969 z m -0.14683,3.72916 c -0.12427,-0.0624 -0.8646,0.23438 -1.24883,0.78268 -0.18542,0.26461 -0.113,0.63807 0.16177,0.83415 0.27477,0.19608 0.64784,0.14053 0.83327,-0.12408 0.41958,-0.59874 0.36184,-1.4385 0.25379,-1.49275 z m -3.73074,-2.54719 c -0.0839,-0.11156 -0.87922,-0.17901 -1.46644,0.13819 -0.28339,0.15309 -0.38365,0.51923 -0.22393,0.81782 0.15972,0.29858 0.51892,0.41654 0.80232,0.26346 0.64123,-0.34638 0.96096,-1.12247 0.88805,-1.21947 z m 1.39778,-2.40443 c -0.0861,-0.10986 -0.88253,-0.16123 -1.46327,0.1678 -0.28026,0.15879 -0.37321,0.52692 -0.2076,0.82224 0.16562,0.29533 0.52707,0.40601 0.80734,0.24722 0.63416,-0.35929 0.93836,-1.14175 0.86353,-1.23726 z M 63.532908,88.325622 c 0.05855,0.124648 -0.251628,0.854147 -0.801274,1.225049 -0.265262,0.178995 -0.631683,0.09976 -0.818431,-0.176983 -0.186747,-0.276744 -0.123103,-0.646194 0.14216,-0.825194 0.600201,-0.40502 1.426637,-0.331251 1.477545,-0.222872 z m 2.88425,0.599628 c 0.09727,0.09749 0.05219,0.88891 -0.339549,1.423901 -0.189057,0.258188 -0.56068,0.307593 -0.830045,0.110354 -0.269366,-0.197242 -0.334471,-0.566438 -0.145411,-0.824628 0.427778,-0.584199 1.230432,-0.794391 1.315005,-0.709627 z m 3.725119,-1.295775 c 0.112815,0.07898 0.206794,0.866095 -0.08539,1.461333 -0.141008,0.287264 -0.498271,0.400877 -0.79797,0.253767 -0.299699,-0.147112 -0.428346,-0.499241 -0.287336,-0.786507 0.319058,-0.649988 1.072605,-0.997266 1.170694,-0.928593 z m -4.826722,-6.134591 c 0.0068,0.137549 -0.557424,0.69438 -1.206797,0.828509 -0.313391,0.06473 -0.622187,-0.147849 -0.68972,-0.474805 -0.06753,-0.326958 0.131772,-0.644483 0.445166,-0.709213 0.709106,-0.146465 1.445465,0.235917 1.451353,0.355511 z m -3.048307,-2.062138 c -0.02404,0.135602 -0.6981,0.552758 -1.361036,0.538857 -0.319935,-0.0067 -0.573617,-0.282734 -0.56662,-0.616519 0.007,-0.333785 0.272029,-0.598934 0.591968,-0.592224 0.723914,0.01518 1.356589,0.551985 1.335688,0.669886 z m -0.186447,4.464733 c 0.03894,0.132096 -0.378483,0.805999 -0.9781,1.089084 -0.289381,0.136612 -0.639507,0.0026 -0.78204,-0.299277 -0.142529,-0.301907 -0.02349,-0.657396 0.265887,-0.794014 0.65477,-0.309126 1.460404,-0.110648 1.494253,0.0042 z m 2.737092,0.290046 c 0.03628,0.132849 -0.394569,0.798248 -0.999743,1.069252 -0.29206,0.130784 -0.63943,-0.0102 -0.775881,-0.314899 -0.136449,-0.304702 -0.01031,-0.657734 0.281755,-0.788523 0.660837,-0.295934 1.462329,-0.08134 1.493869,0.03417 z" /></svg>
