<?xml version="1.0" encoding="UTF-8" standalone="no"?>
<!-- Created with Inkscape (http://www.inkscape.org/) -->

<svg
   width="164.23331mm"
   height="164.76247mm"
   viewBox="0 0 164.23331 164.76247"
   version="1.1"
   id="svg392"
   xml:space="preserve"
   xmlns="http://www.w3.org/2000/svg"
   xmlns:svg="http://www.w3.org/2000/svg"><defs
     id="defs389"><style
       id="style6869">.cls-1{fill:#ffe8c2;}.cls-2{fill:none;stroke:#e5af6e;stroke-miterlimit:10;stroke-width:25.51px;}.cls-3{opacity:0.05;}.cls-4{fill:#534741;}</style></defs><path
     id="path329223-1-9-7"
     style="display:inline;fill:#f7af00;fill-opacity:1;fill-rule:nonzero;stroke:none;stroke-width:0.575927"
     d="m 135.36004,66.98358 -31.31622,6.748076 c 0,0 4.34299,11.208499 18.23874,8.599245 0,0 13.15802,-2.449765 13.07748,-15.347321 M 94.603433,105.44396 74.24973,145.43373 c 0,0 16.922077,4.75632 26.40051,-12.66146 0,0 8.99955,-16.47529 -6.046807,-27.32831 M 110.52843,48.788183 95.320661,20.59304 c 0,0 -9.554205,7.294466 -3.175933,19.912612 0,0 6.019516,11.954091 18.383702,8.282531 M 34.287184,68.152932 68.521559,44.234829 c 0,0 -10.994909,-11.154143 -26.383571,-0.999913 0,0 -14.582463,9.590161 -7.850804,24.918016 M 54.872414,102.362 16.289246,90.536112 c 0,0 -1.51998,17.231028 15.382449,22.972748 0,0 15.993218,5.46382 23.200719,-11.14686" /><path
     id="path329227-4-0-20"
     style="display:inline;fill:#ffc900;fill-opacity:1;fill-rule:nonzero;stroke:none;stroke-width:0.575927"
     d="m 134.74222,67.259758 -30.23165,6.371415 c 0,0 4.3904,10.535548 17.63137,8.049896 0,0 12.67676,-2.130564 12.60028,-14.421311 M 110.09102,48.271805 95.547232,21.013306 c 0,0 -8.894699,7.152463 -2.817603,19.176214 0,0 5.578844,11.580841 17.361391,8.082285 M 34.888984,67.510611 68.011258,44.591207 c 0,0 -10.705816,-10.328219 -25.369687,-0.653242 0,0 -14.167202,8.965803 -7.752587,23.572646 M 54.030302,102.31234 16.864262,90.712492 c 0,0 -1.08662,16.398108 15.018984,21.870108 0,0 15.278353,5.55873 22.147056,-10.27026 m 40.337665,4.0419 -19.814762,38.48354 c 0,0 16.183466,4.13357 25.216019,-12.46292 0,0 8.936946,-15.67791 -5.401257,-26.02062" /><path
     id="path329231-5-9-2"
     style="display:inline;fill:#fef8ec;fill-opacity:1;fill-rule:nonzero;stroke:none;stroke-width:0.575927"
     d="m 133.43045,67.399952 -27.45661,5.916447 c 0,0 3.80813,9.82682 15.99071,7.540117 0,0 11.53622,-2.148491 11.4659,-13.456564 M 109.59083,47.051066 96.257318,22.330883 c 0,0 -8.376312,6.395756 -2.785227,17.458489 0,0 5.278221,10.480489 16.118739,7.261694 M 36.39628,66.678497 66.41137,45.708157 c 0,0 -9.640165,-9.778909 -23.132049,-0.877593 0,0 -12.784739,8.408919 -6.883041,21.847933 M 52.494735,101.63408 18.666774,91.265749 c 0,0 -1.332052,15.107281 13.486038,20.142231 0,0 14.022339,4.7895 20.341923,-9.7739 m 40.855253,6.27439 -17.845131,35.06122 c 0,0 14.836536,4.16946 23.147399,-11.10021 0,0 7.889524,-14.44518 -5.302268,-23.96101" /><path
     id="path329235-5-9-2"
     style="display:inline;fill:#fffcd2;fill-opacity:1;fill-rule:nonzero;stroke:none;stroke-width:0.575927"
     d="m 132.59687,67.578671 -25.79012,5.557203 c 0,0 3.57696,9.230671 15.02033,7.082745 0,0 10.83581,-2.017938 10.76979,-12.639948 M 109.18689,46.300308 96.6628,23.080494 c 0,0 -7.868203,6.007601 -2.616396,16.399083 0,0 4.957657,9.844214 15.140486,6.820731 M 37.308005,66.042914 65.501381,46.345551 c 0,0 -9.055147,-9.185748 -21.728391,-0.824571 0,0 -12.008591,7.898254 -6.464985,20.521934 M 51.468228,101.31813 19.693559,91.578931 c 0,0 -1.251421,14.190679 12.667531,18.920159 0,0 13.170933,4.49885 19.107138,-9.18096 m 41.338931,7.65403 -16.762172,32.93304 c 0,0 13.936326,3.91668 21.742936,-10.42643 0,0 7.410657,-13.56808 -4.980764,-22.50661" /><path
     id="path329255-8-0-0"
     style="display:inline;fill:#ffd500;fill-opacity:1;fill-rule:nonzero;stroke:none;stroke-width:0.575927"
     d="m 127.49569,74.161105 c 0.96866,-1.364606 1.64636,-3.151488 1.63229,-5.485679 l -7.59729,1.637231 c 1.89243,1.442674 3.81482,2.849732 5.965,3.848448 m -5.73086,3.930764 c 1.0881,-0.336397 3.02416,-1.106494 4.63851,-2.665635 -2.49978,-1.249443 -4.70833,-2.980474 -6.94084,-4.668152 l -0.0101,0.002 c 0.67334,2.476744 1.40752,4.933277 2.31243,7.331782 m -1.59447,0.343779 c -0.86123,-2.325246 -1.57281,-4.700924 -2.22764,-7.093638 -0.81919,2.275521 -1.66155,4.542773 -2.37754,6.852701 1.28554,0.35441 2.80934,0.486935 4.60518,0.240937 m -10.71232,-5.521722 c 0,0 1.20961,3.111097 4.58357,4.715426 0.64612,-2.07576 1.39267,-4.117876 2.1326,-6.16288 z m -8.01439,-29.678357 c 1.58049,0.550007 3.48544,0.702908 5.72325,0.03892 l -3.68954,-6.840078 c -0.85816,2.219501 -1.67376,4.457849 -2.03371,6.801163 m -5.372094,-4.408445 c 0.626295,0.951249 1.905415,2.596007 3.85267,3.711919 0.503324,-2.748947 1.550314,-5.352398 2.548994,-7.966777 l -0.005,-0.0091 c -2.19099,1.33687 -4.345607,2.726544 -6.396924,4.264005 m -0.774233,-1.435554 c 1.993132,-1.475095 4.0764,-2.820527 6.191847,-4.116204 -2.413667,-0.152607 -4.825847,-0.329774 -7.243797,-0.373687 0.01788,1.333383 0.315245,2.833748 1.05195,4.489891 m 2.317742,-11.82671 c 0,0 -2.650768,2.028671 -3.251308,5.716057 2.173589,0.04207 4.34285,0.189957 6.513043,0.330687 z M 40.063877,55.613044 c -0.464323,2.117164 -0.361103,4.59 0.856582,7.364279 l 8.305155,-5.802696 c -3.020679,-0.759634 -6.059107,-1.461641 -9.161737,-1.561583 m 4.878093,-7.589396 c -1.137056,0.952508 -3.071981,2.851723 -4.213669,5.528057 3.652551,0.221457 7.202176,1.16443 10.758347,2.043596 l 0.01114,-0.0075 C 49.41299,52.977886 47.265331,50.422917 44.94197,48.023648 m 1.74295,-1.218026 c 2.233082,2.334119 4.311931,4.804203 6.331213,7.323359 -0.184235,-3.126827 -0.336315,-6.255547 -0.662497,-9.371054 -1.730147,0.229448 -3.633019,0.844088 -5.668716,2.047695 m 15.738399,1.148596 c 0,0 -3.056796,-3.093911 -7.944434,-3.29505 0.289844,2.801052 0.441476,5.612923 0.602557,8.424884 z M 42.081138,106.43119 c 1.847386,-1.11813 3.610678,-2.96875 4.915645,-5.9746 L 37.63645,97.587831 c 1.284659,3.090269 2.622726,6.154419 4.444688,8.843359 m -8.585925,1.29684 c 1.39826,0.28004 3.983247,0.55808 6.657504,-0.38734 -2.068229,-3.23957 -3.540678,-6.90686 -5.064253,-10.534166 l -0.01235,-0.004 c -0.65374,3.620206 -1.228495,7.254276 -1.580898,10.925546 m -1.964582,-0.60191 c 0.359447,-3.54864 0.913554,-7.06412 1.540301,-10.564333 -2.19681,2.385366 -4.414665,4.744953 -6.51638,7.242003 1.226622,1.29609 2.843274,2.46319 4.976079,3.32233 M 22.762437,93.028639 c 0,0 -0.417299,4.785454 2.420603,9.052571 1.891671,-2.242141 3.875784,-4.375387 5.854191,-6.516669 z m 73.095196,27.109041 c -0.712384,-2.21749 -2.176916,-4.47485 -4.899543,-6.43957 l -4.937615,9.70162 c 3.378324,-0.84681 6.742265,-1.75661 9.837158,-3.26205 m -0.594865,9.60505 c 0.588859,-1.47593 1.437459,-4.2476 1.080421,-7.33661 -3.700674,1.67527 -7.698315,2.62335 -11.667189,3.63441 l -0.0068,0.0128 c 3.481543,1.3643 6.994391,2.64488 10.593537,3.68944 m -1.036056,2.03622 c -3.474775,-1.0302 -6.873404,-2.26693 -10.240729,-3.5802 1.904484,2.82668 3.778511,5.67171 5.815827,8.41466 1.568598,-1.10595 3.094047,-2.66083 4.424902,-4.83446 m -16.052916,7.03696 c 0,0 4.700718,1.31566 9.600261,-1.01505 -1.828339,-2.46787 -3.527231,-5.01707 -5.235429,-7.56148 z" /><path
     id="path329299-1-5-9"
     style="display:inline;fill:#ffffff;fill-opacity:1;fill-rule:nonzero;stroke:none;stroke-width:0.575927"
     d="m 113.78625,72.806345 c -0.22447,0.161646 -0.46156,0.312664 -0.71837,0.418495 -0.22776,0.0935 -0.47724,0.125139 -0.68631,0.255895 -0.16528,0.102638 -0.0631,0.333131 0.0939,0.370248 0.5576,0.131739 1.24091,-0.376166 1.56628,-0.783651 0.13179,-0.165577 -0.0866,-0.38246 -0.25554,-0.260987 m 0.9178,0.809279 c -0.20823,0.205162 -0.40641,0.418573 -0.60329,0.634612 -0.17897,0.197782 -0.3768,0.382503 -0.49936,0.621084 -0.0933,0.182357 0.14681,0.341639 0.29796,0.233928 0.21643,-0.153222 0.37287,-0.383822 0.54114,-0.587883 0.18476,-0.224141 0.36696,-0.450659 0.53901,-0.684618 0.13708,-0.187896 -0.11848,-0.370892 -0.27546,-0.217123 m 2.61485,3.262525 c 0.0601,-0.306011 0.11238,-0.615469 0.19245,-0.917307 0.0801,-0.301838 0.23472,-0.579871 0.30616,-0.881571 0.0414,-0.17784 -0.21038,-0.267585 -0.31403,-0.136212 -0.38338,0.489629 -0.49279,1.334529 -0.40087,1.931523 0.019,0.122269 0.19231,0.124911 0.21629,0.0036 m 1.44808,-0.717124 c -0.0472,-0.434932 -0.0707,-0.933373 -0.23609,-1.342221 -0.0787,-0.195503 -0.35297,-0.10748 -0.34453,0.08857 0.0183,0.436201 0.20535,0.904031 0.34039,1.316015 0.0452,0.136251 0.25487,0.07495 0.24023,-0.06236 m 3.36495,-0.402724 c -0.20061,-0.312324 -0.28368,-0.651642 -0.30028,-1.019901 -0.0122,-0.27329 -0.47195,-0.221468 -0.42428,0.05056 0.0759,0.422147 0.26114,0.784252 0.53937,1.109274 0.0971,0.114913 0.26693,-0.01383 0.18519,-0.139936 m 0.96477,-1.164239 c -0.11895,-0.234257 -0.32475,-0.417935 -0.49963,-0.612475 -0.17523,-0.194995 -0.34039,-0.430587 -0.56359,-0.570901 -0.11637,-0.07302 -0.32671,0.02884 -0.2436,0.183033 0.13478,0.251861 0.36487,0.441485 0.56272,0.645911 0.17968,0.185708 0.34373,0.394476 0.56658,0.527768 0.0992,0.05935 0.22783,-0.07461 0.17752,-0.173336 m 2.49255,-2.903957 c -0.21638,0.02639 -0.44033,0.012 -0.65301,-0.03955 -0.18248,-0.04362 -0.34351,-0.149794 -0.53275,-0.133519 -0.10215,0.0092 -0.14502,0.130653 -0.0893,0.209134 0.25252,0.352966 0.94124,0.262805 1.30002,0.171932 0.12607,-0.03289 0.11298,-0.224604 -0.025,-0.207997 m 0.47879,-1.156841 c -0.53253,0.182587 -1.04182,0.197762 -1.5965,0.14028 -0.27025,-0.02805 -0.33407,0.375598 -0.0633,0.419305 0.59863,0.09629 1.23404,-0.01375 1.79495,-0.229279 0.21491,-0.08281 0.0811,-0.403922 -0.13511,-0.330306 m 1.28921,5.956975 c -0.17853,0.340277 -0.4138,0.626166 -0.72042,0.859514 -0.23844,0.181223 -0.5413,0.26809 -0.73264,0.498787 -0.0892,0.107756 -0.0225,0.300917 0.12297,0.312759 0.75183,0.05986 1.39951,-0.93201 1.63508,-1.538045 0.0789,-0.201826 -0.20524,-0.32112 -0.30499,-0.133015 m 2.53446,-2.325772 c -0.38518,0.312479 -0.93076,0.601374 -1.20332,1.026215 -0.17671,0.274009 0.11203,0.558081 0.38823,0.396414 0.21593,-0.126604 0.38393,-0.354508 0.55217,-0.53887 0.18307,-0.200957 0.34181,-0.417308 0.52068,-0.620849 0.13951,-0.158443 -0.0941,-0.394898 -0.25776,-0.26291 m 1.83714,-4.595551 c -0.0509,0.629 -0.15906,1.240485 -0.40429,1.825593 -0.2318,0.553559 -0.64248,0.98637 -0.89061,1.519799 -0.13932,0.299676 0.22889,0.546189 0.47893,0.377107 1.06252,-0.718107 1.48314,-2.517005 1.47832,-3.711323 -0.001,-0.375762 -0.63192,-0.384566 -0.66235,-0.01118 M 98.924276,29.69167 c -0.217797,-0.170535 -0.428903,-0.356143 -0.602109,-0.573293 -0.153264,-0.192674 -0.253173,-0.423453 -0.437012,-0.587802 -0.144632,-0.130133 -0.337519,0.03224 -0.329403,0.193393 0.02887,0.572226 0.707073,1.086923 1.189088,1.285851 0.195745,0.08043 0.343165,-0.189793 0.179436,-0.318149 m -0.521462,1.106936 c -0.255061,-0.142803 -0.515248,-0.273666 -0.777593,-0.402539 -0.239821,-0.116761 -0.472356,-0.255286 -0.73564,-0.306502 -0.201126,-0.03876 -0.287191,0.236206 -0.141626,0.351349 0.207465,0.165156 0.472525,0.251136 0.715395,0.355872 0.266751,0.114985 0.535068,0.226837 0.807706,0.326875 0.218652,0.07929 0.323181,-0.217148 0.131758,-0.325055 m -2.404595,3.420439 c 0.310631,-0.02758 0.622405,-0.06359 0.934601,-0.0708 0.312196,-0.0072 0.622309,0.06382 0.931965,0.04835 0.18233,-0.0098 0.198359,-0.276609 0.04331,-0.339544 -0.577072,-0.231753 -1.41899,-0.101369 -1.966719,0.153275 -0.112129,0.05233 -0.06637,0.2195 0.05685,0.208714 m 1.092221,1.190892 c 0.40456,-0.166499 0.876699,-0.327995 1.223258,-0.60078 0.165827,-0.130063 0.0049,-0.368935 -0.181074,-0.306199 -0.41383,0.139102 -0.810993,0.449145 -1.169025,0.693644 -0.118271,0.08133 -9.55e-4,0.26566 0.126841,0.213335 m 1.32449,3.119422 c 0.244048,-0.279696 0.546773,-0.454038 0.895817,-0.572609 0.259062,-0.08788 0.08118,-0.514968 -0.166796,-0.393381 -0.38428,0.190509 -0.680409,0.469353 -0.915021,0.827131 -0.0833,0.125285 0.08767,0.252499 0.186,0.138859 m 1.386977,0.602107 c 0.19183,-0.179517 0.310876,-0.428356 0.448976,-0.650518 0.13844,-0.222627 0.31867,-0.446902 0.39123,-0.70036 0.0377,-0.132107 -0.11875,-0.305727 -0.24367,-0.182944 -0.20432,0.199629 -0.32231,0.473451 -0.463506,0.720425 -0.128277,0.224322 -0.28306,0.440045 -0.348968,0.691218 -0.02935,0.111825 0.135141,0.198008 0.215938,0.122179 m 3.483526,1.584548 c -0.0856,-0.200459 -0.13423,-0.419546 -0.14399,-0.638164 -0.009,-0.187411 0.0481,-0.37164 -0.0202,-0.548852 -0.0373,-0.09553 -0.16589,-0.102866 -0.22573,-0.02746 -0.26861,0.340879 0.01,0.977192 0.19717,1.296433 0.0667,0.111918 0.24719,0.04592 0.19279,-0.08196 m 1.24439,0.13741 c -0.32376,-0.460551 -0.48025,-0.945435 -0.57963,-1.494167 -0.0484,-0.267358 -0.45381,-0.216159 -0.42034,0.05602 0.0743,0.601743 0.3571,1.181317 0.7204,1.659952 0.13942,0.183315 0.41052,-0.03469 0.27957,-0.22181 m -5.361714,2.898232 c -0.376549,-0.07663 -0.716678,-0.222915 -1.026227,-0.452357 -0.240492,-0.178497 -0.408316,-0.445146 -0.683196,-0.56462 -0.128337,-0.05561 -0.295263,0.06226 -0.266102,0.205255 0.15203,0.73873 1.285098,1.084349 1.932772,1.141697 0.21582,0.01954 0.251204,-0.286597 0.04275,-0.329975 m 2.939927,1.785931 c -0.40744,-0.282845 -0.83693,-0.726299 -1.3209,-0.869673 -0.3124,-0.09335 -0.50475,0.263116 -0.27252,0.483321 0.18177,0.172098 0.44746,0.269934 0.6714,0.38013 0.24401,0.11981 0.49603,0.211971 0.74136,0.327039 0.19104,0.08983 0.35303,-0.20042 0.18066,-0.320817 m 4.92547,0.483702 c -0.61826,0.126423 -1.23567,0.192932 -1.86594,0.120469 -0.59623,-0.06835 -1.12634,-0.342147 -1.70778,-0.431797 -0.32663,-0.05029 -0.46077,0.372027 -0.2287,0.565047 0.98575,0.820314 2.8306,0.722963 3.97627,0.385506 0.36051,-0.105952 0.19323,-0.714055 -0.17385,-0.639225 m -49.766177,4.255498 c 0.18712,-0.306423 0.394891,-0.606577 0.649665,-0.862888 0.226123,-0.226883 0.510227,-0.391068 0.694691,-0.652874 0.146207,-0.2061 -0.09539,-0.428949 -0.303563,-0.393561 -0.739139,0.125721 -1.300586,1.077371 -1.482729,1.727889 -0.0735,0.264118 0.301065,0.411812 0.441936,0.181434 m -1.521325,-0.499032 c 0.145171,-0.350039 0.274012,-0.704818 0.399924,-1.062065 0.11374,-0.326411 0.256921,-0.646827 0.281754,-0.993256 0.0185,-0.264585 -0.352515,-0.332661 -0.479093,-0.127682 -0.181767,0.292308 -0.251501,0.646402 -0.349129,0.974873 -0.107163,0.36076 -0.210006,0.723049 -0.296811,1.089064 -0.06839,0.293393 0.333451,0.381883 0.443355,0.119066 m -4.82664,-2.561907 c 0.08508,0.395101 0.181296,0.790367 0.240155,1.190634 0.05886,0.400266 0.01569,0.809972 0.08488,1.205694 0.04165,0.232899 0.390946,0.212196 0.448166,0.0031 0.209737,-0.777814 -0.09317,-1.84006 -0.510944,-2.504834 -0.08578,-0.136059 -0.295802,-0.05134 -0.262252,0.105406 m -1.374663,1.588654 c 0.280521,0.494353 0.565252,1.076365 0.974719,1.47969 0.195325,0.193061 0.480269,-0.05088 0.369261,-0.280215 -0.246384,-0.510514 -0.712294,-0.97313 -1.086816,-1.395585 -0.12445,-0.139465 -0.345426,0.03991 -0.257164,0.19611 m -3.844336,2.185887 c 0.4022,0.270458 0.676773,0.63267 0.886204,1.063069 0.15528,0.319463 0.682164,0.02463 0.484835,-0.275359 -0.308513,-0.464561 -0.717861,-0.802111 -1.220047,-1.048348 -0.176036,-0.0877 -0.314274,0.151813 -0.150992,0.260638 m -0.562709,1.876438 c 0.263722,0.218835 0.606005,0.333362 0.916635,0.476514 0.311289,0.143516 0.631343,0.340509 0.972261,0.394547 0.177673,0.02801 0.378528,-0.200007 0.199147,-0.341606 -0.291841,-0.231782 -0.666426,-0.341083 -1.009795,-0.48437 -0.311881,-0.130189 -0.616788,-0.295786 -0.953681,-0.341631 -0.14999,-0.02042 -0.235928,0.204408 -0.124567,0.296546 m -1.507262,4.72405 c 0.24696,-0.141148 0.524003,-0.237543 0.80659,-0.283945 0.242156,-0.04054 0.490646,0.0043 0.710129,-0.110999 0.11824,-0.0628 0.107399,-0.22921 -9.2e-5,-0.294465 -0.485613,-0.292566 -1.268475,0.164046 -1.653707,0.454227 -0.134883,0.103114 -0.0205,0.324923 0.13708,0.235182 m 0.01866,1.621213 c 0.547256,-0.487559 1.152647,-0.763846 1.850076,-0.976574 0.339814,-0.103592 0.209008,-0.616929 -0.139441,-0.531753 -0.770294,0.188757 -1.47874,0.642034 -2.043232,1.183238 -0.216154,0.207633 0.110149,0.522424 0.332597,0.325089 M 39.03246,52.767404 c 0.03991,-0.495987 0.176123,-0.955934 0.425261,-1.389442 0.193872,-0.336835 0.513831,-0.593891 0.62554,-0.965798 0.05193,-0.17361 -0.127719,-0.369973 -0.308946,-0.310339 -0.93602,0.309849 -1.205621,1.820126 -1.177496,2.661706 0.0088,0.280501 0.412304,0.27859 0.435641,0.0039 m -1.855161,4.056312 c 0.303029,-0.567635 0.811305,-1.188484 0.920936,-1.832911 0.07181,-0.416099 -0.421975,-0.608207 -0.671362,-0.275535 -0.194864,0.260337 -0.279906,0.617083 -0.387631,0.922064 -0.117039,0.332272 -0.196873,0.670556 -0.307541,1.003782 -0.08647,0.25953 0.316441,0.422852 0.445598,0.1826 m 0.152046,6.407461 c -0.262308,-0.77531 -0.44661,-1.558801 -0.452332,-2.380345 -0.0057,-0.777138 0.266156,-1.501084 0.29051,-2.262518 0.01359,-0.427728 -0.556552,-0.534793 -0.770634,-0.206545 -0.909906,1.394385 -0.490962,3.751196 0.129218,5.171897 0.194849,0.447104 0.958677,0.137869 0.803238,-0.322489 m -9.701139,32.491119 c -0.340649,0.06066 -0.689287,0.09942 -1.034263,0.06726 -0.305736,-0.02898 -0.600591,-0.151581 -0.906665,-0.120502 -0.241555,0.02363 -0.258521,0.386393 -0.105189,0.536786 0.544485,0.533947 1.590401,0.328958 2.182148,0.01871 0.239982,-0.126344 0.120195,-0.547694 -0.136031,-0.50225 m 0.560994,1.639418 c -0.347231,0.127154 -0.687985,0.271466 -1.028772,0.42001 -0.310575,0.136821 -0.634711,0.244528 -0.905747,0.470636 -0.206718,0.173084 -0.0303,0.534655 0.198434,0.495265 0.326954,-0.05511 0.631086,-0.248798 0.933338,-0.400682 0.331926,-0.166867 0.662341,-0.33847 0.985708,-0.52626 0.258479,-0.151537 0.0783,-0.553674 -0.182961,-0.458969 m 1.057037,5.899255 c 0.239823,-0.35355 0.472966,-0.71662 0.732626,-1.05173 0.259661,-0.33511 0.588636,-0.59088 0.83863,-0.93146 0.146565,-0.20123 -0.08216,-0.48117 -0.27155,-0.38033 -0.702624,0.37775 -1.302085,1.39087 -1.537798,2.21743 -0.04807,0.16941 0.142821,0.28618 0.238092,0.14609 m 2.01328,0.0268 c 0.193709,-0.58923 0.449589,-1.24452 0.49728,-1.87762 0.02324,-0.30248 -0.331032,-0.36892 -0.432585,-0.11171 -0.226505,0.57196 -0.283497,1.29496 -0.366669,1.91222 -0.02696,0.20446 0.240538,0.26297 0.301974,0.0771 m 3.963406,1.68456 c -0.046,-0.53221 0.05375,-1.02218 0.24366,-1.50582 0.141066,-0.35884 -0.398629,-0.5931 -0.499616,-0.21268 -0.154603,0.5916 -0.153787,1.17769 -0.0288,1.77699 0.04279,0.21106 0.304153,0.15688 0.284759,-0.0585 m 1.729706,-0.86344 c 4.85e-4,-0.37856 -0.124072,-0.74902 -0.208145,-1.11319 -0.08421,-0.36498 -0.134276,-0.7755 -0.302673,-1.10167 -0.08788,-0.16987 -0.379009,-0.17672 -0.373983,0.0756 0.0071,0.41153 0.155287,0.80551 0.259266,1.1974 0.09441,0.35597 0.158412,0.73132 0.330402,1.04825 0.07656,0.14111 0.295127,0.0533 0.295133,-0.10639 m 4.410013,-2.09733 c -0.255146,-0.1077 -0.49562,-0.27269 -0.702558,-0.47802 -0.177903,-0.17539 -0.29659,-0.41705 -0.515885,-0.51997 -0.118627,-0.055 -0.234911,0.0729 -0.217427,0.21008 0.08064,0.61836 0.896226,0.95321 1.345931,1.07129 0.158573,0.0403 0.252506,-0.21443 0.08994,-0.28338 m 1.185976,-1.17193 c -0.694482,-0.11401 -1.268448,-0.42774 -1.851707,-0.864444 -0.284144,-0.212821 -0.583353,0.263634 -0.307534,0.496874 0.610076,0.51527 1.37773,0.78973 2.122364,0.88002 0.285426,0.0343 0.318543,-0.4655 0.03688,-0.51245 m -1.938973,8.49112 c -0.390709,0.32004 -0.813639,0.53314 -1.286044,0.6321 -0.367236,0.0767 -0.752592,-0.01 -1.095529,0.16101 -0.159954,0.08 -0.195211,0.37161 -0.04043,0.48198 0.800774,0.56874 2.080952,-0.28087 2.685333,-0.90478 0.201785,-0.20748 -0.04617,-0.54654 -0.263326,-0.37031 m 4.129432,-1.32763 c -0.604396,0.14915 -1.373504,0.16309 -1.916446,0.53017 -0.351196,0.23616 -0.191367,0.78977 0.206716,0.76293 0.311343,-0.0213 0.626787,-0.20393 0.91786,-0.33054 0.31692,-0.13822 0.615546,-0.31211 0.929278,-0.45639 0.244512,-0.11214 0.118952,-0.56854 -0.137408,-0.50617 m 4.639456,-4.69783 c -0.412344,0.77423 -0.878395,1.48848 -1.481667,2.0792 -0.570508,0.559 -1.271282,0.84596 -1.848536,1.36843 -0.32421,0.29358 -0.05492,0.85096 0.318327,0.79748 1.585824,-0.22674 3.07051,-2.26098 3.740853,-3.79741 0.211161,-0.48325 -0.483947,-0.90715 -0.728977,-0.4477 m 32.566193,30.68357 c -0.01438,0.38274 -0.05246,0.77026 -0.160752,1.14104 -0.09645,0.32852 -0.284276,0.62833 -0.320657,0.96801 -0.02961,0.26791 0.329964,0.35164 0.514405,0.2113 0.654852,-0.49836 0.680234,-1.67687 0.500023,-2.37856 -0.07361,-0.28466 -0.52202,-0.22964 -0.533019,0.0582 m 1.765654,-0.31767 c 0.05076,0.40188 0.120141,0.79976 0.193748,1.19845 0.06853,0.3636 0.104912,0.73677 0.271586,1.07326 0.127755,0.25675 0.528788,0.12918 0.539787,-0.12758 0.01692,-0.36679 -0.109988,-0.73358 -0.19544,-1.0908 -0.09391,-0.39231 -0.192902,-0.78382 -0.309659,-1.17054 -0.09476,-0.30938 -0.537249,-0.18499 -0.500022,0.11721 m 6.141394,-0.0935 c -0.301198,-0.32533 -0.613395,-0.64507 -0.891749,-0.98874 -0.278354,-0.34367 -0.46195,-0.74873 -0.747918,-1.08283 -0.169213,-0.19615 -0.500023,0.003 -0.440798,0.22805 0.22336,0.83485 1.105802,1.67129 1.881641,2.07715 0.159059,0.0829 0.318119,-0.10446 0.198824,-0.23363 m 0.47091,-2.19277 c -0.547402,-0.31735 -1.147259,-0.71444 -1.770807,-0.8803 -0.297814,-0.0797 -0.44249,0.29503 -0.207285,0.45211 0.522866,0.35005 1.234404,0.54221 1.834262,0.74395 0.198824,0.0662 0.316427,-0.21529 0.14383,-0.31576 m 2.561279,-4.02346 c -0.543172,-0.0455 -1.01189,-0.2424 -1.45438,-0.53663 -0.328272,-0.21848 -0.681925,0.32852 -0.323195,0.50713 0.5584,0.27509 1.145567,0.37955 1.773345,0.35084 0.220822,-0.009 0.224206,-0.3038 0.0042,-0.32134 m -0.483236,-2.04326 c -0.379036,-0.0686 -0.777531,8e-4 -1.160796,0.0271 -0.384112,0.0263 -0.806297,0.007 -1.170104,0.13236 -0.189517,0.0654 -0.260587,0.38195 -0.0068,0.42181 0.413724,0.0662 0.840985,-0.0247 1.256401,-0.0678 0.377344,-0.0391 0.767378,-0.0415 1.122724,-0.17224 0.158214,-0.0582 0.118449,-0.31256 -0.04146,-0.34127 m -1.127844,-5.19069 c -0.164136,0.25915 -0.38242,0.49198 -0.6337,0.68096 -0.2149,0.16266 -0.483101,0.24878 -0.634546,0.46965 -0.08122,0.1196 0.02115,0.26951 0.162444,0.27509 0.637084,0.0231 1.152335,-0.80694 1.369773,-1.27659 0.0753,-0.16585 -0.159059,-0.31417 -0.263971,-0.14911 m -0.912143,-1.5052 c -0.267355,0.73757 -0.708154,1.30769 -1.274169,1.86585 -0.275816,0.2719 0.13537,0.68414 0.4298,0.425 0.650621,-0.57331 1.094803,-1.36191 1.349468,-2.15849 0.0973,-0.30539 -0.395957,-0.43137 -0.505099,-0.13236 m 8.076423,3.64271 c 0.234359,0.484 0.3545,0.98396 0.349423,1.5174 -0.0042,0.41463 -0.17598,0.8197 -0.08037,1.22476 0.04484,0.18898 0.329118,0.27988 0.473794,0.13077 0.746226,-0.77186 0.177673,-2.32195 -0.313889,-3.0938 -0.16329,-0.25755 -0.557554,-0.0478 -0.428953,0.22087 m -0.418889,-4.74611 c 0.01608,0.68654 -0.1396,1.52856 0.108296,2.18719 0.159059,0.4258 0.748764,0.35084 0.809681,-0.0885 0.04738,-0.34367 -0.06599,-0.72082 -0.128602,-1.0613 -0.06853,-0.37078 -0.176826,-0.728 -0.252126,-1.09639 -0.05838,-0.28705 -0.543171,-0.23203 -0.537249,0.059 m -3.681733,-5.90861 c 0.684464,0.58926 1.297012,1.22636 1.755578,1.99104 0.434029,0.72321 0.566861,1.53972 0.962818,2.26373 0.222514,0.40666 0.840139,0.2129 0.868905,-0.20412 0.122679,-1.77176 -1.587211,-3.75801 -2.978137,-4.76589 -0.437414,-0.31736 -1.015274,0.36519 -0.609164,0.71524" /></svg>
