<?xml version="1.0" encoding="UTF-8" standalone="no"?>
<!-- Created with Inkscape (http://www.inkscape.org/) -->

<svg
   width="164.23331mm"
   height="164.76247mm"
   viewBox="0 0 164.23331 164.76247"
   version="1.1"
   id="svg392"
   xml:space="preserve"
   xmlns="http://www.w3.org/2000/svg"
   xmlns:svg="http://www.w3.org/2000/svg"><defs
     id="defs389"><style
       id="style6869">.cls-1{fill:#ffe8c2;}.cls-2{fill:none;stroke:#e5af6e;stroke-miterlimit:10;stroke-width:25.51px;}.cls-3{opacity:0.05;}.cls-4{fill:#534741;}</style><clipPath
       clipPathUnits="userSpaceOnUse"
       id="clipPath9432"><g
         id="g9438"><g
           id="g9436"
           transform="matrix(-0.19792362,-0.10456243,0.10653445,-0.19938925,136.56655,4.4417626)"><path
             d="M -77.574624,402.21183 H 722.42538 v -800 H -77.574624 Z"
             id="path9434" /></g></g></clipPath><clipPath
       clipPathUnits="userSpaceOnUse"
       id="clipPath9776"><g
         id="g9782"><g
           id="g9780"
           transform="matrix(-0.19792362,-0.10456243,0.10653445,-0.19938925,136.7506,3.9417363)"><path
             d="M -77.574624,402.21183 H 722.42538 v -800 H -77.574624 Z"
             id="path9778" /></g></g></clipPath></defs><path
     id="path45816-0-2"
     style="display:inline;opacity:0.422872;fill:#4d4d4d;fill-opacity:1;stroke-width:6.0037;stop-color:#000000"
     d="m 93.274952,94.676622 c 0.57551,6.587238 -8.233237,13.631138 -10.190157,13.700848 -1.620659,0.0577 -6.497797,-7.51957 -6.89031,-12.012241 -0.392513,-4.492672 3.069211,-9.04476 7.76497,-8.875201 5.962594,0.215303 8.922983,2.693922 9.315497,7.186594 z M 38.710079,60.908189 C 37.774278,67.662018 27.571749,72.678891 25.645138,72.291043 24.04958,71.96984 21.010334,63.214601 21.648575,58.608308 c 0.638242,-4.606292 5.053315,-8.370432 9.599756,-7.101287 5.772993,1.611539 8.099989,4.794876 7.461748,9.401168 z m 68.331031,-24.60504 c 0,0 1.75638,6.216955 -6.35777,11.53865 -8.11435,5.32159 -11.981643,3.461061 -12.336466,1.858469 -0.354717,-1.60279 6.655956,-12.73132 8.034155,-14.571182 1.378412,-1.84026 3.901571,-4.260281 3.901571,-4.260281 z m -29.507815,94.234261 2.684874,1.75483 c 2.191721,1.43249 6.786755,5.14967 1.443267,9.48157 l -5.526461,4.48024 c -0.08494,0.0688 -0.671049,-0.33819 -0.762458,-0.39798 l -7.796044,-5.09963 c -0.877024,-0.57369 -2.821924,-1.57532 -2.908978,-2.04031 0,0 3.007647,-11.6382 7.443153,-11.47051 2.927669,0.11067 5.331213,3.23203 5.422647,3.29179 z M 66.74401,23.92016 l 2.684875,1.754821 c 2.19172,1.432498 6.786754,5.149669 1.443267,9.481571 l -5.526462,4.480239 c -0.08494,0.06885 -0.671049,-0.338182 -0.762457,-0.397971 l -7.796045,-5.099639 c -0.877023,-0.573686 -2.821924,-1.575311 -2.908977,-2.040307 0,0 3.007646,-11.638195 7.443152,-11.470513 2.927669,0.110676 5.331214,3.232038 5.422647,3.291799 z m -4.563423,38.525418 c 0,0 -1.140032,5.566358 7.567539,9.274499 8.70776,3.708029 12.413475,1.675067 12.608748,0.250945 0.195146,-1.424284 -7.988309,-10.27258 -9.561902,-11.711379 -1.573849,-1.43912 -4.358874,-3.253566 -4.358874,-3.253566 z m 75.254393,45.781782 c 0,0 6.29747,-3.75069 3.71335,-14.397703 -2.58437,-10.647082 -7.23985,-12.108439 -8.782,-11.065874 -1.54221,1.04281 -4.39482,15.608328 -4.68474,18.185857 -0.29005,2.57803 -0.0824,6.51759 -0.0824,6.51759 z m -91.492715,-5.01732 c 0,0 5.357831,-5.008044 0.574534,-14.860272 -4.78355,-9.852242 -9.642465,-10.287202 -10.928188,-8.939572 -1.285736,1.347886 -0.983639,16.188549 -0.720209,18.768938 0.263403,2.580896 1.301953,6.386026 1.301953,6.386026 z" /><path
     id="path9215-4"
     clip-path="url(#clipPath9776)"
     style="display:inline;fill:#ff8266;fill-opacity:1;fill-rule:nonzero;stroke:none;stroke-width:0.224952"
     d="m 100.03682,30.134584 c 0,0 4.51857,1.74976 3.41243,8.033223 -1.10615,6.283463 -7.478898,8.757309 -9.492918,10.267661 -2.013609,1.510057 -5.963548,2.894051 -6.193048,1.399853 -0.229592,-1.494502 2.950792,-5.516035 5.02366,-8.534437 2.072868,-3.018402 5.332276,-12.335833 7.249876,-11.1663 M 68.609336,56.34448 c 0,0 -4.37265,2.008776 -2.623844,7.318125 1.748806,5.309348 8.415216,6.747378 10.595678,7.831522 2.180019,1.083935 6.29688,1.846176 6.376929,0.529508 0.08011,-1.316942 -3.528513,-4.443388 -5.92065,-6.824494 C 74.645313,62.818035 70.421854,55.12296 68.609336,56.34448 m 58.214384,51.53606 c 0,0 5.10925,2.05596 9.08496,-3.96272 3.97571,-6.01867 0.61792,-12.979016 0.12403,-15.777399 -0.49377,-2.797823 -2.69128,-6.989247 -4.0451,-5.938854 -1.35414,1.050573 -1.84857,6.814348 -2.48021,10.897463 -0.63163,4.083114 -5.18443,14.25986 -2.68368,14.78151 m -91.323474,-2.74612 c 0,0 5.428425,0.91917 8.036565,-5.809758 2.60814,-6.728929 -2.149157,-12.813832 -3.225297,-15.442843 -1.075911,-2.628489 -4.112164,-6.255303 -5.212215,-4.940189 -1.100318,1.315356 -0.360905,7.052702 -0.112029,11.177108 0.248876,4.124405 -2.041199,15.039342 0.512976,15.015682" /><path
     id="path45816-4"
     style="display:inline;fill:#db2605;fill-opacity:1;stroke-width:6.0037;stop-color:#000000"
     d="m 91.483701,93.295987 c 1.49964,6.44003 -6.226538,14.656883 -8.154021,15.002153 -1.596279,0.28594 -7.494233,-6.527 -8.517027,-10.919278 -1.022795,-4.392273 1.761665,-9.387453 6.434336,-9.882473 5.933278,-0.628568 9.213917,1.407324 10.236712,5.799598 z M 37.274995,59.101726 c 0,6.822146 -9.41219,13.270971 -11.37271,13.166899 -1.623639,-0.08619 -5.833416,-8.312221 -5.833416,-12.965108 0,-4.652886 3.85453,-9.02074 8.529533,-8.424796 5.936238,0.756718 8.676593,3.570118 8.676593,8.223005 z M 99.395962,29.997695 c 0,0 6.502378,1.908573 5.936768,8.420584 -0.56552,6.512316 -7.512392,9.720113 -10.87055,11.156471 -3.35805,1.436158 -5.98132,1.192632 -6.598582,0.770913 C 87.246533,49.924049 99.395962,29.997695 99.395962,29.997695 M 73.437896,131.35154 c 0,0 -0.591477,-0.87921 0.229112,-2.45426 0,0 -0.389299,1.67566 -0.229112,2.45426 m -8.032194,-108.297114 2.684875,1.754819 c 2.191721,1.432497 6.786754,5.149671 1.443267,9.481573 l -5.526462,4.480237 c -0.08494,0.06886 -0.671049,-0.33818 -0.762457,-0.397973 L 55.44888,33.273447 c -0.877023,-0.573687 -2.821923,-1.575314 -2.908977,-2.040308 0,0 3.007647,-11.638195 7.443152,-11.470514 2.927669,0.110678 5.331214,3.232041 5.422647,3.291801 z m 3.835048,33.101331 c 0,0 -6.35398,2.363991 -5.126309,7.930264 1.227609,5.566545 8.546253,7.575862 12.072574,8.448378 3.526194,0.872355 6.142806,0.373664 6.72167,-0.05865 C 83.487359,72.04355 69.24075,56.155757 69.24075,56.155757 m 56.94499,51.341743 c 0,0 6.87785,3.45936 11.47973,-2.32918 4.6022,-5.788709 1.33987,-13.79609 -0.32617,-17.572971 -1.6661,-3.776635 -4.0309,-5.60486 -4.87112,-5.73559 -0.83997,-0.130663 -6.28244,25.637741 -6.28244,25.637741 m -91.390126,-2.60128 c 0,0 7.454225,1.91323 10.723024,-4.72438 3.269066,-6.637849 -1.617025,-13.766193 -4.046043,-17.101306 -2.42903,-3.334858 -5.127499,-4.616865 -5.976216,-4.565396 -0.848463,0.05148 -0.700765,26.391082 -0.700765,26.391082 m 41.355802,24.73766 2.684874,1.75482 c 2.191721,1.4325 6.786755,5.14967 1.443267,9.48157 l -5.526461,4.48024 c -0.08494,0.0689 -0.67105,-0.33818 -0.762457,-0.39797 l -7.796046,-5.09964 c -0.877023,-0.57368 -2.821923,-1.57531 -2.908977,-2.0403 0,0 3.007647,-11.6382 7.443153,-11.47052 2.927669,0.11068 5.331213,3.23204 5.422647,3.2918 z" /><path
     id="path9243-0"
     style="display:inline;fill:#f9a68c;fill-opacity:1;fill-rule:nonzero;stroke:none;stroke-width:0.224952"
     d="m 92.442833,45.951265 c 0,0 -0.116193,2.404819 -0.967489,3.055234 -0.851296,0.650416 0.631672,-0.992711 0.440828,-3.34395 -0.190951,-2.35104 0.526661,0.288716 0.526661,0.288716 m 2.10304,-2.174754 c 0,0 0.903457,2.220203 0.399976,3.165841 -0.503464,0.945647 0.159134,-1.162326 -1.001316,-3.20459 -1.160649,-2.042369 0.60134,0.03875 0.60134,0.03875 m 2.403242,-1.662103 c 0,0 1.552287,1.819998 1.366601,2.87242 -0.185792,1.052622 -0.209793,-1.150136 -1.952033,-2.721494 -1.742347,-1.57116 0.585432,-0.150926 0.585432,-0.150926 m 1.935597,-2.228238 c 0,0 2.176908,0.994861 2.446848,2.02388 0.26983,1.029219 -0.67179,-0.951894 -2.918387,-1.641996 -2.246492,-0.690302 0.471539,-0.381884 0.471539,-0.381884 m 1.221598,-2.896086 c 0,0 2.29032,0.931284 2.62973,1.655943 0.33931,0.724859 -1.50484,-0.957864 -2.736085,-1.094941 -1.230944,-0.137172 0.106355,-0.561002 0.106355,-0.561002 m 0.33737,-2.726011 c 0,0 2.27226,0.144762 2.7105,0.725786 0.43816,0.58072 -0.79261,-0.47115 -2.54654,-0.05036 -1.753818,0.420593 -0.16396,-0.675429 -0.16396,-0.675429 M 77.126191,133.35955 c 0,0 1.020301,0.27877 2.2435,-1.00768 0,0 -1.457055,0.90924 -2.2435,1.00768 m -0.137808,1.45904 c 0,0 1.506173,0.95617 3.515569,-0.42836 0,0 -1.972948,0.70803 -3.515569,0.42836 m -1.011034,0.89236 c 0,0 2.577804,2.05266 5.254754,1.4284 0,0 -2.367896,1.54276 -5.254754,-1.4284 m 4.315928,4.76412 c 0,0 -3.427768,-0.58069 -4.877571,-3.02264 -1.449632,-2.44173 0.643192,1.54184 4.877571,3.02264 m -1.884836,2.0647 c 0,0 -3.27566,-1.16743 -4.281471,-3.82442 -1.005836,-2.6568 0.673527,1.71819 4.281471,3.82442 m -2.456875,1.54044 c 0,0 -2.922777,-1.88745 -3.296335,-4.70431 -0.373703,-2.81727 0.230794,1.85986 3.296335,4.70431 m -1.570932,0.93013 c 0,0 -3.248191,-1.24203 -4.193412,-3.92131 -0.945468,-2.6789 0.378023,1.66014 4.193412,3.92131 M 72.10475,131.95205 c 0,0 -1.387565,-1.12203 -0.727162,-3.47568 0,0 -0.03339,2.10087 0.727162,3.47568 m -0.517089,1.2471 c 0,0 -2.767846,-1.78675 -3.040023,-4.52895 0,0 -0.694437,2.7445 3.040023,4.52895 m -5.887437,-2.56397 c 0,0 1.651804,3.06742 4.424018,3.65785 2.772042,0.59021 -1.662755,-0.1144 -4.424018,-3.65785 m -1.342626,2.45399 c 0,0 2.156759,2.73409 4.988909,2.83393 2.832176,0.0996 -1.838711,-0.0864 -4.988909,-2.83393 m -0.663438,2.82849 c 0,0 2.722912,2.16735 5.502783,1.61514 2.780042,-0.55198 -1.830357,0.37969 -5.502783,-1.61514 m -0.372431,1.79086 c 0,0 2.218335,2.68401 5.052026,2.71914 2.833717,0.0349 -1.689121,0.17517 -5.052026,-2.71914 M 66.516224,26.641917 c 0,0 1.020301,0.278768 2.2435,-1.007685 0,0 -1.457055,0.909241 -2.2435,1.007685 m -0.137808,1.459046 c 0,0 1.506173,0.956171 3.515569,-0.428355 0,0 -1.972948,0.708021 -3.515569,0.428355 m -1.011034,0.892355 c 0,0 2.577804,2.052657 5.254754,1.428405 0,0 -2.367896,1.542753 -5.254754,-1.428405 m 4.315928,4.764123 c 0,0 -3.427768,-0.580694 -4.877571,-3.022642 -1.449632,-2.441724 0.643192,1.54184 4.877571,3.022642 m -1.884836,2.064694 c 0,0 -3.27566,-1.167427 -4.281471,-3.824424 -1.005836,-2.656799 0.673527,1.718198 4.281471,3.824424 m -2.456875,1.540444 c 0,0 -2.922777,-1.887449 -3.296335,-4.704307 -0.373703,-2.817278 0.230794,1.859862 3.296335,4.704307 m -1.570932,0.930125 c 0,0 -3.248191,-1.242032 -4.193412,-3.921306 -0.945468,-2.678903 0.378023,1.660138 4.193412,3.921306 M 62.827929,24.633908 c 0,0 -0.591477,-0.879209 0.229112,-2.454257 0,0 -0.389299,1.675658 -0.229112,2.454257 m -1.333146,0.600505 c 0,0 -1.387565,-1.122033 -0.727162,-3.475681 0,0 -0.03339,2.10087 0.727162,3.475681 m -0.517089,1.247109 c 0,0 -2.767846,-1.786751 -3.040023,-4.528953 0,0 -0.694437,2.744508 3.040023,4.528953 m -5.887437,-2.563977 c 0,0 1.651804,3.067422 4.424018,3.657852 2.772042,0.590207 -1.662755,-0.114404 -4.424018,-3.657852 m -1.342626,2.453989 c 0,0 2.156759,2.734088 4.988909,2.833932 2.832176,0.09965 -1.838711,-0.08641 -4.988909,-2.833932 m -0.663438,2.828492 c 0,0 2.722912,2.167353 5.502783,1.615142 2.780042,-0.551987 -1.830357,0.379687 -5.502783,-1.615142 m -0.372431,1.790865 c 0,0 2.218335,2.684007 5.052026,2.719142 2.833717,0.03494 -1.689121,0.175165 -5.052026,-2.719142 m 25.142182,38.189828 c 0,0 0.360051,2.065749 1.282914,2.534383 0.922863,0.468634 -0.736332,-0.788613 -0.781829,-2.841786 -0.04537,-2.053013 -0.501085,0.307403 -0.501085,0.307403 m -2.337243,-1.648616 c 0,0 -0.68524,2.018209 -0.08273,2.78022 0.60249,0.762021 -0.277703,-0.98713 0.684273,-2.879778 0.962165,-1.89276 -0.601539,0.09956 -0.601539,0.09956 m -2.58769,-1.172544 c 0,0 -1.378961,1.743591 -1.085632,2.632812 0.293456,0.889382 0.09498,-1.017126 1.690326,-2.566683 1.595471,-1.549398 -0.604694,-0.06613 -0.604694,-0.06613 m -2.174062,-1.713237 c 0,0 -2.091255,1.099038 -2.259035,2.01809 -0.167653,0.919211 0.580173,-0.89654 2.772399,-1.739829 2.1921,-0.843449 -0.513364,-0.278261 -0.513364,-0.278261 m -1.522678,-2.368912 c 0,0 -2.211863,1.056548 -2.48036,1.720171 -0.26837,0.663783 1.418325,-0.993225 2.644147,-1.246974 1.225506,-0.253798 -0.163787,-0.473197 -0.163787,-0.473197 m -0.615208,-2.319059 c 0,0 -2.27318,0.374762 -2.655696,0.925096 -0.382455,0.550062 0.750422,-0.494302 2.558885,-0.323302 1.808335,0.17084 0.09681,-0.601794 0.09681,-0.601794 m 64.226244,29.05319 c 0,0 1.77628,-2.065984 1.57688,-3.25869 -0.19941,-1.192706 -0.24925,1.304169 -2.2384,3.08872 -1.98908,1.784304 0.66152,0.16997 0.66152,0.16997 m 0.0503,3.413182 c 0,0 2.478,-1.125873 2.79688,-2.292241 0.31891,-1.166362 -0.77314,1.078178 -3.32567,1.85912 -2.55277,0.780875 0.52879,0.433121 0.52879,0.433121 m 0.69846,3.224034 c 0,0 2.70435,-0.295325 3.3699,-1.303719 0.66562,-1.008642 -1.06956,0.782901 -3.73781,0.727034 -2.66818,-0.05611 0.36791,0.576685 0.36791,0.576685 m -0.13016,3.327663 c 0,0 2.57975,0.865689 3.60487,0.22882 1.02519,-0.637116 -1.29827,0.26278 -3.69849,-0.907229 -2.40029,-1.169763 0.0936,0.678409 0.0936,0.678409 m -1.24222,3.324389 c 0,0 2.62427,1.00562 3.47,0.67258 0.8458,-0.33329 -1.99367,-0.37644 -3.12134,-1.21581 -1.12749,-0.83906 -0.34866,0.54323 -0.34866,0.54323 m -1.84299,2.50094 c 0,0 1.99684,1.63798 2.81266,1.49938 0.81551,-0.13842 -1.0241,-0.22569 -2.15076,-1.92763 -1.12672,-1.70169 -0.6619,0.42825 -0.6619,0.42825 M 37.379858,85.413266 c 0,0 1.297425,-2.39757 0.849603,-3.520454 -0.447821,-1.122884 0.03308,1.327489 -1.532038,3.495468 -1.565102,2.167724 0.682435,0.02499 0.682435,0.02499 m 0.773137,3.324344 c 0,0 2.182489,-1.628638 2.246685,-2.836333 0.06422,-1.207693 -0.526769,1.218411 -2.855247,2.525908 -2.328733,1.307484 0.608562,0.310425 0.608562,0.310425 m 1.36631,3.00129 c 0,0 2.579834,-0.865374 3.016267,-1.992649 0.436447,-1.12753 -0.879031,0.993113 -3.498072,1.507629 -2.619028,0.514263 0.481805,0.48502 0.481805,0.48502 m 0.57864,3.279282 c 0,0 2.704336,0.295651 3.570917,-0.545293 0.866593,-0.841198 -1.212824,0.533673 -3.80629,-0.09762 -2.593478,-0.631043 0.235373,0.642918 0.235373,0.642918 m -0.508692,3.513275 c 0,0 2.777525,0.422883 3.533261,-0.08292 0.755749,-0.506061 -2.027898,0.0574 -3.307801,-0.522248 -1.279664,-0.57938 -0.22546,0.605171 -0.22546,0.605171 m -1.270354,2.836801 c 0,0 2.298575,1.17459 3.066334,0.86516 0.767491,-0.30919 -1.048544,-0.002 -2.510412,-1.42479 -1.46188,-1.422442 -0.555922,0.55963 -0.555922,0.55963" /><path
     id="path9247-7"
     style="display:inline;fill:#f7c5bd;fill-opacity:1;fill-rule:nonzero;stroke:none;stroke-width:0.224952"
     d="M 92.564111,41.622653 C 94.374872,38.98556 97.091393,31.542511 99.02772,30.482515 l 7.24e-4,1.26e-4 c 0,0 2.034286,1.812317 1.963836,3.946261 -0.0702,2.134049 0.006,3.242211 -1.248108,5.271428 -1.254203,2.029113 -3.735592,3.712624 -6.012678,5.606078 -2.234404,1.858222 -4.948518,3.243905 -5.414816,2.57954 1.035178,-1.850036 2.881353,-4.27411 4.247457,-6.263282 M 66.106334,139.93691 c 0,0 2.482168,-8.48236 4.824935,-9.7591 2.342716,-1.27634 4.183019,-0.39053 5.351335,0.45224 1.168265,0.84317 2.692518,2.11096 2.247663,4.5149 -0.444856,2.40394 -7.849818,7.85538 -7.849818,7.85538 l -1.966395,-1.31695 z M 55.496367,33.219279 c 0,0 2.482168,-8.482364 4.824935,-9.759101 2.342716,-1.276341 4.183019,-0.390528 5.351335,0.452245 1.168265,0.843169 2.692518,2.110959 2.247663,4.5149 -0.444856,2.403936 -7.849818,7.855378 -7.849818,7.855378 l -1.966395,-1.316957 z m 21.797968,32.233489 c -2.089695,-2.080332 -5.577102,-8.215 -7.633821,-8.918433 l -7.16e-4,1.89e-4 c 0,0 -1.865031,1.789906 -1.578422,3.626562 0.28642,1.836768 0.321766,2.802931 1.789454,4.419037 1.467877,1.615994 4.13641,2.798454 6.620459,4.184817 2.437516,1.3606 5.310263,2.260075 5.712603,1.634625 -1.229253,-1.485278 -3.333073,-3.377605 -4.909579,-4.946783 m 52.278877,27.209535 c -0.55204,3.567113 -4.09542,11.783823 -3.31527,14.152063 l 7e-4,4.6e-4 c 0,0 3.09804,0.0837 4.70132,-1.72435 1.60353,-1.80796 2.52958,-2.65971 3.06993,-5.296814 0.5401,-2.637173 -0.20648,-5.939223 -0.62018,-9.255824 -0.40574,-3.254646 -1.57721,-6.491904 -2.48119,-6.306513 -0.58226,2.320664 -0.93907,5.740112 -1.35528,8.430986 M 34.958923,89.677983 c 0.217196,3.603236 -1.502289,12.387697 -0.237669,14.535347 l 7.8e-4,3e-4 c 0,0 3.044894,-0.57902 4.227999,-2.68763 1.18336,-2.108599 1.907562,-3.138379 1.876194,-5.830392 -0.03162,-2.692027 -1.461504,-5.759284 -2.569204,-8.911759 -1.086786,-3.093635 -2.918094,-6.006958 -3.76207,-5.633 -0.07671,2.391753 0.299936,5.80906 0.464,8.527136" /><path
     id="path9251-3"
     clip-path="url(#clipPath9432)"
     style="display:inline;fill:#f9a68c;fill-opacity:1;fill-rule:nonzero;stroke:none;stroke-width:0.224952"
     d="m 97.711148,32.127813 c 0,0 1.42407,1.888023 1.26629,3.539908 -0.157886,1.652084 -1.722161,3.117262 -2.734717,4.18539 -1.012556,1.068127 -3.169094,3.395734 -3.918478,4.080559 -0.749277,0.684625 -2.086471,1.108256 -2.086471,1.108256 0,0 3.103835,-5.129401 4.051152,-7.016393 0.946921,-1.887201 3.422224,-5.89772 3.422224,-5.89772 M 75.806803,131.94403 c 0,0 -3.563192,5.55115 -4.561763,6.91379 -0.998546,1.36244 -2.398979,2.89476 -2.398979,2.89476 l 1.247553,0.86853 c 0,0 4.746205,-4.83306 5.506711,-5.4461 0.760727,-0.61322 1.403543,-2.27967 1.329812,-3.42986 -0.07398,-1.14983 -0.791199,-2.34338 -1.123334,-1.80112 m -9.021159,8.49359 c 0,0 2.77226,-6.30574 3.663046,-7.69342 0.890811,-1.38789 4.430573,-1.70097 4.637432,-1.36766 0.206662,0.33329 -6.835722,9.97329 -6.835722,9.97329 z M 65.196836,25.226397 c 0,0 -3.563192,5.551146 -4.561763,6.913787 -0.998546,1.362443 -2.398979,2.894761 -2.398979,2.894761 l 1.247553,0.868536 c 0,0 4.746205,-4.833065 5.506711,-5.446106 0.760727,-0.613214 1.403543,-2.279669 1.329812,-3.429862 -0.07398,-1.149824 -0.791199,-2.343375 -1.123334,-1.801116 m -9.021159,8.493591 c 0,0 2.77226,-6.305735 3.663046,-7.693424 0.890811,-1.387887 4.430573,-1.700969 4.637432,-1.367653 0.206662,0.33329 -6.835722,9.973285 -6.835722,9.973285 z m 14.976717,24.091753 c 0,0 -1.24299,1.788298 -0.917169,3.198709 0.325948,1.410571 2.04902,2.505083 3.176466,3.317034 1.127446,0.81195 3.534005,2.586801 4.357735,3.096372 0.823603,0.50941 2.212768,0.728648 2.212768,0.728648 0,0 -3.643525,-4.092401 -4.78805,-5.619274 -1.144148,-1.527098 -4.04175,-4.721489 -4.04175,-4.721489 m 55.295036,46.632639 c 0,0 2.65101,-0.45036 3.8065,-1.92978 1.15555,-1.47967 0.99941,-3.893186 0.99156,-5.553831 -0.008,-1.660646 0.0165,-5.240799 -0.0716,-6.382981 -0.0882,-1.141935 -0.86707,-2.523984 -0.86707,-2.523984 0,0 -1.4206,6.614968 -2.1045,8.898066 -0.68438,2.282963 -1.75488,7.49251 -1.75488,7.49251 m -92.043706,-2.58724 c 0,0 2.494824,-1.00549 3.310078,-2.697508 0.815268,-1.692277 0.150778,-4.017263 -0.209123,-5.638236 -0.359901,-1.620974 -1.095497,-5.124398 -1.42385,-6.221652 -0.328367,-1.097 -1.382584,-2.281295 -1.382584,-2.281295 0,0 0.01498,6.766603 -0.169002,9.143326 -0.184494,2.376697 -0.125519,7.695365 -0.125519,7.695365" /><path
     id="path45816-07-3-1"
     style="display:inline;opacity:0.348404;fill:#333333;fill-opacity:1;stroke-width:6.0037;stop-color:#000000"
     d="m 81.18319,87.506206 c 4.927452,0.299574 5.963601,2.291802 6.885292,6.249898 1.439772,6.182936 -3.054556,14.066066 -4.910148,14.367966 -0.06909,0.0112 -0.293835,0.0297 -0.400795,0.0639 0.312979,0.13438 0.524353,0.13786 0.674032,0.0967 1.888194,-0.51876 9.650968,-8.387525 8.15133,-14.827549 -1.020177,-4.381029 -3.79593,-6.35808 -10.399712,-5.950917 z M 28.533874,50.873658 c 4.743107,1.454005 5.301843,3.698338 5.301844,7.891287 0,6.549797 -6.180698,13.419509 -8.061161,13.288671 -0.07001,-0.0049 -0.293654,-0.03892 -0.405864,-0.02959 0.275044,0.208257 0.480641,0.261215 0.63614,0.254916 1.961605,-0.07946 11.330383,-6.169943 11.330383,-12.992083 0,-4.640977 -2.260757,-7.277111 -8.801342,-8.413199 z" /><path
     id="path53745-9-8"
     style="display:inline;opacity:0.260638;fill:#ececec;stroke-width:6.0037;stop-color:#000000"
     d="m 80.813367,97.060923 c -0.222085,6.052227 3.408564,10.000257 2.146115,10.294227 -1.26245,0.29398 -5.64435,-4.83521 -6.28925,-9.329448 -0.184117,-1.283084 0.684878,-2.770119 1.947329,-3.064096 1.26245,-0.293977 2.034893,0.654689 2.195806,2.099317 z m -0.350898,-5.064259 c 0.144162,0.619089 -0.691383,1.340803 -1.953833,1.63478 -1.26245,0.293977 -1.941316,0.502749 -2.235292,-0.759701 -0.293977,-1.26245 1.063887,-2.004899 2.326338,-2.298876 1.26245,-0.293976 1.679704,0.637569 1.862787,1.423797 z M 26.000324,60.38815 c -1.592936,6.029592 1.054411,10.846297 -0.245101,10.846297 -1.299512,0 -4.411828,-6.179379 -4.019665,-10.846297 0.111961,-1.332384 1.298564,-2.62329 2.598076,-2.62329 1.299512,0 1.838037,1.134009 1.66669,2.62329 z m 0.808837,-5.170911 c 0,0.655822 -0.979932,1.185524 -2.279444,1.185524 -1.299512,0 -2.009833,0.05094 -2.009833,-1.28642 0,-1.337358 1.494645,-1.765677 2.794158,-1.765677 1.299512,0 1.495119,1.033695 1.495119,1.866573 z M 65.88373,137.18807 c 0,0 -1.564277,-2.86374 1.349713,-6.47858 2.913792,-3.61486 4.862445,-2.86047 6.677437,-1.62808 1.814966,1.23259 1.936385,2.45267 0.477718,6.01291 -1.458865,3.5602 -2.219264,6.64641 -4.147122,6.00102 -1.927636,-0.64555 -3.876485,-1.39997 -4.357746,-3.90727 M 55.273763,30.470438 c 0,0 -1.564277,-2.863744 1.349713,-6.478578 2.913792,-3.61486 4.862445,-2.860471 6.677437,-1.628082 1.814966,1.232587 1.936385,2.452675 0.477718,6.012905 -1.458865,3.560205 -2.219264,6.646413 -4.147122,6.001029 -1.927636,-0.645556 -3.876485,-1.399971 -4.357746,-3.907274" /><path
     id="path54554-71-1-3-5-2-8-1"
     style="display:inline;fill:#d6aa3a;stroke-width:6.13998;stop-color:#000000"
     d="m 83.156198,91.851323 c 0.01997,0.28772 -0.333443,1.002142 -0.411887,1.00758 -0.05978,0.0042 -0.463984,-0.557396 -0.491695,-0.957547 -0.01776,-0.256486 0.09887,-0.414784 0.40145,-0.435743 0.302572,-0.021 0.483941,0.122971 0.502141,0.385704 z m 0.238628,3.683143 c -0.01664,0.287932 -0.457729,0.951819 -0.53623,0.947273 -0.05983,-0.0034 -0.389622,-0.61169 -0.36641,-1.012127 0.01488,-0.256669 0.150631,-0.398915 0.453423,-0.381368 0.302796,0.0175 0.464461,0.183295 0.449226,0.446217 z m 2.768463,-1.971583 c 0.0085,0.288288 -0.373181,0.988035 -0.451779,0.990336 -0.05991,0.0018 -0.441364,-0.575473 -0.45308,-0.976411 -0.0075,-0.256992 0.115353,-0.410508 0.418524,-0.419371 0.30317,-0.0089 0.478646,0.142191 0.486345,0.405441 z m 0.280746,4.763251 c -0.0308,0.286763 -0.504048,0.928123 -0.582229,0.919717 -0.05959,-0.0064 -0.359025,-0.630136 -0.316122,-1.028944 0.02751,-0.255625 0.170094,-0.391013 0.471655,-0.358575 0.301566,0.03239 0.45487,0.205946 0.426705,0.467799 z m -2.723531,2.008286 c -0.02585,0.28725 -0.487946,0.93669 -0.566261,0.92963 -0.05969,-0.005 -0.369855,-0.62384 -0.333851,-1.02333 0.02309,-0.256061 0.163318,-0.393886 0.465396,-0.366658 0.302079,0.02718 0.458357,0.198058 0.434718,0.460358 z m 1.636481,2.72863 c -0.04839,0.28432 -0.560204,0.89534 -0.637719,0.88214 -0.05908,-0.01 -0.319574,-0.65103 -0.252225,-1.04644 0.04319,-0.25345 0.193833,-0.37981 0.492829,-0.32887 0.299,0.0509 0.441334,0.23355 0.39711,0.49317 z m -9.169072,-9.243522 c -0.06036,0.282026 -0.597529,0.870879 -0.674417,0.854416 -0.05861,-0.01252 -0.291784,-0.663952 -0.207785,-1.056165 0.05386,-0.251399 0.209707,-0.371276 0.506282,-0.307755 0.296586,0.06347 0.431074,0.251983 0.375922,0.509507 z m 0.144255,2.709917 c 0.01018,0.288233 -0.367317,0.990227 -0.445899,0.992996 -0.05988,0.0021 -0.444772,-0.572844 -0.458865,-0.973705 -0.009,-0.256944 0.112917,-0.411184 0.416033,-0.421843 0.303111,-0.01071 0.47948,0.139351 0.48874,0.402551 z m 8.89915,-7.032933 c 0.165506,0.236197 0.231195,1.030544 0.166788,1.075661 -0.04906,0.03441 -0.684993,-0.238231 -0.915119,-0.566759 -0.147494,-0.210587 -0.129223,-0.406355 0.119201,-0.580367 0.248387,-0.174053 0.478032,-0.144239 0.629132,0.07146 z m -6.195014,0.714325 c -0.0821,0.27648 -0.663425,0.821791 -0.738801,0.799399 -0.05745,-0.01704 -0.239281,-0.684626 -0.12504,-1.069122 0.07324,-0.246452 0.237934,-0.35385 0.528676,-0.267464 0.290752,0.08634 0.410178,0.284733 0.335172,0.537189 z m 0.0056,3.489399 c -0.03418,0.286379 -0.514963,0.92211 -0.593039,0.912782 -0.05951,-0.0071 -0.351568,-0.634325 -0.303966,-1.032601 0.03052,-0.255283 0.174697,-0.388977 0.475856,-0.352982 0.301161,0.03594 0.452408,0.211299 0.421155,0.472801 z m 0.196261,4.222944 c 0.05683,0.282757 -0.20171,1.036718 -0.278801,1.052205 -0.05875,0.01183 -0.531857,-0.49305 -0.610835,-0.886307 -0.05061,-0.252072 0.04468,-0.42406 0.342043,-0.483779 0.297351,-0.05977 0.49574,0.05967 0.547599,0.317879 z m 1.20833,4.30768 c 0.111739,0.26589 0.0079,1.05613 -0.0646,1.0866 -0.05523,0.0233 -0.61907,-0.37779 -0.774464,-0.74758 -0.09961,-0.23702 -0.04031,-0.42449 0.239312,-0.542 0.279611,-0.11751 0.497729,-0.0398 0.599762,0.20298 z m 1.64413,3.10088 c 0.176987,0.22772 0.282048,1.0178 0.219965,1.06606 -0.04731,0.0368 -0.695971,-0.20395 -0.942116,-0.52065 -0.157776,-0.203 -0.149227,-0.39944 0.09025,-0.58557 0.239474,-0.18612 0.470283,-0.16779 0.631903,0.0401 z m 7.584313,-6.047474 c -0.04723,0.284519 -0.556404,0.897714 -0.63398,0.884834 -0.05911,-0.01 -0.322326,-0.64967 -0.256642,-1.045365 0.0421,-0.253635 0.192225,-0.380622 0.491431,-0.330955 0.299206,0.04967 0.44232,0.231674 0.399193,0.491486 z m 0.321669,-4.223069 c 0.01376,0.288083 -0.354819,0.994774 -0.433366,0.998527 -0.05986,0.0028 -0.451947,-0.567197 -0.47109,-0.96785 -0.01227,-0.256813 0.107735,-0.412572 0.41069,-0.427048 0.302954,-0.01447 0.481196,0.133304 0.493766,0.396371 z m -1.432608,-4.594366 c 0.164403,0.236967 0.226538,1.031578 0.161935,1.076401 -0.04923,0.03415 -0.68391,-0.24132 -0.912553,-0.570882 -0.146561,-0.211244 -0.127382,-0.406936 0.121819,-0.579825 0.249198,-0.172889 0.478676,-0.14209 0.628802,0.07431 z m -6.586011,-1.065356 c 0.06541,0.280896 -0.169906,1.042403 -0.246494,1.060238 -0.05836,0.01359 -0.546687,-0.476553 -0.637656,-0.86721 -0.05831,-0.250407 0.03169,-0.425228 0.327086,-0.494015 0.295396,-0.06879 0.497334,0.04448 0.557064,0.300987 z M 29.472396,55.701505 c -0.04592,0.293788 -0.553434,0.928977 -0.631264,0.916086 -0.05933,-0.0098 -0.326304,-0.668665 -0.26238,-1.07724 0.04098,-0.261885 0.190852,-0.393659 0.491055,-0.34392 0.300211,0.04969 0.444567,0.236805 0.4026,0.50507 z m -0.604435,3.756832 c -0.08172,0.285432 -0.663346,0.849328 -0.738961,0.826392 -0.05764,-0.01745 -0.241352,-0.705823 -0.127641,-1.10277 0.07289,-0.254432 0.237779,-0.365602 0.529439,-0.277119 0.291674,0.08844 0.411829,0.292863 0.337173,0.553494 z m 3.151438,-1.333344 c -0.05728,0.291667 -0.589027,0.905503 -0.666294,0.889423 -0.0589,-0.01222 -0.300109,-0.681537 -0.220387,-1.087159 0.05111,-0.259993 0.205968,-0.385506 0.504003,-0.323473 0.298045,0.06199 0.435027,0.254879 0.382688,0.521206 z m -0.808894,4.852031 c -0.09528,0.280945 -0.703185,0.814678 -0.777611,0.787937 -0.05673,-0.02035 -0.207282,-0.717198 -0.07471,-1.1079 0.08498,-0.250428 0.254985,-0.353108 0.542058,-0.24995 0.287087,0.103112 0.397315,0.31338 0.310277,0.569911 z m -3.115911,1.380741 c -0.09055,0.282595 -0.68941,0.82705 -0.764273,0.801637 -0.05706,-0.01934 -0.219288,-0.713408 -0.0933,-1.106408 0.08077,-0.251902 0.249024,-0.357584 0.537787,-0.259541 0.288774,0.09799 0.402511,0.306273 0.319791,0.564314 z m 0.977474,3.12477 c -0.111891,0.274379 -0.750564,0.768603 -0.823249,0.7372 -0.0554,-0.0239 -0.164011,-0.728965 -0.0083,-1.110533 0.0998,-0.244572 0.275617,-0.33629 0.555979,-0.215145 0.280378,0.121093 0.377822,0.337947 0.275611,0.588481 z M 22.220972,56.048734 c -0.123057,0.26927 -0.781445,0.735285 -0.852776,0.70075 -0.05438,-0.02629 -0.133939,-0.735444 0.03725,-1.109903 0.109748,-0.240015 0.289178,-0.324006 0.564315,-0.190782 0.275158,0.133177 0.363612,0.354072 0.251207,0.599939 z m -0.4753,2.756807 c -0.0556,0.292012 -0.583799,0.909078 -0.661158,0.893472 -0.05896,-0.01186 -0.304033,-0.679692 -0.22665,-1.085794 0.04961,-0.260302 0.203744,-0.386755 0.502134,-0.32654 0.298396,0.06016 0.436485,0.252221 0.385683,0.518863 z M 32.03398,53.820839 c 0.107898,0.276069 -0.0086,1.089637 -0.08172,1.119902 -0.05573,0.0231 -0.614669,-0.399668 -0.764669,-0.783636 -0.09613,-0.246119 -0.03378,-0.438561 0.248347,-0.555288 0.282102,-0.116776 0.499551,-0.03308 0.598043,0.219019 z m -6.2113,-0.731789 c -0.143026,0.258609 -0.834626,0.670538 -0.903132,0.630401 -0.05222,-0.03056 -0.07797,-0.743934 0.120995,-1.103563 0.127545,-0.230509 0.312776,-0.29989 0.577018,-0.145055 0.264264,0.154787 0.335763,0.382092 0.205126,0.61822 z m -0.787946,3.507615 c -0.09849,0.279768 -0.712476,0.806082 -0.78659,0.77844 -0.0565,-0.02103 -0.199049,-0.719664 -0.06201,-1.108731 0.08784,-0.249379 0.259018,-0.349985 0.544889,-0.243346 0.285885,0.106583 0.393693,0.318182 0.30372,0.573638 z M 24.266197,60.886 c -0.0088,0.297426 -0.43267,0.994545 -0.511464,0.992068 -0.06005,-0.0019 -0.407207,-0.619889 -0.394907,-1.033532 0.0079,-0.265137 0.140041,-0.415661 0.443971,-0.40609 0.303927,0.0095 0.470479,0.175961 0.462406,0.447554 z m 0.200393,4.611297 c 0.04865,0.293324 -0.232432,1.063095 -0.310139,1.076746 -0.05922,0.01045 -0.51857,-0.524473 -0.586221,-0.932412 -0.04337,-0.261479 0.05716,-0.435986 0.356902,-0.488631 0.299734,-0.05265 0.495042,0.07645 0.539465,0.344296 z m 0.900302,3.500621 c 0.121035,0.270239 0.04398,1.088732 -0.02761,1.122694 -0.05456,0.02587 -0.633183,-0.367783 -0.801514,-0.743618 -0.107898,-0.2409 -0.05489,-0.436296 0.221266,-0.567288 0.276144,-0.130992 0.49734,-0.05856 0.607867,0.188208 z m 8.780422,-4.302124 c -0.110808,0.274846 -0.747391,0.77187 -0.82021,0.740778 -0.05548,-0.02369 -0.167007,-0.728242 -0.0129,-1.110485 0.09877,-0.245013 0.274232,-0.337488 0.555088,-0.217569 0.280855,0.119917 0.37921,0.336296 0.278028,0.587276 z m 1.274278,-4.168271 c -0.05206,0.292699 -0.57263,0.916572 -0.650178,0.901963 -0.05909,-0.01114 -0.312323,-0.675698 -0.239918,-1.082772 0.04641,-0.260928 0.199,-0.389363 0.4981,-0.33302 0.299099,0.05635 0.439536,0.246546 0.391996,0.513829 z m -0.354197,-4.951852 c 0.106646,0.276585 -0.01335,1.089586 -0.08662,1.11951 -0.05583,0.0228 -0.61291,-0.402519 -0.761226,-0.787179 -0.09507,-0.246562 -0.03185,-0.438714 0.250779,-0.554131 0.28263,-0.115416 0.499692,-0.03077 0.597075,0.2218 z m -6.188428,-2.611586 c 0,0.297563 -0.402909,1.007699 -0.481746,1.007699 -0.06007,0 -0.425437,-0.606783 -0.425437,-1.020619 0,-0.265264 0.127624,-0.419875 0.431694,-0.419875 0.304069,-10e-7 0.475489,0.161071 0.475489,0.432795 z" /></svg>
