<?xml version="1.0" encoding="UTF-8" standalone="no"?>
<!-- Created with Inkscape (http://www.inkscape.org/) -->

<svg
   width="164.23331mm"
   height="164.76247mm"
   viewBox="0 0 164.23331 164.76247"
   version="1.1"
   id="svg392"
   xml:space="preserve"
   xmlns="http://www.w3.org/2000/svg"
   xmlns:svg="http://www.w3.org/2000/svg"><defs
     id="defs389"><style
       id="style6869">.cls-1{fill:#ffe8c2;}.cls-2{fill:none;stroke:#e5af6e;stroke-miterlimit:10;stroke-width:25.51px;}.cls-3{opacity:0.05;}.cls-4{fill:#534741;}</style></defs><g
     id="layer8"
     style="display:inline"><g
       id="layer6-0"
       style="display:inline"
       transform="matrix(-0.5872412,-0.59235451,0.61939898,-0.56160083,108.79793,109.66094)"><path
         d="m 59.677588,36.237448 c 0,0 -3.113719,-1.107342 -6.705089,0.654624 -3.404451,1.670278 -3.772975,3.908668 -2.977209,5.976624 0.0069,0.01812 0.01417,0.0361 0.02125,0.05422 0.0376,0.09509 0.0767,0.190052 0.118936,0.284329 1.36e-4,2.72e-4 2.73e-4,4.25e-4 2.73e-4,6.95e-4 0.211986,0.472337 0.542499,0.829144 0.948625,1.081457 0.05804,0.0361 0.117573,0.06989 0.178471,0.10177 0.426834,0.222749 0.922877,0.342775 1.444804,0.371385 0.149181,0.008 0.300405,0.0089 0.452856,0.0023 1.142764,-0.04891 2.347789,-0.502718 3.189331,-1.250529 1.795072,-1.59521 3.25636,-5.870631 3.444369,-6.487653 0.188008,-0.617158 0.388551,-0.75435 -0.11662,-0.789227"
         style="display:inline;opacity:0.529255;fill:#000000;fill-opacity:1;fill-rule:nonzero;stroke:none;stroke-width:0.136238"
         id="path9709-23" /><path
         d="m 59.478892,35.549059 c 0,0 -3.113719,-1.107343 -6.705089,0.654623 -3.59137,1.761966 -3.805127,4.156349 -2.836747,6.315857 0.968516,2.159509 4.419015,1.901747 6.214087,0.306536 1.795072,-1.595211 3.256361,-5.870768 3.444369,-6.48779 0.188009,-0.617022 0.388551,-0.75435 -0.11662,-0.789226"
         style="display:inline;fill:#c37e49;fill-opacity:1;fill-rule:nonzero;stroke:none;stroke-width:0.136238"
         id="path9719-5" /><path
         id="path9723-43"
         style="display:inline;fill:#a05e49;fill-opacity:1;fill-rule:nonzero;stroke:none;stroke-width:0.136238"
         d="m 57.147586,39.094938 c 0.695426,-0.739427 1.402921,-1.668771 2.064718,-2.83386 0,0 -2.877805,4.270262 -6.479253,5.642451 0,0 2.142809,-0.393132 4.414535,-2.808591 z m 1.831421,-3.142646 c 0,0 -1.07924,-0.655993 -4.777688,0.448624 -3.69845,1.104481 -4.38487,4.138223 -4.38487,4.138223 0,0 0.904027,-2.283249 3.750173,-3.617835 2.846144,-1.33445 5.412385,-0.969012 5.412385,-0.969012 z m -0.552863,0.545412 c 0,0 -4.799979,3.744417 -7.818056,5.740574 0,0 3.606126,-1.876732 7.818056,-5.740574 z m -1.756595,0.297711 c 0,0 -4.172371,0.901072 -6.343185,4.315602 0,0 2.900318,-3.073658 6.343185,-4.315602 z" /><path
         d="M 0,0 C 0,0 -12.306,-12.195 -1.071,-17.068 10.164,-21.942 31.043,2.404 31.486,6.742 32.277,14.505 21.617,19.62 0,0"
         style="display:inline;opacity:0.273622;fill:#ffffff;fill-opacity:1;fill-rule:nonzero;stroke:none"
         id="path9765-98"
         transform="matrix(0.136238,0,0,-0.136238,50.918646,38.079456)" /><path
         d="M 0,0 C 0,0 -5.435,3.932 1.274,6.615 7.983,9.298 18.919,8.353 17.073,4.064 15.227,-0.224 6.131,-2.694 0,0"
         style="display:inline;opacity:0.271392;fill:#ffffff;fill-opacity:1;fill-rule:nonzero;stroke:none"
         id="path9781-8"
         transform="matrix(0.136238,0,0,-0.136238,56.27051,36.622675)" /></g><g
       id="layer6-0-3"
       style="display:inline"
       transform="matrix(-0.63082559,0.73954097,-0.71239334,-0.66472462,172.19309,15.501639)"><path
         d="m 59.677588,36.237448 c 0,0 -3.113719,-1.107342 -6.705089,0.654624 -3.404451,1.670278 -3.772975,3.908668 -2.977209,5.976624 0.0069,0.01812 0.01417,0.0361 0.02125,0.05422 0.0376,0.09509 0.0767,0.190052 0.118936,0.284329 1.36e-4,2.72e-4 2.73e-4,4.25e-4 2.73e-4,6.95e-4 0.211986,0.472337 0.542499,0.829144 0.948625,1.081457 0.05804,0.0361 0.117573,0.06989 0.178471,0.10177 0.426834,0.222749 0.922877,0.342775 1.444804,0.371385 0.149181,0.008 0.300405,0.0089 0.452856,0.0023 1.142764,-0.04891 2.347789,-0.502718 3.189331,-1.250529 1.795072,-1.59521 3.25636,-5.870631 3.444369,-6.487653 0.188008,-0.617158 0.388551,-0.75435 -0.11662,-0.789227"
         style="display:inline;opacity:0.529255;fill:#000000;fill-opacity:1;fill-rule:nonzero;stroke:none;stroke-width:0.136238"
         id="path9709-23-6" /><path
         d="m 59.478892,35.549059 c 0,0 -3.113719,-1.107343 -6.705089,0.654623 -3.59137,1.761966 -3.805127,4.156349 -2.836747,6.315857 0.968516,2.159509 4.419015,1.901747 6.214087,0.306536 1.795072,-1.595211 3.256361,-5.870768 3.444369,-6.48779 0.188009,-0.617022 0.388551,-0.75435 -0.11662,-0.789226"
         style="display:inline;fill:#c37e49;fill-opacity:1;fill-rule:nonzero;stroke:none;stroke-width:0.136238"
         id="path9719-5-7" /><path
         id="path9723-43-5"
         style="display:inline;fill:#a05e49;fill-opacity:1;fill-rule:nonzero;stroke:none;stroke-width:0.136238"
         d="m 57.147586,39.094938 c 0.695426,-0.739427 1.402921,-1.668771 2.064718,-2.83386 0,0 -2.877805,4.270262 -6.479253,5.642451 0,0 2.142809,-0.393132 4.414535,-2.808591 z m 1.831421,-3.142646 c 0,0 -1.07924,-0.655993 -4.777688,0.448624 -3.69845,1.104481 -4.38487,4.138223 -4.38487,4.138223 0,0 0.904027,-2.283249 3.750173,-3.617835 2.846144,-1.33445 5.412385,-0.969012 5.412385,-0.969012 z m -0.552863,0.545412 c 0,0 -4.799979,3.744417 -7.818056,5.740574 0,0 3.606126,-1.876732 7.818056,-5.740574 z m -1.756595,0.297711 c 0,0 -4.172371,0.901072 -6.343185,4.315602 0,0 2.900318,-3.073658 6.343185,-4.315602 z" /><path
         d="M 0,0 C 0,0 -12.306,-12.195 -1.071,-17.068 10.164,-21.942 31.043,2.404 31.486,6.742 32.277,14.505 21.617,19.62 0,0"
         style="display:inline;opacity:0.273622;fill:#ffffff;fill-opacity:1;fill-rule:nonzero;stroke:none"
         id="path9765-98-3"
         transform="matrix(0.136238,0,0,-0.136238,50.918646,38.079456)" /><path
         d="M 0,0 C 0,0 -5.435,3.932 1.274,6.615 7.983,9.298 18.919,8.353 17.073,4.064 15.227,-0.224 6.131,-2.694 0,0"
         style="display:inline;opacity:0.271392;fill:#ffffff;fill-opacity:1;fill-rule:nonzero;stroke:none"
         id="path9781-8-5"
         transform="matrix(0.136238,0,0,-0.136238,56.27051,36.622675)" /></g><g
       id="layer6-0-6"
       style="display:inline"
       transform="matrix(-1.0073926,-0.19177359,0.23702661,-1.0002226,137.02547,117.55684)"><path
         d="m 59.677588,36.237448 c 0,0 -3.113719,-1.107342 -6.705089,0.654624 -3.404451,1.670278 -3.772975,3.908668 -2.977209,5.976624 0.0069,0.01812 0.01417,0.0361 0.02125,0.05422 0.0376,0.09509 0.0767,0.190052 0.118936,0.284329 1.36e-4,2.72e-4 2.73e-4,4.25e-4 2.73e-4,6.95e-4 0.211986,0.472337 0.542499,0.829144 0.948625,1.081457 0.05804,0.0361 0.117573,0.06989 0.178471,0.10177 0.426834,0.222749 0.922877,0.342775 1.444804,0.371385 0.149181,0.008 0.300405,0.0089 0.452856,0.0023 1.142764,-0.04891 2.347789,-0.502718 3.189331,-1.250529 1.795072,-1.59521 3.25636,-5.870631 3.444369,-6.487653 0.188008,-0.617158 0.388551,-0.75435 -0.11662,-0.789227"
         style="display:inline;opacity:0.529255;fill:#000000;fill-opacity:1;fill-rule:nonzero;stroke:none;stroke-width:0.136238"
         id="path9709-23-2" /><path
         d="m 59.478892,35.549059 c 0,0 -3.113719,-1.107343 -6.705089,0.654623 -3.59137,1.761966 -3.805127,4.156349 -2.836747,6.315857 0.968516,2.159509 4.419015,1.901747 6.214087,0.306536 1.795072,-1.595211 3.256361,-5.870768 3.444369,-6.48779 0.188009,-0.617022 0.388551,-0.75435 -0.11662,-0.789226"
         style="display:inline;fill:#c37e49;fill-opacity:1;fill-rule:nonzero;stroke:none;stroke-width:0.136238"
         id="path9719-5-9" /><path
         id="path9723-43-1"
         style="display:inline;fill:#a05e49;fill-opacity:1;fill-rule:nonzero;stroke:none;stroke-width:0.136238"
         d="m 57.147586,39.094938 c 0.695426,-0.739427 1.402921,-1.668771 2.064718,-2.83386 0,0 -2.877805,4.270262 -6.479253,5.642451 0,0 2.142809,-0.393132 4.414535,-2.808591 z m 1.831421,-3.142646 c 0,0 -1.07924,-0.655993 -4.777688,0.448624 -3.69845,1.104481 -4.38487,4.138223 -4.38487,4.138223 0,0 0.904027,-2.283249 3.750173,-3.617835 2.846144,-1.33445 5.412385,-0.969012 5.412385,-0.969012 z m -0.552863,0.545412 c 0,0 -4.799979,3.744417 -7.818056,5.740574 0,0 3.606126,-1.876732 7.818056,-5.740574 z m -1.756595,0.297711 c 0,0 -4.172371,0.901072 -6.343185,4.315602 0,0 2.900318,-3.073658 6.343185,-4.315602 z" /><path
         d="M 0,0 C 0,0 -12.306,-12.195 -1.071,-17.068 10.164,-21.942 31.043,2.404 31.486,6.742 32.277,14.505 21.617,19.62 0,0"
         style="display:inline;opacity:0.273622;fill:#ffffff;fill-opacity:1;fill-rule:nonzero;stroke:none"
         id="path9765-98-2"
         transform="matrix(0.136238,0,0,-0.136238,50.918646,38.079456)" /><path
         d="M 0,0 C 0,0 -5.435,3.932 1.274,6.615 7.983,9.298 18.919,8.353 17.073,4.064 15.227,-0.224 6.131,-2.694 0,0"
         style="display:inline;opacity:0.271392;fill:#ffffff;fill-opacity:1;fill-rule:nonzero;stroke:none"
         id="path9781-8-7"
         transform="matrix(0.136238,0,0,-0.136238,56.27051,36.622675)" /></g><g
       id="layer6-0-0"
       style="display:inline"
       transform="matrix(-0.98594725,0.2520944,-0.20841337,-0.99856963,199.20426,96.908056)"><path
         d="m 59.677588,36.237448 c 0,0 -3.113719,-1.107342 -6.705089,0.654624 -3.404451,1.670278 -3.772975,3.908668 -2.977209,5.976624 0.0069,0.01812 0.01417,0.0361 0.02125,0.05422 0.0376,0.09509 0.0767,0.190052 0.118936,0.284329 1.36e-4,2.72e-4 2.73e-4,4.25e-4 2.73e-4,6.95e-4 0.211986,0.472337 0.542499,0.829144 0.948625,1.081457 0.05804,0.0361 0.117573,0.06989 0.178471,0.10177 0.426834,0.222749 0.922877,0.342775 1.444804,0.371385 0.149181,0.008 0.300405,0.0089 0.452856,0.0023 1.142764,-0.04891 2.347789,-0.502718 3.189331,-1.250529 1.795072,-1.59521 3.25636,-5.870631 3.444369,-6.487653 0.188008,-0.617158 0.388551,-0.75435 -0.11662,-0.789227"
         style="display:inline;opacity:0.529255;fill:#000000;fill-opacity:1;fill-rule:nonzero;stroke:none;stroke-width:0.136238"
         id="path9709-23-9" /><path
         d="m 59.478892,35.549059 c 0,0 -3.113719,-1.107343 -6.705089,0.654623 -3.59137,1.761966 -3.805127,4.156349 -2.836747,6.315857 0.968516,2.159509 4.419015,1.901747 6.214087,0.306536 1.795072,-1.595211 3.256361,-5.870768 3.444369,-6.48779 0.188009,-0.617022 0.388551,-0.75435 -0.11662,-0.789226"
         style="display:inline;fill:#c37e49;fill-opacity:1;fill-rule:nonzero;stroke:none;stroke-width:0.136238"
         id="path9719-5-3" /><path
         id="path9723-43-6"
         style="display:inline;fill:#a05e49;fill-opacity:1;fill-rule:nonzero;stroke:none;stroke-width:0.136238"
         d="m 57.147586,39.094938 c 0.695426,-0.739427 1.402921,-1.668771 2.064718,-2.83386 0,0 -2.877805,4.270262 -6.479253,5.642451 0,0 2.142809,-0.393132 4.414535,-2.808591 z m 1.831421,-3.142646 c 0,0 -1.07924,-0.655993 -4.777688,0.448624 -3.69845,1.104481 -4.38487,4.138223 -4.38487,4.138223 0,0 0.904027,-2.283249 3.750173,-3.617835 2.846144,-1.33445 5.412385,-0.969012 5.412385,-0.969012 z m -0.552863,0.545412 c 0,0 -4.799979,3.744417 -7.818056,5.740574 0,0 3.606126,-1.876732 7.818056,-5.740574 z m -1.756595,0.297711 c 0,0 -4.172371,0.901072 -6.343185,4.315602 0,0 2.900318,-3.073658 6.343185,-4.315602 z" /><path
         d="M 0,0 C 0,0 -12.306,-12.195 -1.071,-17.068 10.164,-21.942 31.043,2.404 31.486,6.742 32.277,14.505 21.617,19.62 0,0"
         style="display:inline;opacity:0.273622;fill:#ffffff;fill-opacity:1;fill-rule:nonzero;stroke:none"
         id="path9765-98-0"
         transform="matrix(0.136238,0,0,-0.136238,50.918646,38.079456)" /><path
         d="M 0,0 C 0,0 -5.435,3.932 1.274,6.615 7.983,9.298 18.919,8.353 17.073,4.064 15.227,-0.224 6.131,-2.694 0,0"
         style="display:inline;opacity:0.271392;fill:#ffffff;fill-opacity:1;fill-rule:nonzero;stroke:none"
         id="path9781-8-6"
         transform="matrix(0.136238,0,0,-0.136238,56.27051,36.622675)" /></g><g
       id="layer6-0-2"
       style="display:inline"
       transform="matrix(-0.32104668,0.90922223,-0.89614337,-0.36209456,168.63762,89.475904)"><path
         d="m 59.677588,36.237448 c 0,0 -3.113719,-1.107342 -6.705089,0.654624 -3.404451,1.670278 -3.772975,3.908668 -2.977209,5.976624 0.0069,0.01812 0.01417,0.0361 0.02125,0.05422 0.0376,0.09509 0.0767,0.190052 0.118936,0.284329 1.36e-4,2.72e-4 2.73e-4,4.25e-4 2.73e-4,6.95e-4 0.211986,0.472337 0.542499,0.829144 0.948625,1.081457 0.05804,0.0361 0.117573,0.06989 0.178471,0.10177 0.426834,0.222749 0.922877,0.342775 1.444804,0.371385 0.149181,0.008 0.300405,0.0089 0.452856,0.0023 1.142764,-0.04891 2.347789,-0.502718 3.189331,-1.250529 1.795072,-1.59521 3.25636,-5.870631 3.444369,-6.487653 0.188008,-0.617158 0.388551,-0.75435 -0.11662,-0.789227"
         style="display:inline;opacity:0.529255;fill:#000000;fill-opacity:1;fill-rule:nonzero;stroke:none;stroke-width:0.136238"
         id="path9709-23-61" /><path
         d="m 59.478892,35.549059 c 0,0 -3.113719,-1.107343 -6.705089,0.654623 -3.59137,1.761966 -3.805127,4.156349 -2.836747,6.315857 0.968516,2.159509 4.419015,1.901747 6.214087,0.306536 1.795072,-1.595211 3.256361,-5.870768 3.444369,-6.48779 0.188009,-0.617022 0.388551,-0.75435 -0.11662,-0.789226"
         style="display:inline;fill:#c37e49;fill-opacity:1;fill-rule:nonzero;stroke:none;stroke-width:0.136238"
         id="path9719-5-8" /><path
         id="path9723-43-7"
         style="display:inline;fill:#a05e49;fill-opacity:1;fill-rule:nonzero;stroke:none;stroke-width:0.136238"
         d="m 57.147586,39.094938 c 0.695426,-0.739427 1.402921,-1.668771 2.064718,-2.83386 0,0 -2.877805,4.270262 -6.479253,5.642451 0,0 2.142809,-0.393132 4.414535,-2.808591 z m 1.831421,-3.142646 c 0,0 -1.07924,-0.655993 -4.777688,0.448624 -3.69845,1.104481 -4.38487,4.138223 -4.38487,4.138223 0,0 0.904027,-2.283249 3.750173,-3.617835 2.846144,-1.33445 5.412385,-0.969012 5.412385,-0.969012 z m -0.552863,0.545412 c 0,0 -4.799979,3.744417 -7.818056,5.740574 0,0 3.606126,-1.876732 7.818056,-5.740574 z m -1.756595,0.297711 c 0,0 -4.172371,0.901072 -6.343185,4.315602 0,0 2.900318,-3.073658 6.343185,-4.315602 z" /><path
         d="M 0,0 C 0,0 -12.306,-12.195 -1.071,-17.068 10.164,-21.942 31.043,2.404 31.486,6.742 32.277,14.505 21.617,19.62 0,0"
         style="display:inline;opacity:0.273622;fill:#ffffff;fill-opacity:1;fill-rule:nonzero;stroke:none"
         id="path9765-98-9"
         transform="matrix(0.136238,0,0,-0.136238,50.918646,38.079456)" /><path
         d="M 0,0 C 0,0 -5.435,3.932 1.274,6.615 7.983,9.298 18.919,8.353 17.073,4.064 15.227,-0.224 6.131,-2.694 0,0"
         style="display:inline;opacity:0.271392;fill:#ffffff;fill-opacity:1;fill-rule:nonzero;stroke:none"
         id="path9781-8-2"
         transform="matrix(0.136238,0,0,-0.136238,56.27051,36.622675)" /></g><g
       id="layer6-0-02"
       style="display:inline"
       transform="matrix(-0.34873164,-0.91541118,0.9322515,-0.3083343,90.004882,160.27533)"><path
         d="m 59.677588,36.237448 c 0,0 -3.113719,-1.107342 -6.705089,0.654624 -3.404451,1.670278 -3.772975,3.908668 -2.977209,5.976624 0.0069,0.01812 0.01417,0.0361 0.02125,0.05422 0.0376,0.09509 0.0767,0.190052 0.118936,0.284329 1.36e-4,2.72e-4 2.73e-4,4.25e-4 2.73e-4,6.95e-4 0.211986,0.472337 0.542499,0.829144 0.948625,1.081457 0.05804,0.0361 0.117573,0.06989 0.178471,0.10177 0.426834,0.222749 0.922877,0.342775 1.444804,0.371385 0.149181,0.008 0.300405,0.0089 0.452856,0.0023 1.142764,-0.04891 2.347789,-0.502718 3.189331,-1.250529 1.795072,-1.59521 3.25636,-5.870631 3.444369,-6.487653 0.188008,-0.617158 0.388551,-0.75435 -0.11662,-0.789227"
         style="display:inline;opacity:0.529255;fill:#000000;fill-opacity:1;fill-rule:nonzero;stroke:none;stroke-width:0.136238"
         id="path9709-23-3" /><path
         d="m 59.478892,35.549059 c 0,0 -3.113719,-1.107343 -6.705089,0.654623 -3.59137,1.761966 -3.805127,4.156349 -2.836747,6.315857 0.968516,2.159509 4.419015,1.901747 6.214087,0.306536 1.795072,-1.595211 3.256361,-5.870768 3.444369,-6.48779 0.188009,-0.617022 0.388551,-0.75435 -0.11662,-0.789226"
         style="display:inline;fill:#c37e49;fill-opacity:1;fill-rule:nonzero;stroke:none;stroke-width:0.136238"
         id="path9719-5-75" /><path
         id="path9723-43-9"
         style="display:inline;fill:#a05e49;fill-opacity:1;fill-rule:nonzero;stroke:none;stroke-width:0.136238"
         d="m 57.147586,39.094938 c 0.695426,-0.739427 1.402921,-1.668771 2.064718,-2.83386 0,0 -2.877805,4.270262 -6.479253,5.642451 0,0 2.142809,-0.393132 4.414535,-2.808591 z m 1.831421,-3.142646 c 0,0 -1.07924,-0.655993 -4.777688,0.448624 -3.69845,1.104481 -4.38487,4.138223 -4.38487,4.138223 0,0 0.904027,-2.283249 3.750173,-3.617835 2.846144,-1.33445 5.412385,-0.969012 5.412385,-0.969012 z m -0.552863,0.545412 c 0,0 -4.799979,3.744417 -7.818056,5.740574 0,0 3.606126,-1.876732 7.818056,-5.740574 z m -1.756595,0.297711 c 0,0 -4.172371,0.901072 -6.343185,4.315602 0,0 2.900318,-3.073658 6.343185,-4.315602 z" /><path
         d="M 0,0 C 0,0 -12.306,-12.195 -1.071,-17.068 10.164,-21.942 31.043,2.404 31.486,6.742 32.277,14.505 21.617,19.62 0,0"
         style="display:inline;opacity:0.273622;fill:#ffffff;fill-opacity:1;fill-rule:nonzero;stroke:none"
         id="path9765-98-22"
         transform="matrix(0.136238,0,0,-0.136238,50.918646,38.079456)" /><path
         d="M 0,0 C 0,0 -5.435,3.932 1.274,6.615 7.983,9.298 18.919,8.353 17.073,4.064 15.227,-0.224 6.131,-2.694 0,0"
         style="display:inline;opacity:0.271392;fill:#ffffff;fill-opacity:1;fill-rule:nonzero;stroke:none"
         id="path9781-8-8"
         transform="matrix(0.136238,0,0,-0.136238,56.27051,36.622675)" /></g><g
       id="layer6-0-9"
       style="display:inline"
       transform="matrix(-0.36067166,0.92633405,-0.91150933,-0.40253855,107.1166,101.06779)"><path
         d="m 59.677588,36.237448 c 0,0 -3.113719,-1.107342 -6.705089,0.654624 -3.404451,1.670278 -3.772975,3.908668 -2.977209,5.976624 0.0069,0.01812 0.01417,0.0361 0.02125,0.05422 0.0376,0.09509 0.0767,0.190052 0.118936,0.284329 1.36e-4,2.72e-4 2.73e-4,4.25e-4 2.73e-4,6.95e-4 0.211986,0.472337 0.542499,0.829144 0.948625,1.081457 0.05804,0.0361 0.117573,0.06989 0.178471,0.10177 0.426834,0.222749 0.922877,0.342775 1.444804,0.371385 0.149181,0.008 0.300405,0.0089 0.452856,0.0023 1.142764,-0.04891 2.347789,-0.502718 3.189331,-1.250529 1.795072,-1.59521 3.25636,-5.870631 3.444369,-6.487653 0.188008,-0.617158 0.388551,-0.75435 -0.11662,-0.789227"
         style="display:inline;opacity:0.529255;fill:#000000;fill-opacity:1;fill-rule:nonzero;stroke:none;stroke-width:0.136238"
         id="path9709-23-7" /><path
         d="m 59.478892,35.549059 c 0,0 -3.113719,-1.107343 -6.705089,0.654623 -3.59137,1.761966 -3.805127,4.156349 -2.836747,6.315857 0.968516,2.159509 4.419015,1.901747 6.214087,0.306536 1.795072,-1.595211 3.256361,-5.870768 3.444369,-6.48779 0.188009,-0.617022 0.388551,-0.75435 -0.11662,-0.789226"
         style="display:inline;fill:#c37e49;fill-opacity:1;fill-rule:nonzero;stroke:none;stroke-width:0.136238"
         id="path9719-5-36" /><path
         id="path9723-43-12"
         style="display:inline;fill:#a05e49;fill-opacity:1;fill-rule:nonzero;stroke:none;stroke-width:0.136238"
         d="m 57.147586,39.094938 c 0.695426,-0.739427 1.402921,-1.668771 2.064718,-2.83386 0,0 -2.877805,4.270262 -6.479253,5.642451 0,0 2.142809,-0.393132 4.414535,-2.808591 z m 1.831421,-3.142646 c 0,0 -1.07924,-0.655993 -4.777688,0.448624 -3.69845,1.104481 -4.38487,4.138223 -4.38487,4.138223 0,0 0.904027,-2.283249 3.750173,-3.617835 2.846144,-1.33445 5.412385,-0.969012 5.412385,-0.969012 z m -0.552863,0.545412 c 0,0 -4.799979,3.744417 -7.818056,5.740574 0,0 3.606126,-1.876732 7.818056,-5.740574 z m -1.756595,0.297711 c 0,0 -4.172371,0.901072 -6.343185,4.315602 0,0 2.900318,-3.073658 6.343185,-4.315602 z" /><path
         d="M 0,0 C 0,0 -12.306,-12.195 -1.071,-17.068 10.164,-21.942 31.043,2.404 31.486,6.742 32.277,14.505 21.617,19.62 0,0"
         style="display:inline;opacity:0.273622;fill:#ffffff;fill-opacity:1;fill-rule:nonzero;stroke:none"
         id="path9765-98-93"
         transform="matrix(0.136238,0,0,-0.136238,50.918646,38.079456)" /><path
         d="M 0,0 C 0,0 -5.435,3.932 1.274,6.615 7.983,9.298 18.919,8.353 17.073,4.064 15.227,-0.224 6.131,-2.694 0,0"
         style="display:inline;opacity:0.271392;fill:#ffffff;fill-opacity:1;fill-rule:nonzero;stroke:none"
         id="path9781-8-1"
         transform="matrix(0.136238,0,0,-0.136238,56.27051,36.622675)" /></g><g
       id="layer6-0-94"
       style="display:inline"
       transform="matrix(-0.16977386,0.98246935,-0.97624732,-0.21388341,76.589474,71.805082)"><path
         d="m 59.677588,36.237448 c 0,0 -3.113719,-1.107342 -6.705089,0.654624 -3.404451,1.670278 -3.772975,3.908668 -2.977209,5.976624 0.0069,0.01812 0.01417,0.0361 0.02125,0.05422 0.0376,0.09509 0.0767,0.190052 0.118936,0.284329 1.36e-4,2.72e-4 2.73e-4,4.25e-4 2.73e-4,6.95e-4 0.211986,0.472337 0.542499,0.829144 0.948625,1.081457 0.05804,0.0361 0.117573,0.06989 0.178471,0.10177 0.426834,0.222749 0.922877,0.342775 1.444804,0.371385 0.149181,0.008 0.300405,0.0089 0.452856,0.0023 1.142764,-0.04891 2.347789,-0.502718 3.189331,-1.250529 1.795072,-1.59521 3.25636,-5.870631 3.444369,-6.487653 0.188008,-0.617158 0.388551,-0.75435 -0.11662,-0.789227"
         style="display:inline;opacity:0.529255;fill:#000000;fill-opacity:1;fill-rule:nonzero;stroke:none;stroke-width:0.136238"
         id="path9709-23-78" /><path
         d="m 59.478892,35.549059 c 0,0 -3.113719,-1.107343 -6.705089,0.654623 -3.59137,1.761966 -3.805127,4.156349 -2.836747,6.315857 0.968516,2.159509 4.419015,1.901747 6.214087,0.306536 1.795072,-1.595211 3.256361,-5.870768 3.444369,-6.48779 0.188009,-0.617022 0.388551,-0.75435 -0.11662,-0.789226"
         style="display:inline;fill:#c37e49;fill-opacity:1;fill-rule:nonzero;stroke:none;stroke-width:0.136238"
         id="path9719-5-4" /><path
         id="path9723-43-50"
         style="display:inline;fill:#a05e49;fill-opacity:1;fill-rule:nonzero;stroke:none;stroke-width:0.136238"
         d="m 57.147586,39.094938 c 0.695426,-0.739427 1.402921,-1.668771 2.064718,-2.83386 0,0 -2.877805,4.270262 -6.479253,5.642451 0,0 2.142809,-0.393132 4.414535,-2.808591 z m 1.831421,-3.142646 c 0,0 -1.07924,-0.655993 -4.777688,0.448624 -3.69845,1.104481 -4.38487,4.138223 -4.38487,4.138223 0,0 0.904027,-2.283249 3.750173,-3.617835 2.846144,-1.33445 5.412385,-0.969012 5.412385,-0.969012 z m -0.552863,0.545412 c 0,0 -4.799979,3.744417 -7.818056,5.740574 0,0 3.606126,-1.876732 7.818056,-5.740574 z m -1.756595,0.297711 c 0,0 -4.172371,0.901072 -6.343185,4.315602 0,0 2.900318,-3.073658 6.343185,-4.315602 z" /><path
         d="M 0,0 C 0,0 -12.306,-12.195 -1.071,-17.068 10.164,-21.942 31.043,2.404 31.486,6.742 32.277,14.505 21.617,19.62 0,0"
         style="display:inline;opacity:0.273622;fill:#ffffff;fill-opacity:1;fill-rule:nonzero;stroke:none"
         id="path9765-98-36"
         transform="matrix(0.136238,0,0,-0.136238,50.918646,38.079456)" /><path
         d="M 0,0 C 0,0 -5.435,3.932 1.274,6.615 7.983,9.298 18.919,8.353 17.073,4.064 15.227,-0.224 6.131,-2.694 0,0"
         style="display:inline;opacity:0.271392;fill:#ffffff;fill-opacity:1;fill-rule:nonzero;stroke:none"
         id="path9781-8-10"
         transform="matrix(0.136238,0,0,-0.136238,56.27051,36.622675)" /></g><g
       id="layer6-0-63"
       style="display:inline"
       transform="matrix(-0.9815184,0.27992412,-0.23647938,-0.99537746,83.57365,105.44939)"><path
         d="m 59.677588,36.237448 c 0,0 -3.113719,-1.107342 -6.705089,0.654624 -3.404451,1.670278 -3.772975,3.908668 -2.977209,5.976624 0.0069,0.01812 0.01417,0.0361 0.02125,0.05422 0.0376,0.09509 0.0767,0.190052 0.118936,0.284329 1.36e-4,2.72e-4 2.73e-4,4.25e-4 2.73e-4,6.95e-4 0.211986,0.472337 0.542499,0.829144 0.948625,1.081457 0.05804,0.0361 0.117573,0.06989 0.178471,0.10177 0.426834,0.222749 0.922877,0.342775 1.444804,0.371385 0.149181,0.008 0.300405,0.0089 0.452856,0.0023 1.142764,-0.04891 2.347789,-0.502718 3.189331,-1.250529 1.795072,-1.59521 3.25636,-5.870631 3.444369,-6.487653 0.188008,-0.617158 0.388551,-0.75435 -0.11662,-0.789227"
         style="display:inline;opacity:0.529255;fill:#000000;fill-opacity:1;fill-rule:nonzero;stroke:none;stroke-width:0.136238"
         id="path9709-23-20" /><path
         d="m 59.478892,35.549059 c 0,0 -3.113719,-1.107343 -6.705089,0.654623 -3.59137,1.761966 -3.805127,4.156349 -2.836747,6.315857 0.968516,2.159509 4.419015,1.901747 6.214087,0.306536 1.795072,-1.595211 3.256361,-5.870768 3.444369,-6.48779 0.188009,-0.617022 0.388551,-0.75435 -0.11662,-0.789226"
         style="display:inline;fill:#c37e49;fill-opacity:1;fill-rule:nonzero;stroke:none;stroke-width:0.136238"
         id="path9719-5-6" /><path
         id="path9723-43-15"
         style="display:inline;fill:#a05e49;fill-opacity:1;fill-rule:nonzero;stroke:none;stroke-width:0.136238"
         d="m 57.147586,39.094938 c 0.695426,-0.739427 1.402921,-1.668771 2.064718,-2.83386 0,0 -2.877805,4.270262 -6.479253,5.642451 0,0 2.142809,-0.393132 4.414535,-2.808591 z m 1.831421,-3.142646 c 0,0 -1.07924,-0.655993 -4.777688,0.448624 -3.69845,1.104481 -4.38487,4.138223 -4.38487,4.138223 0,0 0.904027,-2.283249 3.750173,-3.617835 2.846144,-1.33445 5.412385,-0.969012 5.412385,-0.969012 z m -0.552863,0.545412 c 0,0 -4.799979,3.744417 -7.818056,5.740574 0,0 3.606126,-1.876732 7.818056,-5.740574 z m -1.756595,0.297711 c 0,0 -4.172371,0.901072 -6.343185,4.315602 0,0 2.900318,-3.073658 6.343185,-4.315602 z" /><path
         d="M 0,0 C 0,0 -12.306,-12.195 -1.071,-17.068 10.164,-21.942 31.043,2.404 31.486,6.742 32.277,14.505 21.617,19.62 0,0"
         style="display:inline;opacity:0.273622;fill:#ffffff;fill-opacity:1;fill-rule:nonzero;stroke:none"
         id="path9765-98-5"
         transform="matrix(0.136238,0,0,-0.136238,50.918646,38.079456)" /><path
         d="M 0,0 C 0,0 -5.435,3.932 1.274,6.615 7.983,9.298 18.919,8.353 17.073,4.064 15.227,-0.224 6.131,-2.694 0,0"
         style="display:inline;opacity:0.271392;fill:#ffffff;fill-opacity:1;fill-rule:nonzero;stroke:none"
         id="path9781-8-4"
         transform="matrix(0.136238,0,0,-0.136238,56.27051,36.622675)" /></g><g
       id="layer6-0-7"
       style="display:inline"
       transform="matrix(1.0382102,-0.01324552,-0.0331,1.0402385,6.5216913,75.158094)"><path
         d="m 59.677588,36.237448 c 0,0 -3.113719,-1.107342 -6.705089,0.654624 -3.404451,1.670278 -3.772975,3.908668 -2.977209,5.976624 0.0069,0.01812 0.01417,0.0361 0.02125,0.05422 0.0376,0.09509 0.0767,0.190052 0.118936,0.284329 1.36e-4,2.72e-4 2.73e-4,4.25e-4 2.73e-4,6.95e-4 0.211986,0.472337 0.542499,0.829144 0.948625,1.081457 0.05804,0.0361 0.117573,0.06989 0.178471,0.10177 0.426834,0.222749 0.922877,0.342775 1.444804,0.371385 0.149181,0.008 0.300405,0.0089 0.452856,0.0023 1.142764,-0.04891 2.347789,-0.502718 3.189331,-1.250529 1.795072,-1.59521 3.25636,-5.870631 3.444369,-6.487653 0.188008,-0.617158 0.388551,-0.75435 -0.11662,-0.789227"
         style="display:inline;opacity:0.529255;fill:#000000;fill-opacity:1;fill-rule:nonzero;stroke:none;stroke-width:0.136238"
         id="path9709-23-65" /><path
         d="m 59.478892,35.549059 c 0,0 -3.113719,-1.107343 -6.705089,0.654623 -3.59137,1.761966 -3.805127,4.156349 -2.836747,6.315857 0.968516,2.159509 4.419015,1.901747 6.214087,0.306536 1.795072,-1.595211 3.256361,-5.870768 3.444369,-6.48779 0.188009,-0.617022 0.388551,-0.75435 -0.11662,-0.789226"
         style="display:inline;fill:#c37e49;fill-opacity:1;fill-rule:nonzero;stroke:none;stroke-width:0.136238"
         id="path9719-5-69" /><path
         id="path9723-43-3"
         style="display:inline;fill:#a05e49;fill-opacity:1;fill-rule:nonzero;stroke:none;stroke-width:0.136238"
         d="m 57.147586,39.094938 c 0.695426,-0.739427 1.402921,-1.668771 2.064718,-2.83386 0,0 -2.877805,4.270262 -6.479253,5.642451 0,0 2.142809,-0.393132 4.414535,-2.808591 z m 1.831421,-3.142646 c 0,0 -1.07924,-0.655993 -4.777688,0.448624 -3.69845,1.104481 -4.38487,4.138223 -4.38487,4.138223 0,0 0.904027,-2.283249 3.750173,-3.617835 2.846144,-1.33445 5.412385,-0.969012 5.412385,-0.969012 z m -0.552863,0.545412 c 0,0 -4.799979,3.744417 -7.818056,5.740574 0,0 3.606126,-1.876732 7.818056,-5.740574 z m -1.756595,0.297711 c 0,0 -4.172371,0.901072 -6.343185,4.315602 0,0 2.900318,-3.073658 6.343185,-4.315602 z" /><path
         d="M 0,0 C 0,0 -12.306,-12.195 -1.071,-17.068 10.164,-21.942 31.043,2.404 31.486,6.742 32.277,14.505 21.617,19.62 0,0"
         style="display:inline;opacity:0.273622;fill:#ffffff;fill-opacity:1;fill-rule:nonzero;stroke:none"
         id="path9765-98-7"
         transform="matrix(0.136238,0,0,-0.136238,50.918646,38.079456)" /><path
         d="M 0,0 C 0,0 -5.435,3.932 1.274,6.615 7.983,9.298 18.919,8.353 17.073,4.064 15.227,-0.224 6.131,-2.694 0,0"
         style="display:inline;opacity:0.271392;fill:#ffffff;fill-opacity:1;fill-rule:nonzero;stroke:none"
         id="path9781-8-45"
         transform="matrix(0.136238,0,0,-0.136238,56.27051,36.622675)" /></g></g></svg>
