<?xml version="1.0" encoding="UTF-8" standalone="no"?>
<!-- Created with Inkscape (http://www.inkscape.org/) -->

<svg
   width="164.23331mm"
   height="164.76247mm"
   viewBox="0 0 164.23331 164.76247"
   version="1.1"
   id="svg392"
   xml:space="preserve"
   xmlns="http://www.w3.org/2000/svg"
   xmlns:svg="http://www.w3.org/2000/svg"><defs
     id="defs389"><style
       id="style6869">.cls-1{fill:#ffe8c2;}.cls-2{fill:none;stroke:#e5af6e;stroke-miterlimit:10;stroke-width:25.51px;}.cls-3{opacity:0.05;}.cls-4{fill:#534741;}</style></defs><g
     id="layer2"
     style="display:inline"
     transform="rotate(-78.802264,76.964133,102.36811)"><path
       id="path953112-0-1-5"
       style="display:inline;fill:#cccccc;stroke-width:1.82201;stop-color:#000000"
       d="m 124.48416,99.392929 a 11.580637,11.580637 0 0 1 -11.58063,11.580641 11.580637,11.580637 0 0 1 -11.58064,-11.580641 11.580637,11.580637 0 0 1 11.58064,-11.580637 11.580637,11.580637 0 0 1 11.58063,11.580637 z m -1.71411,2.048551 a 11.580637,11.580637 0 0 1 -6.7105,10.5068 11.580637,11.580637 0 0 1 -12.3546,-1.66973 m 1.0567,-53.354882 A 11.784175,11.784175 0 0 1 92.977478,68.707843 11.784175,11.784175 0 0 1 81.193303,56.923668 11.784175,11.784175 0 0 1 92.977478,45.139493 11.784175,11.784175 0 0 1 104.76165,56.923668 Z M 45.203686,105.78561 a 10.191596,10.21856 41.279941 0 1 5.563157,-13.333279 10.191596,10.21856 41.279941 0 1 13.314188,5.530142 10.191596,10.21856 41.279941 0 1 -5.563157,13.333277 10.191596,10.21856 41.279941 0 1 -13.314188,-5.53014 z M 152.12922,76.195842 a 12.156578,12.323758 68.377404 0 1 2.14214,17.072616 12.156578,12.323758 68.377404 0 1 -17.26412,2.280793 12.156578,12.323758 68.377404 0 1 -2.14215,-17.072616 12.156578,12.323758 68.377404 0 1 17.26413,-2.280793 z M 94.882285,143.76071 a 12.003524,12.003524 0 0 1 -12.003524,12.00353 12.003524,12.003524 0 0 1 -12.003524,-12.00353 12.003524,12.003524 0 0 1 12.003524,-12.00352 12.003524,12.003524 0 0 1 12.003524,12.00352 z m 27.636945,-42.31924 a 11.580637,11.580637 0 0 1 -11.58064,11.58063 11.580637,11.580637 0 0 1 -11.580636,-11.58063 11.580637,11.580637 0 0 1 11.580636,-11.58064 11.580637,11.580637 0 0 1 11.58064,11.58064 z" /><path
       id="path953112-5-1-7"
       style="display:inline;fill:#ffe495;stroke-width:1.82201;stop-color:#000000"
       d="m 122.90381,100.07223 a 11.580637,11.580637 0 0 1 -11.58064,11.58063 11.580637,11.580637 0 0 1 -11.580633,-11.58063 11.580637,11.580637 0 0 1 11.580633,-11.58064 11.580637,11.580637 0 0 1 11.58064,11.58064 z M 105.5003,55.379845 A 11.784175,11.784175 0 0 1 93.716125,67.16402 11.784175,11.784175 0 0 1 81.931951,55.379845 11.784175,11.784175 0 0 1 93.716125,43.59567 11.784175,11.784175 0 0 1 105.5003,55.379845 Z m -61.017102,36.66042 a 13.186623,12.29714 8.0197642 0 0 6.180494,16.537795 13.186623,12.29714 8.0197642 0 0 17.569665,-5.46104 13.186623,12.29714 8.0197642 0 0 -6.180493,-16.537799 13.186623,12.29714 8.0197642 0 0 -17.569666,5.461044 z M 146.16921,135.30634 a 10.593605,11.359867 81.980222 0 1 -5.32431,14.2468 10.593605,11.359867 81.980222 0 1 -15.13572,-4.70452 10.593605,11.359867 81.980222 0 1 5.3243,-14.2468 10.593605,11.359867 81.980222 0 1 15.13573,4.70452 z m 10.89618,-57.491555 a 12.577057,12.887614 63.831336 0 1 -6.01996,16.971542 12.577057,12.887614 63.831336 0 1 -17.1133,-5.604276 12.577057,12.887614 63.831336 0 1 6.01996,-16.97154 12.577057,12.887614 63.831336 0 1 17.1133,5.604274 z M 94.897681,142.79527 A 12.003524,12.003524 0 0 1 82.894157,154.7988 12.003524,12.003524 0 0 1 70.890634,142.79527 12.003524,12.003524 0 0 1 82.894157,130.79175 12.003524,12.003524 0 0 1 94.897681,142.79527 Z" /><path
       id="path953112-0-1"
       style="display:inline;fill:#fff5d1;stroke-width:1.82201;stop-color:#000000"
       d="m 124.86875,98.023674 a 11.580637,11.580637 0 0 1 -11.58064,11.580636 11.580637,11.580637 0 0 1 -11.58064,-11.580636 11.580637,11.580637 0 0 1 11.58064,-11.580637 11.580637,11.580637 0 0 1 11.58064,11.580637 z m -1.71412,2.048556 a 11.580637,11.580637 0 0 1 -6.7105,10.5068 11.580637,11.580637 0 0 1 -12.3546,-1.66973 m 3.41025,-55.614012 A 11.784175,11.784175 0 0 1 95.715607,65.079463 11.784175,11.784175 0 0 1 83.931432,53.295288 11.784175,11.784175 0 0 1 95.715607,41.511113 11.784175,11.784175 0 0 1 107.49978,53.295288 Z m -1.74425,2.084557 A 11.784175,11.784175 0 0 1 98.927087,66.071312 11.784175,11.784175 0 0 1 86.35535,64.372239 M 45.100355,87.505293 A 13.186623,12.29714 8.0197642 0 0 51.280849,104.04309 13.186623,12.29714 8.0197642 0 0 68.850515,98.582044 13.186623,12.29714 8.0197642 0 0 62.670021,82.044247 13.186623,12.29714 8.0197642 0 0 45.100355,87.505293 Z M 145.63754,131.39961 a 10.593605,11.359867 81.980222 0 1 -5.3243,14.24679 10.593605,11.359867 81.980222 0 1 -15.13572,-4.70452 10.593605,11.359867 81.980222 0 1 5.3243,-14.24679 10.593605,11.359867 81.980222 0 1 15.13572,4.70452 z m 11.24109,-57.658626 a 12.577057,12.887614 63.831336 0 1 -6.01996,16.971532 12.577057,12.887614 63.831336 0 1 -17.1133,-5.604267 12.577057,12.887614 63.831336 0 1 6.01995,-16.971539 12.577057,12.887614 63.831336 0 1 17.11331,5.604274 z m 0.22399,3.877974 a 12.577057,12.887614 63.831341 0 1 -1.67004,13.534646 12.577057,12.887614 63.831341 0 1 -13.13938,4.435959 M 96.934379,140.67191 a 12.003524,12.003524 0 0 1 -12.003524,12.00352 12.003524,12.003524 0 0 1 -12.003524,-12.00352 12.003524,12.003524 0 0 1 12.003524,-12.00353 12.003524,12.003524 0 0 1 12.003524,12.00353 z m -1.776708,2.12336 a 12.003524,12.003524 0 0 1 -6.955552,10.89048 12.003524,12.003524 0 0 1 -12.805746,-1.7307" /><path
       id="path953953-1-2"
       style="display:inline;fill:#ffe495;fill-opacity:1;stroke:none;stroke-width:2.10407;stroke-dasharray:none;stroke-opacity:1;stop-color:#000000"
       d="m 111.85724,98.522127 c 0.22624,-0.229952 0.6474,-0.431423 0.91641,-0.185509 0.017,0.01523 0.0496,0.0094 0.0627,0.02806 0.0743,0.105969 0.1132,0.232751 0.18278,0.341839 0.007,0.01152 0.2498,0.359577 0.21658,0.43178 -0.007,0.01443 -0.0347,0.0051 -0.0457,0.01684 -0.16902,0.179541 -0.34025,0.340905 -0.53486,0.505061 -0.10156,0.08565 -0.22936,0.137868 -0.33008,0.224479 -0.0547,0.04701 -0.0956,0.107659 -0.14793,0.157133 -0.23786,0.2246 -0.59584,0.38369 -0.79096,0.65101 -0.0332,0.0455 -0.0918,0.24618 -0.0966,0.29172 -0.006,0.0546 0.24156,0.68331 0.27356,0.71786 0.0823,0.0889 0.21531,0.10271 0.28472,0.2018 0.0185,0.0262 0.0138,0.065 0.0342,0.0897 0.0918,0.11169 0.48321,0.12256 0.62055,0.12874 0.16103,0.007 0.41193,0.0612 0.55215,-0.0507 0.0179,-0.0143 0.0106,-0.0475 0.0285,-0.0618 0.0251,-0.0202 0.069,-0.0103 0.0911,-0.0337 0.13404,-0.14239 -0.004,-0.10853 0.0511,-0.27488 0.0362,-0.10949 0.14501,-0.18156 0.2048,-0.28055 0.0519,-0.0858 0.0619,-0.16094 0.11375,-0.24685 0.0696,-0.11525 0.17959,-0.18813 0.25033,-0.29739 0.0708,-0.10934 0.13585,-0.26451 0.23324,-0.34226 0.0251,-0.0202 0.067,-0.0123 0.0911,-0.0337 0.0722,-0.0649 0.13025,-0.22103 0.20481,-0.28054 0.27626,-0.220629 0.67636,-0.353089 1.01305,-0.477241 0.4016,-0.148552 0.51782,-0.02237 0.86531,0.08937 0.0556,0.01793 0.11757,0.01538 0.17078,0.03914 0.0147,0.0066 0.002,0.03819 0.0171,0.04504 0.066,0.02952 0.15031,-0.0073 0.21632,0.0223 0.033,0.01472 0.0466,0.05809 0.0798,0.07288 0.0147,0.007 0.0307,-0.02325 0.0456,-0.01677 0.11798,-0.02536 0.0554,0.08815 0.0968,0.117731 0.0372,0.0264 0.0889,0.0286 0.12529,0.056 0.0864,0.0651 0.14749,0.16099 0.23919,0.21863 0.26083,0.16404 0.0786,-0.0393 0.27895,0.0504 0.21261,0.19437 -0.0627,-0.0281 0.1879,0.0841 0.0147,0.007 10e-4,0.0413 0.017,0.045 0.0461,0.0106 0.68939,-0.0207 0.73428,-0.1181 0.007,-0.0145 -0.0281,-0.0332 -0.0171,-0.045 0.0221,-0.0234 0.0745,-0.007 0.0911,-0.0337 0.0415,-0.0687 0.0473,-0.15284 0.0682,-0.23001 0.015,-0.0557 0.0464,-0.11104 0.0398,-0.168286 -0.009,-0.0793 -0.0724,-0.14552 -0.0855,-0.224326 -0.0141,-0.08488 0.0178,-0.172843 0.005,-0.258025 -0.0271,-0.188855 -0.14845,-0.375152 -0.25074,-0.521518 -0.0185,-0.02624 -0.009,-0.06982 -0.0342,-0.08975 -0.18192,-0.14235 -0.17121,-0.03943 -0.35869,-0.123248 -0.033,-0.01472 -0.0453,-0.0618 -0.0798,-0.07288 -0.2764,-0.08891 -0.60538,-0.04511 -0.88241,-0.134231 -0.0345,-0.011 -0.0466,-0.05809 -0.0798,-0.07288 -0.1376,-0.06158 -0.31201,-0.04008 -0.44976,-0.08955 -0.45194,-0.162254 -0.91694,-0.369985 -1.25836,-0.711808 -0.1688,-0.16901 -0.40131,-0.368658 -0.52967,-0.5719 -0.0733,-0.115603 -0.10506,-0.275736 -0.15389,-0.403801 -0.0297,-0.07786 -0.11927,-0.200815 -0.0571,-0.286041 0.14161,-0.193986 0.36011,-0.411687 0.5804,-0.521918 0.11567,-0.05779 0.25199,-0.07077 0.36426,-0.134785 0.16354,-0.09283 0.30135,-0.163143 0.48375,-0.230215 0.20882,-0.07722 -0.0442,0.02769 0.21058,-0.129108 0.0366,-0.0223 0.2102,-0.04635 0.22765,-0.08425 0.007,-0.0145 -0.005,-0.03425 -0.017,-0.0449 -0.0678,-0.06202 -0.32262,-0.03352 -0.32449,-0.03352 -0.18975,0.0015 -0.38197,-0.02427 -0.56925,0.0058 -0.0799,0.01283 -0.14734,0.07474 -0.22766,0.08426 -0.0581,0.0066 -0.11251,-0.04387 -0.17079,-0.03921 -0.14631,0.01173 -0.28106,0.09023 -0.4269,0.106748 -0.27636,0.03119 -0.62561,-0.0058 -0.87089,0.168653 -0.0468,0.0336 -0.38656,0.317423 -0.46088,0.426488 -0.15536,0.227963 0.0157,0.42407 -0.19906,0.431999 -0.17183,0.0066 -0.17765,-0.19349 -0.22781,-0.325251 -0.13904,-0.364759 -0.2441,-0.777663 -0.42745,-1.121643 -0.0762,-0.143385 -0.12044,-0.110159 -0.23917,-0.218656 -0.12972,-0.118547 -0.0599,-0.138269 -0.2392,-0.218656 -0.033,-0.01472 -0.0752,0.0036 -0.10815,-0.01122 -0.033,-0.01472 -0.0531,-0.04861 -0.0798,-0.07288 -0.0722,-0.0075 -0.1474,-1.75e-4 -0.21633,-0.0223 -0.0345,-0.01101 -0.0437,-0.07569 -0.0798,-0.07288 -0.19387,0.01552 -0.35955,0.148713 -0.54639,0.202141 -0.14101,0.0403 -0.32705,5.91e-4 -0.42691,0.106726 -0.0107,0.01246 0.0117,0.02988 0.017,0.04489 0.0399,0.10467 0.0798,0.209363 0.11968,0.31407 0.0541,0.142197 0.1662,0.558519 0.27356,0.717858 0.0851,0.126258 0.20453,0.227569 0.29051,0.353236 0.1998,0.292258 0.40275,0.775659 0.77461,0.941987 0.033,0.01472 0.0752,-0.0036 0.10816,0.01122 0.033,0.01472 0.045,0.06282 0.0798,0.07288 0.18731,0.05393 0.42653,-0.01873 0.63188,0.02215 0.0795,0.01582 0.1528,0.05889 0.23342,0.0672 0.29801,0.03083 0.11619,-0.09845 0.27896,0.05036 0.41639,0.380655 0.0716,0.331861 -0.38119,0.499399 -0.17553,0.06494 -0.47309,0.232598 -0.65455,0.190961 -0.0893,-0.02048 -0.15998,-0.09768 -0.25052,-0.112068 -0.10903,-0.01727 -0.36213,0.01202 -0.47819,-0.02784 -0.0552,-0.01895 -0.0892,-0.07707 -0.14237,-0.100889 -0.21941,-0.09816 -0.53077,-0.05867 -0.74581,-0.184773 -0.0441,-0.0258 -0.0539,-0.09042 -0.0969,-0.117746 -0.0305,-0.01917 -0.0787,0.0096 -0.10816,-0.01122 -0.0263,-0.01866 -0.0229,-0.05983 -0.0342,-0.08974 -0.0474,-0.03367 -0.0916,-0.07237 -0.14237,-0.100896 -0.0891,-0.04992 -0.69968,-0.25772 -0.82553,-0.257654 -0.0555,3.7e-5 -0.44007,0.111609 -0.51796,0.140433 -0.0911,0.03367 -0.22085,0.02033 -0.27318,0.101107 -0.0579,0.08932 0.23509,0.753307 0.2793,0.869303 0.099,0.259972 0.18716,0.518945 0.38171,0.729044 0.17946,0.193789 -0.0866,-0.226126 0.14238,0.100889 0.0185,0.02624 0.008,0.07106 0.0342,0.08974 0.0294,0.02084 0.0776,-0.0081 0.10817,0.01122 0.0432,0.02719 0.0539,0.09042 0.0969,0.117746 0.0305,0.01924 0.0729,0.0029 0.10816,0.01122 0.1095,0.02514 0.20366,0.114984 0.31314,0.140106 0.15098,0.03462 0.45124,0.0895 0.60345,0.08387 0.0461,-0.0015 0.0905,-0.04883 0.13661,-0.05051 0.0458,-0.0015 0.0797,0.05131 0.1253,0.05604 0.14896,0.01538 0.56975,-0.318334 0.67718,-0.404209 0.10428,-0.08325 0.0196,-0.109634 0.10239,-0.140295 M 98.585826,52.038048 c -0.38262,-0.119927 -0.95958,-0.09382 -1.104417,0.335053 -0.0094,0.02677 -0.04813,0.03953 -0.05125,0.06771 -0.01728,0.16033 0.01624,0.322728 0.0059,0.483703 -7.42e-4,0.01676 -0.05614,0.542653 0.02299,0.602553 0.01587,0.01201 0.04049,-0.01513 0.05955,-0.0084 0.290475,0.09811 0.57248,0.174939 0.881518,0.241068 0.161271,0.03448 0.331019,0.01676 0.491942,0.0528 0.08733,0.01958 0.167931,0.06222 0.254217,0.08587 0.392017,0.1072 0.875174,0.07164 1.246354,0.250991 0.0631,0.03055 0.24653,0.216878 0.27897,0.264148 0.0389,0.05659 0.1461,0.894037 0.13203,0.950874 -0.0362,0.146269 -0.17213,0.239712 -0.18823,0.389577 -0.004,0.03975 0.0239,0.0796 0.0165,0.118858 -0.0328,0.17692 -0.45076,0.419175 -0.59598,0.506774 -0.170282,0.102714 -0.410075,0.309742 -0.62897,0.269057 -0.02788,-0.0052 -0.03982,-0.04605 -0.06778,-0.05125 -0.0393,-0.0074 -0.08095,0.02929 -0.118858,0.01654 -0.230353,-0.07783 -0.06044,-0.121795 -0.219547,-0.272402 -0.104687,-0.09915 -0.265646,-0.114468 -0.389592,-0.188214 -0.107504,-0.06393 -0.16317,-0.140714 -0.270719,-0.204715 -0.144273,-0.08587 -0.307072,-0.101349 -0.449017,-0.17996 -0.142071,-0.07865 -0.30524,-0.211137 -0.457264,-0.239385 -0.0393,-0.0074 -0.08002,0.02603 -0.11885,0.01654 -0.116953,-0.029 -0.273196,-0.166581 -0.389585,-0.188207 -0.431263,-0.08023 -0.944192,0.0094 -1.38339,0.0709 -0.524143,0.07283 -0.574839,0.28001 -0.884871,0.607462 -0.04961,0.05243 -0.118294,0.08609 -0.161783,0.143599 -0.01201,0.01587 0.02032,0.04338 0.0084,0.05955 -0.05399,0.07134 -0.167264,0.08054 -0.221216,0.151861 -0.02699,0.03567 -0.01587,0.09142 -0.04301,0.127127 -0.01201,0.01587 -0.04724,-0.0074 -0.0594,0.0084 -0.143057,0.04153 -0.0074,0.12959 -0.03471,0.186546 -0.02455,0.05095 -0.07928,0.08378 -0.102395,0.135366 -0.0548,0.122455 -0.06378,0.26394 -0.128788,0.381315 -0.184862,0.333971 -0.108765,0.003 -0.272395,0.219555 -0.114468,0.338962 0.05125,-0.06778 -0.153536,0.203039 -0.01201,0.01587 0.02321,0.0462 0.0084,0.05948 -0.04361,0.03871 -0.759842,0.382851 -0.866686,0.302059 -0.01587,-0.01201 0.01068,-0.05302 -0.0084,-0.05955 -0.0379,-0.01276 -0.08451,0.03701 -0.118851,0.01654 -0.08597,-0.05117 -0.142538,-0.140358 -0.211301,-0.212969 -0.04954,-0.05243 -0.116648,-0.09487 -0.143606,-0.161783 -0.03738,-0.09267 -0.0084,-0.202728 -0.04123,-0.297157 -0.03545,-0.101661 -0.12253,-0.179715 -0.160115,-0.280649 -0.08336,-0.223774 -0.06304,-0.500159 -0.03953,-0.721404 0.0045,-0.03975 -0.03219,-0.082 -0.01654,-0.118866 0.112251,-0.263666 0.162132,-0.144058 0.315327,-0.346652 0.02699,-0.03567 0.01224,-0.09466 0.04301,-0.127113 0.246602,-0.260454 0.629459,-0.40584 0.876624,-0.666888 0.03078,-0.03241 0.01587,-0.09141 0.04301,-0.127112 0.112436,-0.148694 0.314362,-0.22769 0.434192,-0.363161 0.393152,-0.444456 0.77331,-0.946632 0.939394,-1.523659 0.08211,-0.285291 0.215009,-0.641785 0.232815,-0.940951 0.01046,-0.170334 -0.05073,-0.36523 -0.07426,-0.534881 -0.01431,-0.103129 0.0094,-0.29115 -0.108965,-0.348306 -0.269376,-0.130146 -0.636282,-0.241143 -0.940952,-0.23283 -0.159951,0.0044 -0.315504,0.07038 -0.475448,0.066 -0.232755,-0.0059 -0.424151,-0.0022 -0.661979,0.0313 -0.272528,0.0379 0.06445,0.0044 -0.305418,-0.01817 -0.05295,-0.003 -0.255597,0.07268 -0.297142,0.04123 -0.01587,-0.01201 -0.0152,-0.04049 -0.0084,-0.0594 0.03649,-0.108135 0.329788,-0.226719 0.331827,-0.227794 0.206895,-0.109507 0.399663,-0.251444 0.620723,-0.328475 0.09435,-0.03293 0.204388,-0.0044 0.297157,-0.04123 0.06697,-0.02685 0.09581,-0.114468 0.161775,-0.143614 0.165647,-0.0732 0.35863,-0.06608 0.52662,-0.13372 0.318293,-0.128254 0.674816,-0.374574 1.044985,-0.326814 0.07082,0.0094 0.608686,0.121847 0.754406,0.198129 0.30455,0.159447 0.236218,0.475864 0.473772,0.358259 0.19009,-0.09413 0.07709,-0.317448 0.0528,-0.491942 -0.06704,-0.48319 -0.199672,-0.999353 -0.206273,-1.485748 -0.003,-0.202623 0.06482,-0.192077 0.128774,-0.381322 0.06986,-0.206777 -0.01758,-0.187413 0.128789,-0.381345 0.02699,-0.03567 0.08368,-0.04027 0.110596,-0.07593 0.02699,-0.03567 0.02863,-0.08472 0.04301,-0.127105 0.07372,-0.05073 0.159714,-0.08692 0.221216,-0.151867 0.03078,-0.03241 0.0022,-0.109018 0.04301,-0.127113 0.21951,-0.09696 0.47866,-0.04791 0.71315,-0.09905 0.176949,-0.03864 0.35504,-0.19164 0.526612,-0.133728 0.01906,0.0074 0.0052,0.03968 0.0084,0.0594 0.01921,0.138674 0.03849,0.277341 0.05777,0.416015 0.02618,0.18834 0.153292,0.712379 0.132022,0.950874 -0.01683,0.188985 -0.08588,0.370762 -0.104078,0.559629 -0.04212,0.439161 0.02648,1.090498 -0.277415,1.492318 -0.02699,0.03567 -0.08368,0.04027 -0.110604,0.07593 -0.02699,0.03567 -0.0112,0.0956 -0.04301,0.127113 -0.170882,0.169555 -0.473653,0.230345 -0.671894,0.396162 -0.07677,0.06422 -0.130531,0.154686 -0.212976,0.211293 -0.304737,0.209202 -0.184751,-0.03997 -0.272395,0.219532 -0.224189,0.663863 0.120535,0.407302 0.711496,0.325257 0.229114,-0.03182 0.651864,-0.0224 0.823755,-0.174984 0.08462,-0.07509 0.115135,-0.201615 0.204715,-0.270718 0.107897,-0.08316 0.39984,-0.19982 0.501864,-0.311989 0.0485,-0.05332 0.05065,-0.137266 0.09413,-0.194785 0.179292,-0.237109 0.540473,-0.376836 0.698333,-0.642133 0.03233,-0.05436 0.0044,-0.131206 0.03471,-0.186546 0.02166,-0.03908 0.0911,-0.03567 0.110604,-0.07594 0.01735,-0.03597 -0.01098,-0.07928 -0.01654,-0.118851 0.03137,-0.06497 0.05607,-0.133564 0.09413,-0.194792 0.06682,-0.107378 0.604761,-0.695262 0.741251,-0.769231 0.0602,-0.03263 0.54381,-0.136115 0.64547,-0.150228 0.11886,-0.01654 0.2516,-0.107586 0.35657,-0.04947 0.11609,0.06422 0.1949,0.967249 0.21624,1.120904 0.0478,0.344346 0.10693,0.681164 0.0214,1.026815 -0.0789,0.318835 -0.0411,-0.299804 -0.0941,0.194792 -0.004,0.03975 0.0339,0.08284 0.0165,0.118859 -0.0194,0.04027 -0.089,0.03671 -0.11061,0.07593 -0.0306,0.05532 -0.004,0.131213 -0.0347,0.186552 -0.0217,0.03916 -0.0772,0.0462 -0.1106,0.07594 -0.10375,0.09204 -0.15218,0.246349 -0.25589,0.338405 -0.14301,0.126957 -0.43582,0.363976 -0.60423,0.447348 -0.051,0.02522 -0.12727,-4.89e-4 -0.17828,0.02477 -0.0507,0.02514 -0.0558,0.103344 -0.1024,0.135367 -0.15232,0.104597 -0.807862,-0.01505 -0.975622,-0.04635 -0.162769,-0.03026 -0.08671,-0.109106 -0.194785,-0.09413 M 54.921431,89.593984 c 0.111665,-0.233609 0.223253,-0.467246 0.33484,-0.700883 0.127395,-0.26668 0.271025,-0.792168 0.478366,-1.00123 0.03652,-0.03685 0.09936,-0.031 0.149084,-0.04652 0.06555,-0.04884 0.144013,-0.08393 0.196906,-0.146632 0.0473,-0.05606 0.03696,-0.156517 0.09539,-0.20038 0.0293,-0.02183 0.06608,0.06459 0.101415,0.05331 0.111104,-0.03466 0.133644,-0.212084 0.244743,-0.246756 0.03512,-0.01103 0.06612,0.06452 0.101408,0.05331 0.171869,-0.0536 0.08895,-0.201388 0.447225,-0.139542 0.06624,0.01147 0.243824,0.179544 0.303729,0.160819 0.07854,-0.02447 0.118336,-0.122123 0.19691,-0.146639 0.02318,-0.0073 0.396791,0.190215 0.40495,0.214473 0.02077,0.05987 -0.16216,0.339385 -0.191378,0.400481 -0.13263,0.277688 -1.008973,1.901578 -1.004581,2.102587 0.0019,0.08457 0.10865,0.392091 0.160174,0.461221 0.249072,0.333988 2.431435,1.29121 2.48311,1.440512 0.01253,0.03618 -0.0318,0.06681 -0.04807,0.100022 -0.51421,1.076199 -0.535174,1.096621 -1.741072,0.457971 -0.114539,-0.06029 -0.599153,-0.409468 -0.708679,-0.375291 -0.11068,0.03451 -0.337783,0.706927 -0.382685,0.801004 -0.125036,0.261765 0.598696,0.556387 0.767636,0.782903 0.173609,0.232803 0.274408,0.180574 0.458345,0.368195 0.211705,0.215919 0.397291,0.450604 0.565161,0.675693 0.04608,0.06171 0.15639,0.04535 0.202471,0.107235 0.141987,0.190373 0.198385,0.466426 0.314845,0.668562 0.0359,0.06238 0.234335,0.199017 0.255867,0.260974 0.06631,0.191017 0.0204,0.401747 0.112244,0.561361 0.04473,0.07775 0.286158,0.348122 0.30928,0.414713 0.03057,0.0879 -0.189664,0.396992 -0.239219,0.500595 -0.04018,0.08477 -0.113735,0.376313 -0.191378,0.40048 -0.1201,0.03745 -0.949215,-0.453013 -1.161441,-0.489688 -0.553795,-0.09566 -0.999348,-0.38238 -1.417329,-0.750621 -0.269292,-0.237226 -0.606007,-0.320102 -0.86331,-0.582673 -0.451662,0.03548 -0.06778,-0.255132 -0.106782,-0.307475 -0.04608,-0.06171 -0.134957,-0.07154 -0.202479,-0.107238 -0.05154,-0.06907 -0.111643,-0.132678 -0.154634,-0.207341 -0.141822,-0.246156 -0.373814,-1.07667 -0.379352,-1.330034 -9.27e-4,-0.03781 0.06038,-0.06393 0.04807,-0.100023 -0.03983,-0.114595 -0.253322,-0.141177 -0.255881,-0.26098 -0.0055,-0.253863 0.122409,-0.123361 0.143533,-0.300361 0.0078,-0.06552 -0.102354,-0.630105 -0.165794,-0.71507 -0.03158,-0.0424 -0.464413,-0.281135 -0.5062,-0.268054 -0.07025,0.02189 -0.02542,0.178299 -0.09539,0.20038 -0.08635,0.02702 -0.414222,-0.04117 -0.500628,-0.01422 -0.121357,0.03784 -0.51,0.444267 -0.638581,0.540016 -0.133796,0.09966 -0.361232,0.140031 -0.495062,0.239631 -0.167497,0.124736 0.0011,0.255255 -0.292591,0.346883 -0.03512,0.01103 -0.07189,-0.07547 -0.101401,-0.05331 -0.05874,0.04376 -0.03697,0.156531 -0.09539,0.200387 -0.0293,0.02183 -0.08862,-0.01744 -0.101408,-0.05331 -0.01253,-0.03618 0.07091,-0.06922 0.04808,-0.100029 -0.04612,-0.06181 -0.15639,-0.04535 -0.202479,-0.107238 -0.02304,-0.03094 0.04864,-0.06222 0.04807,-0.100023 -0.0051,-0.23367 -0.20293,-0.127386 -0.208036,-0.361101 -0.003,-0.135432 0.09866,-0.06477 0.09539,-0.200373 -0.02855,-1.303295 0.281974,-0.661491 0.925607,-1.140748 0.110307,-0.08207 0.188532,-0.269361 0.292602,-0.346868 0.03394,-0.02525 0.448959,0.03033 0.500624,0.01421 0.07025,-0.02189 0.03697,-0.156531 0.09539,-0.20038 0.13335,-0.09933 0.352195,0.08984 0.34599,-0.193133 -0.01381,-0.630357 -1.90267,-0.99083 -2.232787,-1.433411 -0.179569,-0.240789 0.190701,-0.432327 0.18579,-0.654358 -9.27e-4,-0.03781 -0.08868,-0.0173 -0.101408,-0.05331 -0.01071,-0.03129 0.208936,-0.491205 0.239218,-0.500594 0.07025,-0.02189 0.132216,0.129124 0.202472,0.107235 0.07854,-0.02447 0.118339,-0.122131 0.196917,-0.146636 0.140536,-0.04388 0.269957,0.143006 0.40495,0.214473 0.375105,0.198662 1.017884,0.392829 1.316093,0.696995 0.173016,0.176494 0.308514,0.345709 0.559595,0.421827 0.149325,0.04524 0.301851,0.07624 0.452787,0.114331 z m 28.526302,51.594586 c 0.234504,-0.23835 0.671045,-0.44718 0.949877,-0.19229 0.01768,0.0158 0.05137,0.01 0.06497,0.0291 0.07702,0.10984 0.117339,0.24126 0.189459,0.35433 0.0076,0.0119 0.258919,0.3727 0.224487,0.44754 -0.0068,0.015 -0.03596,0.005 -0.04736,0.0175 -0.175197,0.1861 -0.352675,0.35336 -0.554394,0.52351 -0.105275,0.0888 -0.237737,0.1429 -0.342136,0.23267 -0.05666,0.0487 -0.09908,0.11159 -0.153327,0.16287 -0.246546,0.23281 -0.617607,0.39771 -0.819847,0.67479 -0.03437,0.0471 -0.09515,0.25516 -0.100168,0.30237 -0.006,0.0566 0.250375,0.70826 0.283546,0.74407 0.08535,0.0921 0.223173,0.10647 0.295119,0.20917 0.01919,0.0271 0.01428,0.0674 0.03543,0.093 0.09516,0.11577 0.500856,0.12703 0.643207,0.13343 0.166917,0.008 0.42697,0.0635 0.57232,-0.0526 0.01851,-0.0148 0.01095,-0.0493 0.02954,-0.0641 0.02606,-0.0209 0.07154,-0.0106 0.0944,-0.0349 0.138929,-0.14759 -0.0045,-0.11249 0.05296,-0.28492 0.03754,-0.11348 0.150306,-0.18819 0.21228,-0.29079 0.05379,-0.089 0.06414,-0.16682 0.117898,-0.25586 0.07214,-0.11947 0.18615,-0.19501 0.259471,-0.30826 0.07343,-0.11333 0.140817,-0.27417 0.241764,-0.35476 0.02606,-0.0209 0.0695,-0.0127 0.0944,-0.0349 0.07479,-0.0673 0.135,-0.22909 0.212287,-0.29078 0.286341,-0.22868 0.701058,-0.36598 1.050045,-0.49466 0.416258,-0.15398 0.536725,-0.0232 0.8969,0.0926 0.05764,0.0186 0.121864,0.0159 0.177025,0.0406 0.01526,0.007 0.0023,0.0396 0.01768,0.0467 0.06844,0.0306 0.155798,-0.008 0.224223,0.0231 0.03422,0.0153 0.04835,0.0602 0.08271,0.0755 0.01518,0.007 0.03188,-0.0241 0.04721,-0.0174 0.122287,-0.0263 0.05741,0.0914 0.100379,0.12204 0.0386,0.0273 0.09212,0.0297 0.129864,0.0581 0.08955,0.0675 0.152874,0.16687 0.247921,0.22662 0.270356,0.17003 0.08151,-0.0408 0.289143,0.0522 0.220371,0.20146 -0.06504,-0.0291 0.194754,0.0871 0.01526,0.007 0.0015,0.0428 0.0176,0.0466 0.04774,0.0109 0.714564,-0.0215 0.76109,-0.12242 0.0068,-0.015 -0.02916,-0.0344 -0.01768,-0.0467 0.02289,-0.0242 0.07723,-0.007 0.0944,-0.0349 0.04298,-0.0712 0.04903,-0.15842 0.07071,-0.23841 0.01556,-0.0577 0.04812,-0.1151 0.04125,-0.17444 -0.0095,-0.0822 -0.07509,-0.15083 -0.08863,-0.23251 -0.01458,-0.088 0.01843,-0.17916 0.0053,-0.26745 -0.0281,-0.19575 -0.153878,-0.38885 -0.259901,-0.54056 -0.01919,-0.0272 -0.0091,-0.0724 -0.03543,-0.093 -0.18856,-0.14754 -0.177463,-0.0409 -0.371787,-0.12774 -0.03422,-0.0153 -0.04699,-0.0641 -0.0827,-0.0755 -0.286492,-0.0922 -0.627487,-0.0468 -0.914629,-0.13913 -0.03573,-0.0114 -0.04835,-0.0602 -0.0827,-0.0755 -0.142623,-0.0638 -0.323402,-0.0416 -0.466183,-0.0928 -0.46845,-0.16818 -0.950429,-0.38349 -1.304319,-0.7378 -0.174962,-0.17518 -0.415963,-0.38212 -0.549007,-0.59278 -0.07598,-0.11983 -0.108894,-0.28581 -0.159507,-0.41855 -0.03082,-0.0807 -0.123624,-0.20815 -0.05915,-0.29649 0.146785,-0.20107 0.37326,-0.42672 0.601592,-0.54097 0.1199,-0.0599 0.261201,-0.0734 0.377565,-0.13971 0.169516,-0.0962 0.31235,-0.1691 0.501416,-0.23862 0.216442,-0.08 -0.04578,0.0287 0.21827,-0.13382 0.03792,-0.0231 0.217878,-0.048 0.235963,-0.0873 0.0068,-0.015 -0.0053,-0.0355 -0.01768,-0.0465 -0.07025,-0.0643 -0.334401,-0.0348 -0.336335,-0.0348 -0.19668,0.002 -0.395922,-0.0252 -0.590041,0.006 -0.08286,0.0133 -0.152715,0.0775 -0.23597,0.0873 -0.06021,0.007 -0.116621,-0.0455 -0.177024,-0.0406 -0.151658,0.0122 -0.291327,0.0935 -0.442494,0.11065 -0.286454,0.0323 -0.64845,-0.006 -0.902686,0.17481 -0.0485,0.0348 -0.400681,0.32901 -0.477718,0.44206 -0.161025,0.23629 0.01624,0.43956 -0.20632,0.44778 -0.178105,0.007 -0.18414,-0.20056 -0.236136,-0.33713 -0.144118,-0.37808 -0.253012,-0.80606 -0.443052,-1.1626 -0.07901,-0.14863 -0.12484,-0.11419 -0.247906,-0.22664 -0.134456,-0.12288 -0.06209,-0.14332 -0.247935,-0.22664 -0.03422,-0.0153 -0.07793,0.004 -0.112104,-0.0116 -0.03422,-0.0153 -0.05507,-0.0504 -0.0827,-0.0755 -0.07479,-0.008 -0.152775,-1.8e-4 -0.224223,-0.0231 -0.03573,-0.0114 -0.04532,-0.0785 -0.08271,-0.0755 -0.200956,0.0161 -0.372685,0.15415 -0.566352,0.20952 -0.146158,0.0418 -0.338993,6.2e-4 -0.442493,0.11063 -0.01111,0.0129 0.01209,0.031 0.0176,0.0465 0.0414,0.1085 0.08272,0.21701 0.124047,0.32554 0.05613,0.14739 0.172266,0.57892 0.283546,0.74407 0.08817,0.13087 0.212,0.23588 0.301125,0.36614 0.207097,0.30293 0.417451,0.80398 0.802895,0.97638 0.03422,0.0153 0.07793,-0.004 0.112112,0.0116 0.03422,0.0153 0.04661,0.0651 0.0827,0.0755 0.194142,0.0559 0.4421,-0.0194 0.654947,0.023 0.08243,0.0164 0.158388,0.061 0.241952,0.0696 0.30889,0.032 0.120429,-0.10204 0.289144,0.0522 0.431592,0.39456 0.07418,0.34398 -0.395106,0.51764 -0.18195,0.0673 -0.490372,0.24109 -0.678456,0.19793 -0.09258,-0.0212 -0.165821,-0.10125 -0.259667,-0.11616 -0.11301,-0.0179 -0.375359,0.0125 -0.495652,-0.0289 -0.05719,-0.0196 -0.09242,-0.0799 -0.147571,-0.10457 -0.227426,-0.10174 -0.550155,-0.0608 -0.773041,-0.19152 -0.0457,-0.0267 -0.0559,-0.0937 -0.100387,-0.12205 -0.03165,-0.0199 -0.08158,0.01 -0.112112,-0.0116 -0.02727,-0.0193 -0.02372,-0.062 -0.03543,-0.093 -0.04918,-0.0349 -0.09493,-0.075 -0.147571,-0.10458 -0.09237,-0.0517 -0.725231,-0.26713 -0.855669,-0.26707 -0.05749,4e-5 -0.456143,0.11569 -0.536882,0.14557 -0.0944,0.0349 -0.228915,0.0211 -0.283154,0.10479 -0.05998,0.0926 0.243675,0.78082 0.289499,0.90105 0.102661,0.26947 0.193999,0.5379 0.39565,0.75567 0.186014,0.20086 -0.0898,-0.23439 0.147578,0.10457 0.01919,0.0272 0.0082,0.0736 0.03543,0.093 0.03044,0.0216 0.08045,-0.008 0.112119,0.0116 0.0448,0.0282 0.0559,0.0937 0.100395,0.12204 0.03165,0.0199 0.07554,0.003 0.112112,0.0116 0.113501,0.0261 0.211101,0.11919 0.32458,0.14523 0.156485,0.0359 0.467709,0.0928 0.625486,0.0869 0.04774,-0.002 0.0938,-0.0506 0.141595,-0.0523 0.04752,-0.002 0.08259,0.0532 0.129872,0.0581 0.154399,0.0159 0.590562,-0.32996 0.701911,-0.41897 0.108085,-0.0863 0.02032,-0.11364 0.106128,-0.14542 M 137.177,133.19895 c -0.0962,-0.20124 -0.19233,-0.40251 -0.28846,-0.60379 -0.10975,-0.22973 -0.23348,-0.68242 -0.4121,-0.86252 -0.0315,-0.0318 -0.0856,-0.0267 -0.12843,-0.0401 -0.0565,-0.0421 -0.12406,-0.0723 -0.16963,-0.12632 -0.0407,-0.0483 -0.0318,-0.13483 -0.0822,-0.17262 -0.0252,-0.0188 -0.0569,0.0557 -0.0874,0.0459 -0.0957,-0.0299 -0.11513,-0.1827 -0.21084,-0.21257 -0.0302,-0.01 -0.057,0.0556 -0.0874,0.0459 -0.14806,-0.0462 -0.0766,-0.17349 -0.38527,-0.12021 -0.0571,0.01 -0.21004,0.15467 -0.26165,0.13854 -0.0677,-0.0211 -0.10194,-0.1052 -0.16963,-0.12632 -0.02,-0.006 -0.34183,0.16386 -0.34885,0.18476 -0.0179,0.0516 0.13969,0.29237 0.16486,0.345 0.11426,0.23922 0.8692,1.63815 0.86542,1.81132 -0.002,0.0729 -0.0936,0.33777 -0.13799,0.39732 -0.21457,0.28772 -2.0946,1.11234 -2.13912,1.24096 -0.0108,0.0312 0.0274,0.0575 0.0414,0.0862 0.44298,0.92711 0.46104,0.9447 1.49988,0.39452 0.0987,-0.0519 0.51615,-0.35274 0.61051,-0.3233 0.0953,0.0297 0.29099,0.609 0.32967,0.69004 0.10771,0.2255 -0.51576,0.47931 -0.6613,0.67445 -0.14955,0.20055 -0.23639,0.15556 -0.39485,0.31719 -0.18237,0.186 -0.34225,0.38818 -0.48686,0.58209 -0.0397,0.0532 -0.13473,0.0391 -0.17443,0.0924 -0.12231,0.16401 -0.1709,0.40182 -0.27123,0.57595 -0.0309,0.0537 -0.20187,0.17145 -0.22042,0.22482 -0.0571,0.16456 -0.0176,0.34609 -0.0967,0.4836 -0.0385,0.067 -0.24652,0.29989 -0.26644,0.35726 -0.0263,0.0757 0.16339,0.342 0.20608,0.43125 0.0346,0.073 0.098,0.32418 0.16487,0.345 0.10346,0.0323 0.81772,-0.39026 1.00054,-0.42185 0.47708,-0.0824 0.86091,-0.32941 1.22099,-0.64664 0.23199,-0.20436 0.52205,-0.27576 0.74371,-0.50196 0.3891,0.0306 0.0584,-0.21978 0.092,-0.26488 0.0397,-0.0532 0.11626,-0.0616 0.17443,-0.0924 0.0444,-0.0595 0.0962,-0.1143 0.13321,-0.17862 0.12218,-0.21205 0.32203,-0.92751 0.32681,-1.14578 7.9e-4,-0.0326 -0.052,-0.0551 -0.0414,-0.0862 0.0343,-0.0987 0.21823,-0.12162 0.22044,-0.22482 0.005,-0.2187 -0.10546,-0.10627 -0.12365,-0.25875 -0.007,-0.0564 0.0882,-0.54282 0.14282,-0.61601 0.0272,-0.0365 0.40008,-0.24219 0.43608,-0.23092 0.0605,0.0189 0.0219,0.1536 0.0822,0.17262 0.0744,0.0233 0.35684,-0.0355 0.43128,-0.0122 0.10455,0.0326 0.43935,0.38272 0.55012,0.46521 0.11526,0.0858 0.31119,0.12063 0.42648,0.20643 0.14429,0.10746 -9.8e-4,0.21989 0.25206,0.29883 0.0302,0.009 0.0619,-0.065 0.0873,-0.0459 0.0506,0.0377 0.0319,0.13484 0.0822,0.17262 0.0252,0.0188 0.0763,-0.015 0.0874,-0.0459 0.0108,-0.0312 -0.0611,-0.0596 -0.0414,-0.0862 0.0397,-0.0533 0.13473,-0.0391 0.17443,-0.0924 0.0198,-0.0267 -0.0419,-0.0536 -0.0414,-0.0862 0.004,-0.2013 0.17482,-0.10974 0.17922,-0.31108 0.003,-0.11667 -0.085,-0.0558 -0.0822,-0.17262 0.0246,-1.12274 -0.24291,-0.56985 -0.79738,-0.98271 -0.095,-0.0707 -0.16241,-0.23205 -0.25206,-0.29882 -0.0292,-0.0217 -0.38677,0.0261 -0.43128,0.0122 -0.0605,-0.0189 -0.0318,-0.13485 -0.0822,-0.17262 -0.11488,-0.0856 -0.30341,0.0774 -0.29806,-0.16638 0.0119,-0.54303 1.63909,-0.85357 1.92347,-1.23484 0.1547,-0.20743 -0.16428,-0.37244 -0.16005,-0.56371 8e-4,-0.0326 0.0764,-0.0149 0.0874,-0.0459 0.009,-0.0269 -0.17999,-0.42315 -0.20608,-0.43124 -0.0605,-0.0189 -0.1139,0.11123 -0.17442,0.0924 -0.0677,-0.0211 -0.10195,-0.10521 -0.16964,-0.12632 -0.12107,-0.0378 -0.23256,0.12319 -0.34885,0.18476 -0.32314,0.17114 -0.87688,0.33841 -1.13377,0.60044 -0.14905,0.15204 -0.26578,0.29781 -0.48208,0.36339 -0.12864,0.039 -0.26003,0.0657 -0.39006,0.0985 z m 6.00958,-55.151428 c -0.11595,-0.235961 -0.23189,-0.471921 -0.34784,-0.707881 -0.13235,-0.269348 -0.45629,-0.712137 -0.49691,-1.011257 -0.007,-0.05266 0.0343,-0.100537 0.0514,-0.150823 5.8e-4,-0.08398 0.0194,-0.169835 0.002,-0.251943 -0.0158,-0.07347 -0.0999,-0.12714 -0.0994,-0.202252 2.7e-4,-0.03753 0.089,-0.01411 0.10113,-0.04969 0.0383,-0.112407 -0.0863,-0.240659 -0.0479,-0.353066 0.0122,-0.03553 0.089,-0.01418 0.10112,-0.04969 0.0593,-0.173878 -0.10424,-0.197437 0.15431,-0.452452 0.0479,-0.04715 0.28273,-0.08848 0.30338,-0.149074 0.0271,-0.07946 -0.0254,-0.172453 0.002,-0.251942 0.008,-0.0235 0.381,-0.206794 0.40451,-0.198768 0.0588,0.02008 0.16844,0.342795 0.19876,0.404506 0.13781,0.280451 0.88475,2.002843 1.04352,2.123642 0.0668,0.05086 0.36847,0.153724 0.45245,0.154302 0.40581,0.0028 2.43148,-1.191256 2.57784,-1.141155 0.0355,0.01217 0.0331,0.06741 0.0497,0.101122 0.53412,1.086976 0.53766,1.116786 -0.6669,1.708684 -0.11427,0.05615 -0.6701,0.237051 -0.70789,0.347841 -0.0382,0.111972 0.35086,0.714012 0.39754,0.809011 0.12991,0.264375 0.78398,-0.145751 1.05921,-0.143849 0.28285,0.002 0.30149,-0.112871 0.55532,-0.147334 0.29211,-0.03967 0.58346,-0.04635 0.85696,-0.04446 0.0751,5.03e-4 0.12711,-0.09994 0.20225,-0.09938 0.23132,0.0016 0.47894,0.126276 0.70439,0.156041 0.0696,0.0092 0.29228,-0.06866 0.35307,-0.04794 0.18738,0.0639 0.32413,0.231923 0.50214,0.255431 0.0867,0.01146 0.43857,-0.01879 0.50389,0.0035 0.0863,0.02939 0.19703,0.400968 0.24846,0.505628 0.042,0.0855 0.22554,0.32602 0.19876,0.404498 -0.0414,0.121496 -0.90954,0.496672 -1.06269,0.647738 -0.39963,0.394136 -0.88414,0.581391 -1.41576,0.695678 -0.3425,0.07363 -0.60468,0.297974 -0.95983,0.346094 -0.23776,0.391686 -0.23804,-0.102422 -0.30164,-0.102869 -0.0751,-5.03e-4 -0.13483,0.06625 -0.20225,0.09938 -0.0839,-5.5e-4 -0.16868,0.0092 -0.25194,-0.0017 -0.27455,-0.03625 -1.05611,-0.360334 -1.25622,-0.512603 -0.0299,-0.02272 -0.0142,-0.08899 -0.0497,-0.101123 -0.11242,-0.03834 -0.25851,0.119969 -0.35308,0.04795 -0.20051,-0.152563 -0.0239,-0.176547 -0.14907,-0.303376 -0.0463,-0.047 -0.54971,-0.306151 -0.65296,-0.306864 -0.0515,-3.56e-4 -0.49123,0.206195 -0.50563,0.248457 -0.0243,0.07109 0.12364,0.13115 0.0994,0.202252 -0.0298,0.0874 -0.27531,0.313606 -0.30512,0.40102 -0.0419,0.12277 0.0456,0.692442 0.0445,0.856955 -0.001,0.17121 -0.10342,0.382358 -0.10462,0.553575 -0.001,0.214308 0.19898,0.157063 0.0976,0.454195 -0.0121,0.03557 -0.10086,0.01217 -0.10113,0.04969 -5e-4,0.07512 0.0999,0.127148 0.0994,0.202253 -2.7e-4,0.03752 -0.0656,0.06178 -0.10113,0.04969 -0.0355,-0.01217 -0.0121,-0.100857 -0.0497,-0.10113 -0.0751,-5.04e-4 -0.12711,0.09994 -0.20225,0.09938 -0.0375,-2.51e-4 -0.0198,-0.07837 -0.0497,-0.101122 -0.18456,-0.140433 -0.21818,0.08728 -0.40276,-0.05318 -0.10695,-0.08139 0.008,-0.120857 -0.0994,-0.202252 -1.02939,-0.783226 -0.3483,-0.640224 -0.34261,-1.463706 9.8e-4,-0.141084 -0.0986,-0.321028 -0.0976,-0.454199 2.6e-4,-0.04343 0.2873,-0.348747 0.30512,-0.401016 0.0242,-0.07109 -0.0999,-0.127147 -0.0994,-0.202253 0.001,-0.170641 0.27669,-0.232711 0.0532,-0.402759 -0.49787,-0.378816 -1.88749,0.944323 -2.42527,0.94065 -0.29256,-0.002 -0.22391,-0.423664 -0.39928,-0.557068 -0.0299,-0.02272 -0.0656,0.06185 -0.10113,0.04969 -0.0306,-0.01044 -0.25891,-0.475047 -0.24845,-0.505628 0.0242,-0.07109 0.178,-0.02829 0.20225,-0.09938 0.0271,-0.07946 -0.0254,-0.172453 0.002,-0.251943 0.0485,-0.14219 0.26967,-0.132513 0.40451,-0.198767 0.37469,-0.184117 0.90314,-0.590104 1.31463,-0.645988 0.23876,-0.03239 0.44982,-0.03859 0.65645,-0.197021 0.12288,-0.09425 0.23654,-0.199924 0.35481,-0.299893 z"
       transform="translate(1.2537109e-6)" /><path
       id="path953679-5-0-7-7"
       style="display:inline;fill:#c09066;stroke-width:0.967473;stop-color:#000000"
       transform="rotate(93.575149,7.8633046e-7,4.1916245e-7)"
       d="m 90.99406,-126.20236 a 0.83614713,0.6271103 0 0 1 -0.836147,0.62711 0.83614713,0.6271103 0 0 1 -0.836147,-0.62711 0.83614713,0.6271103 0 0 1 0.836147,-0.62711 0.83614713,0.6271103 0 0 1 0.836147,0.62711 z m 6.728823,9.33143 a 0.6271103,0.83614713 11.717527 0 1 0.444231,0.94608 0.6271103,0.83614713 11.717527 0 1 -0.783853,0.69137 0.6271103,0.83614713 11.717527 0 1 -0.444231,-0.94609 0.6271103,0.83614713 11.717527 0 1 0.783853,-0.69136 z m -7.53705,5.15187 a 0.83614713,0.6271103 0 0 1 -0.836147,0.62711 0.83614713,0.6271103 0 0 1 -0.836147,-0.62711 0.83614713,0.6271103 0 0 1 0.836147,-0.62711 0.83614713,0.6271103 0 0 1 0.836147,0.62711 z m -7.543049,-9.88023 a 0.6271103,0.83614713 15.76918 0 1 0.376275,0.9751 0.6271103,0.83614713 15.76918 0 1 -0.830743,0.63426 0.6271103,0.83614713 15.76918 0 1 -0.376274,-0.97511 0.6271103,0.83614713 15.76918 0 1 0.830742,-0.63425 z m -36.012751,30.338822 a 0.85084295,0.63813221 0 0 1 -0.850843,0.638133 0.85084295,0.63813221 0 0 1 -0.850843,-0.638133 0.85084295,0.63813221 0 0 1 0.850843,-0.638132 0.85084295,0.63813221 0 0 1 0.850843,0.638132 z m -7.675629,-10.053862 a 0.63813221,0.85084295 15.76918 0 1 0.382889,0.99224 0.63813221,0.85084295 15.76918 0 1 -0.845342,0.645393 0.63813221,0.85084295 15.76918 0 1 -0.382889,-0.992243 0.63813221,0.85084295 15.76918 0 1 0.845342,-0.64539 z m 52.394064,30.391189 a 0.89296848,0.7100081 23.371597 0 0 -0.617781,-0.981314 0.89296848,0.7100081 23.371597 0 0 -1.058692,0.370876 0.89296848,0.7100081 23.371597 0 0 0.617782,0.981315 0.89296848,0.7100081 23.371597 0 0 1.058691,-0.370877 z m -6.617938,15.962127 a 0.91740506,0.69109589 30.20765 0 0 -0.559087,-1.039477 0.91740506,0.69109589 30.20765 0 0 -1.089213,0.242925 0.91740506,0.69109589 30.20765 0 0 0.559086,1.039478 0.91740506,0.69109589 30.20765 0 0 1.089214,-0.242926 z m 8.786315,-2.461722 a 0.68406539,0.92683366 40.758141 0 0 1.116079,-0.186529 0.68406539,0.92683366 40.758141 0 0 0.153736,-1.161842 0.68406539,0.92683366 40.758141 0 0 -1.116086,0.186536 0.68406539,0.92683366 40.758141 0 0 -0.153729,1.161835 z M 80.31326,-63.024592 a 0.66592669,0.95207909 3.4782811 0 0 0.720004,-0.91392 0.66592669,0.95207909 3.4782811 0 0 -0.609851,-0.987042 0.66592669,0.95207909 3.4782811 0 0 -0.720004,0.913919 0.66592669,0.95207909 3.4782811 0 0 0.609851,0.987043 z m 49.77678,-73.771828 a 0.61165002,0.76926472 59.478105 0 1 -0.42284,0.90504 0.61165002,0.76926472 59.478105 0 1 -0.9447,-0.20349 0.61165002,0.76926472 59.478105 0 1 0.42283,-0.90504 0.61165002,0.76926472 59.478105 0 1 0.94471,0.20349 z m -7.36841,-12.9343 a 0.59535773,0.79031607 52.642053 0 1 -0.36643,0.94847 0.59535773,0.79031607 52.642053 0 1 -0.95708,-0.0908 0.59535773,0.79031607 52.642053 0 1 0.36643,-0.94847 0.59535773,0.79031607 52.642053 0 1 0.95708,0.0909 z m 7.77424,1.16206 a 0.79843849,0.58930117 42.091562 0 1 0.97399,0.0398 0.79843849,0.58930117 42.091562 0 1 0.25599,0.97661 0.79843849,0.58930117 42.091562 0 1 -0.974,-0.0398 0.79843849,0.58930117 42.091562 0 1 -0.25598,-0.97662 z m -10.68534,6.2041 a 0.82018664,0.57367521 79.371419 0 1 0.71343,0.70398 0.82018664,0.57367521 79.371419 0 1 -0.41544,0.9091 0.82018664,0.57367521 79.371419 0 1 -0.71343,-0.704 0.82018664,0.57367521 79.371419 0 1 0.41544,-0.90908 z m -46.497602,0.10675 a 0.6978128,0.90818507 64.170133 0 1 -0.507018,1.0251 0.6978128,0.90818507 64.170133 0 1 -1.124394,-0.22656 0.6978128,0.90818507 64.170133 0 1 0.507017,-1.0251 0.6978128,0.90818507 64.170133 0 1 1.124395,0.22656 z m -8.727123,-14.59951 a 0.68276046,0.92820721 57.287548 0 1 -0.439999,1.07399 0.68276046,0.92820721 57.287548 0 1 -1.139551,-0.0991 0.68276046,0.92820721 57.287548 0 1 0.440001,-1.07399 0.68276046,0.92820721 57.287548 0 1 1.139549,0.0991 z m 9.254861,1.28484 a 0.9282071,0.68276046 37.048448 0 1 1.15989,0.0413 0.9282071,0.68276046 37.048448 0 1 0.301206,1.10348 0.9282071,0.68276046 37.048448 0 1 -1.159891,-0.0413 0.9282071,0.68276046 37.048448 0 1 -0.301205,-1.10348 z m -12.749812,7.05648 a 0.92820715,0.68276046 78.137311 0 1 0.847061,0.79344 0.92820715,0.68276046 78.137311 0 1 -0.498228,1.02964 0.92820715,0.68276046 78.137311 0 1 -0.84706,-0.79344 0.92820715,0.68276046 78.137311 0 1 0.498227,-1.02964 z m 74.244976,47.69983 a 0.86668044,0.65001029 0 0 1 -0.86668,0.65001 0.86668044,0.65001029 0 0 1 -0.86668,-0.65001 0.86668044,0.65001029 0 0 1 0.86668,-0.65001 0.86668044,0.65001029 0 0 1 0.86668,0.65001 z m 6.97453,9.672186 a 0.65001029,0.86668044 11.717527 0 1 0.46045,0.980627 0.65001029,0.86668044 11.717527 0 1 -0.81248,0.716611 0.65001029,0.86668044 11.717527 0 1 -0.46045,-0.980628 0.65001029,0.86668044 11.717527 0 1 0.81248,-0.71661 z m -7.81229,5.339998 a 0.86668044,0.65001029 0 0 1 -0.86668,0.650011 0.86668044,0.65001029 0 0 1 -0.86668,-0.650011 0.86668044,0.65001029 0 0 1 0.86668,-0.65001 0.86668044,0.65001029 0 0 1 0.86668,0.65001 z m -7.81848,-10.241017 a 0.65001029,0.86668044 15.76918 0 1 0.39001,1.01071 0.65001029,0.86668044 15.76918 0 1 -0.86108,0.657414 0.65001029,0.86668044 15.76918 0 1 -0.39001,-1.010711 0.65001029,0.86668044 15.76918 0 1 0.86108,-0.657413 z" /><path
       id="rect954406-0-4-9"
       style="display:inline;fill:#fff5d1;stroke-width:5.31794;stop-color:#000000"
       transform="matrix(0.80061858,-0.59917433,0.32144669,0.94692767,1.2537109e-6,-3.3949972e-7)"
       d="m 65.744297,154.17754 h 1.951018 c 0.07969,0 0.143841,0.0642 0.143841,0.14384 0,0.0797 -0.06415,0.14384 -0.143841,0.14384 h -1.951018 c -0.07969,0 -0.143841,-0.0642 -0.143841,-0.14384 0,-0.0797 0.06415,-0.14384 0.143841,-0.14384 z m -0.562851,-3.42128 1.928593,0.16802 c 0.06488,0.006 0.127039,0.0634 0.139362,0.12949 0.01233,0.0661 -0.03,0.11475 -0.09488,0.10909 l -1.928592,-0.16801 c -0.06489,-0.006 -0.127041,-0.0634 -0.139364,-0.1295 -0.01233,-0.0661 0.03,-0.11474 0.09488,-0.10909 z m 0.552437,-3.334 1.645282,0.54856 c 0.07042,0.0235 0.118219,0.0929 0.107159,0.15559 -0.01106,0.0627 -0.07666,0.0943 -0.147075,0.0708 l -1.645282,-0.54856 c -0.07042,-0.0235 -0.11822,-0.0929 -0.10716,-0.15559 0.01106,-0.0627 0.07666,-0.0943 0.147076,-0.0708 z m -2.614072,-41.98143 h 1.985309 c 0.08109,0 0.146368,0.0653 0.146368,0.14637 0,0.0811 -0.06528,0.14636 -0.146368,0.14636 h -1.985309 c -0.08109,0 -0.146369,-0.0653 -0.146369,-0.14636 0,-0.0811 0.06528,-0.14637 0.146369,-0.14637 z m -0.572741,-3.48141 1.962489,0.17097 c 0.06602,0.006 0.129275,0.0645 0.141812,0.13178 v 0 c 0.01254,0.0673 -0.03053,0.11676 -0.09655,0.11101 l -1.962489,-0.17097 c -0.06603,-0.006 -0.129276,-0.0645 -0.141813,-0.13178 v 0 c -0.01254,-0.0673 0.03053,-0.11676 0.09655,-0.11101 z m 0.562148,-3.392586 1.674199,0.558208 c 0.07166,0.02389 0.120293,0.09451 0.109043,0.158323 -0.01125,0.06382 -0.07801,0.09596 -0.149661,0.07207 L 63.0686,98.797225 c -0.07166,-0.02389 -0.120294,-0.0945 -0.109042,-0.158323 0.01125,-0.06382 0.078,-0.09596 0.14966,-0.07207 z m -0.09108,-0.454502 2.141292,0.656023 M 9.5808652,110.80887 c 0,0 -0.8012131,2.39259 0,0 z m 22.7191708,19.23491 0.05671,-1.92516 c 0.0028,-0.0959 -0.07537,-0.18307 -0.175315,-0.19537 l -0.350835,-0.0432 c -0.09994,-0.0123 -0.182691,0.0551 -0.185516,0.15096 l -0.0567,1.92516 c -0.0028,0.0959 0.07537,0.18307 0.175315,0.19537 l 0.350835,0.0432 c 0.09994,0.0123 0.182691,-0.0551 0.185515,-0.15096 z m -20.582643,-13.65945 0.502342,-2.14349 c 0.04314,-0.18409 -0.09283,-0.38024 -0.304864,-0.43979 l -0.06212,-0.0174 c -0.212039,-0.0596 -0.417474,0.0407 -0.460619,0.2248 l -0.502342,2.14349 c -0.04315,0.1841 0.09282,0.38025 0.304863,0.4398 l 0.06212,0.0174 c 0.212038,0.0596 0.417475,-0.0407 0.46062,-0.22482 z m 3.374025,6.16575 0.793852,-1.97254 c 0.06856,-0.17035 -0.04706,-0.37368 -0.259226,-0.45591 l -0.06217,-0.0241 c -0.212169,-0.0822 -0.438169,-0.0113 -0.506728,0.15907 l -0.793852,1.97253 c -0.06856,0.17035 0.04706,0.37369 0.259227,0.45591 l 0.06217,0.0241 c 0.212169,0.0822 0.438168,0.0113 0.506727,-0.15907 z m 5.99121,5.35223 0.751251,-1.99951 c 0.06484,-0.17257 -0.0539,-0.37504 -0.266237,-0.45397 l -0.06221,-0.0231 c -0.212332,-0.0789 -0.435471,-0.004 -0.500308,0.16903 l -0.751251,1.9995 c -0.06484,0.17257 0.0539,0.37505 0.266236,0.45397 l 0.06221,0.0231 c 0.212333,0.0789 0.435473,0.004 0.50031,-0.16903 z m 6.900181,2.50808 0.01341,-2.36281 c 0.0011,-0.19978 -0.163517,-0.37756 -0.369172,-0.39861 l -0.06026,-0.006 c -0.205655,-0.021 -0.372132,0.12283 -0.373266,0.32261 l -0.01341,2.36281 c -0.0011,0.19977 0.163517,0.37756 0.369173,0.39861 l 0.06026,0.006 c 0.205655,0.0211 0.372132,-0.12284 0.373266,-0.32261 z m 70.796271,81.48463 c 0,0 -0.90923,1.92255 0,0 z m -22.252289,-9.89421 1.032896,-1.03581 c 0.05147,-0.0516 0.139627,-0.0283 0.197604,0.0523 l 0.203605,0.28287 c 0.05798,0.0806 0.06326,0.18701 0.01179,0.23862 l -1.032896,1.03581 c -0.05147,0.0516 -0.139627,0.0283 -0.197604,-0.0523 l -0.203606,-0.28287 c -0.05798,-0.0806 -0.06327,-0.18701 -0.01179,-0.23863 z m 18.081938,10.89386 0.92497,-1.5351 c 0.07944,-0.13184 0.257319,-0.11414 0.398818,0.0397 l 0.04145,0.0451 c 0.141507,0.15382 0.191466,0.38379 0.112024,0.51563 l -0.92497,1.5351 c -0.07944,0.13184 -0.257311,0.11416 -0.398819,-0.0397 l -0.04145,-0.0451 c -0.141499,-0.15381 -0.191466,-0.38379 -0.112023,-0.51563 z m -5.13008,0.22632 0.681289,-1.70091 c 0.05884,-0.14689 0.230253,-0.15057 0.384324,-0.008 l 0.04516,0.0417 c 0.15408,0.14232 0.230755,0.37514 0.171918,0.52203 l -0.681289,1.70091 c -0.05884,0.1469 -0.230244,0.15058 -0.384324,0.008 l -0.04516,-0.0417 c -0.154071,-0.14231 -0.230755,-0.37514 -0.171918,-0.52204 z m -6.02245,-2.46578 0.717995,-1.67769 c 0.06197,-0.1448 0.234504,-0.14532 0.386846,-0.001 l 0.04467,0.0423 c 0.152351,0.14416 0.225099,0.37677 0.163131,0.52157 l -0.717995,1.67769 c -0.06197,0.14479 -0.234496,0.14533 -0.386847,0.001 l -0.04467,-0.0423 c -0.152342,-0.14414 -0.2251,-0.37676 -0.163131,-0.52156 z m -4.91936,-4.71339 1.296496,-1.22243 c 0.109619,-0.10336 0.29206,-0.0513 0.409058,0.11668 l 0.03427,0.0492 c 0.116998,0.168 0.122939,0.38645 0.01332,0.48981 l -1.296496,1.22243 c -0.10962,0.10336 -0.29206,0.0513 -0.409058,-0.11668 l -0.03427,-0.0492 c -0.116998,-0.168 -0.122939,-0.38645 -0.01332,-0.48981 z m 25.240681,-44.74884 1.20793,-1.26039 c 0.0578,-0.0603 0.15648,-0.0338 0.22119,0.0594 l 0.22721,0.32726 c 0.0647,0.0932 0.0703,0.21686 0.0125,0.27717 l -1.20793,1.2604 c -0.0578,0.0603 -0.15648,0.0338 -0.22119,-0.0594 l -0.22721,-0.32726 c -0.0647,-0.0932 -0.0703,-0.21685 -0.0125,-0.27717 z m 2.21714,4.58838 1.52034,-1.49543 c 0.12319,-0.12117 0.32739,-0.0621 0.45785,0.13235 l 0.0382,0.0569 c 0.13046,0.19449 0.13632,0.44862 0.0131,0.56979 l -1.52034,1.49543 c -0.12319,0.12117 -0.3274,0.0622 -0.45786,-0.13234 l -0.0382,-0.0569 c -0.13046,-0.19449 -0.13632,-0.44861 -0.0131,-0.56979 z m -83.423126,6.44772 h 2.022263 c 0.0826,0 0.149093,0.0665 0.149093,0.14909 0,0.0826 -0.06649,0.1491 -0.149093,0.1491 h -2.022263 c -0.0826,0 -0.149094,-0.0665 -0.149094,-0.1491 0,-0.0826 0.0665,-0.14909 0.149094,-0.14909 z m -0.583403,-3.54621 1.999018,0.17415 c 0.06726,0.006 0.131687,0.0658 0.144453,0.13423 0.01278,0.0685 -0.03109,0.11893 -0.09835,0.11307 l -1.999019,-0.17415 c -0.06726,-0.006 -0.131686,-0.0658 -0.144451,-0.13422 -0.01278,-0.0685 0.03109,-0.11894 0.09835,-0.11308 z m 0.572611,-3.45575 1.705362,0.5686 c 0.07299,0.0243 0.122531,0.0963 0.111072,0.16128 -0.01146,0.065 -0.07946,0.0977 -0.152446,0.0734 l -1.705361,-0.5686 c -0.073,-0.0243 -0.122531,-0.0963 -0.111074,-0.16126 0.01146,-0.065 0.07946,-0.0978 0.152447,-0.0734 z" /></g></svg>
