<?xml version="1.0" encoding="UTF-8" standalone="no"?>
<!-- Created with Inkscape (http://www.inkscape.org/) -->

<svg
   width="164.23331mm"
   height="164.76247mm"
   viewBox="0 0 164.23331 164.76247"
   version="1.1"
   id="svg392"
   xml:space="preserve"
   xmlns="http://www.w3.org/2000/svg"
   xmlns:svg="http://www.w3.org/2000/svg"><defs
     id="defs389"><style
       id="style6869">.cls-1{fill:#ffe8c2;}.cls-2{fill:none;stroke:#e5af6e;stroke-miterlimit:10;stroke-width:25.51px;}.cls-3{opacity:0.05;}.cls-4{fill:#534741;}</style></defs><path
     id="path443429-925"
     style="display:inline;fill:#49201f;stroke-width:3.26336;stop-color:#000000"
     d="m 47.233453,117.19272 c 0,1.81281 -2.017982,2.40531 -3.933541,1.84717 -1.839084,-0.53585 -2.910289,-1.11077 -2.910289,-2.92357 0,-1.81281 1.446555,-3.20265 3.362114,-3.20265 1.915559,0 3.481716,2.46624 3.481716,4.27905 z m 13.393594,16.36995 c 0,1.81281 -2.017982,2.40531 -3.933541,1.84717 -1.839084,-0.53585 -2.910289,-1.11076 -2.910289,-2.92357 0,-1.81281 1.446555,-3.20265 3.362114,-3.20265 1.915559,0 3.481716,2.46625 3.481716,4.27905 z m 50.385423,-0.85039 c 0,1.81281 -2.01798,2.40531 -3.93354,1.84717 -1.83908,-0.53585 -2.91029,-1.11076 -2.91029,-2.92357 0,-1.81281 1.44656,-3.20265 3.36211,-3.20265 1.91556,0 3.48172,2.46625 3.48172,4.27905 z m 27.21238,-49.535034 c 0,1.812809 -2.01798,2.405308 -3.93354,1.847171 -1.83908,-0.535855 -2.91029,-1.11077 -2.91029,-2.923579 0,-1.812809 1.44656,-3.202647 3.36211,-3.202647 1.91556,0 3.48172,2.466247 3.48172,4.279055 z M 108.8865,98.909404 c 0,1.812806 -2.01798,2.405306 -3.93354,1.847166 -1.83908,-0.53585 -2.91029,-1.110765 -2.91029,-2.923574 0,-1.812809 1.44656,-3.202647 3.36211,-3.202647 1.91556,0 3.48172,2.466247 3.48172,4.279055 z M 79.760753,79.775698 c 0,1.812809 -2.017982,2.405308 -3.933541,1.847171 -1.839084,-0.535855 -2.910289,-1.11077 -2.910289,-2.923579 0,-1.812809 1.446555,-3.202647 3.362114,-3.202647 1.915559,0 3.481716,2.466247 3.481716,4.279055 z M 62.965611,95.082663 c 0,1.812809 -2.017982,2.405308 -3.933541,1.847171 -1.839084,-0.535855 -2.910289,-1.11077 -2.910289,-2.923579 0,-1.812809 1.446555,-3.202647 3.362114,-3.202647 1.915559,0 3.481716,2.466247 3.481716,4.279055 z M 26.186376,75.09857 c 0,1.812809 -2.017982,2.405308 -3.933541,1.847171 -1.839084,-0.535855 -2.910289,-1.11077 -2.910289,-2.923579 0,-1.812809 1.446555,-3.202647 3.362114,-3.202647 1.915559,0 3.481716,2.466247 3.481716,4.279055 z M 37.879197,43.634254 c 0,1.812809 -2.017982,2.405308 -3.933541,1.847171 -1.839084,-0.535855 -2.910289,-1.11077 -2.910289,-2.923579 0,-1.812809 1.446555,-3.202647 3.362114,-3.202647 1.915559,0 3.481716,2.466247 3.481716,4.279055 z M 61.477434,62.13017 c 0,1.812809 -2.017982,2.405308 -3.933541,1.847171 -1.839084,-0.535855 -2.910289,-1.11077 -2.910289,-2.923579 0,-1.812809 1.446555,-3.202647 3.362114,-3.202647 1.915559,0 3.481716,2.466247 3.481716,4.279055 z m 42.944536,-1.062984 c 0,1.812809 -2.01798,2.405308 -3.93354,1.847171 -1.839085,-0.535855 -2.91029,-1.11077 -2.91029,-2.923579 0,-1.812809 1.446555,-3.202647 3.36211,-3.202647 1.91556,0 3.48172,2.466247 3.48172,4.279055 z m 20.62189,-5.952709 c 0,1.812809 -2.01798,2.405308 -3.93354,1.847171 -1.83908,-0.535855 -2.91029,-1.11077 -2.91029,-2.923579 0,-1.812809 1.44656,-3.202647 3.36211,-3.202647 1.91556,0 3.48172,2.466247 3.48172,4.279055 z m -8.07868,-19.558898 c 0,1.812809 -2.01798,2.405308 -3.93354,1.847171 -1.83908,-0.535855 -2.91029,-1.11077 -2.91029,-2.923579 0,-1.812809 1.44656,-3.202647 3.36211,-3.202647 1.91556,0 3.48172,2.466247 3.48172,4.279055 z m -30.401332,8.078675 c 0,1.812809 -2.017982,2.405308 -3.933541,1.847171 -1.839084,-0.535855 -2.910289,-1.11077 -2.910289,-2.923579 0,-1.812809 1.446555,-3.202647 3.362114,-3.202647 1.915559,0 3.481716,2.466247 3.481716,4.279055 z M 84.012687,21.099001 c 0,1.812809 -2.017982,2.405308 -3.933541,1.847171 -1.839084,-0.535855 -2.910289,-1.11077 -2.910289,-2.923579 0,-1.812809 1.446555,-3.202647 3.362114,-3.202647 1.915559,0 3.481716,2.466247 3.481716,4.279055 z m -23.425491,9.638721 c 0,1.812809 -2.017982,2.405307 -3.933541,1.84717 -1.839084,-0.535855 -2.910289,-1.110769 -2.910289,-2.923578 0,-1.812809 1.446555,-3.202648 3.362114,-3.202648 1.915559,10e-7 3.481716,2.466247 3.481716,4.279056 z" /><path
     id="path443955-99"
     style="display:inline;opacity:0.736702;fill:#311313;stroke-width:3.26336;stop-color:#000000"
     d="m 45.02189,114.47135 a 1.1561422,0.70153612 21.729291 0 1 -1.333714,0.22366 1.1561422,0.70153612 21.729291 0 1 -0.814267,-1.07972 1.1561422,0.70153612 21.729291 0 1 1.333714,-0.22366 1.1561422,0.70153612 21.729291 0 1 0.814267,1.07972 z m 2.211563,2.72137 c 1e-6,1.81281 -2.017982,2.40531 -3.933541,1.84717 -1.839084,-0.53585 -2.943511,-1.11741 -2.943513,-2.93022 -2e-6,-0.14504 0.968153,1.38206 3.514937,1.36212 0.95775,-0.007 2.271734,-0.47912 2.851218,-2.25455 0.04829,-0.14791 0.510897,1.06908 0.510897,1.97548 z m 11.182031,13.64858 a 1.1561422,0.70153612 21.729291 0 1 -1.333711,0.22366 1.1561422,0.70153612 21.729291 0 1 -0.814266,-1.07971 1.1561422,0.70153612 21.729291 0 1 1.333712,-0.22366 1.1561422,0.70153612 21.729291 0 1 0.814265,1.07971 z m 2.211565,2.72138 c 10e-7,1.8128 -2.017985,2.4053 -3.933543,1.84716 -1.839087,-0.53585 -2.943495,-1.11745 -2.943513,-2.93022 -1e-6,-0.14504 0.968153,1.38206 3.514949,1.3621 0.957745,-0.007 2.271732,-0.47912 2.851219,-2.25455 0.0482,-0.14795 0.510897,1.06908 0.510895,1.97549 z m 48.173851,-3.57177 a 1.1561422,0.70153612 21.729291 0 1 -1.33371,0.22366 1.1561422,0.70153612 21.729291 0 1 -0.81426,-1.07971 1.1561422,0.70153612 21.729291 0 1 1.33371,-0.22366 1.1561422,0.70153612 21.729291 0 1 0.81426,1.07971 z m 2.21157,2.72137 c 0,1.81281 -2.01798,2.40531 -3.93354,1.84717 -1.83908,-0.53585 -2.94351,-1.11741 -2.94351,-2.93022 0,-0.14504 0.96815,1.38206 3.51494,1.36212 0.95775,-0.007 2.27173,-0.47911 2.85121,-2.25455 0.0482,-0.14795 0.5109,1.06908 0.5109,1.97548 z m 25.00082,-52.256406 a 1.1561422,0.70153612 21.729291 0 1 -1.33372,0.22366 1.1561422,0.70153612 21.729291 0 1 -0.81426,-1.079716 1.1561422,0.70153612 21.729291 0 1 1.33371,-0.22366 1.1561422,0.70153612 21.729291 0 1 0.81427,1.079716 z m 2.21156,2.721373 c 0,1.812808 -2.01798,2.405308 -3.93354,1.847169 -1.83908,-0.535853 -2.94351,-1.117409 -2.94351,-2.930221 0,-0.145042 0.96815,1.382052 3.51493,1.362122 0.95775,-0.0075 2.27174,-0.479122 2.85122,-2.254545 0.0482,-0.147964 0.5109,1.069074 0.5109,1.975478 z m -31.5499,13.010789 a 1.1561422,0.70153612 21.729291 0 1 -1.33372,0.223656 1.1561422,0.70153612 21.729291 0 1 -0.81427,-1.079716 1.1561422,0.70153612 21.729291 0 1 1.33371,-0.223659 1.1561422,0.70153612 21.729291 0 1 0.81428,1.079719 z m 2.21155,2.721369 c 0,1.812805 -2.01798,2.405305 -3.93354,1.847165 -1.83908,-0.53585 -2.94351,-1.117409 -2.94351,-2.930217 0,-0.145042 0.96815,1.382053 3.51494,1.362122 0.95775,-0.0075 2.27173,-0.479121 2.8512,-2.254548 0.0482,-0.147964 0.51091,1.069078 0.51091,1.975482 z M 77.549187,77.054321 a 1.1561422,0.70153612 21.729291 0 1 -1.333711,0.22366 1.1561422,0.70153612 21.729291 0 1 -0.814267,-1.079716 1.1561422,0.70153612 21.729291 0 1 1.333714,-0.223659 1.1561422,0.70153612 21.729291 0 1 0.814264,1.079715 z m 2.211564,2.721376 c -10e-7,1.812808 -2.017978,2.40531 -3.933537,1.847173 -1.839086,-0.535856 -2.943515,-1.117413 -2.943514,-2.930223 -2e-6,-0.145043 0.968152,1.382053 3.514932,1.362121 0.957751,-0.0075 2.271743,-0.47912 2.851221,-2.254547 0.0482,-0.147958 0.510897,1.069075 0.510897,1.975479 z M 60.754052,92.361292 a 1.1561422,0.70153612 21.729291 0 1 -1.333714,0.223658 1.1561422,0.70153612 21.729291 0 1 -0.814267,-1.079716 1.1561422,0.70153612 21.729291 0 1 1.333714,-0.223659 1.1561422,0.70153612 21.729291 0 1 0.814267,1.079717 z m 2.211559,2.721371 c 10e-7,1.812809 -2.017982,2.405308 -3.933541,1.847172 -1.839083,-0.535856 -2.943513,-1.117412 -2.943512,-2.930224 -3e-6,-0.145042 0.968152,1.382054 3.514937,1.362124 0.95775,-0.0075 2.271733,-0.479123 2.851218,-2.254548 0.0483,-0.147921 0.510897,1.069075 0.510897,1.975479 z M 23.974814,72.377198 a 1.1561422,0.70153612 21.729291 0 1 -1.333715,0.223658 1.1561422,0.70153612 21.729291 0 1 -0.814267,-1.079716 1.1561422,0.70153612 21.729291 0 1 1.333715,-0.223658 1.1561422,0.70153612 21.729291 0 1 0.814267,1.079716 z m 2.211562,2.721372 c 1e-6,1.812809 -2.017982,2.405308 -3.933541,1.847171 -1.839084,-0.535855 -2.943513,-1.117412 -2.943512,-2.930223 -3e-6,-0.145042 0.968152,1.382055 3.514937,1.362123 0.95775,-0.0075 2.271734,-0.479122 2.851218,-2.254547 0.0483,-0.147921 0.510897,1.069075 0.510897,1.975478 z m 9.481262,-34.185688 a 1.1561422,0.70153612 21.729291 0 1 -1.333714,0.223659 1.1561422,0.70153612 21.729291 0 1 -0.814267,-1.079717 1.1561422,0.70153612 21.729291 0 1 1.333715,-0.223658 1.1561422,0.70153612 21.729291 0 1 0.814266,1.079716 z m 2.211559,2.721372 c 1e-6,1.812809 -2.017982,2.405308 -3.933541,1.847171 -1.839084,-0.535855 -2.943512,-1.117412 -2.943512,-2.930223 -3e-6,-0.145042 0.968152,1.382054 3.514937,1.362124 0.95775,-0.0075 2.271734,-0.479124 2.851218,-2.254549 0.0483,-0.147921 0.510896,1.069076 0.510897,1.97548 z m 21.386678,15.774544 a 1.1561422,0.70153612 21.729291 0 1 -1.333715,0.223658 1.1561422,0.70153612 21.729291 0 1 -0.814266,-1.079716 1.1561422,0.70153612 21.729291 0 1 1.333714,-0.223658 1.1561422,0.70153612 21.729291 0 1 0.814267,1.079716 z m 2.211559,2.721372 c 10e-7,1.812809 -2.017982,2.405308 -3.933541,1.847171 -1.839084,-0.535855 -2.943513,-1.117412 -2.943512,-2.930223 -3e-6,-0.145042 0.968152,1.382054 3.514936,1.362124 0.957751,-0.0075 2.271735,-0.479124 2.851219,-2.254548 0.0483,-0.147922 0.510897,1.069075 0.510897,1.975479 z m 40.732976,-3.784355 a 1.1561422,0.70153612 21.729291 0 1 -1.33372,0.223656 1.1561422,0.70153612 21.729291 0 1 -0.81426,-1.079716 1.1561422,0.70153612 21.729291 0 1 1.33371,-0.223659 1.1561422,0.70153612 21.729291 0 1 0.81427,1.079719 z m 2.21156,2.721371 c 0,1.812808 -2.01798,2.405308 -3.93354,1.847173 -1.839081,-0.535855 -2.943513,-1.117413 -2.943511,-2.930224 -3e-6,-0.145042 0.968147,1.382052 3.514941,1.362116 0.95775,-0.0075 2.27173,-0.479125 2.85121,-2.254548 0.0482,-0.147965 0.5109,1.069074 0.5109,1.975478 z m 18.41034,-8.674078 a 1.1561422,0.70153612 21.729291 0 1 -1.33372,0.223656 1.1561422,0.70153612 21.729291 0 1 -0.81427,-1.079716 1.1561422,0.70153612 21.729291 0 1 1.33371,-0.223659 1.1561422,0.70153612 21.729291 0 1 0.81428,1.079719 z m 2.21155,2.72137 c 0,1.812809 -2.01798,2.405309 -3.93354,1.847168 -1.83908,-0.535852 -2.94351,-1.117411 -2.94351,-2.93022 0,-0.145042 0.96815,1.382053 3.51494,1.362118 0.95775,-0.0075 2.27173,-0.479122 2.85121,-2.254548 0.0482,-0.147965 0.5109,1.069078 0.5109,1.975482 z m -10.29024,-22.28027 a 1.1561422,0.70153612 21.729291 0 1 -1.33371,0.223659 1.1561422,0.70153612 21.729291 0 1 -0.81426,-1.079715 1.1561422,0.70153612 21.729291 0 1 1.33371,-0.223659 1.1561422,0.70153612 21.729291 0 1 0.81426,1.079715 z m 2.21156,2.72137 c 0,1.812809 -2.01798,2.405309 -3.93354,1.847172 -1.83908,-0.535856 -2.94351,-1.117415 -2.94351,-2.930224 0,-0.145042 0.96815,1.382057 3.51494,1.362122 0.95775,-0.0075 2.27173,-0.479121 2.85121,-2.254548 0.0482,-0.147964 0.5109,1.069074 0.5109,1.975478 z m -32.612892,5.357304 a 1.1561422,0.70153612 21.729291 0 1 -1.333716,0.223658 1.1561422,0.70153612 21.729291 0 1 -0.814266,-1.079716 1.1561422,0.70153612 21.729291 0 1 1.333714,-0.223659 1.1561422,0.70153612 21.729291 0 1 0.814268,1.079717 z m 2.21156,2.721372 c 1e-6,1.812809 -2.017982,2.405308 -3.933541,1.847171 -1.839084,-0.535855 -2.943513,-1.117412 -2.943512,-2.930223 -2e-6,-0.145042 0.968152,1.382054 3.514938,1.362121 0.95775,-0.0075 2.271734,-0.479123 2.851218,-2.254548 0.0483,-0.147921 0.510897,1.069075 0.510897,1.975479 z M 81.801129,18.37763 a 1.1561422,0.70153612 21.729291 0 1 -1.333715,0.223658 1.1561422,0.70153612 21.729291 0 1 -0.814266,-1.079716 1.1561422,0.70153612 21.729291 0 1 1.333714,-0.223659 1.1561422,0.70153612 21.729291 0 1 0.814267,1.079717 z m 2.211558,2.721371 c 10e-7,1.812809 -2.017982,2.405308 -3.933541,1.847171 -1.839084,-0.535855 -2.943512,-1.117414 -2.943512,-2.930223 -2e-6,-0.145042 0.968152,1.382054 3.514938,1.362121 0.95775,-0.0075 2.271734,-0.479123 2.851218,-2.254549 0.04829,-0.14792 0.510897,1.069076 0.510897,1.97548 z m -25.63705,6.917348 a 1.1561422,0.70153612 21.729291 0 1 -1.333714,0.223659 1.1561422,0.70153612 21.729291 0 1 -0.814267,-1.079716 1.1561422,0.70153612 21.729291 0 1 1.333714,-0.223659 1.1561422,0.70153612 21.729291 0 1 0.814267,1.079716 z m 2.211559,2.721373 c 1e-6,1.812809 -2.017982,2.405307 -3.933541,1.84717 -1.839084,-0.535855 -2.943512,-1.117414 -2.943512,-2.930223 -3e-6,-0.145041 0.968152,1.382055 3.514938,1.362122 0.95775,-0.0075 2.271734,-0.479124 2.851218,-2.254549 0.0483,-0.147921 0.510897,1.069075 0.510897,1.97548 z" /><path
     id="path443957-415"
     style="display:inline;opacity:0.297872;fill:#935457;stroke-width:3.26336;stop-color:#000000"
     d="m 44.533477,114.19843 a 0.42520228,0.24858433 21.393634 0 1 -0.486581,0.0764 0.42520228,0.24858433 21.393634 0 1 -0.305228,-0.38656 0.42520228,0.24858433 21.393634 0 1 0.486582,-0.0764 0.42520228,0.24858433 21.393634 0 1 0.305227,0.38656 z m 13.393597,16.36995 a 0.42520228,0.24858433 21.393634 0 1 -0.486587,0.0764 0.42520228,0.24858433 21.393634 0 1 -0.305227,-0.38656 0.42520228,0.24858433 21.393634 0 1 0.486577,-0.0764 0.42520228,0.24858433 21.393634 0 1 0.305237,0.38656 z m 50.385416,-0.8504 a 0.42520228,0.24858433 21.393634 0 1 -0.48658,0.0763 0.42520228,0.24858433 21.393634 0 1 -0.30523,-0.38655 0.42520228,0.24858433 21.393634 0 1 0.48658,-0.0764 0.42520228,0.24858433 21.393634 0 1 0.30523,0.38656 z m 27.21239,-49.535032 a 0.42520228,0.24858433 21.393634 0 1 -0.48658,0.07635 0.42520228,0.24858433 21.393634 0 1 -0.30524,-0.386561 0.42520228,0.24858433 21.393634 0 1 0.48659,-0.07635 0.42520228,0.24858433 21.393634 0 1 0.30523,0.386557 z m -29.33836,15.732155 a 0.42520228,0.24858433 21.393634 0 1 -0.48658,0.07635 0.42520228,0.24858433 21.393634 0 1 -0.30524,-0.386561 0.42520228,0.24858433 21.393634 0 1 0.48659,-0.07635 0.42520228,0.24858433 21.393634 0 1 0.30523,0.386557 z M 77.060775,76.781399 a 0.42520228,0.24858433 21.393634 0 1 -0.486581,0.07635 0.42520228,0.24858433 21.393634 0 1 -0.305228,-0.386559 0.42520228,0.24858433 21.393634 0 1 0.486582,-0.07635 0.42520228,0.24858433 21.393634 0 1 0.305227,0.386559 z m -16.79514,15.306964 a 0.42520228,0.24858433 21.393634 0 1 -0.486582,0.07635 0.42520228,0.24858433 21.393634 0 1 -0.305227,-0.386558 0.42520228,0.24858433 21.393634 0 1 0.486581,-0.07635 0.42520228,0.24858433 21.393634 0 1 0.305228,0.386558 z M 23.486399,72.104272 a 0.42520228,0.24858433 21.393634 0 1 -0.486582,0.07636 0.42520228,0.24858433 21.393634 0 1 -0.305227,-0.38656 0.42520228,0.24858433 21.393634 0 1 0.486581,-0.07635 0.42520228,0.24858433 21.393634 0 1 0.305228,0.386558 z m 11.69282,-31.464317 a 0.42520228,0.24858433 21.393634 0 1 -0.486582,0.07635 0.42520228,0.24858433 21.393634 0 1 -0.305227,-0.386558 0.42520228,0.24858433 21.393634 0 1 0.486581,-0.07635 0.42520228,0.24858433 21.393634 0 1 0.305228,0.386558 z m 23.598234,18.495917 a 0.42520228,0.24858433 21.393634 0 1 -0.486581,0.07635 0.42520228,0.24858433 21.393634 0 1 -0.305227,-0.386558 0.42520228,0.24858433 21.393634 0 1 0.486581,-0.07635 0.42520228,0.24858433 21.393634 0 1 0.305227,0.386558 z m 42.944537,-1.062988 a 0.42520228,0.24858433 21.393634 0 1 -0.48658,0.07635 0.42520228,0.24858433 21.393634 0 1 -0.30524,-0.386562 0.42520228,0.24858433 21.393634 0 1 0.48659,-0.07635 0.42520228,0.24858433 21.393634 0 1 0.30523,0.386557 z m 20.6219,-5.952704 a 0.42520228,0.24858433 21.393634 0 1 -0.48659,0.07635 0.42520228,0.24858433 21.393634 0 1 -0.30523,-0.386558 0.42520228,0.24858433 21.393634 0 1 0.48658,-0.07635 0.42520228,0.24858433 21.393634 0 1 0.30524,0.386561 z m -8.0787,-19.558904 a 0.42520228,0.24858433 21.393634 0 1 -0.48658,0.07635 0.42520228,0.24858433 21.393634 0 1 -0.30522,-0.386558 0.42520228,0.24858433 21.393634 0 1 0.48658,-0.07635 0.42520228,0.24858433 21.393634 0 1 0.30522,0.386558 z m -30.40132,8.078679 a 0.42520228,0.24858433 21.393634 0 1 -0.486582,0.07635 0.42520228,0.24858433 21.393634 0 1 -0.305227,-0.386558 0.42520228,0.24858433 21.393634 0 1 0.486581,-0.07635 0.42520228,0.24858433 21.393634 0 1 0.305228,0.386558 z M 81.31271,18.104702 a 0.42520228,0.24858433 21.393634 0 1 -0.486581,0.07635 0.42520228,0.24858433 21.393634 0 1 -0.305227,-0.386558 0.42520228,0.24858433 21.393634 0 1 0.486581,-0.07635 0.42520228,0.24858433 21.393634 0 1 0.305227,0.386558 z m -23.425494,9.63872 a 0.42520228,0.24858433 21.393634 0 1 -0.486582,0.07635 0.42520228,0.24858433 21.393634 0 1 -0.305227,-0.386558 0.42520228,0.24858433 21.393634 0 1 0.486581,-0.07635 0.42520228,0.24858433 21.393634 0 1 0.305228,0.386558 z" /></svg>
