<?xml version="1.0" encoding="UTF-8" standalone="no"?>
<!-- Created with Inkscape (http://www.inkscape.org/) -->

<svg
   width="164.23331mm"
   height="164.76247mm"
   viewBox="0 0 164.23331 164.76247"
   version="1.1"
   id="svg392"
   xml:space="preserve"
   xmlns="http://www.w3.org/2000/svg"
   xmlns:svg="http://www.w3.org/2000/svg"><defs
     id="defs389"><style
       id="style6869">.cls-1{fill:#ffe8c2;}.cls-2{fill:none;stroke:#e5af6e;stroke-miterlimit:10;stroke-width:25.51px;}.cls-3{opacity:0.05;}.cls-4{fill:#534741;}</style></defs><path
     id="ellipse69008-3"
     style="fill:#ff7f2a;fill-opacity:1;stroke-width:9.22901;stop-color:#000000"
     d="m 34.891262,26.515007 c -0.237705,0.115209 -0.347434,0.379838 -0.245095,0.591164 0.102445,0.211278 0.378167,0.289142 0.615873,0.173933 0.237703,-0.115208 0.347436,-0.379838 0.245096,-0.591164 -0.102444,-0.211278 -0.378168,-0.289152 -0.615874,-0.173933 z m 24.989622,-7.916514 c -0.241601,0.10689 -0.36035,0.36776 -0.26525,0.582497 0.09527,0.214625 0.368233,0.301795 0.609722,0.194673 0.241288,-0.107166 0.359791,-0.367715 0.264774,-0.582289 -0.09515,-0.214483 -0.367867,-0.301663 -0.609246,-0.194881 z m 6.608426,-1.832039 c -0.01099,0.0049 -0.02192,0.0098 -0.03252,0.01591 -0.232944,0.124593 -0.332011,0.393424 -0.221281,0.600495 0.110604,0.207142 0.389178,0.274177 0.622208,0.149728 0.23323,-0.124444 0.332541,-0.393476 0.221751,-0.600693 -0.10479,-0.196296 -0.362159,-0.2684 -0.590162,-0.165444 z m 2.113785,-0.5834 c -0.0108,0.0049 -0.02145,0.01073 -0.03184,0.01626 -0.231342,0.127756 -0.326782,0.398087 -0.213105,0.60367 0.113548,0.205685 0.393221,0.268741 0.624517,0.140828 0.231349,-0.127756 0.326782,-0.398096 0.213104,-0.60368 -0.107625,-0.194848 -0.366095,-0.263323 -0.592676,-0.157 z M 74.006,15.453108 c -0.0108,0.0049 -0.02145,0.01073 -0.03176,0.01616 -0.231493,0.127487 -0.327235,0.397701 -0.213788,0.603413 0.113406,0.205666 0.392857,0.269061 0.624249,0.141502 0.2315,-0.127488 0.327234,-0.397701 0.213787,-0.603414 -0.10742,-0.194924 -0.36574,-0.263682 -0.592409,-0.157683 z M 28.726509,41.652205 c -0.229505,0.09971 -0.348948,0.338951 -0.273914,0.548495 0.0792,0.220992 0.344903,0.327967 0.593558,0.238966 0.248855,-0.08911 0.386341,-0.340685 0.306996,-0.561836 -0.0792,-0.220991 -0.344903,-0.327966 -0.593558,-0.238966 -0.01116,0.0039 -0.02219,0.0088 -0.03308,0.01335 z M 114.55951,6.5702412 c -94.663259,21.4707808 -47.331628,10.7353848 0,0 z M 89.235613,20.007142 c -0.229681,0.09913 -0.349791,0.337783 -0.275484,0.547486 0.07838,0.221327 0.343772,0.329199 0.59276,0.241015 0.249056,-0.08832 0.387221,-0.339491 0.308564,-0.560827 -0.07838,-0.221327 -0.343776,-0.329199 -0.592761,-0.241015 -0.01129,0.0039 -0.0222,0.0088 -0.03315,0.01336 z M 68.766365,30.713007 c -0.24223,0.105737 -0.362216,0.366202 -0.267961,0.581428 0.09398,0.215108 0.366347,0.30375 0.608383,0.198079 0.242025,-0.10572 0.362047,-0.365797 0.268176,-0.580953 -0.09382,-0.215381 -0.366392,-0.304278 -0.608598,-0.198554 z m -4.353207,4.53381 c -0.23121,0.09574 -0.354778,0.332811 -0.283387,0.543617 0.07528,0.222285 0.338957,0.333884 0.589093,0.24938 0.250223,-0.0847 0.392069,-0.333605 0.316875,-0.555997 -0.07528,-0.222284 -0.338957,-0.333894 -0.589086,-0.249391 -0.01129,0.0039 -0.02251,0.0078 -0.03342,0.01268 z m -21.579861,9.959252 c -0.07593,0.04342 -0.139282,0.104211 -0.183053,0.175968 -0.02205,0.0048 -0.04376,0.01149 -0.06505,0.01889 -0.248345,0.09037 -0.384503,0.342656 -0.304067,0.563369 0.08025,0.220828 0.346749,0.326537 0.595097,0.236045 0.111413,-0.04051 0.20543,-0.116466 0.263884,-0.212978 0.01132,-2.54e-4 0.02273,-9.45e-4 0.03412,-0.002 0.242179,-0.105833 0.362195,-0.366211 0.267968,-0.581429 -0.09408,-0.215259 -0.36676,-0.303857 -0.60886,-0.197871 z M 77.519408,31.028155 c -0.01089,0.0049 -0.02171,0.0097 -0.03225,0.01529 -0.235379,0.12018 -0.339554,0.38726 -0.232638,0.596428 0.107067,0.208976 0.384419,0.280843 0.619566,0.16048 0.235094,-0.120319 0.339016,-0.387208 0.23217,-0.596231 C 78.004924,31.0062 77.749118,30.929518 77.51941,31.028215 Z M 28.565326,53.55012 c -0.239599,0.111146 -0.353657,0.373991 -0.25483,0.586959 0.09862,0.213166 0.373007,0.29595 0.612766,0.184883 0.239862,-0.111066 0.354199,-0.374034 0.255303,-0.587168 -0.09869,-0.21333 -0.373398,-0.296049 -0.613239,-0.184674 z m 28.8238,-12.013452 c -0.01083,0.0049 -0.02159,0.0097 -0.03204,0.01578 -0.234131,0.122189 -0.335928,0.389922 -0.227402,0.598081 0.108535,0.208388 0.38663,0.27821 0.620964,0.155915 0.234352,-0.122286 0.336097,-0.390357 0.227193,-0.598556 -0.102937,-0.197345 -0.359668,-0.271977 -0.588709,-0.171157 z M 86.705497,29.241194 c -0.0108,0.0049 -0.02145,0.01073 -0.03176,0.01616 -0.231943,0.127081 -0.328232,0.397369 -0.214947,0.603355 0.113178,0.205703 0.392494,0.26938 0.623989,0.142183 0.231435,-0.127121 0.327516,-0.39687 0.214671,-0.60267 -0.10702,-0.195066 -0.365007,-0.264463 -0.591873,-0.15905 z M 98.286355,25.1342 c -0.238848,0.112591 -0.351381,0.375928 -0.251419,0.588294 0.09998,0.212486 0.374849,0.293527 0.613887,0.181002 0.238856,-0.112591 0.351383,-0.375918 0.251422,-0.588285 -0.09998,-0.212485 -0.374849,-0.293527 -0.61389,-0.181011 z M 11.718473,64.748803 c -0.243797,0.101948 -0.367949,0.360336 -0.277228,0.577015 0.09084,0.21655 0.361953,0.309333 0.605602,0.207187 0.243525,-0.102127 0.367406,-0.360293 0.276756,-0.576808 -0.09077,-0.216394 -0.361568,-0.309223 -0.60513,-0.207394 z M 88.170944,34.899382 c -0.01089,0.0049 -0.02171,0.0097 -0.03225,0.01529 -0.234588,0.121773 -0.336931,0.38958 -0.228552,0.598031 0.108308,0.208436 0.38626,0.27853 0.620697,0.156588 0.234588,-0.121773 0.336932,-0.38958 0.228554,-0.598021 -0.102721,-0.197402 -0.359315,-0.272326 -0.588443,-0.17184 z M 28.459157,61.08141 c -0.231341,0.09514 -0.355592,0.331652 -0.28495,0.542607 0.07457,0.222742 0.338215,0.335237 0.588763,0.251222 0.2504,-0.08391 0.392947,-0.33239 0.318448,-0.555008 -0.07457,-0.222742 -0.338215,-0.335236 -0.588765,-0.251212 -0.01131,0.0039 -0.02249,0.0078 -0.03346,0.01268 z M 50.63534,52.150144 c -0.230052,0.09815 -0.351134,0.336234 -0.277731,0.546209 0.07742,0.221664 0.342305,0.33078 0.591695,0.243737 0.249535,-0.08705 0.38902,-0.337527 0.311494,-0.559293 -0.0775,-0.221808 -0.342689,-0.33087 -0.592169,-0.243519 -0.01123,0.0039 -0.0224,0.0078 -0.03329,0.01287 z M 98.927842,33.049131 c -0.01089,0.0049 -0.02171,0.0097 -0.03217,0.01518 -0.236053,0.11879 -0.341737,0.385317 -0.236039,0.595103 0.105809,0.209808 0.382974,0.283335 0.618917,0.164142 0.235988,-0.119065 0.341385,-0.385699 0.235365,-0.59537 -0.100282,-0.198528 -0.355689,-0.276636 -0.585986,-0.179106 z m -4.144686,2.27047 c -0.226964,0.105331 -0.340471,0.347368 -0.260355,0.554966 0.08433,0.219111 0.353045,0.319217 0.599409,0.224007 0.246425,-0.09503 0.377687,-0.349731 0.293244,-0.568792 -0.08436,-0.219319 -0.353091,-0.319745 -0.599626,-0.224472 -0.01098,0.0049 -0.02202,0.0088 -0.03273,0.01433 z m -56.074783,25.12353 c -0.01099,0.0049 -0.02177,0.0097 -0.03244,0.0148 -0.23717,0.11627 -0.34568,0.381385 -0.242373,0.592233 0.10331,0.210798 0.379264,0.287531 0.616465,0.171419 0.23717,-0.11627 0.345676,-0.381395 0.242374,-0.592233 -0.09784,-0.199866 -0.352489,-0.281052 -0.584005,-0.186175 z M 103.39771,33.090014 c -0.24085,0.108736 -0.35771,0.3705 -0.26096,0.584555 0.0973,0.213724 0.37047,0.298999 0.61111,0.190119 0.24085,-0.108736 0.3577,-0.370499 0.26096,-0.584565 -0.0973,-0.213724 -0.37047,-0.299 -0.61111,-0.190109 z M 58.108285,54.812697 c -0.01083,0.0049 -0.02159,0.0097 -0.03204,0.01578 -0.233066,0.124331 -0.332437,0.393037 -0.221956,0.600217 0.110379,0.20722 0.388805,0.274548 0.621941,0.150412 0.233351,-0.124184 0.33297,-0.393079 0.222429,-0.600426 -0.104686,-0.196505 -0.36218,-0.26887 -0.590366,-0.16591 z M 96.9082,38.735986 c -0.01085,0.0049 -0.02162,0.0097 -0.03208,0.01578 -0.23201,0.126445 -0.328952,0.396141 -0.216514,0.602345 0.112318,0.206233 0.391371,0.271034 0.623385,0.144709 0.232015,-0.126445 0.328965,-0.396152 0.216523,-0.602355 -0.106512,-0.195237 -0.364294,-0.265172 -0.591346,-0.160416 z m 21.34654,-9.31797 c -0.23103,0.09562 -0.35464,0.332409 -0.2836,0.543142 0.0752,0.222682 0.33936,0.334524 0.58978,0.249647 0.25022,-0.0847 0.39207,-0.333605 0.31687,-0.556007 -0.0752,-0.222672 -0.33935,-0.334515 -0.58975,-0.249649 -0.0112,0.0039 -0.0225,0.0078 -0.0333,0.01287 z M 89.432506,48.37866 c -0.237952,0.114225 -0.348652,0.37825 -0.247351,0.589899 0.101784,0.21168 0.377075,0.290772 0.615286,0.176437 0.237961,-0.114226 0.348653,-0.37824 0.247353,-0.589889 -0.101785,-0.211691 -0.377075,-0.290773 -0.615288,-0.176447 z m 2.453063,0.871773 c -0.01089,0.0049 -0.02171,0.0097 -0.03224,0.01529 -0.235118,0.120702 -0.338691,0.388024 -0.231279,0.596963 0.107454,0.208664 0.384789,0.27997 0.619643,0.15931 0.235116,-0.120702 0.338683,-0.388014 0.231271,-0.596953 -0.101824,-0.197724 -0.357876,-0.273834 -0.58738,-0.174562 z m -4.067526,2.543544 c -0.01085,0.0049 -0.02162,0.0097 -0.03209,0.01578 -0.233968,0.122477 -0.335447,0.390316 -0.226717,0.598358 0.108987,0.208001 0.386988,0.277319 0.621025,0.154756 0.23396,-0.122476 0.335447,-0.390315 0.22671,-0.598346 -0.103142,-0.197279 -0.360017,-0.271629 -0.588969,-0.170475 z M 60.78311,64.067276 c -0.22838,0.102133 -0.345365,0.342369 -0.268263,0.551087 0.08127,0.220437 0.34824,0.324924 0.596165,0.233323 0.247721,-0.09153 0.382608,-0.344212 0.301343,-0.564438 -0.08127,-0.220427 -0.348241,-0.324914 -0.596163,-0.233323 -0.01116,0.0039 -0.02218,0.0088 -0.03307,0.01335 z m 43.07756,-18.516455 c -0.0109,0.0049 -0.0217,0.0097 -0.0322,0.01529 -0.23538,0.120181 -0.33956,0.38726 -0.23264,0.596429 0.10694,0.209266 0.38444,0.281393 0.61978,0.160944 0.2351,-0.120309 0.33903,-0.387199 0.23217,-0.596231 -0.10115,-0.198199 -0.35715,-0.275136 -0.58706,-0.176383 z m 3.93139,-1.627232 c -0.24279,0.104677 -0.36403,0.36467 -0.27068,0.58036 0.0931,0.215618 0.36524,0.305411 0.60778,0.200594 0.2428,-0.104678 0.36404,-0.364671 0.2707,-0.580361 -0.0932,-0.21555 -0.36525,-0.305411 -0.6078,-0.200593 z M 84.27324,54.987084 c -0.230359,0.09757 -0.352032,0.335493 -0.279094,0.545685 0.07715,0.221555 0.341552,0.33106 0.590954,0.244628 0.249541,-0.08665 0.389395,-0.336734 0.312381,-0.55855 -0.07714,-0.221556 -0.341553,-0.33107 -0.590954,-0.244629 -0.01126,0.0039 -0.02242,0.0078 -0.0333,0.01287 z M 136.2034,32.845837 c -109.092522,3.953717 -54.546259,1.976853 0,0 z M 78.173118,59.773474 c -0.22763,0.103377 -0.34307,0.344264 -0.264859,0.552433 0.08268,0.219502 0.349722,0.322259 0.596813,0.22964 0.247204,-0.09279 0.380775,-0.346173 0.298415,-0.565972 -0.08245,-0.219822 -0.349711,-0.322831 -0.597021,-0.230125 -0.01129,0.0039 -0.02242,0.0088 -0.03336,0.01398 z M 31.190712,82.546387 c -0.225554,0.108199 -0.336023,0.351539 -0.25335,0.558109 0.08715,0.218106 0.356754,0.315353 0.602083,0.217193 0.245162,-0.09822 0.373213,-0.354426 0.286017,-0.5724 -0.08716,-0.218105 -0.356753,-0.315351 -0.602082,-0.217192 -0.01104,0.0044 -0.02196,0.0092 -0.03265,0.01431 z m 6.452593,-1.555182 c -0.231838,0.09424 -0.356996,0.330516 -0.286991,0.541805 0.07379,0.223045 0.3371,0.336464 0.587966,0.253261 0.250889,-0.08305 0.394388,-0.331238 0.320488,-0.554199 -0.07379,-0.223046 -0.3371,-0.336465 -0.587966,-0.253263 -0.01132,0.0037 -0.02249,0.0079 -0.03349,0.01238 z M 86.261254,61.527862 c -0.01108,0.0049 -0.0221,0.0098 -0.03292,0.01494 -0.236376,0.118213 -0.342693,0.384529 -0.237398,0.594568 0.105094,0.210035 0.381846,0.284447 0.618121,0.166171 0.236377,-0.118313 0.342693,-0.384529 0.2374,-0.594558 -0.09951,-0.19885 -0.354661,-0.27774 -0.585184,-0.181156 z m 30.780866,-8.66517 c -0.0108,0.0049 -0.0216,0.0097 -0.032,0.01567 -0.23348,0.123522 -0.33375,0.391867 -0.224,0.599417 0.10982,0.207574 0.38809,0.275727 0.62162,0.152252 0.23347,-0.123511 0.33376,-0.391867 0.22399,-0.599415 -0.10395,-0.196755 -0.3611,-0.269989 -0.58957,-0.16796 z M 77.470832,70.478241 c -0.228555,0.101434 -0.346193,0.341208 -0.269829,0.550089 0.08073,0.220416 0.347136,0.325556 0.595157,0.234887 0.248184,-0.09068 0.384029,-0.343046 0.303386,-0.56364 -0.08081,-0.220562 -0.347522,-0.325648 -0.595631,-0.23468 -0.01114,0.0041 -0.02219,0.0086 -0.03308,0.01334 z m -7.330016,4.150042 c -0.01081,0.005 -0.02143,0.01042 -0.03182,0.01621 -0.232088,0.125799 -0.329688,0.394928 -0.218082,0.601344 0.111853,0.206328 0.390636,0.271704 0.622859,0.14606 0.232087,-0.125799 0.329687,-0.394927 0.21808,-0.601342 -0.105894,-0.195672 -0.363586,-0.266413 -0.591019,-0.162244 z m 62.829674,-26.75229 c -0.24304,0.103393 -0.36562,0.362279 -0.27382,0.578351 0.0919,0.215972 0.36343,0.307301 0.60646,0.203999 0.24303,-0.103392 0.36562,-0.362268 0.27382,-0.578351 -0.0919,-0.215972 -0.36343,-0.3073 -0.60646,-0.203999 z M 55.662403,81.878771 c -0.244288,0.100682 -0.36972,0.358364 -0.280157,0.575477 0.08953,0.216834 0.359711,0.311172 0.603797,0.210802 0.244351,-0.100487 0.370104,-0.357993 0.28084,-0.575211 -0.08941,-0.217296 -0.360094,-0.311842 -0.60448,-0.211068 z m 4.45179,-1.581302 c -0.01103,0.0049 -0.02187,0.01026 -0.03254,0.0159 -0.233683,0.122617 -0.334926,0.390263 -0.226249,0.598145 0.108949,0.208033 0.386987,0.277324 0.621024,0.15476 0.233682,-0.122618 0.334926,-0.390263 0.226248,-0.598147 -0.10307,-0.197126 -0.359642,-0.271533 -0.588504,-0.170676 z m 24.202865,-9.702178 c -0.01101,0.0045 -0.02178,0.0095 -0.03245,0.01478 -0.237046,0.116932 -0.344887,0.382595 -0.240805,0.593235 0.103994,0.210584 0.380379,0.286425 0.617264,0.169375 0.237044,-0.116922 0.344886,-0.382594 0.240805,-0.593233 -0.09854,-0.19959 -0.353579,-0.279892 -0.584804,-0.18414 z M 111.83101,59.016058 c -0.24036,0.1092 -0.35667,0.370849 -0.25979,0.584614 0.0973,0.213764 0.37075,0.298727 0.61137,0.189446 0.24058,-0.109317 0.35683,-0.371283 0.25958,-0.585098 -0.0971,-0.213613 -0.37078,-0.298133 -0.61116,-0.188962 z M 50.202083,87.599102 c -0.230382,0.09677 -0.352785,0.333914 -0.280869,0.544201 0.07613,0.222152 0.340447,0.332804 0.590363,0.247137 0.249874,-0.08567 0.390728,-0.335154 0.314631,-0.557276 -0.07613,-0.222152 -0.340447,-0.332803 -0.590364,-0.247139 -0.01143,0.0039 -0.02268,0.0083 -0.03375,0.01308 z M 106.26513,63.258524 c -0.22636,0.106787 -0.33831,0.349645 -0.25674,0.556766 0.0862,0.218401 0.35492,0.317253 0.60075,0.220601 0.24579,-0.09669 0.37545,-0.352072 0.28962,-0.570593 -0.0862,-0.218402 -0.35493,-0.317252 -0.60075,-0.220601 -0.0111,0.0039 -0.0221,0.0088 -0.0329,0.01384 z M 58.038962,84.736719 c -0.237594,0.115451 -0.347023,0.380222 -0.244416,0.591427 0.102482,0.211498 0.378551,0.289309 0.616346,0.173727 0.237594,-0.11545 0.347017,-0.38023 0.244415,-0.591429 -0.102482,-0.211497 -0.378551,-0.289307 -0.616345,-0.173725 z m 12.713163,-5.500256 c -0.242785,0.104315 -0.364392,0.363848 -0.271578,0.57962 0.09266,0.215759 0.364523,0.306175 0.607261,0.201955 0.242787,-0.104316 0.364393,-0.363848 0.271578,-0.579622 -0.09266,-0.215758 -0.364522,-0.306175 -0.607261,-0.201953 z M 136.26176,52.398214 c -0.0108,0.0049 -0.0214,0.01072 -0.0317,0.01615 -0.23141,0.127129 -0.3275,0.396879 -0.21469,0.602672 0.11291,0.206116 0.3925,0.269972 0.6242,0.142659 0.23162,-0.127226 0.32765,-0.397313 0.21446,-0.603146 -0.10711,-0.195038 -0.36537,-0.264052 -0.59214,-0.158366 z M 86.304464,74.808521 c -0.243199,0.103486 -0.36573,0.362695 -0.273619,0.578822 0.0922,0.215895 0.363792,0.306909 0.606727,0.203315 0.243192,-0.103495 0.36573,-0.362695 0.27362,-0.578821 -0.0922,-0.215894 -0.363793,-0.306909 -0.606728,-0.203316 z M 27.750322,100.94723 c -0.243932,0.1013 -0.368747,0.35914 -0.278797,0.57601 0.0901,0.21685 0.360832,0.31054 0.604803,0.20924 0.243932,-0.1013 0.368748,-0.35915 0.278798,-0.57601 -0.09009,-0.21685 -0.360831,-0.31054 -0.604804,-0.20924 z m 13.009605,-5.16685 c -0.230353,0.09752 -0.352021,0.335487 -0.279092,0.545679 0.07717,0.221744 0.341943,0.33116 0.591428,0.244417 0.249531,-0.08667 0.389382,-0.336728 0.312383,-0.55855 -0.07717,-0.221743 -0.341943,-0.331158 -0.591429,-0.244415 -0.01123,0.0039 -0.02236,0.0082 -0.03329,0.01289 z M 119.38746,61.59357 c -0.0109,0.0049 -0.0217,0.0097 -0.0322,0.01529 -0.23372,0.122989 -0.3346,0.391081 -0.22535,0.598881 0.10915,0.208029 0.38734,0.277021 0.62128,0.154085 0.23374,-0.123 0.33463,-0.391094 0.22537,-0.598893 -0.10356,-0.196945 -0.36037,-0.270758 -0.58904,-0.169315 z M 92.378208,75.561861 c -0.240567,0.108875 -0.35715,0.370463 -0.26048,0.584353 0.09687,0.213902 0.370439,0.29903 0.611111,0.190119 0.240566,-0.108875 0.357153,-0.370467 0.260481,-0.584357 -0.09687,-0.2139 -0.37047,-0.299004 -0.611112,-0.190115 z M 123.28879,63.319758 c -0.23972,0.111356 -0.35375,0.374419 -0.25463,0.587435 0.0991,0.212967 0.37377,0.295119 0.6133,0.183525 0.23942,-0.111543 0.3532,-0.374376 0.25415,-0.587226 -0.0991,-0.212767 -0.37337,-0.295008 -0.61282,-0.183734 z M 42.832352,100.40201 c -0.22514,0.10899 -0.33471,0.35266 -0.251307,0.55891 0.08783,0.21766 0.357495,0.31404 0.602407,0.21536 0.245051,-0.0988 0.372398,-0.35562 0.284449,-0.57341 -0.08789,-0.21781 -0.35788,-0.31414 -0.602882,-0.21515 -0.01104,0.004 -0.02196,0.009 -0.03265,0.0143 z M 70.356254,88.665004 c -0.229697,0.09907 -0.349806,0.337783 -0.275482,0.547486 0.07851,0.221433 0.344171,0.329271 0.593233,0.240805 0.248866,-0.08827 0.38708,-0.339081 0.308772,-0.560355 -0.0785,-0.221434 -0.344171,-0.329272 -0.593233,-0.240806 -0.01124,0.0039 -0.02236,0.0082 -0.03329,0.01289 z m -6.294273,3.956998 c -0.01081,0.005 -0.02143,0.01042 -0.03182,0.01621 -0.231378,0.127753 -0.326814,0.398092 -0.21311,0.603681 0.113564,0.205641 0.393232,0.2687 0.624516,0.140823 0.231378,-0.127753 0.326813,-0.398092 0.213109,-0.603681 C 64.547034,92.584213 64.288571,92.515737 64.062,92.622028 Z M 112.10392,71.752898 c -0.23086,0.09632 -0.35382,0.333563 -0.28201,0.544142 0.0756,0.222555 0.3401,0.333713 0.5903,0.248289 0.25008,-0.08535 0.39125,-0.334747 0.31531,-0.557008 -0.0759,-0.222223 -0.34006,-0.33319 -0.5901,-0.247817 -0.0113,0.0037 -0.0226,0.0079 -0.0335,0.01248 z M 24.658694,110.44495 c -0.229371,0.0996 -0.348856,0.33855 -0.274121,0.54802 0.079,0.22126 0.344904,0.3285 0.593766,0.23945 0.248712,-0.089 0.386242,-0.34027 0.307203,-0.56137 -0.079,-0.22126 -0.344904,-0.32849 -0.593765,-0.23944 -0.01114,0.004 -0.02219,0.009 -0.03308,0.0133 z m 14.03795,-5.85132 c -0.230187,0.0982 -0.351222,0.33664 -0.277524,0.54668 0.07776,0.22171 0.343063,0.33046 0.592436,0.24285 0.249375,-0.0874 0.388552,-0.33791 0.310812,-0.55956 -0.07769,-0.22155 -0.342685,-0.33036 -0.591962,-0.24305 -0.01143,0.004 -0.02269,0.008 -0.03376,0.0131 z M 128.93043,67.955474 c -0.24214,0.105859 -0.36214,0.366216 -0.26797,0.58142 0.0937,0.215474 0.36674,0.303906 0.60886,0.197873 0.24214,-0.10587 0.36215,-0.366223 0.26796,-0.581421 -0.0937,-0.215474 -0.36673,-0.303913 -0.60885,-0.197872 z m -17.22175,9.283036 c -0.22681,0.105579 -0.34003,0.347733 -0.25967,0.555233 0.0844,0.219318 0.35343,0.319365 0.59989,0.223797 0.24628,-0.09533 0.37723,-0.350107 0.29254,-0.569053 -0.0843,-0.219126 -0.35306,-0.319241 -0.5994,-0.224004 -0.0114,0.0043 -0.0224,0.009 -0.0334,0.01404 z m 30.91318,-13.149089 c -0.24044,0.109136 -0.35673,0.370828 -0.25981,0.584629 0.0972,0.213611 0.37045,0.298513 0.61092,0.189646 0.24067,-0.109064 0.35725,-0.370882 0.26027,-0.584838 -0.0973,-0.21375 -0.37082,-0.298641 -0.61138,-0.189437 z M 51.159836,104.39529 c -0.241431,0.10685 -0.360248,0.36733 -0.265453,0.58202 0.09498,0.21454 0.367469,0.30208 0.608978,0.19557 0.241733,-0.10666 0.36079,-0.36738 0.265927,-0.58223 -0.09505,-0.2147 -0.367856,-0.30218 -0.609452,-0.19536 z m 5.982698,-2.45402 c -0.228985,0.10063 -0.347529,0.34009 -0.271872,0.54929 0.08,0.2209 0.346384,0.32691 0.594832,0.23672 0.248526,-0.0901 0.385014,-0.34227 0.304747,-0.56311 -0.08023,-0.22059 -0.346402,-0.32633 -0.594624,-0.23625 -0.01114,0.004 -0.02219,0.009 -0.03308,0.0133 z M 103.85886,81.885538 c -0.24308,0.103747 -0.36532,0.36308 -0.27294,0.579086 0.0922,0.216113 0.36416,0.307069 0.60721,0.203108 0.24279,-0.103905 0.36476,-0.363035 0.27246,-0.57888 -0.0922,-0.215917 -0.36379,-0.306941 -0.60673,-0.203314 z m -9.035623,4.544736 c -0.231571,0.09434 -0.356451,0.330481 -0.28652,0.541597 0.07379,0.223059 0.337095,0.336473 0.587966,0.253262 0.250785,-0.08331 0.394005,-0.33157 0.319809,-0.554467 -0.07402,-0.22275 -0.337115,-0.335899 -0.58776,-0.252788 -0.01132,0.0037 -0.02249,0.0079 -0.03349,0.01238 z M 65.130591,100.01505 c -0.231179,0.0954 -0.355105,0.33203 -0.284269,0.54287 0.07483,0.22265 0.338581,0.33484 0.589031,0.25054 0.250404,-0.0844 0.392617,-0.33315 0.317559,-0.55574 -0.07483,-0.22266 -0.33858,-0.334851 -0.58903,-0.25054 -0.01124,0.004 -0.02236,0.008 -0.03329,0.0129 z m 16.914004,-6.020246 c -0.228194,0.10279 -0.344508,0.343549 -0.266695,0.552101 0.08201,0.220159 0.349353,0.323734 0.596963,0.231278 0.247708,-0.09236 0.381881,-0.345812 0.299569,-0.565919 -0.08224,-0.21985 -0.349362,-0.323163 -0.596755,-0.230804 -0.01115,0.0041 -0.02219,0.0086 -0.03308,0.01334 z M 56.789556,105.12514 c -0.01093,0.005 -0.02166,0.01 -0.03225,0.0153 -0.234942,0.12058 -0.338559,0.38759 -0.231485,0.59649 0.107256,0.20895 0.384793,0.28049 0.61984,0.15978 0.234941,-0.12058 0.338558,-0.38759 0.231483,-0.59648 -0.101646,-0.19801 -0.357881,-0.27434 -0.587584,-0.17503 z M 109.02582,83.227308 c -0.2281,0.102603 -0.34445,0.34312 -0.2669,0.551629 0.0817,0.220244 0.34903,0.324085 0.59671,0.231948 0.24743,-0.09208 0.38166,-0.34498 0.29997,-0.564964 -0.0816,-0.220122 -0.34858,-0.32403 -0.59621,-0.232166 -0.0113,0.0041 -0.0228,0.0084 -0.0335,0.0135 z m 0.97508,0.09634 c -0.24566,0.09814 -0.37397,0.354843 -0.28628,0.573082 0.0871,0.217898 0.35676,0.314765 0.60186,0.216717 0.2455,-0.098 0.3738,-0.354441 0.2865,-0.572608 -0.0872,-0.21811 -0.35674,-0.315358 -0.60208,-0.217191 z m -2.29225,1.283032 c -0.0107,0.005 -0.0221,0.0092 -0.0323,0.01497 -0.23659,0.117358 -0.34388,0.382925 -0.23965,0.593295 0.10441,0.210203 0.38074,0.285523 0.61733,0.168224 0.23659,-0.117358 0.34388,-0.382924 0.23965,-0.593296 -0.0989,-0.199232 -0.35391,-0.279012 -0.58486,-0.182983 z M 31.385511,118.7748 c -0.229874,0.098 -0.350994,0.33583 -0.277937,0.54574 0.07742,0.22166 0.342305,0.33078 0.591694,0.24373 0.249343,-0.087 0.388862,-0.33713 0.311699,-0.55881 -0.07719,-0.22197 -0.342292,-0.33135 -0.591901,-0.24421 -0.01133,0.004 -0.02251,0.009 -0.03355,0.0135 z m 8.05063,-3.29826 c -0.01083,0.005 -0.02156,0.0101 -0.03203,0.0157 -0.232683,0.12511 -0.331142,0.3942 -0.219915,0.60102 0.111251,0.20671 0.389912,0.27291 0.622532,0.1479 0.232458,-0.12502 0.330964,-0.39377 0.220122,-0.60055 -0.105286,-0.19609 -0.362882,-0.26765 -0.590692,-0.16408 z m 10.246989,-1.02762 c -0.242926,0.10403 -0.364842,0.36346 -0.27226,0.57935 0.09248,0.21602 0.36454,0.30667 0.607468,0.20243 0.242923,-0.10404 0.364838,-0.36347 0.27226,-0.57935 -0.09248,-0.21602 -0.364542,-0.30668 -0.607468,-0.20243 z m 26.492731,-11.3762 c -0.237462,0.11612 -0.34622,0.38144 -0.242845,0.59244 0.103319,0.21079 0.379267,0.28753 0.616466,0.17142 0.237236,-0.11605 0.346049,-0.38102 0.243051,-0.59197 -0.103103,-0.21111 -0.37927,-0.28809 -0.616672,-0.17189 z m -16.583481,8.20969 c -0.226641,0.10604 -0.340069,0.34772 -0.259681,0.55524 0.08469,0.21897 0.353069,0.31923 0.59942,0.224 0.246465,-0.095 0.37726,-0.3501 0.292558,-0.56906 -0.08469,-0.21897 -0.353061,-0.31923 -0.599421,-0.224 -0.01112,0.004 -0.02208,0.009 -0.03288,0.0138 z m -14.590159,7.00663 c -0.01084,0.005 -0.02155,0.0101 -0.03194,0.0159 -0.233695,0.12257 -0.33492,0.39025 -0.226246,0.59814 0.10893,0.20805 0.386983,0.27733 0.621023,0.15476 0.233691,-0.12257 0.334914,-0.39026 0.22625,-0.59814 -0.103144,-0.1973 -0.360024,-0.27164 -0.588981,-0.17048 z m 27.894737,-11.46435 c -0.228211,0.10237 -0.34446,0.34314 -0.266899,0.55164 0.0817,0.22008 0.348604,0.324 0.596224,0.23216 0.247717,-0.0919 0.382228,-0.34502 0.300453,-0.56518 -0.08171,-0.22008 -0.348606,-0.32399 -0.59622,-0.23216 -0.01133,0.004 -0.02251,0.009 -0.03355,0.0136 z M 123.56433,85.101558 c -0.22561,0.107802 -0.33686,0.350344 -0.25492,0.557106 0.0862,0.218433 0.35563,0.31653 0.60129,0.21923 0.24586,-0.09689 0.37461,-0.353296 0.28807,-0.571601 -0.0862,-0.218433 -0.35563,-0.316537 -0.60129,-0.219238 -0.0114,0.0042 -0.0223,0.0093 -0.0333,0.01439 z m 7.34251,-2.995829 c -0.0108,0.005 -0.0217,0.01004 -0.0319,0.01593 -0.23286,0.124779 -0.3316,0.3938 -0.22059,0.600758 0.11078,0.207085 0.38956,0.273806 0.62247,0.149039 0.23287,-0.12478 0.3316,-0.393789 0.2206,-0.600745 -0.1051,-0.196155 -0.36253,-0.268002 -0.59043,-0.164751 z M 67.641471,110.10562 c -0.238047,0.11497 -0.348012,0.37988 -0.245567,0.59137 0.102256,0.21155 0.37818,0.28966 0.616079,0.1744 0.237741,-0.11517 0.34747,-0.37984 0.245097,-0.59116 -0.102193,-0.21139 -0.377787,-0.28956 -0.615609,-0.17461 z m -15.08671,7.25376 c -0.225767,0.10785 -0.336919,0.35078 -0.25471,0.55757 0.08695,0.21814 0.35641,0.31568 0.601818,0.21788 0.245226,-0.0977 0.373598,-0.35361 0.286903,-0.57166 -0.08687,-0.21798 -0.356018,-0.31556 -0.601339,-0.21808 -0.01104,0.004 -0.02197,0.009 -0.03265,0.0143 z m 4.734404,-1.0732 c -0.01105,0.005 -0.02199,0.01 -0.03282,0.0152 -0.23468,0.12115 -0.337709,0.38836 -0.230125,0.59702 0.107651,0.20862 0.385143,0.27962 0.619899,0.15864 0.234679,-0.12115 0.337709,-0.38836 0.230125,-0.59702 -0.101956,-0.1975 -0.357845,-0.27338 -0.587173,-0.17408 z M 140.5584,81.714252 c -0.2267,0.106102 -0.3392,0.348889 -0.25811,0.556242 0.0853,0.218936 0.35453,0.318193 0.60068,0.221744 0.24615,-0.09595 0.37595,-0.351681 0.2903,-0.570325 -0.0861,-0.218237 -0.35412,-0.317543 -0.6,-0.221479 -0.0112,0.0041 -0.022,0.0091 -0.0329,0.01386 z M 73.196499,111.84454 c -0.01069,0.005 -0.0221,0.009 -0.03231,0.0149 -0.237013,0.11654 -0.345201,0.38181 -0.241694,0.59249 0.103525,0.21074 0.379631,0.28717 0.616732,0.17074 0.237076,-0.11646 0.345202,-0.3818 0.241694,-0.59249 -0.09807,-0.19978 -0.352851,-0.28068 -0.584269,-0.1855 z m 4.383933,-1.5443 c -0.01081,0.005 -0.02167,0.01 -0.03194,0.0159 -0.23188,0.12668 -0.328497,0.39655 -0.215836,0.6026 0.112681,0.20589 0.391733,0.27014 0.623449,0.14355 0.231882,-0.12669 0.328503,-0.39656 0.215831,-0.60262 -0.106736,-0.19516 -0.364651,-0.2648 -0.591612,-0.15973 z m -15.366631,7.07159 c -0.01083,0.005 -0.02155,0.0101 -0.03194,0.0159 -0.233454,0.12356 -0.333745,0.39187 -0.223995,0.59942 0.109775,0.20758 0.388083,0.27574 0.621612,0.15224 0.233445,-0.12356 0.333743,-0.39185 0.224001,-0.59941 -0.103994,-0.19676 -0.361096,-0.27001 -0.58957,-0.16796 z m 3.072797,-0.68364 c -0.227918,0.10333 -0.343647,0.34428 -0.265335,0.55263 0.08248,0.21978 0.349729,0.32279 0.597022,0.23012 0.247249,-0.0928 0.380824,-0.34617 0.298416,-0.56597 -0.08248,-0.21978 -0.349729,-0.32279 -0.597022,-0.23013 -0.01114,0.004 -0.02219,0.009 -0.03307,0.0133 z M 105.40767,99.339195 c -0.22597,0.10797 -0.33748,0.350846 -0.25518,0.557787 0.0867,0.218258 0.35603,0.316078 0.60154,0.218548 0.24564,-0.0979 0.37476,-0.353675 0.28786,-0.57207 -0.0867,-0.218253 -0.35603,-0.316093 -0.60155,-0.218548 -0.0113,0.0041 -0.022,0.0091 -0.0329,0.01408 z m -1.76554,2.175075 c -0.24248,0.10447 -0.3638,0.36383 -0.27111,0.57942 0.0926,0.21579 0.36452,0.30621 0.60726,0.20195 0.24278,-0.10431 0.36434,-0.36388 0.27158,-0.57962 -0.0927,-0.21595 -0.3649,-0.30631 -0.60773,-0.20175 z m -69.806326,31.96158 c -0.01083,0.005 -0.02156,0.0101 -0.03194,0.0159 -0.233013,0.12434 -0.332371,0.39304 -0.221955,0.60022 0.110677,0.20732 0.389578,0.27429 0.622678,0.14952 0.232963,-0.12455 0.332016,-0.39342 0.221276,-0.60048 -0.105014,-0.19596 -0.362149,-0.26785 -0.589954,-0.16497 z m 22.436701,-9.66512 c -0.227432,0.10421 -0.342675,0.34506 -0.263969,0.55317 0.08324,0.21948 0.350839,0.32158 0.597818,0.22808 0.247075,-0.0935 0.379961,-0.34737 0.296848,-0.56698 -0.08324,-0.21949 -0.350845,-0.32158 -0.597823,-0.22809 -0.01112,0.004 -0.02208,0.009 -0.03287,0.0138 z m 16.265444,-5.85499 c -0.228765,0.10146 -0.346282,0.34165 -0.269628,0.55056 0.08071,0.22046 0.347121,0.3256 0.595158,0.23489 0.248352,-0.0908 0.384176,-0.34343 0.30318,-0.56411 -0.08077,-0.22061 -0.347508,-0.3257 -0.595627,-0.23468 -0.01121,0.004 -0.0225,0.008 -0.03307,0.0133 z m -32.185943,15.15994 c -0.01083,0.005 -0.02156,0.0101 -0.03194,0.0159 -0.233558,0.12283 -0.334467,0.39066 -0.225564,0.59842 0.109147,0.20799 0.387353,0.27698 0.621287,0.15407 0.233737,-0.12302 0.33464,-0.39109 0.225359,-0.59888 -0.103555,-0.19692 -0.360372,-0.27074 -0.589038,-0.16932 z M 128.3202,95.568878 c -0.23004,0.0985 -0.35075,0.337029 -0.27683,0.546945 0.0778,0.221307 0.34264,0.329868 0.59175,0.242574 0.24931,-0.08742 0.38851,-0.337922 0.31081,-0.559552 -0.0777,-0.221764 -0.34304,-0.330502 -0.59243,-0.242845 -0.0112,0.004 -0.0225,0.0082 -0.0332,0.01319 z M 61.797358,125.11835 c -0.239428,0.11153 -0.353637,0.37398 -0.25483,0.58695 0.0989,0.21303 0.373391,0.29552 0.613034,0.18421 0.23943,-0.11153 0.353639,-0.37399 0.254831,-0.58696 -0.0989,-0.21304 -0.373391,-0.29551 -0.613035,-0.1842 z m -4.524036,3.61465 c -0.238929,0.11241 -0.35141,0.3759 -0.251429,0.58829 0.09997,0.21249 0.374856,0.29352 0.613889,0.181 0.23893,-0.11242 0.351411,-0.37591 0.251429,-0.58829 -0.09997,-0.21249 -0.374856,-0.29352 -0.613889,-0.181 z m 13.136539,-2.94252 c -0.241616,0.10699 -0.360829,0.36734 -0.265922,0.58223 0.09477,0.21484 0.367468,0.30262 0.609183,0.19603 0.241553,-0.10706 0.360829,-0.36734 0.265929,-0.58222 -0.09478,-0.21485 -0.367474,-0.30263 -0.60919,-0.19604 z m 38.532429,-16.51413 c -0.0107,0.005 -0.0216,0.01 -0.0323,0.015 -0.23505,0.12037 -0.33901,0.3872 -0.23217,0.59623 0.10701,0.20882 0.38402,0.28073 0.61911,0.16067 0.23505,-0.12036 0.339,-0.3872 0.23216,-0.59622 -0.10133,-0.19794 -0.35713,-0.27462 -0.58684,-0.17591 z m -42.543196,18.9218 c -0.240033,0.11073 -0.354653,0.37365 -0.255985,0.5869 0.09871,0.21308 0.373029,0.29586 0.612769,0.18489 0.239652,-0.11055 0.353945,-0.3732 0.255718,-0.58623 -0.09842,-0.21321 -0.372644,-0.29631 -0.612502,-0.18556 z m 40.602586,-17.4835 c -0.24029,0.10979 -0.3555,0.37242 -0.25755,0.5859 0.098,0.21313 0.37153,0.29687 0.61149,0.18713 0.24028,-0.10976 0.35586,-0.37205 0.25824,-0.58563 -0.0978,-0.21363 -0.37192,-0.29754 -0.61218,-0.1874 z m -27.190075,12.50531 c -0.211945,0.10394 -0.319203,0.32842 -0.252493,0.52783 0.0743,0.22287 0.337835,0.33567 0.588496,0.2519 0.250702,-0.0838 0.393316,-0.33269 0.318919,-0.55521 -0.07461,-0.22271 -0.338229,-0.33519 -0.588759,-0.25121 -0.02289,0.007 -0.04492,0.016 -0.06632,0.0263 z m 19.705086,-7.49103 c -0.01081,0.005 -0.02167,0.01 -0.03194,0.0159 -0.232161,0.12614 -0.329402,0.39574 -0.217189,0.60208 0.112238,0.20599 0.39099,0.27085 0.622915,0.14491 0.232153,-0.12614 0.329393,-0.39574 0.217193,-0.60208 -0.10629,-0.19532 -0.363929,-0.26554 -0.591076,-0.16109 z M 136.6625,100.36449 c -0.0109,0.005 -0.0217,0.01 -0.0319,0.0159 -0.2326,0.12574 -0.33043,0.39542 -0.21835,0.60203 0.11182,0.20632 0.39063,0.27167 0.62286,0.14605 0.23237,-0.12568 0.33022,-0.39499 0.21855,-0.60154 -0.10596,-0.19564 -0.36358,-0.2664 -0.59101,-0.16225 z m -9.54318,5.34828 c -0.23867,0.11337 -0.35056,0.37716 -0.24985,0.58929 0.10085,0.21219 0.37596,0.29241 0.61468,0.17898 0.23869,-0.11338 0.35057,-0.37716 0.24987,-0.5893 -0.10086,-0.21219 -0.37597,-0.29241 -0.6147,-0.17897 z m -34.258289,15.12112 c -0.238952,0.11244 -0.352253,0.37518 -0.252792,0.58776 0.0995,0.21266 0.374109,0.2943 0.613358,0.18237 0.238952,-0.11244 0.352252,-0.37518 0.252792,-0.58776 -0.09951,-0.21266 -0.374111,-0.2943 -0.613358,-0.18237 z m 0.15745,0.88605 c -0.01089,0.005 -0.02187,0.0102 -0.03233,0.0162 -0.233053,0.1239 -0.332777,0.39217 -0.222843,0.59947 0.08364,0.12738 0.238352,0.19631 0.405637,0.18073 -0.0096,0.0693 -10e-4,0.13829 0.02485,0.20121 0.08934,0.21713 0.359715,0.31172 0.604009,0.21128 0.244358,-0.10057 0.369742,-0.35836 0.280158,-0.57548 -0.06668,-0.16159 -0.237873,-0.2608 -0.431471,-0.25009 0.0079,-0.0758 -0.0053,-0.15032 -0.03818,-0.21624 -0.104397,-0.19639 -0.36144,-0.2691 -0.589627,-0.1668 z m -18.364819,8.17723 c -0.22884,0.1005 -0.347023,0.34005 -0.271395,0.54909 0.07996,0.2207 0.34601,0.32677 0.59436,0.23693 0.2484,-0.0899 0.384916,-0.34183 0.304953,-0.56263 -0.07995,-0.22072 -0.346011,-0.32678 -0.594358,-0.23694 -0.01133,0.004 -0.02277,0.008 -0.03358,0.0135 z m -3.160291,8.21636 c -0.239876,0.11061 -0.354489,0.37326 -0.256189,0.58644 0.09842,0.2132 0.372646,0.29628 0.6125,0.18556 0.239877,-0.11061 0.35449,-0.37326 0.25619,-0.58643 -0.09843,-0.2132 -0.372653,-0.29629 -0.612501,-0.18557 z m 40.828679,-2.04918 c -0.23034,0.098 -0.35169,0.33625 -0.27821,0.54643 0.0774,0.22166 0.34231,0.33078 0.5917,0.24373 0.24952,-0.0871 0.389,-0.33755 0.31149,-0.5593 -0.0774,-0.22165 -0.3423,-0.33078 -0.59169,-0.24373 -0.0111,0.004 -0.0225,0.008 -0.0332,0.0132 z m -17.182604,7.82648 c -0.225807,0.10784 -0.336943,0.3508 -0.254708,0.55758 0.08667,0.21826 0.35602,0.31612 0.601549,0.21856 0.245417,-0.0978 0.374212,-0.35362 0.287376,-0.57187 -0.08667,-0.21826 -0.35602,-0.3161 -0.601546,-0.21855 -0.01129,0.004 -0.02203,0.009 -0.03285,0.0141 z M 92.11274,94.34563 a 0.42519346,0.47834265 0.260805 0 0 0.421888,0.444565 0.42519346,0.47834265 0.260805 0 0 0.427282,-0.476505 0.42519346,0.47834265 0.260805 0 0 -0.422638,-0.480273 0.42519346,0.47834265 0.260805 0 0 -0.427799,0.476546 0.42519346,0.47834265 0.260805 0 0 0.0012,0.03567 z m -23.627935,43.65612 a 0.47834265,0.42519346 80.253631 0 0 0.0049,0.0354 0.47834265,0.42519346 80.253631 0 0 0.500224,0.39949 0.47834265,0.42519346 80.253631 0 0 0.33804,-0.54305 0.47834265,0.42519346 80.253631 0 0 -0.500224,-0.39949 0.47834265,0.42519346 80.253631 0 0 -0.342913,0.50767 z m 38.809365,-20.00986 a 0.47834265,0.42519346 87.69354 0 0 0.44163,0.42537 0.47834265,0.42519346 87.69354 0 0 0.40556,-0.49552 0.47834265,0.42519346 87.69354 0 0 -0.44388,-0.46045 0.47834265,0.42519346 87.69354 0 0 -0.40612,0.49505 0.47834265,0.42519346 87.69354 0 0 0.003,0.0355 z M 80.453181,88.932038 a 0.47834265,0.42519346 83.201735 0 0 0.478877,0.424504 0.47834265,0.42519346 83.201735 0 0 0.365387,-0.525 0.47834265,0.42519346 83.201735 0 0 -0.478361,-0.424544 0.47834265,0.42519346 83.201735 0 0 -0.365903,0.52504 z m -21.196009,8.89038 a 0.47834265,0.42519346 87.903373 0 0 0.439684,0.427086 0.47834265,0.42519346 87.903373 0 0 0.407785,-0.493623 0.47834265,0.42519346 87.903373 0 0 -0.442497,-0.462632 0.47834265,0.42519346 87.903373 0 0 -0.40727,0.493583 0.47834265,0.42519346 87.903373 0 0 0.0023,0.03559 z" /></svg>
