<?xml version="1.0" encoding="UTF-8" standalone="no"?>
<!-- Created with Inkscape (http://www.inkscape.org/) -->

<svg
   width="164.23331mm"
   height="164.76247mm"
   viewBox="0 0 164.23331 164.76247"
   version="1.1"
   id="svg392"
   xml:space="preserve"
   xmlns="http://www.w3.org/2000/svg"
   xmlns:svg="http://www.w3.org/2000/svg"><defs
     id="defs389"><style
       id="style6869">.cls-1{fill:#ffe8c2;}.cls-2{fill:none;stroke:#e5af6e;stroke-miterlimit:10;stroke-width:25.51px;}.cls-3{opacity:0.05;}.cls-4{fill:#534741;}</style></defs><path
     id="ellipse69008"
     style="fill:#502d16;fill-opacity:1;stroke-width:9.22901;stop-color:#000000"
     d="m 80.954052,9.9888715 c -0.256747,-0.062083 -0.509631,0.072565 -0.564873,0.3007715 -0.05513,0.228242 0.108306,0.463559 0.365068,0.525621 0.256746,0.06208 0.50963,-0.07256 0.564873,-0.30077 0.05513,-0.228242 -0.108305,-0.46356 -0.365068,-0.5256225 z M 105.2811,19.753448 c -0.2545,-0.07094 -0.51193,0.05503 -0.57493,0.281273 -0.0628,0.226258 0.0926,0.46701 0.34714,0.537727 0.25439,0.07059 0.51147,-0.05535 0.57443,-0.281414 0.0628,-0.226085 -0.0924,-0.466679 -0.34664,-0.537586 z m 6.26709,2.784106 c -0.0116,-0.0032 -0.0234,-0.006 -0.0352,-0.0084 -0.25904,-0.0518 -0.50635,0.09285 -0.55241,0.323104 -0.0462,0.230234 0.12632,0.458995 0.38534,0.510955 0.25917,0.05209 0.50679,-0.09255 0.5529,-0.322962 0.0438,-0.218161 -0.10913,-0.437362 -0.35061,-0.502726 z m 2.00295,0.892541 c -0.0115,-0.003 -0.0232,-0.0056 -0.0349,-0.0077 -0.25982,-0.04833 -0.50528,0.09978 -0.54812,0.330761 -0.043,0.230967 0.1329,0.45736 0.39278,0.505545 0.25982,0.04834 0.50528,-0.09978 0.54812,-0.330761 0.0407,-0.218849 -0.11539,-0.435951 -0.35791,-0.497812 z m 4.63594,2.869193 c -0.0115,-0.003 -0.0232,-0.0056 -0.0348,-0.0077 -0.25976,-0.04864 -0.50538,0.09919 -0.54848,0.330123 -0.0431,0.230873 0.13241,0.457384 0.39214,0.505902 0.25977,0.04864 0.50538,-0.09919 0.54848,-0.330124 0.0409,-0.218769 -0.11489,-0.435997 -0.35727,-0.498169 z M 66.575823,17.760971 c -0.240609,-0.06878 -0.484822,0.04003 -0.560015,0.249511 -0.07926,0.220975 0.05795,0.472405 0.306513,0.561665 0.248768,0.08933 0.514798,-0.01761 0.594039,-0.238794 0.07926,-0.220976 -0.05795,-0.472406 -0.306513,-0.561666 -0.01122,-0.0039 -0.02258,-0.0075 -0.03402,-0.01072 z m 88.570817,27.445554 c -86.741399,-43.566692 -43.3707,-21.783346 0,0 z m -28.09269,-5.714096 c -0.24032,-0.06942 -0.48473,0.03859 -0.56059,0.247738 -0.0801,0.220707 0.0563,0.472631 0.3046,0.562734 0.24846,0.09001 0.51472,-0.01613 0.59461,-0.23702 0.0801,-0.220711 -0.0563,-0.472639 -0.3046,-0.562737 -0.0113,-0.004 -0.0226,-0.0075 -0.0341,-0.01073 z m -22.60868,-4.738493 c -0.25426,-0.07222 -0.51238,0.05264 -0.57634,0.27872 -0.0641,0.225819 0.0899,0.467324 0.34394,0.539509 0.25405,0.07216 0.51199,-0.05243 0.57621,-0.278223 0.0644,-0.225931 -0.0896,-0.467759 -0.34381,-0.540006 z m -6.242231,0.735116 c -0.239355,-0.07299 -0.485413,0.03158 -0.564224,0.239724 -0.08307,0.219481 0.04961,0.473194 0.296445,0.566869 0.247011,0.09362 0.514718,-0.0085 0.597967,-0.228014 0.08307,-0.219481 -0.04961,-0.473194 -0.296445,-0.566869 -0.01112,-0.0043 -0.02238,-0.0082 -0.03375,-0.01168 z M 75.211121,29.468365 c -0.08621,-0.01474 -0.173783,-0.008 -0.253154,0.01957 -0.02013,-0.01022 -0.04092,-0.01918 -0.06225,-0.02673 -0.249197,-0.088 -0.514631,0.0203 -0.592754,0.241844 -0.07834,0.221506 0.06029,0.472467 0.309562,0.560382 0.111799,0.03947 0.232647,0.04057 0.339094,0.0032 0.0089,0.007 0.01815,0.01371 0.02759,0.02017 0.254277,0.07212 0.51237,-0.05266 0.576349,-0.27872 0.06412,-0.226005 -0.09015,-0.467669 -0.344443,-0.53965 z m 35.793059,11.090376 c -0.0114,-0.0033 -0.023,-0.0062 -0.0346,-0.0087 -0.25812,-0.05675 -0.50826,0.0833 -0.5586,0.312754 -0.0501,0.229398 0.11841,0.461118 0.37647,0.517576 0.25799,0.05646 0.50781,-0.0836 0.55811,-0.312894 0.0475,-0.217229 -0.10131,-0.438972 -0.3414,-0.508709 z M 58.891735,26.846191 c -0.255657,-0.06638 -0.510718,0.06409 -0.56972,0.291341 -0.05928,0.227271 0.100004,0.465527 0.355713,0.532101 0.255796,0.06663 0.511164,-0.06378 0.570217,-0.2912 0.05933,-0.227447 -0.100237,-0.465861 -0.35621,-0.532242 z m 29.890911,9.037032 c -0.01147,-0.0031 -0.02307,-0.0059 -0.03474,-0.0082 -0.258436,-0.0544 -0.50715,0.08766 -0.555609,0.317361 -0.04859,0.229879 0.12179,0.46049 0.380448,0.514941 0.258667,0.05447 0.50756,-0.08789 0.555749,-0.317859 0.0459,-0.21779 -0.10493,-0.438546 -0.345859,-0.506213 z m 30.450464,9.132217 c -0.0115,-0.003 -0.0232,-0.0056 -0.0348,-0.0077 -0.25985,-0.04924 -0.50594,0.0983 -0.54934,0.329344 -0.0433,0.230761 0.13193,0.457395 0.39151,0.506258 0.25948,0.04889 0.50507,-0.09837 0.54869,-0.328989 0.0413,-0.218622 -0.11383,-0.436132 -0.35599,-0.498881 z m 11.55227,4.186732 c -0.25598,-0.06481 -0.51019,0.06703 -0.56793,0.294533 -0.0578,0.22761 0.10296,0.464833 0.35904,0.529823 0.25599,0.06481 0.51019,-0.06703 0.56793,-0.294532 0.0578,-0.22761 -0.10296,-0.464833 -0.35904,-0.529824 z M 38.767169,24.78982 c -0.253062,-0.07614 -0.513082,0.04447 -0.580698,0.269431 -0.06745,0.22494 0.08296,0.468844 0.336006,0.544778 0.252923,0.07589 0.512633,-0.04478 0.580201,-0.269571 0.0674,-0.224772 -0.08273,-0.468518 -0.335509,-0.544638 z m 78.002501,25.526011 c -0.0114,-0.0033 -0.023,-0.0062 -0.0346,-0.0087 -0.25852,-0.05502 -0.50771,0.08676 -0.55646,0.316583 -0.0488,0.229771 0.1213,0.460504 0.37981,0.515298 0.25852,0.05502 0.50771,-0.08676 0.55646,-0.316583 0.0461,-0.2177 -0.10444,-0.438583 -0.34522,-0.506571 z M 54.024569,32.594432 c -0.239078,-0.07354 -0.485312,0.03017 -0.564795,0.237951 -0.08394,0.219388 0.04817,0.473765 0.295027,0.568079 0.246695,0.09427 0.514623,-0.007 0.598539,-0.22624 0.08394,-0.21939 -0.04817,-0.473765 -0.295029,-0.568079 -0.01112,-0.0043 -0.02238,-0.0082 -0.03375,-0.01168 z m 22.79925,7.193391 c -0.23998,-0.07042 -0.484782,0.03654 -0.561514,0.245325 -0.08106,0.220357 0.05416,0.472922 0.302047,0.56416 0.248014,0.09131 0.514861,-0.01347 0.595895,-0.233971 0.08109,-0.22052 -0.0544,-0.473236 -0.302545,-0.564301 -0.01117,-0.0041 -0.02246,-0.0079 -0.03389,-0.0112 z M 126.2518,55.721706 c -0.0114,-0.0033 -0.023,-0.0062 -0.0345,-0.0087 -0.25778,-0.05822 -0.50871,0.08041 -0.56038,0.309563 -0.0516,0.229242 0.11571,0.462125 0.37364,0.519995 0.25788,0.058 0.50868,-0.08093 0.56003,-0.3102 0.0487,-0.217017 -0.0989,-0.439613 -0.3387,-0.51063 z m -4.64314,-0.88016 c -0.24218,-0.06288 -0.48362,0.05191 -0.55366,0.263128 -0.0741,0.22277 0.0698,0.470817 0.32054,0.553826 0.25069,0.08316 0.51386,-0.03009 0.58784,-0.252906 0.0742,-0.222961 -0.0695,-0.471255 -0.32041,-0.554325 -0.0113,-0.0036 -0.0228,-0.0069 -0.0344,-0.0097 z M 62.34461,38.61363 c -0.01138,-0.0035 -0.02287,-0.0065 -0.03444,-0.0092 -0.257017,-0.06091 -0.509257,0.07487 -0.563447,0.303323 -0.05416,0.228419 0.110178,0.463008 0.367122,0.524056 0.257017,0.06091 0.509259,-0.07488 0.563448,-0.303323 0.05144,-0.2165 -0.09362,-0.440992 -0.332676,-0.514832 z m 67.33287,19.979673 c -0.25509,-0.06903 -0.51163,0.05883 -0.57292,0.285598 -0.0607,0.226833 0.0961,0.466275 0.3511,0.535094 0.25509,0.06903 0.51163,-0.05883 0.57293,-0.285598 0.0607,-0.226833 -0.0961,-0.466274 -0.35111,-0.535094 z M 80.902749,46.591969 c -0.01147,-0.0031 -0.02306,-0.0059 -0.03474,-0.0082 -0.258968,-0.05208 -0.506433,0.09228 -0.552758,0.322466 -0.04642,0.230142 0.1258,0.459039 0.384699,0.511312 0.259098,0.05237 0.506875,-0.09198 0.553256,-0.322325 0.04401,-0.218258 -0.108845,-0.437743 -0.350468,-0.503222 z m 40.176201,12.237923 c -0.0115,-0.0031 -0.0231,-0.0059 -0.0348,-0.0082 -0.2595,-0.04977 -0.50572,0.0969 -0.54991,0.327571 -0.0443,0.230612 0.13001,0.457961 0.38944,0.507822 0.2595,0.04978 0.50573,-0.09689 0.54992,-0.327568 0.0418,-0.218433 -0.11283,-0.436225 -0.35472,-0.499593 z m 22.40429,6.367644 c -0.23916,-0.07294 -0.48505,0.03136 -0.56409,0.239226 -0.0834,0.219743 0.0495,0.473941 0.29681,0.567509 0.24701,0.09362 0.51472,-0.0085 0.59796,-0.228015 0.0834,-0.21974 -0.0495,-0.473932 -0.29679,-0.567505 -0.0112,-0.0041 -0.0225,-0.0079 -0.0339,-0.01121 z m -34.30376,-3.671379 c -0.25634,-0.06296 -0.50956,0.07056 -0.56581,0.298359 -0.0559,0.228137 0.10643,0.46412 0.36302,0.527188 0.25635,0.06296 0.50956,-0.07056 0.56581,-0.298358 0.0559,-0.228138 -0.10643,-0.46412 -0.36302,-0.527189 z m 1.34037,2.231794 c -0.0114,-0.0033 -0.023,-0.0062 -0.0346,-0.0087 -0.25825,-0.05618 -0.50808,0.08444 -0.55789,0.31403 -0.0496,0.229407 0.11925,0.46068 0.37727,0.516724 0.25825,0.05618 0.50807,-0.08444 0.55788,-0.31403 0.047,-0.217378 -0.10237,-0.438836 -0.34267,-0.507996 z m -4.75707,-0.620254 c -0.0115,-0.0031 -0.0231,-0.0059 -0.0348,-0.0082 -0.25849,-0.05408 -0.50703,0.08827 -0.55525,0.318001 -0.048,0.229865 0.12263,0.460033 0.38123,0.514087 0.25848,0.05408 0.50703,-0.08827 0.55524,-0.318001 0.0457,-0.217874 -0.10542,-0.4385 -0.34649,-0.505856 z M 77.088149,55.437912 c -0.24124,-0.06625 -0.484229,0.04495 -0.557305,0.255112 -0.0773,0.221853 0.06247,0.472164 0.312116,0.558957 0.249452,0.08671 0.514153,-0.0227 0.591328,-0.244396 0.0773,-0.221853 -0.06247,-0.472165 -0.312114,-0.558957 -0.01122,-0.0039 -0.02257,-0.0075 -0.03402,-0.01071 z m 45.029561,13.071837 c -0.0114,-0.0033 -0.023,-0.0062 -0.0346,-0.0087 -0.25812,-0.05675 -0.50826,0.0833 -0.5586,0.312755 -0.0504,0.229524 0.11807,0.461552 0.37634,0.518074 0.25799,0.05647 0.50782,-0.08359 0.55811,-0.312895 0.0478,-0.217344 -0.10098,-0.439397 -0.34126,-0.509206 z m 4.06974,1.241357 c -0.25401,-0.0734 -0.5128,0.0503 -0.57777,0.276166 -0.0651,0.225654 0.088,0.467911 0.34189,0.541076 0.25402,0.0734 0.51281,-0.0503 0.57778,-0.276166 0.065,-0.225654 -0.088,-0.46791 -0.3419,-0.541076 z m -25.1908,-6.39995 c -0.23985,-0.07106 -0.485,0.03539 -0.56223,0.244049 -0.0812,0.220098 0.0534,0.472662 0.30091,0.564376 0.24776,0.09163 0.51464,-0.01261 0.59611,-0.232837 0.0812,-0.220098 -0.0534,-0.472661 -0.30091,-0.564375 -0.0112,-0.0041 -0.0225,-0.0079 -0.0339,-0.0112 z m 54.16869,15.897461 c -86.753866,-66.26142 -43.37693,-33.13071 0,0 z M 93.244965,63.171371 c -0.241489,-0.06476 -0.483653,0.04786 -0.555524,0.258303 -0.07562,0.222033 0.0653,0.471057 0.31495,0.556536 0.249879,0.08537 0.51399,-0.02539 0.590044,-0.247446 0.076,-0.222129 -0.06493,-0.47149 -0.314808,-0.557034 -0.01144,-0.0038 -0.023,-0.0073 -0.03467,-0.01036 z M 42.495613,50.90535 c -0.242921,-0.05976 -0.482838,0.05796 -0.550246,0.270003 -0.07128,0.223796 0.07512,0.470189 0.326932,0.550265 0.251725,0.07992 0.513391,-0.03656 0.584552,-0.260282 0.07128,-0.223796 -0.07512,-0.470188 -0.326932,-0.550264 -0.01133,-0.0036 -0.02277,-0.0069 -0.03431,-0.0097 z m 5.970846,2.898888 c -0.238906,-0.07453 -0.485676,0.0284 -0.565865,0.236037 -0.08473,0.219126 0.04653,0.474004 0.293114,0.569148 0.246504,0.09528 0.515009,-0.0052 0.599607,-0.224326 0.08473,-0.219126 -0.04653,-0.474004 -0.293114,-0.569149 -0.01112,-0.0043 -0.02238,-0.0082 -0.03375,-0.01168 z m 49.909517,15.860865 c -0.01154,-0.0035 -0.02319,-0.0066 -0.03494,-0.0094 -0.257677,-0.05886 -0.508953,0.0792 -0.561095,0.308288 -0.05231,0.228963 0.114133,0.462272 0.37173,0.521064 0.257677,0.05886 0.508953,-0.0792 0.561095,-0.308287 0.04945,-0.216777 -0.09736,-0.439816 -0.336785,-0.511699 z m 29.274754,12.866063 c -0.0115,-0.0031 -0.0231,-0.0059 -0.0347,-0.0082 -0.25878,-0.05297 -0.50671,0.09054 -0.55383,0.32055 -0.0471,0.230049 0.1245,0.459497 0.38328,0.512523 0.25877,0.05297 0.50671,-0.09054 0.55382,-0.320553 0.0447,-0.218005 -0.1073,-0.437914 -0.34855,-0.504291 z M 85.901132,70.991431 c -0.24094,-0.06689 -0.484128,0.04352 -0.557876,0.253339 -0.07771,0.221498 0.06121,0.471957 0.310342,0.559528 0.249262,0.08767 0.514512,-0.0209 0.592398,-0.242482 0.07774,-0.221662 -0.06145,-0.472274 -0.31084,-0.559669 -0.01122,-0.0039 -0.02257,-0.0075 -0.03402,-0.01072 z M 77.60403,69.538816 c -0.01153,-0.003 -0.02315,-0.0056 -0.03487,-0.0077 -0.259148,-0.05032 -0.505513,0.09549 -0.550481,0.325797 -0.04472,0.230397 0.129017,0.458011 0.388172,0.508536 0.259148,0.05032 0.505512,-0.09549 0.55048,-0.325797 0.04255,-0.218383 -0.111491,-0.436738 -0.353302,-0.500803 z m 65.51508,19.262064 c -0.25336,-0.0746 -0.51252,0.04744 -0.57892,0.272619 -0.0662,0.22521 0.0854,0.468217 0.3387,0.542856 0.25335,0.0746 0.51251,-0.04744 0.57892,-0.272619 0.0662,-0.225211 -0.0854,-0.468218 -0.3387,-0.542856 z M 61.81696,65.938478 c -0.252609,-0.07747 -0.513195,0.04182 -0.581982,0.266382 -0.06863,0.22433 0.08006,0.468839 0.332317,0.546419 0.252534,0.07766 0.513255,-0.04129 0.58234,-0.265742 0.06902,-0.224607 -0.07993,-0.469601 -0.332675,-0.547059 z m 4.442411,1.607461 c -0.01164,-0.0032 -0.02339,-0.006 -0.03523,-0.0084 -0.258358,-0.05379 -0.506593,0.08856 -0.554755,0.318139 -0.04805,0.229865 0.122628,0.460032 0.381226,0.514088 0.258359,0.05379 0.506595,-0.08856 0.554757,-0.31814 0.04566,-0.217708 -0.105192,-0.438186 -0.346002,-0.505717 z m 24.854079,7.885789 c -0.01137,-0.0035 -0.02286,-0.0065 -0.03444,-0.0092 -0.25734,-0.06032 -0.509413,0.07631 -0.562876,0.305097 -0.05349,0.228693 0.111745,0.462862 0.369038,0.522986 0.257339,0.06032 0.509413,-0.07631 0.562876,-0.305096 0.05072,-0.216735 -0.0952,-0.440789 -0.334591,-0.513763 z m 28.60355,8.540094 c -0.25501,-0.06838 -0.51105,0.05976 -0.57207,0.286377 -0.0607,0.226877 0.0965,0.466242 0.35174,0.534737 0.25524,0.06844 0.51145,-0.05998 0.57221,-0.286874 0.0607,-0.22668 -0.0969,-0.465806 -0.35188,-0.53424 z M 53.965926,66.886403 c -0.239388,-0.07165 -0.484582,0.0337 -0.562659,0.241779 -0.08236,0.219919 0.05144,0.473304 0.298857,0.565942 0.247384,0.09261 0.51467,-0.01055 0.597038,-0.230425 0.08236,-0.219919 -0.05144,-0.473303 -0.298856,-0.565942 -0.01134,-0.0042 -0.0228,-0.008 -0.03438,-0.01134 z m 58.757524,16.825059 c -0.24266,-0.06135 -0.48341,0.05504 -0.55202,0.266813 -0.0722,0.223414 0.0725,0.470494 0.32374,0.552045 0.25121,0.08154 0.51362,-0.03332 0.58619,-0.256594 0.0722,-0.223414 -0.0725,-0.470494 -0.32374,-0.552045 -0.0113,-0.0038 -0.0227,-0.0072 -0.0342,-0.01023 z M 61.836285,69.655402 c -0.256824,-0.06181 -0.509555,0.07312 -0.564516,0.301408 -0.05524,0.228435 0.1085,0.463927 0.365565,0.525763 0.256824,0.06181 0.509555,-0.07313 0.564516,-0.301409 0.05524,-0.228436 -0.108501,-0.463927 -0.365565,-0.525762 z m 13.311885,3.830283 c -0.253757,-0.07371 -0.512565,0.04944 -0.577989,0.275032 -0.06554,0.22548 0.08695,0.468038 0.340613,0.541788 0.253759,0.07371 0.512566,-0.04944 0.57799,-0.275033 0.06554,-0.22548 -0.08695,-0.468038 -0.340614,-0.541787 z m 67.63917,20.898458 c -0.0115,-0.003 -0.0232,-0.0056 -0.0348,-0.0077 -0.25946,-0.04886 -0.50505,0.09839 -0.5487,0.328985 -0.0438,0.230882 0.13156,0.457859 0.39137,0.506756 0.25969,0.04892 0.50546,-0.09862 0.54883,-0.329485 0.0412,-0.218671 -0.11437,-0.436051 -0.35663,-0.498524 z M 89.97116,79.94795 c -0.253552,-0.07461 -0.512865,0.0477 -0.579058,0.273119 -0.06598,0.225293 0.08592,0.46814 0.339337,0.542499 0.253552,0.0746 0.512865,-0.0477 0.579058,-0.273117 0.06598,-0.225294 -0.08592,-0.468141 -0.339337,-0.542501 z M 28.147517,62.928641 c -0.252724,-0.07677 -0.512938,0.04304 -0.58127,0.267657 -0.06821,0.224692 0.08133,0.469061 0.334091,0.545848 0.252724,0.07677 0.512939,-0.04304 0.581271,-0.267657 0.06821,-0.224693 -0.08133,-0.469061 -0.334092,-0.545848 z m 13.328963,4.27609 c -0.239845,-0.07105 -0.484993,0.0354 -0.562227,0.244049 -0.0813,0.220263 0.05364,0.472984 0.301408,0.564517 0.247756,0.09162 0.51463,-0.01262 0.596111,-0.232836 0.0813,-0.220262 -0.05364,-0.472983 -0.301409,-0.564516 -0.01117,-0.0041 -0.02246,-0.0079 -0.03389,-0.0112 z m 82.43796,23.558631 c -0.0114,-0.0033 -0.023,-0.0062 -0.0346,-0.0087 -0.25863,-0.05353 -0.50687,0.0894 -0.55454,0.319276 -0.0479,0.229979 0.1231,0.46002 0.38186,0.513731 0.25864,0.05353 0.50689,-0.08939 0.55455,-0.319275 0.0452,-0.217854 -0.10625,-0.438049 -0.34728,-0.505005 z M 94.182686,84.388779 c -0.254945,-0.06878 -0.511178,0.05915 -0.572429,0.285738 -0.0611,0.226728 0.09606,0.46628 0.351105,0.535094 0.254945,0.06878 0.511178,-0.05915 0.572429,-0.28574 0.0611,-0.226726 -0.09606,-0.466279 -0.351105,-0.535092 z m 31.647604,10.186356 c -0.25586,-0.06634 -0.51106,0.06436 -0.56986,0.291836 -0.0588,0.227411 0.10111,0.465371 0.35698,0.531388 0.25575,0.06599 0.51061,-0.06468 0.56937,-0.291978 0.0587,-0.227233 -0.10088,-0.465035 -0.35649,-0.531246 z M 40.140353,72.090342 c -0.243099,-0.05889 -0.482535,0.05966 -0.549177,0.271919 -0.07047,0.223878 0.07653,0.469643 0.328349,0.549054 0.252025,0.07938 0.51352,-0.038 0.58398,-0.262055 0.07052,-0.224045 -0.07676,-0.469969 -0.328846,-0.549196 -0.01133,-0.0036 -0.02277,-0.0069 -0.03431,-0.0097 z m 28.711478,8.424583 c -0.24032,-0.06944 -0.48474,0.03858 -0.560586,0.247737 -0.08007,0.220873 0.05656,0.472942 0.305096,0.562876 0.24826,0.08996 0.514348,-0.0159 0.59447,-0.236524 0.08007,-0.220873 -0.05656,-0.472942 -0.305096,-0.562876 -0.01117,-0.0041 -0.02246,-0.0079 -0.03389,-0.0112 z m -7.37464,-0.943601 c -0.01153,-0.003 -0.02315,-0.0056 -0.03487,-0.0077 -0.259841,-0.04836 -0.505303,0.09976 -0.548126,0.330761 -0.04296,0.230956 0.132931,0.45734 0.392778,0.505545 0.259842,0.04836 0.505304,-0.09976 0.548127,-0.330761 0.04066,-0.218839 -0.115415,-0.435934 -0.357909,-0.497812 z m 50.357899,14.409353 c -0.23947,-0.0723 -0.48516,0.03277 -0.56351,0.241001 -0.083,0.21991 0.0506,0.473789 0.29808,0.566794 0.24734,0.09298 0.51482,-0.0099 0.59739,-0.229787 0.0826,-0.219811 -0.0509,-0.473358 -0.29822,-0.566297 -0.0111,-0.0043 -0.0224,-0.0082 -0.0338,-0.01169 z M 19.725546,68.29849 c -0.240408,-0.06882 -0.484489,0.03977 -0.559874,0.249013 -0.07958,0.221056 0.05762,0.472808 0.306372,0.562164 0.24858,0.08933 0.514457,-0.01735 0.593898,-0.238298 0.07958,-0.221056 -0.05762,-0.472808 -0.306372,-0.562163 -0.01122,-0.0039 -0.02257,-0.0075 -0.03402,-0.01072 z m 14.557952,4.400919 c -0.240166,-0.0704 -0.485109,0.0368 -0.561655,0.245822 -0.08082,0.220605 0.05495,0.473156 0.303182,0.563946 0.248081,0.09098 0.514742,-0.01406 0.595539,-0.234611 0.08078,-0.220443 -0.05472,-0.472839 -0.302686,-0.563803 -0.01134,-0.0042 -0.0228,-0.008 -0.03438,-0.01135 z M 127.24138,101.7394 c -0.25424,-0.0721 -0.51233,0.0527 -0.57634,0.27872 -0.0646,0.22589 0.0901,0.46769 0.34444,0.53965 0.25425,0.0721 0.51234,-0.0527 0.57634,-0.27872 0.0646,-0.22589 -0.0901,-0.4677 -0.34444,-0.53965 z m -19.19691,-3.773833 c -0.24223,-0.06258 -0.48352,0.05247 -0.5533,0.263766 -0.0742,0.222963 0.07,0.471171 0.32104,0.553968 0.25076,0.08287 0.51375,-0.03067 0.58747,-0.253547 0.0741,-0.222797 -0.0698,-0.470846 -0.32054,-0.553825 -0.0115,-0.0039 -0.023,-0.0073 -0.0347,-0.01037 z m 32.22589,9.487623 c -0.25501,-0.0685 -0.51108,0.0597 -0.57208,0.28638 -0.0607,0.22668 0.0964,0.46589 0.35125,0.5346 0.25515,0.0687 0.51153,-0.0594 0.57258,-0.28624 0.0607,-0.22686 -0.0966,-0.46622 -0.35175,-0.53474 z M 44.033652,80.465038 c -0.254323,-0.07089 -0.511576,0.05476 -0.574783,0.280775 -0.06297,0.226016 0.09183,0.466745 0.346,0.537943 0.254435,0.07123 0.512023,-0.05445 0.57528,-0.280634 0.06302,-0.226189 -0.09206,-0.467075 -0.346497,-0.538084 z m 6.179094,1.906234 c -0.240765,-0.06778 -0.484448,0.04181 -0.558946,0.251425 -0.07857,0.221413 0.05977,0.472524 0.308925,0.560739 0.249145,0.08835 0.514776,-0.01967 0.59311,-0.241206 0.0782,-0.221318 -0.06015,-0.472091 -0.309065,-0.560241 -0.01122,-0.0039 -0.02257,-0.0075 -0.03402,-0.01072 z m 48.817455,14.195184 c -0.253633,-0.07433 -0.512788,0.04826 -0.578702,0.273756 -0.06606,0.225478 0.08612,0.468495 0.339843,0.542644 0.253502,0.07403 0.512328,-0.04858 0.578202,-0.273899 0.06601,-0.225306 -0.0859,-0.468166 -0.339343,-0.542501 z m -9.864956,-2.231528 c -0.238763,-0.07428 -0.485233,0.02872 -0.565368,0.236177 -0.08475,0.219128 0.04652,0.474007 0.293114,0.569148 0.24659,0.09501 0.514923,-0.0057 0.599251,-0.224964 0.08437,-0.21904 -0.0469,-0.473577 -0.293256,-0.568651 -0.01112,-0.0043 -0.02238,-0.0082 -0.03375,-0.01168 z M 57.605032,85.959237 c -0.239115,-0.07324 -0.485178,0.03077 -0.564438,0.238588 -0.08369,0.219481 0.0487,0.473697 0.295666,0.567723 0.246952,0.09397 0.514853,-0.0078 0.598322,-0.227375 0.08369,-0.219482 -0.0487,-0.473697 -0.295666,-0.567723 -0.01117,-0.0041 -0.02246,-0.0079 -0.03389,-0.0112 z m 16.88618,6.097847 c -0.241524,-0.06561 -0.484313,0.0464 -0.556733,0.256886 -0.07655,0.222118 0.06408,0.471957 0.31403,0.557887 0.249962,0.08607 0.51461,-0.0244 0.590898,-0.246667 0.07618,-0.222023 -0.06445,-0.471523 -0.31417,-0.55739 -0.01123,-0.0039 -0.02257,-0.0075 -0.03402,-0.01072 z M 47.917228,84.605599 c -0.01143,-0.0033 -0.02296,-0.0062 -0.0346,-0.0087 -0.258039,-0.05616 -0.507703,0.08419 -0.557747,0.313532 -0.04994,0.229499 0.11892,0.461087 0.377117,0.51722 0.258039,0.05616 0.507702,-0.08419 0.557746,-0.313533 0.04732,-0.217486 -0.10205,-0.439234 -0.342528,-0.508492 z m 54.250402,16.279931 c -0.24134,-0.0657 -0.484,0.0461 -0.55659,0.25639 -0.0768,0.22202 0.0636,0.47202 0.3134,0.55824 0.24958,0.0861 0.51391,-0.0239 0.59061,-0.24567 0.0768,-0.22186 -0.0633,-0.4717 -0.31289,-0.5581 -0.0114,-0.004 -0.0229,-0.008 -0.0345,-0.0109 z m 0.69175,0.69393 c -0.25206,-0.0803 -0.51424,0.0364 -0.58519,0.26064 -0.0712,0.22359 0.0755,0.46974 0.32707,0.54976 0.25184,0.0803 0.51385,-0.0362 0.58505,-0.26014 0.0713,-0.22379 -0.0751,-0.47018 -0.32693,-0.55026 z m -2.58529,-0.46567 c -0.0114,-0.003 -0.0229,-0.007 -0.0345,-0.009 -0.257257,-0.0597 -0.50885,0.0772 -0.562019,0.30588 -0.05292,0.22868 0.112589,0.46239 0.369809,0.52213 0.25726,0.0597 0.50885,-0.0772 0.56202,-0.30588 0.0502,-0.2167 -0.096,-0.44031 -0.33536,-0.5129 z M 19.627464,79.004879 c -0.239775,-0.07038 -0.484419,0.03632 -0.561373,0.244829 -0.08106,0.220356 0.05416,0.472922 0.302047,0.56416 0.247808,0.09126 0.514484,-0.01326 0.595753,-0.233475 0.08143,-0.220449 -0.05379,-0.473353 -0.301905,-0.564657 -0.01138,-0.004 -0.0229,-0.0076 -0.03452,-0.01086 z m 8.312364,2.568225 c -0.01147,-0.0031 -0.02306,-0.0059 -0.03473,-0.0082 -0.25917,-0.05123 -0.506171,0.094 -0.55169,0.32438 -0.04543,0.230305 0.127691,0.458484 0.386755,0.509745 0.258937,0.05116 0.505759,-0.09378 0.551548,-0.323882 0.04329,-0.218323 -0.110162,-0.437246 -0.351885,-0.502013 z m 8.5657,5.71713 c -0.253692,-0.07401 -0.51267,0.04886 -0.578346,0.274393 -0.06584,0.225569 0.08665,0.468429 0.340473,0.542283 0.253688,0.07401 0.512664,-0.04886 0.578344,-0.27439 0.06584,-0.225568 -0.08665,-0.468434 -0.340471,-0.542286 z m 27.685952,8.048025 c -0.257149,-0.06121 -0.50971,0.07457 -0.563946,0.303186 -0.05415,0.228422 0.110181,0.46301 0.367123,0.524056 0.256929,0.06112 0.509307,-0.07435 0.563806,-0.302692 0.05451,-0.228527 -0.109834,-0.463438 -0.366983,-0.52455 z M 46.169416,91.141115 c -0.242394,-0.06211 -0.483535,0.05244 -0.553312,0.263764 -0.07373,0.222899 0.06981,0.470843 0.32055,0.553832 0.250664,0.08326 0.513768,-0.03065 0.587477,-0.253544 0.07373,-0.2229 -0.0698,-0.470843 -0.32055,-0.553832 -0.01127,-0.0038 -0.02267,-0.0072 -0.03417,-0.01022 z M 30.450995,87.281469 c -0.01148,-0.0031 -0.02306,-0.0059 -0.03479,-0.008 -0.258342,-0.05383 -0.506587,0.08856 -0.554755,0.318141 -0.04807,0.229868 0.122623,0.460033 0.381228,0.514085 0.258338,0.05383 0.506581,-0.08856 0.554752,-0.318131 0.04571,-0.21789 -0.105415,-0.438516 -0.346495,-0.505867 z m 28.824596,8.870753 c -0.241268,-0.06595 -0.484014,0.04611 -0.556595,0.256394 -0.07674,0.221859 0.06333,0.471691 0.312894,0.558106 0.249694,0.08641 0.514377,-0.02357 0.591116,-0.24554 0.07673,-0.221862 -0.06334,-0.471682 -0.312896,-0.558096 -0.01138,-0.004 -0.0229,-0.0076 -0.03452,-0.01086 z m 52.927899,15.417998 c -0.24271,-0.0601 -0.48273,0.0565 -0.55082,0.26823 -0.0722,0.22346 0.0735,0.47038 0.32502,0.55133 0.25141,0.0814 0.51375,-0.0348 0.58563,-0.25836 0.0722,-0.22346 -0.0735,-0.47039 -0.32502,-0.55134 -0.0115,-0.004 -0.0231,-0.007 -0.0348,-0.01 z m 7.57339,2.35184 c -0.0115,-0.003 -0.0231,-0.006 -0.0348,-0.008 -0.2591,-0.0516 -0.50628,0.0934 -0.55205,0.32375 -0.046,0.23032 0.12685,0.45895 0.38598,0.51059 0.2591,0.0516 0.50626,-0.0934 0.55204,-0.32374 0.0435,-0.21823 -0.10966,-0.43729 -0.35125,-0.50236 z M 53.132666,95.34657 c -0.256876,-0.06246 -0.510105,0.07223 -0.56537,0.300633 -0.05545,0.228337 0.107987,0.463966 0.364928,0.526115 0.25676,0.06212 0.509657,-0.07254 0.564871,-0.300767 0.0554,-0.228164 -0.107749,-0.463636 -0.364429,-0.525981 z m -16.25888,-3.984306 c -0.242867,-0.06016 -0.483051,0.05681 -0.550958,0.268727 -0.07146,0.223694 0.07465,0.47022 0.326292,0.550627 0.251446,0.08036 0.513173,-0.03569 0.584769,-0.259152 0.07141,-0.223521 -0.07442,-0.469883 -0.325799,-0.550473 -0.01133,-0.0036 -0.02277,-0.0069 -0.03431,-0.0097 z m 4.337812,2.179386 c -0.01159,-0.0033 -0.0233,-0.0063 -0.03501,-0.0091 -0.258194,-0.05556 -0.507533,0.08532 -0.557032,0.314803 -0.04942,0.229497 0.119747,0.460634 0.377896,0.516366 0.258194,0.05556 0.507533,-0.08532 0.557032,-0.314802 0.04676,-0.217292 -0.102634,-0.438469 -0.342809,-0.507504 z m 86.266992,26.21045 c -0.24247,-0.0621 -0.4836,0.0539 -0.55273,0.26554 -0.0732,0.22329 0.0716,0.47097 0.32296,0.55289 0.25104,0.0823 0.51376,-0.0327 0.58654,-0.25596 0.0722,-0.22321 -0.0717,-0.47021 -0.3226,-0.55225 -0.0113,-0.004 -0.0227,-0.007 -0.0342,-0.0102 z M 56.317422,100.21889 c -0.01137,-0.003 -0.02287,-0.007 -0.03444,-0.009 -0.257068,-0.0606 -0.509155,0.0755 -0.563091,0.30396 -0.05395,0.22851 0.110694,0.46296 0.367761,0.5237 0.257068,0.0607 0.509155,-0.0755 0.563091,-0.30396 0.0512,-0.21658 -0.09414,-0.44093 -0.333315,-0.51447 z m 4.366501,1.59292 c -0.01153,-0.003 -0.02312,-0.006 -0.03478,-0.008 -0.259553,-0.0495 -0.505623,0.0975 -0.54955,0.3282 -0.0438,0.23058 0.130858,0.4575 0.390225,0.50697 0.259558,0.0495 0.505633,-0.0975 0.549553,-0.32821 0.04158,-0.21852 -0.113338,-0.43617 -0.355357,-0.49924 z M 44.32463,97.508981 c -0.01147,-0.0031 -0.02306,-0.0059 -0.03479,-0.008 -0.258779,-0.05292 -0.506702,0.09055 -0.553828,0.320556 -0.04712,0.23004 0.124486,0.459502 0.383283,0.512517 0.258775,0.05291 0.506692,-0.09054 0.553826,-0.320546 0.04471,-0.218013 -0.107282,-0.437934 -0.348551,-0.504298 z m 2.807198,1.424461 c -0.241653,-0.06502 -0.484112,0.04751 -0.556018,0.258155 -0.07595,0.22212 0.06497,0.471469 0.314807,0.557037 0.249893,0.08543 0.514022,-0.02535 0.590045,-0.247444 0.07595,-0.222119 -0.06497,-0.471469 -0.314808,-0.557037 -0.01122,-0.0039 -0.02257,-0.0075 -0.03402,-0.01071 z M 89.13661,111.02833 c -0.243093,-0.0602 -0.483521,0.0565 -0.551457,0.26859 -0.07175,0.2236 0.0741,0.47029 0.325657,0.55097 0.251862,0.0805 0.514104,-0.035 0.585761,-0.25886 0.07175,-0.2236 -0.07409,-0.4703 -0.325657,-0.55097 -0.01133,-0.004 -0.02277,-0.007 -0.03431,-0.01 z m -2.745347,0.55783 c -0.253618,-0.0734 -0.512091,0.0498 -0.577491,0.27517 -0.06558,0.22549 0.08692,0.46806 0.340611,0.54179 0.253747,0.0737 0.512543,-0.0495 0.577991,-0.27503 0.06562,-0.22566 -0.08716,-0.46839 -0.341111,-0.54193 z M 12.178934,91.913955 c -0.01147,-0.0031 -0.02306,-0.0059 -0.03479,-0.008 -0.258939,-0.05203 -0.506386,0.09233 -0.55276,0.32247 -0.04626,0.230415 0.12656,0.459334 0.385836,0.511093 0.259031,0.05184 0.506356,-0.09285 0.552402,-0.323105 0.04341,-0.218038 -0.109469,-0.436935 -0.350749,-0.50223 z m 23.466693,6.792232 c -0.241838,-0.06403 -0.483857,0.04873 -0.55531,0.259444 -0.07517,0.222376 0.0666,0.471236 0.316724,0.555959 0.250196,0.08479 0.514115,-0.02682 0.589472,-0.249215 0.07518,-0.222374 -0.0666,-0.471244 -0.316722,-0.555969 -0.01127,-0.0038 -0.02267,-0.0072 -0.03416,-0.01022 z m 16.280361,5.813383 c -0.241122,-0.067 -0.484472,0.0438 -0.558018,0.25383 -0.07775,0.22152 0.06117,0.47198 0.310341,0.55953 0.249454,0.0877 0.514866,-0.0211 0.59254,-0.24298 0.07779,-0.22167 -0.06141,-0.4723 -0.310841,-0.55966 -0.01122,-0.004 -0.02257,-0.008 -0.03402,-0.0107 z M 17.439621,95.776051 c -0.01147,-0.0031 -0.02306,-0.0059 -0.03478,-0.008 -0.258402,-0.05354 -0.506493,0.08916 -0.554401,0.318785 -0.04787,0.229968 0.123127,0.460003 0.381865,0.513729 0.258658,0.05351 0.506897,-0.08938 0.55454,-0.319276 0.04515,-0.217855 -0.106265,-0.438034 -0.347276,-0.50501 z m 91.785719,26.898839 c -0.24023,-0.0701 -0.48499,0.0374 -0.56129,0.24646 -0.0805,0.22035 0.055,0.47243 0.30283,0.5633 0.24806,0.0909 0.51471,-0.0141 0.59553,-0.23461 0.0809,-0.22062 -0.0549,-0.47317 -0.30318,-0.56394 -0.0112,-0.004 -0.0226,-0.008 -0.034,-0.0109 z M 39.081122,103.22628 c -0.255754,-0.066 -0.510701,0.0641 -0.56972,0.29134 -0.05898,0.22734 0.100574,0.46544 0.35635,0.53175 0.255755,0.066 0.510702,-0.0641 0.56972,-0.29134 0.05898,-0.22735 -0.100574,-0.46544 -0.35635,-0.53175 z m -5.790138,-0.0832 c -0.25593,-0.065 -0.510202,0.067 -0.567939,0.29453 -0.05781,0.22761 0.102972,0.46483 0.359044,0.52982 0.25593,0.065 0.510202,-0.067 0.567939,-0.29453 0.05781,-0.22761 -0.102972,-0.46483 -0.359044,-0.52982 z m 12.013701,6.07438 c -0.254555,-0.0709 -0.512032,0.0544 -0.57528,0.28064 -0.06332,0.22612 0.09148,0.46717 0.345858,0.53844 0.254555,0.0708 0.512032,-0.0544 0.57528,-0.28063 0.06332,-0.22613 -0.09148,-0.46718 -0.345858,-0.53845 z m 40.24757,11.73019 c -0.01143,-0.003 -0.02296,-0.006 -0.03451,-0.009 -0.257983,-0.0564 -0.5078,0.0836 -0.558104,0.3129 -0.05008,0.22922 0.118174,0.46078 0.375981,0.51743 0.257983,0.0564 0.507801,-0.0836 0.558105,-0.31289 0.04752,-0.21723 -0.101299,-0.43898 -0.341395,-0.50871 z M 40.677781,108.52834 c -0.255714,-0.067 -0.511276,0.0632 -0.570573,0.29056 -0.05917,0.22726 0.10007,0.46548 0.355709,0.53211 0.255302,0.0669 0.51044,-0.0633 0.569939,-0.29021 0.05946,-0.22718 -0.09949,-0.46558 -0.355075,-0.53246 z m 42.462069,12.29697 c -0.255312,-0.0679 -0.511146,0.0617 -0.571146,0.28879 -0.05977,0.22682 0.09827,0.4653 0.353301,0.53303 0.255284,0.0679 0.511188,-0.0612 0.571501,-0.28815 0.06026,-0.22707 -0.09815,-0.46607 -0.353656,-0.53367 z m -28.941851,-7.6192 c -0.229707,-0.0544 -0.455163,0.0508 -0.530349,0.24717 -0.08423,0.21931 0.0476,0.47386 0.294392,0.56843 0.246819,0.0946 0.5151,-0.007 0.599034,-0.2261 0.08389,-0.21938 -0.04821,-0.47374 -0.295029,-0.56807 -0.02223,-0.009 -0.04484,-0.0162 -0.06794,-0.0218 z m 19.975967,6.73548 c -0.01153,-0.003 -0.02312,-0.006 -0.03478,-0.008 -0.259425,-0.0501 -0.505809,0.0963 -0.550266,0.32694 -0.04421,0.23038 0.129839,0.45757 0.388949,0.50768 0.259424,0.0501 0.505809,-0.0963 0.550265,-0.32693 0.04202,-0.21836 -0.112313,-0.43628 -0.35408,-0.49995 z m 38.446324,11.73697 c -0.0115,-0.003 -0.0231,-0.006 -0.0348,-0.008 -0.25951,-0.0507 -0.50639,0.0954 -0.55112,0.32615 -0.0447,0.2304 0.12904,0.45799 0.38818,0.50853 0.25929,0.0506 0.50596,-0.0952 0.55097,-0.32565 0.0425,-0.21838 -0.1115,-0.43672 -0.35329,-0.5008 z m -10.76744,-1.93351 c -0.25634,-0.0641 -0.51034,0.0685 -0.56736,0.2963 -0.0569,0.22796 0.10454,0.46468 0.36095,0.52876 0.25635,0.0641 0.51034,-0.0685 0.56737,-0.2963 0.0569,-0.22796 -0.10454,-0.46468 -0.36096,-0.52876 z M 65.790871,119.65484 c -0.255959,-0.065 -0.510387,0.0659 -0.568651,0.29325 -0.05828,0.22744 0.101899,0.46496 0.357764,0.53054 0.255959,0.065 0.510387,-0.0659 0.568651,-0.29325 0.05828,-0.22744 -0.101899,-0.46496 -0.357764,-0.53054 z m -0.441382,0.78425 c -0.01164,-0.003 -0.02339,-0.006 -0.03528,-0.008 -0.258688,-0.0524 -0.506149,0.0914 -0.552972,0.32133 -0.01635,0.1515 0.05933,0.30303 0.198405,0.39729 -0.05141,0.0474 -0.08867,0.10612 -0.108661,0.17116 -0.06897,0.22443 0.07972,0.46926 0.332179,0.54692 0.252592,0.0776 0.513207,-0.0418 0.581981,-0.26638 0.05118,-0.16715 -0.01798,-0.35253 -0.174279,-0.46727 0.05427,-0.0535 0.09146,-0.11941 0.107904,-0.19124 0.04417,-0.21799 -0.108127,-0.43745 -0.349331,-0.50344 z m -19.377006,-5.35402 c -0.24056,-0.0678 -0.484032,0.0421 -0.558448,0.25157 -0.07849,0.22123 0.05957,0.47218 0.308428,0.5606 0.248941,0.0884 0.514426,-0.0194 0.59297,-0.24071 0.0785,-0.22124 -0.05957,-0.47218 -0.308427,-0.5606 -0.01138,-0.004 -0.0229,-0.008 -0.03452,-0.0109 z m -7.660851,4.33675 c -0.25551,-0.067 -0.510897,0.063 -0.570434,0.29007 -0.05946,0.22717 0.09951,0.46556 0.355073,0.53246 0.255511,0.067 0.510898,-0.063 0.570435,-0.29007 0.05945,-0.22718 -0.09951,-0.46557 -0.355074,-0.53246 z m 32.8301,24.35907 c -0.24011,-0.0707 -0.48522,0.0362 -0.562012,0.24519 -0.08106,0.22035 0.05416,0.47292 0.302047,0.56416 0.248008,0.0913 0.514863,-0.0135 0.595897,-0.23398 0.08106,-0.22035 -0.05416,-0.47292 -0.302048,-0.56416 -0.01117,-0.004 -0.02255,-0.008 -0.03397,-0.0109 z m -18.241228,-4.87372 c -0.242885,-0.0602 -0.483074,0.0568 -0.550957,0.26873 -0.07175,0.22361 0.07407,0.47031 0.325653,0.55098 0.25166,0.0804 0.513647,-0.0353 0.585265,-0.25901 0.07175,-0.22361 -0.07408,-0.4703 -0.325657,-0.55097 -0.01133,-0.004 -0.02277,-0.007 -0.03431,-0.01 z M 72.134099,84.814978 a 0.47834265,0.42519346 4.7848959 0 0 -0.476458,0.385506 0.47834265,0.42519346 4.7848959 0 0 0.441317,0.463537 0.47834265,0.42519346 4.7848959 0 0 0.512114,-0.383438 0.47834265,0.42519346 4.7848959 0 0 -0.441317,-0.464055 0.47834265,0.42519346 4.7848959 0 0 -0.03565,-0.0016 z M 30.477726,57.817143 a 0.42519346,0.47834265 84.777722 0 0 -0.03566,0.0021 0.42519346,0.47834265 84.777722 0 0 -0.4377,0.467155 0.42519346,0.47834265 84.777722 0 0 0.514697,0.379822 0.42519346,0.47834265 84.777722 0 0 0.4377,-0.467155 0.42519346,0.47834265 84.777722 0 0 -0.479041,-0.381889 z m 16.886308,40.266792 a 0.47834265,0.42519346 2.2176314 0 0 -0.458887,0.406694 0.47834265,0.42519346 2.2176314 0 0 0.461987,0.443384 0.47834265,0.42519346 2.2176314 0 0 0.494028,-0.406177 0.47834265,0.42519346 2.2176314 0 0 -0.461471,-0.4439 0.47834265,0.42519346 2.2176314 0 0 -0.03566,2e-5 z m 28.257707,45.560015 a 0.42519346,0.47834265 85.52563 0 0 -0.03564,0.002 0.42519346,0.47834265 85.52563 0 0 -0.443901,0.46146 0.42519346,0.47834265 85.52563 0 0 0.510046,0.38655 0.42519346,0.47834265 85.52563 0 0 0.443901,-0.46148 0.42519346,0.47834265 85.52563 0 0 -0.474389,-0.38808 z m 2.828768,-70.025188 a 0.42519346,0.47834265 87.725826 0 0 -0.460955,0.443901 0.42519346,0.47834265 87.725826 0 0 0.494544,0.405659 0.42519346,0.47834265 87.725826 0 0 0.460954,-0.443383 0.42519346,0.47834265 87.725826 0 0 -0.494543,-0.406177 z M 71.259733,51.787537 a 0.47834265,0.42519346 2.4274638 0 0 -0.460437,0.404626 0.47834265,0.42519346 2.4274638 0 0 0.45992,0.445451 0.47834265,0.42519346 2.4274638 0 0 0.496094,-0.404627 0.47834265,0.42519346 2.4274638 0 0 -0.45992,-0.444934 0.47834265,0.42519346 2.4274638 0 0 -0.03566,-5.16e-4 z" /></svg>
