<?xml version="1.0" encoding="UTF-8" standalone="no"?>
<!-- Created with Inkscape (http://www.inkscape.org/) -->

<svg
   width="164.23331mm"
   height="164.76247mm"
   viewBox="0 0 164.23331 164.76247"
   version="1.1"
   id="svg392"
   xml:space="preserve"
   xmlns="http://www.w3.org/2000/svg"
   xmlns:svg="http://www.w3.org/2000/svg"><defs
     id="defs389"><style
       id="style6869">.cls-1{fill:#ffe8c2;}.cls-2{fill:none;stroke:#e5af6e;stroke-miterlimit:10;stroke-width:25.51px;}.cls-3{opacity:0.05;}.cls-4{fill:#534741;}</style></defs><path
     id="path479623-8"
     style="display:inline;opacity:0.194149;fill:#333333;stroke-width:1.57009;stop-color:#000000"
     d="m 111.83696,145.00267 c 10e-6,3.30551 -10.13859,-6.49369 -51.109456,0.45497 -22.474946,1.95265 -51.7034621,0.51569 -50.8968621,-2.6899 3.7204351,-14.78573 22.0098611,-7.04813 50.4716691,-7.04813 28.461807,0 51.534659,5.97755 51.534649,9.28306 z m 24.54384,-25.09811 a 44.166969,8.1849737 0 0 1 -44.166971,8.18497 44.166969,8.1849737 0 0 1 -44.166969,-8.18497 44.166969,8.1849737 0 0 1 44.166969,-8.18498 44.166969,8.1849737 0 0 1 44.166971,8.18498 z" /><path
     style="fill:#e1bfa3;fill-opacity:1;stroke:none;stroke-width:2.93301;stroke-dasharray:none;stroke-opacity:1;stop-color:#000000"
     d="m 42.993977,30.667033 c 0,0 4.509857,11.274644 7.215772,14.431544 2.705915,3.1569 109.589531,9.470702 109.589531,9.470702 l 3.1569,-8.56873 -3.75821,-6.163473 -12.47727,-7.065444 -33.37295,-5.712485 -35.477541,-0.300658 -25.555861,2.25493 z"
     id="path479444" /><path
     style="fill:#cdac97;fill-opacity:1;stroke:none;stroke-width:2.93301;stroke-dasharray:none;stroke-opacity:1;stop-color:#000000"
     d="m 43.144305,31.268345 5.712486,11.424973 -16.761637,5.411829 -6.163473,6.013143 -3.758214,-6.088305 0.676479,-5.712487 7.290937,-7.065444 12.702765,-4.058872 z"
     id="path479500" /><ellipse
     style="display:inline;fill:#e1604b;fill-opacity:1;stroke:none;stroke-width:2.81051;stroke-dasharray:none;stroke-opacity:1;stop-color:#000000"
     id="path488926-6"
     cx="92.241188"
     cy="53.219006"
     rx="66.149635"
     ry="15.237142" /><path
     id="path476329"
     style="display:inline;fill:#d3b593;fill-opacity:1;stroke-width:4.12153;stop-color:#000000"
     d="m 21.59248,46.132068 c -0.02749,3.7e-5 -1.410766,0.0016 -1.410766,0.0016 -1e-6,35.635094 19.740876,72.624252 72.025578,71.872612 52.284698,-0.75165 72.026098,-36.370843 72.026098,-72.005937 -0.0374,-0.0016 -1.17293,-0.0013 -1.4056,-0.0026 8.9e-4,0.210068 -0.003,0.418677 -0.015,0.624768 -0.0132,0.225355 -0.034,0.448576 -0.0625,0.66921 -0.0285,0.220634 -0.0649,0.438789 -0.10852,0.65474 -0.0437,0.215951 -0.0949,0.429484 -0.15348,0.640788 -0.0586,0.211305 -0.12457,0.42014 -0.19792,0.626835 -0.0733,0.206695 -0.15393,0.411277 -0.24184,0.6134 -0.0879,0.202122 -0.18297,0.401859 -0.28526,0.599446 -0.10228,0.197587 -0.21167,0.392923 -0.32814,0.586011 -0.11647,0.193088 -0.24006,0.383949 -0.37052,0.572575 -0.13046,0.188626 -0.26812,0.374938 -0.41238,0.559139 -0.14426,0.184201 -0.29533,0.366407 -0.4532,0.54622 -0.15788,0.179812 -0.32222,0.357323 -0.49351,0.532784 -0.1713,0.175461 -0.34929,0.348718 -0.53382,0.519865 -0.18453,0.171146 -0.37604,0.340076 -0.57361,0.506945 -0.19757,0.166869 -0.40142,0.331916 -0.61185,0.494544 -0.21042,0.162628 -0.427,0.3232 -0.65009,0.481624 -0.22308,0.158424 -0.45277,0.314448 -0.68833,0.468705 -0.23556,0.154258 -0.47718,0.306693 -0.72502,0.45682 -0.24784,0.150127 -0.50177,0.297867 -0.76171,0.443901 -0.25993,0.146033 -0.52605,0.290037 -0.79788,0.432015 -0.27184,0.141977 -0.54948,0.282171 -0.83303,0.420129 -0.28355,0.137958 -0.57257,0.273752 -0.86764,0.407727 -0.29508,0.133975 -0.59587,0.266329 -0.90227,0.396358 -0.30641,0.13003 -0.61883,0.257836 -0.93638,0.383956 -0.31755,0.126121 -0.64043,0.250339 -0.96893,0.372587 -0.32851,0.122249 -0.66223,0.242288 -1.00149,0.360702 -0.67853,0.236826 -1.37866,0.466106 -2.0991,0.687813 -0.72044,0.221707 -1.46125,0.435972 -2.22209,0.642855 -0.76083,0.206883 -1.54175,0.406577 -2.34146,0.59893 -0.7997,0.192353 -1.6186,0.377403 -2.45566,0.555521 -0.83706,0.178119 -1.69232,0.349485 -2.56522,0.513664 -0.8729,0.164179 -1.76342,0.321271 -2.67064,0.471806 -0.90721,0.150535 -1.83088,0.294313 -2.77089,0.431498 -0.94,0.137185 -1.89624,0.267577 -2.86752,0.391708 -0.97129,0.12413 -1.95795,0.242095 -2.95899,0.353466 -1.00105,0.111372 -2.01653,0.21632 -3.04581,0.315227 -1.02928,0.09891 -2.07198,0.191798 -3.12798,0.278536 -1.05599,0.08674 -2.12533,0.1675 -3.20652,0.242362 -1.08119,0.07486 -2.17451,0.14394 -3.27939,0.207222 -1.10487,0.06328 -2.22108,0.120602 -3.34811,0.1726 -1.12703,0.052 -2.26504,0.09852 -3.41271,0.139526 -1.14768,0.04101 -2.30484,0.07666 -3.47163,0.10697 -1.16679,0.03031 -2.34304,0.05502 -3.52743,0.07493 -1.184393,0.01992 -2.377086,0.03515 -3.57756,0.04496 -1.200473,0.0098 -2.408516,0.01447 -3.623551,0.01447 -1.215034,0 -2.423591,-0.0067 -3.624068,-0.01964 -1.200477,-0.01296 -2.39315,-0.03248 -3.57756,-0.05839 -1.184409,-0.02591 -2.360085,-0.05831 -3.526916,-0.09715 -1.166832,-0.03884 -2.324913,-0.08415 -3.472656,-0.135909 -1.147743,-0.05176 -2.285568,-0.110005 -3.412712,-0.174666 -1.127144,-0.06466 -2.243598,-0.135359 -3.348633,-0.212907 -1.105034,-0.07755 -2.198489,-0.161761 -3.279903,-0.252181 -1.081414,-0.09042 -2.150756,-0.187145 -3.207039,-0.290422 -1.056284,-0.103277 -2.099366,-0.21306 -3.129008,-0.329179 -1.029643,-0.116118 -2.045868,-0.238474 -3.04736,-0.367419 -1.001491,-0.128945 -1.988196,-0.264421 -2.960026,-0.406177 -0.971829,-0.141756 -1.928419,-0.289865 -2.869075,-0.444417 -0.940657,-0.154552 -1.865501,-0.315842 -2.773474,-0.483175 -0.907974,-0.167333 -1.799442,-0.3408 -2.673222,-0.520898 -0.87378,-0.180099 -1.729726,-0.366807 -2.567802,-0.559656 -0.838076,-0.192849 -1.65842,-0.391795 -2.459281,-0.59738 -0.800862,-0.205585 -1.582424,-0.417831 -2.34456,-0.636136 -0.762136,-0.218306 -1.504837,-0.44285 -2.226738,-0.673861 -0.7219,-0.231011 -1.423076,-0.468401 -2.10323,-0.712101 -0.680155,-0.243701 -1.339209,-0.49345 -1.976107,-0.749825 C 33.38337,57.763886 33.070726,57.633787 32.763375,57.502433 32.456023,57.371079 32.154069,57.238526 31.858004,57.104008 31.561938,56.96949 31.271846,56.833444 30.987256,56.695764 30.702665,56.558084 30.423541,56.418542 30.150614,56.277702 29.877688,56.136862 29.610704,55.994336 29.34963,55.850338 29.088556,55.706339 28.833334,55.560827 28.584302,55.413672 28.335269,55.266517 28.092466,55.118014 27.855664,54.967704 27.618862,54.817395 27.3881,54.66538 27.163717,54.511918 26.939333,54.358456 26.721268,54.203443 26.509493,54.04683 26.297718,53.890217 26.092489,53.732203 25.89351,53.572441 c -0.198979,-0.159762 -0.391749,-0.3213 -0.577743,-0.484209 -0.185993,-0.162909 -0.365132,-0.327455 -0.537951,-0.49351 -0.172819,-0.166054 -0.339222,-0.333614 -0.498678,-0.502811 -0.159456,-0.169198 -0.312466,-0.339775 -0.45837,-0.512114 -0.145904,-0.172338 -0.284865,-0.346454 -0.417029,-0.521932 -0.132163,-0.175478 -0.257454,-0.352618 -0.375687,-0.531233 -0.118234,-0.178616 -0.229198,-0.358785 -0.333313,-0.540536 -0.104116,-0.181751 -0.20113,-0.364952 -0.290939,-0.549837 -0.08981,-0.184885 -0.172734,-0.371639 -0.248046,-0.559656 -0.07531,-0.188017 -0.142978,-0.377294 -0.203606,-0.568441 -0.06063,-0.191146 -0.113926,-0.383984 -0.15968,-0.578259 -0.04575,-0.194275 -0.08403,-0.39016 -0.114721,-0.587561 -0.03069,-0.197401 -0.05381,-0.396337 -0.06925,-0.596863 -0.01053,-0.136762 -0.01266,-0.275196 -0.01602,-0.413411 z m 35.419638,64.359452 v 6.53929 c 0,0 3.461172,9.66666 35.195679,9.69619 31.734503,0.0295 35.346003,-9.69619 35.346003,-9.69619 v -7.3661" /><path
     id="path476329-0"
     style="display:inline;fill:#bfa286;fill-opacity:1;stroke-width:4.12153;stop-color:#000000"
     d="m 92.207292,118.00628 c 52.290098,0 72.026098,-36.370843 72.026098,-72.005937 -0.0374,-0.0016 -1.17293,-0.0013 -1.4056,-0.0026 8.9e-4,0.210068 -0.003,0.418677 -0.015,0.624768 -0.0132,0.225355 -0.034,0.448576 -0.0625,0.66921 -0.0285,0.220634 -0.0649,0.438789 -0.10852,0.65474 -0.0437,0.215951 -0.0949,0.429484 -0.15348,0.640788 -0.0586,0.211305 -0.12457,0.42014 -0.19792,0.626835 -0.0733,0.206695 -0.15393,0.411277 -0.24184,0.6134 -0.0879,0.202122 -0.18297,0.401859 -0.28526,0.599446 -0.10228,0.197587 -0.21167,0.392923 -0.32814,0.586011 -0.11647,0.193088 -0.24006,0.383949 -0.37052,0.572575 -0.13046,0.188626 -0.26812,0.374938 -0.41238,0.559139 -0.14426,0.184201 -0.29533,0.366407 -0.4532,0.54622 -0.15788,0.179812 -0.32222,0.357323 -0.49351,0.532784 -0.1713,0.175461 -0.34929,0.348718 -0.53382,0.519865 -0.18453,0.171146 -0.37604,0.340076 -0.57361,0.506945 -0.19757,0.166869 -0.40142,0.331916 -0.61185,0.494544 -0.21042,0.162628 -0.427,0.3232 -0.65009,0.481624 -0.22308,0.158424 -0.45277,0.314448 -0.68833,0.468705 -0.23556,0.154258 -0.47718,0.306693 -0.72502,0.45682 -0.24784,0.150127 -0.50177,0.297867 -0.76171,0.443901 -0.25993,0.146033 -0.52605,0.290037 -0.79788,0.432015 -0.27184,0.141977 -0.54948,0.282171 -0.83303,0.420129 -0.28355,0.137958 -0.57257,0.273752 -0.86764,0.407727 -0.29508,0.133975 -0.59587,0.266329 -0.90227,0.396358 -0.30641,0.13003 -0.61883,0.257836 -0.93638,0.383956 -0.31755,0.126121 -0.64043,0.250339 -0.96893,0.372587 -0.32851,0.122249 -0.66223,0.242288 -1.00149,0.360702 -0.67853,0.236826 -1.37866,0.466106 -2.0991,0.687813 -0.72044,0.221707 -1.46125,0.435972 -2.22209,0.642855 -0.76083,0.206883 -1.54175,0.406577 -2.34146,0.59893 -0.7997,0.192353 -1.6186,0.377403 -2.45566,0.555521 -5.63321,25.649934 -31.87333,51.957004 -47.527868,56.151624 z m 15.390398,-5.11223 c 0,0 0.93459,6.52696 -0.30066,8.38218 -2.27166,3.41181 -16.856114,3.37432 -28.950801,2.16493 -13.130778,-1.313 -21.334111,-6.41035 -21.334111,-6.41035 0,0 3.461172,9.66666 35.195679,9.69619 31.734503,0.0295 35.346003,-9.69619 35.346003,-9.69619 v -7.3661 z" /><path
     id="path473283-9"
     style="display:inline;fill:none;fill-opacity:1;stroke:#f4d2af;stroke-width:2.80729;stroke-dasharray:none;stroke-opacity:1;stop-color:#000000"
     d="m 162.82926,46.362407 c 0.1476,14.727145 -31.66701,19.674192 -70.548168,19.674191 -38.88114,0 -70.69574,-6.640716 -70.69574,-19.674191 0,-15.428433 31.96221,-20.403588 70.84335,-20.403588 38.881148,-10e-7 70.277078,8.084088 70.400558,20.403588 z" /><path
     id="path476861"
     style="display:inline;opacity:0.593085;fill:#e5d2bd;fill-opacity:1;stroke-width:4.69286;stop-color:#000000"
     d="m 54.925861,74.867485 c 1.424712,2.813973 1.319629,8.774839 3.564123,12.045891 4.854013,7.07408 4.666552,10.015514 2.057009,11.686023 C 54.846028,102.24893 47.418838,95.489916 42.720168,85.840536 39.71458,79.668138 33.856696,70.047459 40.181689,67.636137 c 4.581287,-1.74656 13.193961,4.1695 14.744172,7.231348 z m 20.715864,43.286955 c -0.383464,2.01237 -3.807041,1.65636 -7.914953,0.6122 -4.107911,-1.04417 -7.355345,-2.39957 -6.961113,-4.39344 0.442678,-2.23888 3.807039,-1.65636 7.914952,-0.6122 4.107913,1.04416 7.577504,1.1587 6.961114,4.39344 z" /><path
     id="path4364-6"
     style="font-variation-settings:normal;display:inline;vector-effect:none;fill:#e47665;fill-opacity:1;stroke:none;stroke-width:2.81051;stroke-linecap:butt;stroke-linejoin:miter;stroke-miterlimit:4;stroke-dasharray:none;stroke-dashoffset:0;stroke-opacity:1;-inkscape-stroke:none;stop-color:#000000"
     d="m 152.82479,50.445697 c 2.2197,3.723248 -4.3424,5.93024 -9.38069,7.820628 -5.70862,1.242631 -18.513,4.15959 -28.55734,2.779688 -6.05668,-0.309632 -1.39535,-3.715572 -0.2728,-3.221713 12.02812,0.85287 30.97687,-0.626137 31.19574,-8.352061 1.46707,-2.332596 6.94484,-0.26397 7.01509,0.973458 z M 46.326533,43.58158 c -5.46009,1.2083 -12.66932,4.830742 -14.46952,7.199401 -0.89038,5.393393 8.57801,4.806468 11.03943,4.785147 1.23937,-0.0031 3.16598,-1.462008 2.26315,-2.292015 -2.79796,-2.046758 -3.40766,-5.470871 2.68131,-7.2235 1.3932,-0.551828 0.71022,-3.060716 -1.51437,-2.469033 z" /><path
     id="path4366"
     style="font-variation-settings:normal;display:inline;vector-effect:none;fill:#ca5146;fill-opacity:1;stroke:none;stroke-width:2.81051;stroke-linecap:butt;stroke-linejoin:miter;stroke-miterlimit:4;stroke-dasharray:none;stroke-dashoffset:0;stroke-opacity:1;-inkscape-stroke:none;stop-color:#000000"
     d="m 77.748433,48.347611 c 10.84994,4.659187 -4.32278,8.395615 -8.68811,8.466301 -1.93344,-0.0476 -0.66596,0.635175 0.86746,0.816857 3.63755,0.361468 7.76372,-0.765483 10.95598,-1.651848 1.8475,-0.641941 3.71202,-1.567899 4.47272,-3.404807 0.65757,-3.426794 -4.14397,-5.209391 -7.73963,-5.305741 -1.41421,0 -1.72873,0.872536 -1.72873,0.872536 z m 15.77783,6.643629 c -7.87838,2.005539 -6.66347,6.744113 -5.30129,7.411998 3.4147,1.486928 11.873257,1.272047 15.131917,-0.370324 1.63799,-1.012934 1.89041,-1.834052 0.98758,-2.664059 -4.897357,3.799652 -19.378997,2.448358 -9.170967,-3.210737 1.31347,-0.870723 -0.88864,-1.599113 -1.64724,-1.166878 z m -41.96357,-4.721219 c -5.38037,1.500621 -3.39479,4.777593 -2.03261,5.445478 3.4147,1.486928 4.59182,1.590942 7.05324,1.569621 1.23937,-0.0031 3.96322,-0.213002 3.06039,-1.043009 -4.92393,-0.239686 -9.75899,-1.856726 -6.75267,-4.566041 1.31347,-0.870723 -0.16674,-1.838284 -1.32835,-1.406049 z" /><path
     id="path7859-7"
     style="font-variation-settings:normal;display:inline;vector-effect:none;fill:#b2382a;fill-opacity:1;stroke:none;stroke-width:2.81051;stroke-linecap:butt;stroke-linejoin:miter;stroke-miterlimit:4;stroke-dasharray:none;stroke-dashoffset:0;stroke-opacity:1;-inkscape-stroke:none;stop-color:#000000"
     d="m 8.8758005,127.15053 c -0.66005,4.48232 2.7750305,6.39857 2.7750305,6.39857 0,0 15.580519,9.52365 33.590199,9.8857 16.74974,0.33672 41.90731,-2.92193 48.23271,-2.6572 3.45174,0.14447 12.6234,2.31206 15.20114,4.11913 2.25802,1.58295 3.16208,0.10594 3.16208,0.10594 0,0 -0.37689,-1.21593 -1.54202,-2.80087 -1.56899,-0.72173 -5.20708,-2.29598 -10.50634,-3.9796 -7.21576,-2.29251 -28.33677,0.30024 -28.33677,0.30024 0,0 -15.55924,1.729 -28.71298,1.42834 -13.15373,-0.30066 -30.14043,-9.20786 -31.004819,-9.65884 -0.86439,-0.45099 -2.1797705,-1.84107 -2.7435005,-2.89337 -0.0442,-0.0825 -0.0813,-0.16561 -0.11473,-0.24804 z" /><path
     id="path12443"
     style="font-variation-settings:normal;display:inline;vector-effect:none;fill:#c5402d;fill-opacity:1;stroke:none;stroke-width:2.81051;stroke-linecap:butt;stroke-linejoin:miter;stroke-miterlimit:4;stroke-dasharray:none;stroke-dashoffset:0;stroke-opacity:1;-inkscape-stroke:none;stop-color:#000000"
     d="m 78.016686,51.656645 c 0,0 -6.66016,7.06037 -18.56558,2.330093 0,0 -8.20111,-4.687654 -10.85857,-16.221027 0,0 -0.60066,-3.006574 1.63161,-3.591215 l 12.3087,-2.887376 c 0,0 2.85845,-1.0312 4.13403,2.104602 0,0 5.13136,15.23542 11.34981,18.264923 z M 8.8869896,127.06485 c -0.71751,4.54426 2.7637504,6.4842 2.7637504,6.4842 0,0 15.5806,9.5237 33.59029,9.88575 16.74976,0.33672 41.90749,-2.9222 48.2329,-2.65747 3.45174,0.14447 12.62291,2.312 15.20065,4.11907 2.25802,1.58295 3.16237,0.1063 3.16237,0.1063 0,0 -2.05919,-6.78723 -11.87885,-9.24796 -11.24103,-2.81691 -22.28998,-2.29404 -29.69974,-2.27623 -14.52568,0.0349 -19.67577,-2.87502 -32.05757,-13.52958 -8.38559,-7.21581 -13.80753,-7.94804 -16.99469,-7.14972 -1.54335,0.38657 -1.85455,2.49625 -2.89805,3.55174 -1.03938,1.0513 -2.34603,1.34856 -3.29434,2.71503 -0.86696,1.24924 -0.87677,3.10194 -1.65896,4.24945 -3.04104,1.59927 -4.4677604,3.74942 -4.4677604,3.74942 z M 95.339823,60.102384 c -0.2396,-1.230409 0.4967,-4.877125 4.942857,-9.460556 5.72728,-4.958608 10.4118,-5.675998 18.86798,-9.96547 3.29523,-2.630883 8.55868,-5.780029 11.63967,-5.872985 3.18926,-0.09622 8.21153,1.753922 10.73613,5.793261 1.16927,4.092488 1.37858,6.900107 -0.74409,8.875914 -4.22537,3.93304 -13.13333,5.258491 -25.45847,6.484199 -9.61998,0.956686 -16.237057,1.03641 -19.984077,4.145637 z" /><path
     id="path11854-2"
     style="font-variation-settings:normal;display:inline;vector-effect:none;fill:#335614;fill-opacity:1;stroke:none;stroke-width:1.75994;stroke-linecap:butt;stroke-linejoin:miter;stroke-miterlimit:4;stroke-dasharray:none;stroke-dashoffset:0;stroke-opacity:1;-inkscape-stroke:none;stop-color:#000000"
     d="m 52.62365,33.741705 c 0,0 -0.569354,-1.090098 -1.691023,-0.722214 -1.121668,0.367884 -3.272149,1.568886 -4.097662,-0.279624 3.841001,0.418302 3.82421,-3.099643 7.994772,-1.112192 -0.513412,-1.354595 -3.262115,-1.658681 -3.945308,-3.595318 2.326355,1.92554 5.965854,0.867533 7.071392,2.931448 1.18006,-2.695604 -3.113033,-4.691893 -2.696632,-6.4541 5.354333,3.133357 5.518558,6.010471 5.518558,6.010471 0.89554,-1.566017 -1.024625,-3.89242 -1.137287,-4.548881 -0.347063,-1.388203 0.525643,-2.318205 0.9614,-2.699245 -0.751156,2.082885 1.821323,4.127455 1.803306,4.730409 0.566072,0.791257 -0.172954,2.266843 -0.172954,2.266843 l -1.374157,1.774983 c -3.589095,2.856243 -8.234405,1.69742 -8.234405,1.69742 z m 3.46,-3.923851 c -1.636121,-1.061556 -2.245095,-2.638753 -3.553835,-6.980998 -0.237841,-0.351333 -0.443292,0.544437 -0.443292,0.544437 -0.03801,0.280328 1.464345,7.033489 3.566662,8.124689 z M 12.590099,115.4877 c -2.8169026,-1.32872 -4.1190597,-3.69386 -7.1219837,-10.28436 -0.45177,-0.50492 -0.58464,0.95668 -0.58464,0.95668 0,0.45176 3.8267385,10.81586 7.3877327,12.09144 z m 7.588804,-1.17404 c 0,0 -1.266459,-1.50107 -0.04403,-2.9361 1.22243,-1.43503 4.298644,-3.88634 2.066374,-6.22491 -1.70612,5.92952 -6.894929,3.77589 -6.481525,11.14199 -1.691197,-1.57845 -0.477262,-5.82461 -2.925885,-8.00618 1.437895,4.60319 -2.328046,9.34156 0.0531,12.22431 -4.6977684,0.11275 -5.0500839,-7.43978 -7.9063271,-7.89077 1.3905395,9.80895 5.5430781,11.79268 5.5430781,11.79268 -2.8562434,0.37582 -5.1323494,-3.86966 -6.034321,-4.4334 -1.8415252,-1.35295 -3.7440227,-0.626 -4.57083,-0.2126 3.5327219,0.15033 4.9975885,5.18928 5.89956,5.52752 0.8268073,1.31538 3.4547001,1.11613 3.4547001,1.11613 l 3.4546899,-0.95669 z M 136.51486,34.883565 c 1.50329,0.582523 3.28845,-0.770434 3.28845,-0.770434 0.0376,0.319448 -0.86439,1.76636 -0.86439,1.76636 1.61603,-0.544941 4.47227,0.563732 4.47227,0.563732 0,0 -2.36769,0.413405 -2.7623,1.03351 0,0 2.33011,0.413404 3.90856,2.048227 0,0 -1.50329,0.601314 -2.01065,0.582523 0,0 3.06294,2.179765 2.55558,5.543367 -0.45099,-2.236138 -2.85623,-0.864388 -2.85623,-0.864388 l -2.89382,-5.900399 -4.66019,-3.457557 c -0.0752,-1.728778 1.97306,-2.649542 2.38646,-2.78108 -0.75164,1.296584 -0.56374,2.236139 -0.56374,2.236139 z" /><path
     id="path15136"
     style="font-variation-settings:normal;display:inline;vector-effect:none;fill:#dc8a7f;fill-opacity:1;stroke:none;stroke-width:2.81051;stroke-linecap:butt;stroke-linejoin:miter;stroke-miterlimit:4;stroke-dasharray:none;stroke-dashoffset:0;stroke-opacity:1;-inkscape-stroke:none;stop-color:#000000"
     d="m 122.93316,41.28331 c 3.49514,-1.879108 3.88866,-6.513683 7.55401,-5.261502 1.52496,0.520967 1.75393,2.508356 0.29159,3.970773 -1.46234,1.462418 -4.61598,2.399865 -7.07518,2.925549 -3.68262,0.787207 -9.63703,5.127222 -11.19947,3.495143 -1.55704,-1.62644 3.21328,-2.424049 10.42905,-5.129963 z m -66.121844,0.555534 c 0,0 0.31904,-4.03452 -2.15254,-5.182044 -4.56928,-1.351167 -3.13581,2.737183 -3.13581,2.737183 0.58464,2.072818 3.21553,4.783426 3.21553,4.783426 2.60431,5.740112 4.73027,7.387735 5.15547,6.856243 2.09939,-0.611215 -2.39171,-6.404476 -3.08265,-9.194808 z M 46.38374,131.928 c -0.0532,0.93011 0.50491,0.98326 0.93011,1.00983 0.42519,0.0266 4.86315,0.90354 7.04226,1.9931 2.17912,1.08956 5.07575,1.06298 5.15548,-0.15945 0.0797,-1.22243 -2.2057,-1.11613 -2.73719,-1.16928 -0.53149,-0.0532 -4.78342,-1.11614 -5.71353,-1.62105 -0.93012,-0.50492 -3.40155,-1.75393 -4.14564,-0.98326 -0.74409,0.77066 -0.53149,0.93011 -0.53149,0.93011 z M 24.4597,115.2923 c -1.03313,0.77314 -1.30216,2.97635 0.50491,4.25193 1.80708,1.27559 5.76669,1.51476 7.52062,2.5246 1.75392,1.00983 9.31052,7.30394 10.15149,7.44088 1.14271,0.18607 2.39696,-0.36862 0.45176,-2.15254 -2.45968,-1.83497 -5.92613,-4.25193 -7.30801,-5.79326 -1.38188,-1.54132 -8.40815,-8.45128 -11.32077,-6.27161 z" /><path
     id="path15621-1"
     style="font-variation-settings:normal;display:inline;vector-effect:none;fill:#629b4c;fill-opacity:1;stroke:none;stroke-width:2.6753;stroke-linecap:butt;stroke-linejoin:miter;stroke-miterlimit:4;stroke-dasharray:none;stroke-dashoffset:0;stroke-opacity:1;-inkscape-stroke:none;stop-color:#000000"
     d="m 106.08291,31.859707 c -1.38138,0.779845 -4.14417,0.906307 -6.572992,4.067835 -2.428808,3.161526 -3.233356,7.608745 -3.096736,9.126277 l 5.631828,0.632306 3.24854,0.46369 c 0,0 1.97342,-0.80092 2.73242,-2.2763 0.759,-1.47538 0.9108,-3.351219 0.9108,-3.351219 0,0 1.15368,-1.53861 1.66981,-3.013991 0.51613,-1.47538 -0.0911,-4.046755 0.12142,-5.016292 0.21253,-0.969534 0.98671,-2.402761 1.1537,-2.529222 -1.80732,-0.654024 -4.60829,0.756087 -5.79879,1.896916 z m -22.833193,0.61596 c 1.70998,0.695271 5.12996,0.808017 8.13654,3.626679 3.00657,2.818659 4.0025,6.783578 3.83338,8.136535 l -6.9715,0.563732 -4.02129,0.413403 c 0,0 -2.44284,-0.71406 -3.38239,-2.029436 -0.93955,-1.315376 -1.12746,-2.98778 -1.12746,-2.98778 0,0 -1.42812,-1.371748 -2.06702,-2.687124 -0.6389,-1.315376 0.11274,-3.607886 -0.1503,-4.472277 -0.26308,-0.864388 -1.22142,-2.142182 -1.42813,-2.254928 2.23723,-0.583095 5.70448,0.674089 7.17817,1.691196 z" /><path
     id="path15623-0"
     style="font-variation-settings:normal;display:inline;vector-effect:none;fill:#79bb5a;fill-opacity:1;stroke:none;stroke-width:2.6753;stroke-linecap:butt;stroke-linejoin:miter;stroke-miterlimit:4;stroke-dasharray:none;stroke-dashoffset:0;stroke-opacity:1;-inkscape-stroke:none;stop-color:#000000"
     d="m 109.65132,31.859489 c -0.7667,0.867585 -1.89785,1.476352 -3.7087,3.966504 -1.12684,1.549531 -3.0955,4.981092 -4.6718,8.99598 -0.0364,0.09254 -1.599277,-0.263989 -1.599277,-0.263989 l -1.876972,-0.431545 c 0,0 -0.205473,-0.195208 -0.151797,-0.590152 0.04833,-0.365138 0.425053,-0.358309 0.425053,-0.358309 l 2.018953,0.400461 c 0,0 0.23459,0.01662 0.3634,-0.192031 0.17711,-0.223552 6.5e-4,-0.756426 6.5e-4,-0.756426 l -1.381384,-2.044458 c 0,0 -0.381054,-0.787695 0,-1.264609 0.381053,-0.350234 0.651055,0.08432 0.651055,0.08432 0.268351,0.208649 1.352719,1.643992 1.352719,1.643992 0,0 0.4166,0.258695 0.61517,-0.06174 0.17711,-0.238457 0.11351,-0.802417 0.11351,-0.802417 -0.0107,-0.581241 -1.0465,-1.314619 -1.06261,-1.791534 0,0 -0.22278,-0.541386 -0.0188,-0.779844 0.34885,-0.469463 0.71715,0 0.71715,0 l 0.96171,1.266949 c 0,0 0.37995,0.245069 0.6322,-0.149877 0.32202,-0.447107 0.16697,-1.074918 0.16697,-1.074918 l -0.72864,-2.529221 c -0.1771,-1.013444 0.19735,-1.180304 0.19735,-1.180304 0,0 0.47027,-0.253799 0.65274,0.252923 l 1.08912,1.644833 c 0.28983,0.394945 0.46538,0.3445 0.47076,-0.147319 0,0 -0.043,-1.271844 0.0161,-1.368717 0.23077,-0.342782 0.6733,0.775387 0.82894,0.589092 0.48302,-0.417299 -0.28807,-1.870739 0.50625,-2.317847 0.36494,-0.141583 0.74973,0.222405 0.72825,1.183686 0.18248,-0.320428 0.95959,-1.383299 1.53497,-1.900985 0.70103,-0.630741 2.16902,-1.679164 2.28661,-1.423889 0.0902,0.195722 -0.73519,0.954773 -1.12988,1.401388 z m -30.818843,0.615983 c 0.94907,0.773496 2.3493,1.316242 4.59091,3.536338 1.39488,1.381485 3.83184,4.440894 5.7831,8.020368 0.045,0.0825 1.97971,-0.235359 1.97971,-0.235359 l 2.32345,-0.384745 c 0,0 0.25435,-0.174037 0.18791,-0.52615 -0.0598,-0.325539 -0.52616,-0.31945 -0.52616,-0.31945 l -2.49921,0.357031 c 0,0 -0.2904,0.01482 -0.44985,-0.171205 -0.21924,-0.199309 -10e-4,-0.674393 -10e-4,-0.674393 l 1.70999,-1.822736 c 0,0 0.4717,-0.70227 0,-1.127463 -0.4717,-0.312251 -0.80593,0.07517 -0.80593,0.07517 -0.33218,0.186022 -1.67449,1.465702 -1.67449,1.465702 0,0 -0.5157,0.23064 -0.76151,-0.05504 -0.21924,-0.212597 -0.14051,-0.715395 -0.14051,-0.715395 0.0133,-0.518205 1.29544,-1.172049 1.31537,-1.597242 0,0 0.27578,-0.482673 0.0233,-0.69527 -0.43183,-0.41855 -0.88774,0 -0.88774,0 l -1.19048,1.129549 c 0,0 -0.47033,0.21849 -0.78258,-0.133623 -0.39862,-0.398619 -0.2067,-0.958344 -0.2067,-0.958344 l 0.90197,-2.254928 c 0.21924,-0.903536 -0.24429,-1.0523 -0.24429,-1.0523 0,0 -0.58213,-0.226275 -0.80801,0.225493 l -1.3482,1.466452 c -0.35876,0.352113 -0.57608,0.307139 -0.58273,-0.131342 0,0 0.0532,-1.133913 -0.0199,-1.22028 -0.28567,-0.305608 -0.83345,0.691296 -1.02612,0.525205 -0.59792,-0.372044 0.35659,-1.667858 -0.62667,-2.066477 -0.45176,-0.126229 -0.92807,0.198285 -0.9015,1.055315 -0.22588,-0.285677 -1.18785,-1.23328 -1.9001,-1.694824 -0.86778,-0.562337 -2.68497,-1.497058 -2.83053,-1.269468 -0.1116,0.174496 0.91007,0.851228 1.39864,1.249408 z" /></svg>
