<?xml version="1.0" encoding="UTF-8" standalone="no"?>
<!-- Created with Inkscape (http://www.inkscape.org/) -->

<svg
   width="164.23331mm"
   height="164.76247mm"
   viewBox="0 0 164.23331 164.76247"
   version="1.1"
   id="svg392"
   xml:space="preserve"
   xmlns="http://www.w3.org/2000/svg"
   xmlns:svg="http://www.w3.org/2000/svg"><defs
     id="defs389"><style
       id="style6869">.cls-1{fill:#ffe8c2;}.cls-2{fill:none;stroke:#e5af6e;stroke-miterlimit:10;stroke-width:25.51px;}.cls-3{opacity:0.05;}.cls-4{fill:#534741;}</style></defs><g
     id="g39336"
     style="display:inline"><ellipse
       style="display:inline;fill:#e3dbdb;fill-opacity:1;stroke:none;stroke-width:2.48048;stroke-dasharray:none;stroke-opacity:1;stop-color:#000000"
       id="path660254-2-7"
       cx="78.424232"
       cy="80.101173"
       rx="69.805038"
       ry="71.211433" /><ellipse
       style="display:none;opacity:0.231383;fill:#008000;fill-opacity:1;stroke:none;stroke-width:2.48048;stroke-dasharray:none;stroke-opacity:1;stop-color:#000000"
       id="path660254-2-7-92"
       cx="78.424232"
       cy="80.101173"
       rx="69.805038"
       ry="71.211433" /><ellipse
       style="display:inline;opacity:0.231383;fill:#8800aa;fill-opacity:1;stroke:none;stroke-width:2.48048;stroke-dasharray:none;stroke-opacity:1;stop-color:#000000"
       id="path660254-2-7-92-6"
       cx="78.424232"
       cy="80.101173"
       rx="69.805038"
       ry="71.211433" /><path
       id="path660254-2-7-9"
       style="display:inline;fill:#cccccc;stroke-width:2.49463;stop-color:#000000"
       d="m 128.13668,30.530198 c 17.6005,26.073386 16.72233,59.832881 -3.97908,84.665112 -18.61843,22.33358 -48.905625,32.20655 -77.954945,27.40143 30.18804,15.99183 67.150865,8.14946 87.683025,-19.10271 20.93502,-27.786931 18.39891,-67.271396 -5.749,-92.963832 z" /><path
       id="path660254-2-7-9-9"
       style="display:inline;opacity:0.470745;fill:#781b8f;fill-opacity:1;stroke-width:2.49463;stop-color:#000000"
       d="m 128.13668,30.530198 c 17.6005,26.073386 16.72233,59.832881 -3.97908,84.665112 -18.61843,22.33358 -48.90563,32.20655 -77.95495,27.40143 30.18804,15.99183 67.15087,8.14946 87.68303,-19.10271 20.93502,-27.786931 18.39891,-67.271396 -5.749,-92.963832 z" /></g><g
     id="g1032134"
     style="display:inline"
     transform="matrix(0.94897307,0,0,0.93332893,-17.074285,-19.986507)"><path
       id="path1031367"
       style="display:inline;opacity:0.614362;fill:#666666;fill-opacity:1;stroke:none;stroke-width:5.61188;stroke-dasharray:none;stroke-opacity:1;stop-color:#000000"
       d="m 106.15633,-33.212027 a 2.812794,1.2891972 0 0 0 -0.41014,0.669741 2.812794,1.2891972 0 0 0 2.8132,1.289205 2.812794,1.2891972 0 0 0 2.81293,-1.289218 2.812794,1.2891972 0 0 0 -2.8132,-1.289205 2.812794,1.2891972 0 0 0 -2.40279,0.619477 z m 19.65916,1.775227 a 2.812794,1.2891972 0 0 0 -0.40937,0.669867 2.812794,1.2891972 0 0 0 2.8132,1.289205 2.812794,1.2891972 0 0 0 2.81292,-1.289218 2.812794,1.2891972 0 0 0 -2.81319,-1.289205 2.812794,1.2891972 0 0 0 -2.40356,0.619351 z M 99.605191,1.7618277 a 2.812794,1.2891972 0 0 0 -0.409809,0.670188 2.812794,1.2891972 0 0 0 2.812868,1.2887581 2.812794,1.2891972 0 0 0 2.81293,-1.2892177 2.812794,1.2891972 0 0 0 -2.81287,-1.2887582 2.812794,1.2891972 0 0 0 -2.403119,0.6190298 z M 88.537625,12.107946 a 2.812794,1.2891972 75.866074 0 0 -0.323096,2.921278 2.812794,1.2891972 75.866074 0 0 1.937041,2.413006 2.812794,1.2891972 75.866074 0 0 0.562968,-3.04254 2.812794,1.2891972 75.866074 0 0 -1.936715,-2.412559 2.812794,1.2891972 75.866074 0 0 -0.240198,0.120815 z m 6.688367,15.882861 a 2.812794,1.2891972 0 0 0 -0.409696,0.66942 2.812794,1.2891972 0 0 0 2.812758,1.289526 2.812794,1.2891972 0 0 0 2.812926,-1.289218 2.812794,1.2891972 0 0 0 -2.812758,-1.289526 2.812794,1.2891972 0 0 0 -2.40323,0.619798 z M 132.49529,3.8993403 a 2.812794,1.2891972 0 0 0 -0.40937,0.6698665 2.812794,1.2891972 0 0 0 2.81276,1.2895266 2.812794,1.2891972 0 0 0 2.81293,-1.2892178 2.812794,1.2891972 0 0 0 -2.81276,-1.2895265 2.812794,1.2891972 0 0 0 -2.40356,0.6193512 z m 44.28643,-27.1614043 a 2.812794,1.2891972 0 0 0 -0.40969,0.66942 2.812794,1.2891972 0 0 0 2.81275,1.289527 2.812794,1.2891972 0 0 0 2.81293,-1.289218 2.812794,1.2891972 0 0 0 -2.8132,-1.289205 2.812794,1.2891972 0 0 0 -2.40279,0.619476 z m -49.27292,50.12135 a 2.812794,1.2891972 0 0 0 -0.40937,0.669867 2.812794,1.2891972 0 0 0 2.81276,1.289526 2.812794,1.2891972 0 0 0 2.81259,-1.289665 2.812794,1.2891972 0 0 0 -2.81287,-1.288758 2.812794,1.2891972 0 0 0 -2.40311,0.61903 z m -22.60835,29.838196 a 2.812794,1.2891972 0 0 0 -0.40969,0.66942 2.812794,1.2891972 0 0 0 2.81275,1.289526 2.812794,1.2891972 0 0 0 2.81293,-1.289218 2.812794,1.2891972 0 0 0 -2.81276,-1.289526 2.812794,1.2891972 0 0 0 -2.40323,0.619798 z m 80.71059,-58.397309 a 2.812794,1.2891972 0 0 0 -0.40936,0.6698665 2.812794,1.2891972 0 0 0 2.81243,1.28907969 2.812794,1.2891972 0 0 0 2.81292,-1.28921779 2.812794,1.2891972 0 0 0 -2.81287,-1.2887582 2.812794,1.2891972 0 0 0 -2.40312,0.6190298 z m -29.44009,23.276431 a 2.812794,1.2891972 0 0 0 -0.4098,0.670188 2.812794,1.2891972 0 0 0 2.81287,1.288758 2.812794,1.2891972 0 0 0 2.81292,-1.289217 2.812794,1.2891972 0 0 0 -2.81287,-1.288759 2.812794,1.2891972 0 0 0 -2.40312,0.61903 z m -5.9209,28.086555 a 2.812794,1.2891972 0 0 0 -0.40937,0.669867 2.812794,1.2891972 0 0 0 2.81275,1.289526 2.812794,1.2891972 0 0 0 2.8126,-1.289664 2.812794,1.2891972 0 0 0 -2.81287,-1.288759 2.812794,1.2891972 0 0 0 -2.40311,0.61903 z m -32.90612,24.299066 a 2.812794,1.2891972 41.30848 0 0 -0.0631,0.06127 2.812794,1.2891972 41.30848 0 0 1.26171,2.825344 2.812794,1.2891972 41.30848 0 0 2.96414,0.88863 2.812794,1.2891972 41.30848 0 0 -1.26216,-2.825022 2.812794,1.2891972 41.30848 0 0 -2.90056,-0.950221 z m 3.34215,13.451723 a 2.812794,1.2891972 37.664402 0 0 -0.12791,0.123058 2.812794,1.2891972 37.664402 0 0 1.43878,2.739047 2.812794,1.2891972 37.664402 0 0 3.01442,0.698188 2.812794,1.2891972 37.664402 0 0 -1.43878,-2.739047 2.812794,1.2891972 37.664402 0 0 -2.88651,-0.821246 z m 64.27019,-37.60023 a 2.812794,1.2891972 37.664402 0 0 -0.12791,0.123057 2.812794,1.2891972 37.664402 0 0 1.43878,2.739047 2.812794,1.2891972 37.664402 0 0 3.01442,0.698188 2.812794,1.2891972 37.664402 0 0 -1.43878,-2.739046 2.812794,1.2891972 37.664402 0 0 -2.88651,-0.821246 z M 154.3262,74.063462 a 2.812794,1.2891972 0 0 0 -0.40937,0.669867 2.812794,1.2891972 0 0 0 2.81276,1.289526 2.812794,1.2891972 0 0 0 2.8126,-1.289664 2.812794,1.2891972 0 0 0 -2.81244,-1.28908 2.812794,1.2891972 0 0 0 -2.40355,0.619351 z M 172.8465,69.7851 a 2.812794,1.2891972 0 0 0 -0.4097,0.66942 2.812794,1.2891972 0 0 0 2.81276,1.289526 2.812794,1.2891972 0 0 0 2.81292,-1.289217 2.812794,1.2891972 0 0 0 -2.81275,-1.289527 2.812794,1.2891972 0 0 0 -2.40323,0.619798 z"
       transform="rotate(36.183696)" /><path
       id="path1031367-1-3-0-58"
       style="opacity:0.614362;fill:#f2f2f2;fill-opacity:1;stroke:none;stroke-width:5.61188;stroke-dasharray:none;stroke-opacity:1;stop-color:#000000"
       d="m 69.856818,-78.016984 a 2.812794,1.2891972 0 0 0 -0.02606,0.17557 2.812794,1.2891972 0 0 0 2.813127,1.289249 2.812794,1.2891972 0 0 0 2.812841,-1.289229 2.812794,1.2891972 0 0 0 -2.813127,-1.289248 2.812794,1.2891972 0 0 0 -2.78678,1.113658 z m 27.671338,-25.859366 a 2.812794,1.2891972 0 0 0 -0.02606,0.17557 2.812794,1.2891972 0 0 0 2.812594,1.28909 2.812794,1.2891972 0 0 0 2.81269,-1.2887 2.812794,1.2891972 0 0 0 -2.81244,-1.28962 2.812794,1.2891972 0 0 0 -2.786783,1.11366 z m 23.121304,-5.97512 a 2.812794,1.2891972 0 0 0 -0.0261,0.17557 2.812794,1.2891972 0 0 0 2.81313,1.28925 2.812794,1.2891972 0 0 0 2.81231,-1.28938 2.812794,1.2891972 0 0 0 -2.8126,-1.2891 2.812794,1.2891972 0 0 0 -2.78678,1.11366 z M 101.12909,-4.2444776 a 2.812794,1.2891972 0 0 0 -0.0261,0.1755703 2.812794,1.2891972 0 0 0 2.81313,1.2892485 2.812794,1.2891972 0 0 0 2.81231,-1.2893821 2.812794,1.2891972 0 0 0 -2.8126,-1.2890945 2.812794,1.2891972 0 0 0 -2.78678,1.1136578 z m 17.26507,-37.7955304 a 2.812794,1.2891972 0 0 0 -0.0266,0.175416 2.812794,1.2891972 0 0 0 2.81313,1.289249 2.812794,1.2891972 0 0 0 2.81284,-1.289229 2.812794,1.2891972 0 0 0 -2.81313,-1.289248 2.812794,1.2891972 0 0 0 -2.78624,1.113812 z m 16.09985,-53.814824 a 2.812794,1.2891972 0 0 0 -0.0261,0.17557 2.812794,1.2891972 0 0 0 2.81244,1.289618 2.812794,1.2891972 0 0 0 2.81284,-1.289228 2.812794,1.2891972 0 0 0 -2.81259,-1.289095 2.812794,1.2891972 0 0 0 -2.78663,1.113135 z m -4.42435,30.442857 a 2.812794,1.2891972 0 0 0 -0.0261,0.17557 2.812794,1.2891972 0 0 0 2.81312,1.289248 2.812794,1.2891972 0 0 0 2.81269,-1.288705 2.812794,1.2891972 0 0 0 -2.81297,-1.289771 2.812794,1.2891972 0 0 0 -2.78678,1.113658 z m 20.42596,-39.804875 a 2.812794,1.2891972 0 0 0 -0.0262,0.1761 2.812794,1.2891972 0 0 0 2.8126,1.28909 2.812794,1.2891972 0 0 0 2.81284,-1.28923 2.812794,1.2891972 0 0 0 -2.81259,-1.28909 2.812794,1.2891972 0 0 0 -2.78663,1.11313 z m -17.27248,76.103061 a 2.812794,1.2891972 0 0 0 -0.0261,0.17557 2.812794,1.2891972 0 0 0 2.81259,1.289095 2.812794,1.2891972 0 0 0 2.81285,-1.289229 2.812794,1.2891972 0 0 0 -2.8126,-1.289094 2.812794,1.2891972 0 0 0 -2.78678,1.113658 z m -5.76271,26.6389312 a 2.812794,1.2891972 0 0 0 -0.0261,0.1755703 2.812794,1.2891972 0 0 0 2.8126,1.2890945 2.812794,1.2891972 0 0 0 2.81284,-1.2892281 2.812794,1.2891972 0 0 0 -2.8126,-1.2890945 2.812794,1.2891972 0 0 0 -2.78678,1.1136578 z m 23.18679,-36.7148962 a 2.812794,1.2891972 0 0 0 -0.0261,0.17557 2.812794,1.2891972 0 0 0 2.81313,1.289249 2.812794,1.2891972 0 0 0 2.81231,-1.289382 2.812794,1.2891972 0 0 0 -2.81259,-1.289095 2.812794,1.2891972 0 0 0 -2.78678,1.113658 z m 19.07304,-21.571374 a 2.812794,1.2891972 0 0 0 -0.0261,0.17557 2.812794,1.2891972 0 0 0 2.8126,1.289095 2.812794,1.2891972 0 0 0 2.81284,-1.289228 2.812794,1.2891972 0 0 0 -2.81259,-1.289095 2.812794,1.2891972 0 0 0 -2.78678,1.113658 z m 10.43701,25.473697 a 2.812794,1.2891972 0 0 0 -0.0266,0.175417 2.812794,1.2891972 0 0 0 2.81313,1.289248 2.812794,1.2891972 0 0 0 2.81284,-1.289228 2.812794,1.2891972 0 0 0 -2.81313,-1.289249 2.812794,1.2891972 0 0 0 -2.78625,1.113812 z"
       transform="rotate(73.848098)" /><path
       id="path1031367-1-3"
       style="display:inline;opacity:0.614362;fill:#1a1a1a;fill-opacity:1;stroke:none;stroke-width:5.61188;stroke-dasharray:none;stroke-opacity:1;stop-color:#000000"
       d="m -2.3139473,-82.422042 a 2.812794,1.2891972 0 0 0 2.70871655,0.94122 2.812794,1.2891972 0 0 0 2.81251845,-1.289188 2.812794,1.2891972 0 0 0 -2.81265485,-1.289058 2.812794,1.2891972 0 0 0 -2.81327335,1.289006 2.812794,1.2891972 0 0 0 0.1046932,0.34802 z M -28.818145,-151.25352 a 2.812794,1.2891972 0 0 0 2.708242,0.9415 2.812794,1.2891972 0 0 0 2.812993,-1.28947 2.812794,1.2891972 0 0 0 -2.812655,-1.28906 2.812794,1.2891972 0 0 0 -2.813273,1.28901 2.812794,1.2891972 0 0 0 0.104693,0.34802 z m 29.12283952,31.28383 a 2.812794,1.2891972 0 0 0 2.70824168,0.9415 2.812794,1.2891972 0 0 0 2.8132733,-1.289 2.812794,1.2891972 0 0 0 -2.8134097,-1.28924 2.812794,1.2891972 0 0 0 -2.8125185,1.28919 2.812794,1.2891972 0 0 0 0.10441322,0.34755 z M 32.457047,-78.669947 a 2.812794,1.2891972 0 0 0 2.708241,0.941504 2.812794,1.2891972 0 0 0 2.812994,-1.289473 2.812794,1.2891972 0 0 0 -2.81313,-1.288773 2.812794,1.2891972 0 0 0 -2.812519,1.289188 2.812794,1.2891972 0 0 0 0.104414,0.347554 z m -47.30721,-83.187903 a 2.812794,1.2891972 0 0 0 2.708242,0.94151 2.812794,1.2891972 0 0 0 2.8129934,-1.28948 2.812794,1.2891972 0 0 0 -2.8126544,-1.28906 2.812794,1.2891972 0 0 0 -2.812994,1.28948 2.812794,1.2891972 0 0 0 0.104413,0.34755 z m 37.629247,57.01466 a 2.812794,1.2891972 0 0 0 2.708717,0.94122 2.812794,1.2891972 0 0 0 2.812518,-1.28919 2.812794,1.2891972 0 0 0 -2.812655,-1.28906 2.812794,1.2891972 0 0 0 -2.812798,1.28872 2.812794,1.2891972 0 0 0 0.104218,0.34831 z m -4.081754,-46.47218 a 2.812794,1.2891972 0 0 0 2.708242,0.94151 2.812794,1.2891972 0 0 0 2.812993,-1.28947 2.812794,1.2891972 0 0 0 -2.812655,-1.28906 2.812794,1.2891972 0 0 0 -2.812993,1.28947 2.812794,1.2891972 0 0 0 0.104413,0.34755 z m 32.431183,52.140493 a 2.812794,1.2891972 0 0 0 2.708241,0.941504 2.812794,1.2891972 0 0 0 2.812994,-1.289473 2.812794,1.2891972 0 0 0 -2.812935,-1.289524 2.812794,1.2891972 0 0 0 -2.812994,1.289472 2.812794,1.2891972 0 0 0 0.104694,0.348021 z M -1.9885128,-193.57286 a 2.812794,1.2891972 0 0 0 2.70824162,0.9415 2.812794,1.2891972 0 0 0 2.81299338,-1.28947 2.812794,1.2891972 0 0 0 -2.81312979,-1.28877 2.812794,1.2891972 0 0 0 -2.81251851,1.28918 2.812794,1.2891972 0 0 0 0.1044133,0.34756 z M 73.062324,-89.346996 a 2.812794,1.2891972 0 0 0 2.708242,0.941504 2.812794,1.2891972 0 0 0 2.812993,-1.289473 2.812794,1.2891972 0 0 0 -2.812654,-1.289058 2.812794,1.2891972 0 0 0 -2.812994,1.289473 2.812794,1.2891972 0 0 0 0.104413,0.347554 z M 52.21678,-135.06166 a 2.812794,1.2891972 0 0 0 2.708716,0.94122 2.812794,1.2891972 0 0 0 2.812799,-1.28872 2.812794,1.2891972 0 0 0 -2.812935,-1.28952 2.812794,1.2891972 0 0 0 -2.812993,1.28947 2.812794,1.2891972 0 0 0 0.104413,0.34755 z m -2.483006,-24.20084 a 2.812794,1.2891972 0 0 0 2.708716,0.94122 2.812794,1.2891972 0 0 0 2.812799,-1.28873 2.812794,1.2891972 0 0 0 -2.812935,-1.28952 2.812794,1.2891972 0 0 0 -2.812519,1.28919 2.812794,1.2891972 0 0 0 0.103939,0.34784 z m -23.175555,-48.69046 a 2.812794,1.2891972 0 0 0 2.708716,0.94122 2.812794,1.2891972 0 0 0 2.812799,-1.28873 2.812794,1.2891972 0 0 0 -2.812935,-1.28952 2.812794,1.2891972 0 0 0 -2.812519,1.28919 2.812794,1.2891972 0 0 0 0.103939,0.34784 z m 16.87641,22.67452 a 2.812794,1.2891972 0 0 0 2.708522,0.94197 2.812794,1.2891972 0 0 0 2.812993,-1.28947 2.812794,1.2891972 0 0 0 -2.81341,-1.28924 2.812794,1.2891972 0 0 0 -2.812518,1.28919 2.812794,1.2891972 0 0 0 0.104413,0.34755 z m 53.844705,52.44567 a 2.812794,1.2891972 0 0 0 2.708241,0.9415 2.812794,1.2891972 0 0 0 2.812995,-1.28947 2.812794,1.2891972 0 0 0 -2.812656,-1.28906 2.812794,1.2891972 0 0 0 -2.812993,1.28947 2.812794,1.2891972 0 0 0 0.104413,0.34756 z m -34.625855,-65.05615 a 2.812794,1.2891972 0 0 0 2.708242,0.94151 2.812794,1.2891972 0 0 0 2.812518,-1.28919 2.812794,1.2891972 0 0 0 -2.812655,-1.28906 2.812794,1.2891972 0 0 0 -2.812518,1.28919 2.812794,1.2891972 0 0 0 0.104413,0.34755 z m 22.14439,13.23423 a 2.812794,1.2891972 0 0 0 2.708242,0.94151 2.812794,1.2891972 0 0 0 2.813273,-1.28901 2.812794,1.2891972 0 0 0 -2.812935,-1.28953 2.812794,1.2891972 0 0 0 -2.812993,1.28948 2.812794,1.2891972 0 0 0 0.104413,0.34755 z"
       transform="rotate(120.94113)" /></g></svg>
