<?xml version="1.0" encoding="UTF-8" standalone="no"?>
<!-- Created with Inkscape (http://www.inkscape.org/) -->

<svg
   width="164.23331mm"
   height="164.76247mm"
   viewBox="0 0 164.23331 164.76247"
   version="1.1"
   id="svg392"
   xml:space="preserve"
   xmlns="http://www.w3.org/2000/svg"
   xmlns:svg="http://www.w3.org/2000/svg"><defs
     id="defs389"><style
       id="style6869">.cls-1{fill:#ffe8c2;}.cls-2{fill:none;stroke:#e5af6e;stroke-miterlimit:10;stroke-width:25.51px;}.cls-3{opacity:0.05;}.cls-4{fill:#534741;}</style></defs><g
     id="g39336"
     style="display:inline;stroke:none;stroke-opacity:1"><path
       id="path660254-2-7-9-9-7"
       style="display:inline;opacity:1;fill:#7f505d;fill-opacity:1;stroke:none;stroke-width:2.49463;stroke-opacity:1;stop-color:#000000"
       d="m 128.13668,30.530198 c 17.6005,26.073386 16.72233,59.832881 -3.97908,84.665112 -18.61843,22.33357 -48.90563,32.20654 -77.95495,27.40142 30.18804,15.99184 67.15087,8.14946 87.68303,-19.10271 20.93502,-27.786921 18.39891,-67.271386 -5.749,-92.963822 z" /><path
       style="opacity:1;fill:#d2a8a8;fill-opacity:1;stroke:none;stroke-width:0.790259;stroke-opacity:1"
       d="M 273.10048,570.5687 C 194.14159,562.95588 123.28767,520.53857 79.050594,454.39906 54.693286,417.98209 41.059436,381.124 34.6183,334.27966 c -1.614524,-11.74193 -1.345237,-53.87742 0.423801,-66.31235 4.728959,-33.24081 13.125002,-60.3315 27.452557,-88.57846 14.680396,-28.9426 30.193617,-49.62683 55.743592,-74.32456 22.29193,-21.548373 53.02308,-41.072699 83.67299,-53.159698 81.81428,-32.26402 175.61901,-20.243068 246.76083,31.622077 14.24496,10.385127 36.98816,30.498201 36.10401,31.928781 -0.24147,0.39071 1.97639,4.53377 4.92857,9.20681 6.52935,10.33538 17.88306,32.63626 21.83678,42.89167 12.12838,31.45939 17.72063,57.8259 19.19559,90.5041 l 0.53676,11.89227 -2.19253,2.3324 c -6.29254,6.69391 -6.86131,16.42898 -0.87204,14.92577 2.03426,-0.51056 2.04478,-0.48867 1.59773,3.32457 -3.14634,26.83715 -7.32963,44.84207 -15.48885,66.66414 -13.0956,35.02456 -32.84883,65.80575 -60.1834,93.78292 -15.28761,15.64701 -22.80154,22.08372 -25.38443,21.74525 -2.24571,-0.29428 -6.60618,3.31551 -8.69879,7.20127 -3.00627,5.58229 -34.92128,25.01227 -57.80404,35.19132 -11.81516,5.2558 -12.16259,5.35215 -12.16259,3.37318 0,-0.88328 -0.70802,-1.98489 -1.57338,-2.44802 -2.31183,-1.23725 -5.8212,0.86594 -9.13015,5.47175 -1.5127,2.10557 -3.3683,4.00484 -4.12357,4.2206 -0.75527,0.21576 -6.17404,1.86033 -12.04171,3.6546 -20.53644,6.27981 -46.18351,10.94497 -70.33307,12.79346 -14.71909,1.12665 -46.65303,0.48885 -60.45483,-1.20741 -5.21572,-0.64103 -11.43901,-1.37232 -13.82954,-1.62511 l -4.34643,-0.4596 8.29772,4.28455 c 24.00467,12.3949 56.42809,21.95626 86.46034,25.49633 11.30019,1.33202 35.47235,1.79758 51.04477,0.98314 6.61823,-0.34614 8.57424,-0.28637 5.92695,0.1811 -5.66136,0.99971 -44.5256,1.53782 -52.88146,0.73219 z m -30.15221,-51.81996 c 1.62323,-1.62323 1.6334,-8.14513 0.0187,-12.0096 -4.50826,-10.78977 -11.99352,-7.20323 -8.68916,4.16338 1.24926,4.2973 4.74636,9.08806 6.63399,9.08806 0.43703,0 1.35343,-0.55882 2.03644,-1.24184 z m 58.89928,-22.82314 c 2.9903,-3.60309 -6.72935,-13.00323 -13.50373,-13.05985 -4.73467,-0.0396 -4.75284,4.36753 -0.0366,8.87823 5.19778,4.97125 11.3167,6.86094 13.54033,4.18162 z M 161.22046,475.73067 c 2.7438,-1.95376 6.3145,-8.91026 6.3145,-12.30202 0,-1.3827 -0.5687,-2.98597 -1.26378,-3.56283 -3.07822,-2.5547 -11.06886,5.31414 -11.93212,11.75024 -0.24008,1.78993 -0.22531,3.80479 0.0328,4.47747 0.65694,1.71198 4.19823,1.52435 6.84857,-0.36286 z m 77.73144,-5.93292 c 1.7983,-1.79831 0.24055,-5.31107 -4.01722,-9.05891 -3.53493,-3.11156 -6.96224,-4.35372 -10.5951,-3.83996 -4.99556,0.70646 -0.65732,8.83279 6.64505,12.44742 3.94375,1.95213 6.3313,2.08742 7.96727,0.45145 z m 133.2324,-0.33181 c 1.93871,-3.62252 0.45033,-11.92378 -2.83872,-15.8326 -4.19604,-4.9867 -7.9993,-1.96464 -7.12604,5.66236 0.95331,8.32615 7.41964,14.92583 9.96476,10.17024 z m -51.4971,-11.27363 c 2.88714,-2.88714 -0.73121,-16.22645 -4.91909,-18.13458 -5.73747,-2.61416 -6.78176,8.10827 -1.56994,16.11942 2.00419,3.08065 4.61329,3.8909 6.48903,2.01516 z M 106.75437,442.41554 c 0.54957,-1.02687 0.74117,-3.3968 0.47955,-5.93165 -1.18852,-11.51566 -10.822292,-16.99437 -10.822292,-6.15461 0,9.1813 7.319692,17.7349 10.342742,12.08626 z m 120.81249,-28.26775 c 2.35183,-4.39444 -0.84854,-15.15759 -5.19942,-17.4861 -1.89525,-1.01431 -2.17803,-0.94772 -3.64027,0.85731 -2.63065,3.24734 -0.97033,12.06562 3.15833,16.77441 1.61087,1.83722 4.66203,1.75902 5.68136,-0.14562 z m 193.38142,-5.53719 c 5.08638,-3.10143 9.05041,-13.27042 6.26054,-16.0603 -3.84468,-3.84467 -12.32272,5.47892 -12.32272,13.55171 0,4.26285 1.89745,5.04803 6.06218,2.50859 z M 124.83316,397.55235 c 1.89623,-3.54313 0.20752,-13.39252 -2.8814,-16.80572 -1.69272,-1.87045 -4.7279,-1.81435 -5.75585,0.10637 -2.00802,3.75201 -0.38438,13.19709 2.89073,16.81604 1.68459,1.86146 4.72084,1.79981 5.74652,-0.11669 z m 154.76827,-7.3073 c 0.48232,-4.17444 -8.49257,-11.71087 -13.94608,-11.71087 -6.74232,0 -4.05916,7.31743 4.61331,12.58128 1.86323,1.13091 3.79754,1.60854 5.92695,1.46352 2.7761,-0.18905 3.19084,-0.47326 3.40582,-2.33393 z m 50.70515,-10.62842 c 4.7073,-3.96093 7.82634,-12.71827 5.39555,-15.14907 -2.5003,-2.50029 -6.86602,-0.0524 -10.16531,5.69983 -2.19274,3.82295 -3.14324,9.6517 -1.79395,11.00098 1.14739,1.14739 4.21896,0.42123 6.56371,-1.55174 z m -251.673458,-9.7859 c 1.078397,-4.90991 -1.851755,-13.06447 -5.570794,-15.5034 -1.371509,-0.89944 -1.881704,-0.87525 -3.358601,0.1592 -3.395361,2.37821 -1.829164,12.26408 2.653085,16.74633 2.201077,2.20108 2.914131,2.51031 4.200735,1.82174 0.852308,-0.45615 1.786316,-1.90689 2.075575,-3.22387 z m 96.776628,-4.67901 c 2.35891,-4.40765 -0.95007,-15.68657 -5.16558,-17.60727 -1.86968,-0.85189 -2.27069,-0.75385 -3.5923,0.87827 -1.79547,2.21731 -1.87464,4.8138 -0.30767,10.09034 2.00232,6.74255 7.03685,10.42931 9.06555,6.63866 z m 278.88786,-15.33976 c 2.50348,-3.01651 1.24093,-12.07564 -2.31255,-16.59316 -1.74297,-2.21582 -4.53198,-2.74068 -6.1208,-1.15187 -1.43801,1.43802 -1.10234,8.51423 0.57961,12.21857 2.56516,5.64954 5.83943,7.95355 7.85374,5.52646 z m -202.94288,-6.60959 c 2.70412,-2.27536 6.2492,-8.9678 6.26206,-11.82155 0.0319,-7.06239 -7.52208,-4.78681 -11.77353,3.54673 -1.58434,3.10555 -2.2311,8.78411 -1.12631,9.8889 1.15889,1.1589 4.22972,0.41217 6.63778,-1.61408 z M 72.32778,323.09329 c 3.914589,-3.43705 6.051005,-7.88624 5.753191,-11.98127 -0.212043,-2.91564 -0.48778,-3.33468 -2.335009,-3.54851 -5.69126,-0.65882 -13.829371,13.24201 -9.996393,17.07499 1.562807,1.56281 3.57733,1.0896 6.578211,-1.54521 z m 282.85924,1.43109 c 3.23841,-2.36798 -1.51965,-9.39563 -8.35098,-12.33439 -6.55846,-2.82137 -9.83263,-0.88766 -7.3512,4.34157 1.45813,3.07277 5.66326,6.51501 9.73846,7.97171 3.64318,1.30227 4.20888,1.30427 5.96372,0.0211 z m -57.56608,-6.32047 c 2.122,-6.6556 -2.25583,-17.11514 -7.16353,-17.11514 -4.02227,0 -4.19296,9.32513 -0.28639,15.64609 2.59339,4.1962 6.34458,4.93589 7.44992,1.46905 z m 192.84495,0.66392 c 1.83708,-4.78735 -8.51485,-13.80074 -14.82523,-12.90829 -1.46062,0.20657 -1.93421,0.82173 -2.12207,2.75635 -0.46007,4.73804 7.2969,11.23164 13.50347,11.30417 1.95382,0.0228 3.14597,-0.37603 3.44383,-1.15223 z m -357.38691,-2.1929 c 2.14557,-3.46368 -5.95653,-11.48503 -12.32577,-12.20294 -4.62773,-0.52161 -5.9262,0.88102 -4.33688,4.68478 2.82707,6.76615 14.00448,11.80938 16.66265,7.51816 z m 273.77957,-13.49668 c 3.23909,-6.75815 -5.05728,-21.39407 -9.03987,-15.94755 -1.70514,2.33191 -1.33781,8.19582 0.80118,12.78977 2.86049,6.14349 6.19509,7.4216 8.23869,3.15778 z m -200.99369,-2.89034 c 1.0784,-4.90991 -1.85176,-13.06446 -5.57079,-15.5034 -1.37152,-0.89943 -1.88171,-0.87525 -3.35861,0.15921 -3.39535,2.37821 -1.82916,12.26407 2.65309,16.74633 2.20108,2.20108 2.91413,2.5103 4.20074,1.82174 0.8523,-0.45615 1.78632,-1.90689 2.07557,-3.22388 z M 57.530873,281.17424 c 1.683053,-1.68306 1.12671,-8.65674 -1.037008,-12.99875 -4.770385,-9.57291 -11.094971,-5.24837 -7.982496,5.45817 2.072101,7.12777 6.080862,10.47922 9.019504,7.54058 z m 204.013457,-1.77967 c 2.93104,-3.53168 -6.71391,-13.07721 -13.21339,-13.07721 -4.87984,0 -5.39926,3.34408 -1.23532,7.95306 4.93106,5.4581 12.07029,7.98998 14.44871,5.12415 z m -117.27717,-6.31975 c 4.53279,-4.82417 6.28434,-10.98387 3.82318,-13.44504 -4.50117,-4.50116 -15.44085,10.28499 -11.76271,15.89855 1.69294,2.58376 3.82581,1.92465 7.93953,-2.45351 z m 218.03459,-1.2058 c 3.63909,-2.24908 6.90436,-8.61133 6.59751,-12.855 -0.21435,-2.96453 -0.4889,-3.39366 -2.30618,-3.60456 -5.52774,-0.64153 -13.74776,13.35228 -10.02811,17.07193 1.34154,1.34154 2.83287,1.18235 5.73678,-0.61237 z m 78.63511,-28.41722 c 2.14669,-4.01114 0.0299,-13.55063 -3.7531,-16.91423 -3.56515,-3.16984 -6.89343,0.45391 -6.0421,6.5785 1.15623,8.31816 7.36741,14.87209 9.7952,10.33573 z m 69.5133,-4.32933 c 2.14744,-2.58751 -2.34302,-8.3684 -9.18899,-11.82965 -7.16693,-3.62351 -10.61405,1.04201 -5.37243,7.27133 3.8521,4.57795 12.33998,7.235 14.56142,4.55832 z M 324.97607,224.12955 c 1.64836,-2.52799 -2.77917,-8.40149 -8.40978,-11.1563 -6.91733,-3.38432 -10.76854,-1.58182 -8.18696,3.8318 3.01127,6.3147 14.07226,11.19614 16.59674,7.3245 z M 165.80114,213.64546 c 0.46978,-4.83809 -8.33242,-11.76138 -14.23237,-11.19433 -8.21381,0.78945 2.88597,14.53023 11.22463,13.89536 2.47122,-0.18815 2.79167,-0.47592 3.00774,-2.70103 z m 47.06356,-14.50942 c 6.10986,-5.36452 8.19592,-15.7959 3.15885,-15.7959 -2.94213,0 -5.69841,2.22506 -8.23536,6.64815 -2.19273,3.82295 -3.14323,9.65169 -1.79394,11.00097 1.21303,1.21304 4.33831,0.37004 6.87045,-1.85322 z m 243.00855,-9.0237 c 4.33093,-2.23962 8.72303,-10.93173 7.66131,-15.16198 -0.61064,-2.43293 -4.11764,-2.55488 -7.05383,-0.24527 -4.34999,3.4217 -7.74035,11.76684 -6.05777,14.91078 1.02511,1.91542 2.45453,2.04563 5.45029,0.49647 z m -342.96616,-7.90588 c 4.44747,-2.29988 9.01654,-12.09054 7.21408,-15.45846 -2.05655,-3.8427 -8.36095,-0.2006 -11.56573,6.68161 -3.61429,7.76164 -1.58805,11.84838 4.35165,8.77685 z M 397.4726,170.74795 c 1.97865,-3.69715 0.36736,-11.35432 -3.25821,-15.48361 -2.86742,-3.26581 -4.13368,-3.42571 -5.89089,-0.74386 -2.23063,3.40437 -0.42398,11.93453 3.46773,16.37308 1.61088,1.83723 4.66204,1.75902 5.68137,-0.14561 z M 165.04667,159.25034 c 4.12026,-4.69272 5.47025,-13.74293 2.34217,-15.70176 -4.41432,-2.76428 -11.60736,9.28871 -9.8121,16.44161 0.78148,3.11364 4.4013,2.75513 7.46993,-0.73985 z m 136.24167,-1.0095 c 4.50974,-4.28964 6.8962,-12.92217 4.19261,-15.16595 -2.59363,-2.15251 -9.07247,3.32785 -11.46034,9.69415 -2.82188,7.52338 1.60608,10.85714 7.26773,5.4718 z m -67.40308,-8.44879 c 2.94825,-3.55242 -6.72037,-13.0772 -13.27469,-13.0772 -4.95746,0 -5.08545,4.28584 -0.26564,8.89558 5.19778,4.97126 11.3167,6.86094 13.54033,4.18162 z m 216.84748,-22.5696 c 3.51712,-3.08808 6.19389,-8.78518 5.88233,-12.51972 -0.21574,-2.586 -0.49281,-2.90562 -2.70553,-3.12099 -2.88374,-0.28068 -6.48939,2.83877 -9.02411,7.80724 -1.49995,2.94015 -2.09893,8.61092 -1.02315,9.68669 1.21303,1.21304 4.33831,0.37003 6.87046,-1.85322 z m -71.04768,-16.85833 c 4.98435,-3.64465 -8.9956,-16.032893 -15.00369,-13.295424 -1.07381,0.489261 -1.95238,1.448275 -1.95238,2.131141 0,3.781313 5.17607,9.069223 10.86446,11.099213 3.78048,1.34912 4.32757,1.35496 6.09161,0.0651 z m -99.59461,-7.29174 c 0.79516,-0.79516 1.24184,-2.6519 1.24184,-5.162063 0,-6.623518 -3.82194,-13.352578 -7.58393,-13.352578 -5.11294,0 -3.35884,14.613141 2.22344,18.523121 2.19228,1.53553 2.57544,1.53474 4.11865,-0.008 z M 190.21074,82.664226 c 4.75003,-3.99688 7.4047,-13.154668 4.50977,-15.557249 -4.10342,-3.40554 -14.16585,10.321173 -11.8981,16.230849 0.71403,1.860728 4.8215,1.486245 7.38833,-0.6736 z m 136.87065,-19.28292 c 2.43205,-4.544316 -9.2315,-14.009349 -15.36609,-12.469666 -4.07997,1.024009 -1.26467,7.602474 4.93657,11.53518 4.3718,2.772513 9.21366,3.206344 10.42952,0.934486 z"
       id="path9896"
       transform="scale(0.26458333)" /></g><path
     id="path1031367-1-3-58"
     style="display:inline;opacity:0.614362;fill:#1a1a1a;stroke-width:5.28145;stop-color:#000000"
     d="m 85.877097,100.83951 a 1.2179479,2.6370429 31.590571 0 1 0.323109,-2.870334 1.2179479,2.6370429 31.590571 0 1 2.421735,-1.633022 1.2179479,2.6370429 31.590571 0 1 -0.3231,2.870337 1.2179479,2.6370429 31.590571 0 1 -2.421744,1.633019 z M 94.552216,72.1804 a 1.2179479,2.6370429 31.590571 0 1 0.3231,-2.870337 1.2179479,2.6370429 31.590571 0 1 2.421744,-1.633017 1.2179479,2.6370429 31.590571 0 1 -0.323109,2.870332 1.2179479,2.6370429 31.590571 0 1 -2.421735,1.633022 z m 44.487754,3.719112 a 1.2179479,2.6370429 31.590571 0 1 0.32311,-2.870331 1.2179479,2.6370429 31.590571 0 1 2.42173,-1.633023 1.2179479,2.6370429 31.590571 0 1 -0.3231,2.870337 1.2179479,2.6370429 31.590571 0 1 -2.42174,1.633017 z m -2.22439,29.752968 a 1.2179479,2.6370429 31.590571 0 1 0.32311,-2.87033 1.2179479,2.6370429 31.590571 0 1 2.42173,-1.63302 1.2179479,2.6370429 31.590571 0 1 -0.3231,2.87034 1.2179479,2.6370429 31.590571 0 1 -2.42174,1.63301 z M 48.729821,22.300418 a 1.2179479,2.6370429 31.590571 0 1 0.323104,-2.870334 1.2179479,2.6370429 31.590571 0 1 2.421739,-1.633019 1.2179479,2.6370429 31.590571 0 1 -0.323105,2.870333 1.2179479,2.6370429 31.590571 0 1 -2.421738,1.63302 z m 6.005841,30.846828 a 1.2179479,2.6370429 31.590571 0 1 0.323105,-2.870334 1.2179479,2.6370429 31.590571 0 1 2.421739,-1.633019 1.2179479,2.6370429 31.590571 0 1 -0.323106,2.870333 1.2179479,2.6370429 31.590571 0 1 -2.421738,1.63302 z M 117.68584,34.114091 a 1.2179479,2.6370429 31.590571 0 1 0.3231,-2.870336 1.2179479,2.6370429 31.590571 0 1 2.42175,-1.633017 1.2179479,2.6370429 31.590571 0 1 -0.32311,2.870331 1.2179479,2.6370429 31.590571 0 1 -2.42174,1.633022 z M 17.588382,85.963025 a 1.2179479,2.6370429 31.590571 0 1 0.323104,-2.870334 1.2179479,2.6370429 31.590571 0 1 2.421739,-1.633019 1.2179479,2.6370429 31.590571 0 1 -0.323105,2.870333 1.2179479,2.6370429 31.590571 0 1 -2.421738,1.63302 z M 28.710324,48.334267 a 1.2179479,2.6370429 31.590571 0 1 0.323105,-2.870334 1.2179479,2.6370429 31.590571 0 1 2.421739,-1.633019 1.2179479,2.6370429 31.590571 0 1 -0.323105,2.870333 1.2179479,2.6370429 31.590571 0 1 -2.421739,1.63302 z m 12.456574,77.882773 a 1.2179479,2.6370429 31.590571 0 1 0.323105,-2.87034 1.2179479,2.6370429 31.590571 0 1 2.421738,-1.63302 1.2179479,2.6370429 31.590571 0 1 -0.3231,2.87034 1.2179479,2.6370429 31.590571 0 1 -2.421743,1.63302 z m 48.269232,14.87649 a 1.2179479,2.6370429 31.590571 0 1 0.3231,-2.87034 1.2179479,2.6370429 31.590571 0 1 2.421744,-1.63301 1.2179479,2.6370429 31.590571 0 1 -0.323109,2.87033 1.2179479,2.6370429 31.590571 0 1 -2.421735,1.63302 z m 21.57655,-11.37614 a 1.2179479,2.6370429 31.590571 0 1 0.32311,-2.87033 1.2179479,2.6370429 31.590571 0 1 2.42174,-1.63303 1.2179479,2.6370429 31.590571 0 1 -0.3231,2.87034 1.2179479,2.6370429 31.590571 0 1 -2.42175,1.63302 z M 110.1257,108.281 a 1.2179479,2.6370429 31.590571 0 1 0.3231,-2.87034 1.2179479,2.6370429 31.590571 0 1 2.42174,-1.63301 1.2179479,2.6370429 31.590571 0 1 -0.32311,2.87033 1.2179479,2.6370429 31.590571 0 1 -2.42173,1.63302 z m 9.37598,-57.896679 a 1.2179479,2.6370429 31.590571 0 1 0.32311,-2.870331 1.2179479,2.6370429 31.590571 0 1 2.42173,-1.633022 1.2179479,2.6370429 31.590571 0 1 -0.32311,2.870331 1.2179479,2.6370429 31.590571 0 1 -2.42173,1.633022 z M 78.012964,42.414736 a 1.2179479,2.6370429 31.590571 0 1 0.323104,-2.870334 1.2179479,2.6370429 31.590571 0 1 2.42174,-1.633019 1.2179479,2.6370429 31.590571 0 1 -0.323105,2.870334 1.2179479,2.6370429 31.590571 0 1 -2.421739,1.633019 z M 36.289856,73.121072 a 1.2179479,2.6370429 31.590571 0 1 0.323105,-2.870333 1.2179479,2.6370429 31.590571 0 1 2.421739,-1.63302 1.2179479,2.6370429 31.590571 0 1 -0.323106,2.870333 1.2179479,2.6370429 31.590571 0 1 -2.421738,1.63302 z m 28.677989,18.092475 a 1.2179479,2.6370429 31.590571 0 1 0.3231,-2.870337 1.2179479,2.6370429 31.590571 0 1 2.421744,-1.633016 1.2179479,2.6370429 31.590571 0 1 -0.323109,2.870331 1.2179479,2.6370429 31.590571 0 1 -2.421735,1.633022 z" /><path
     id="path1031367-1-3-0-6"
     style="display:inline;opacity:1;fill:#fee6e6;fill-opacity:1;stroke-width:5.28145;stop-color:#000000"
     d="m 63.968674,137.42558 a 2.6287222,1.2218031 73.451554 0 1 -1.91767,-2.18691 2.6287222,1.2218031 73.451554 0 1 0.432573,-2.85635 2.6287222,1.2218031 73.451554 0 1 1.917672,2.18691 2.6287222,1.2218031 73.451554 0 1 -0.432575,2.85635 z m 20.464378,-15.97032 a 2.6287222,1.2218031 73.451554 0 1 -1.917674,-2.18692 2.6287222,1.2218031 73.451554 0 1 0.432574,-2.85636 2.6287222,1.2218031 73.451554 0 1 1.917671,2.18691 2.6287222,1.2218031 73.451554 0 1 -0.432571,2.85637 z m -24.697869,-11.4979 a 2.6287222,1.2218031 73.451554 0 1 -1.917674,-2.18692 2.6287222,1.2218031 73.451554 0 1 0.432574,-2.85636 2.6287222,1.2218031 73.451554 0 1 1.917671,2.18691 2.6287222,1.2218031 73.451554 0 1 -0.432571,2.85637 z M 116.22546,64.718254 a 2.6287222,1.2218031 73.451554 0 1 -1.91767,-2.186912 2.6287222,1.2218031 73.451554 0 1 0.43257,-2.856362 2.6287222,1.2218031 73.451554 0 1 1.91768,2.186913 2.6287222,1.2218031 73.451554 0 1 -0.43258,2.856361 z M 73.799157,27.448734 a 2.6287222,1.2218031 73.451554 0 1 -1.917672,-2.186912 2.6287222,1.2218031 73.451554 0 1 0.432573,-2.856361 2.6287222,1.2218031 73.451554 0 1 1.917671,2.186912 2.6287222,1.2218031 73.451554 0 1 -0.432572,2.856361 z M 45.951129,96.952793 a 2.6287222,1.2218031 73.451554 0 1 -1.917671,-2.186909 2.6287222,1.2218031 73.451554 0 1 0.432574,-2.856357 2.6287222,1.2218031 73.451554 0 1 1.917671,2.186908 2.6287222,1.2218031 73.451554 0 1 -0.432574,2.856358 z M 78.204757,84.701577 a 2.6287222,1.2218031 73.451554 0 1 -1.917674,-2.186918 2.6287222,1.2218031 73.451554 0 1 0.432574,-2.856359 2.6287222,1.2218031 73.451554 0 1 1.91767,2.18691 2.6287222,1.2218031 73.451554 0 1 -0.43257,2.856367 z M 14.8097,74.63808 a 2.6287222,1.2218031 73.451554 0 1 -1.917672,-2.186911 2.6287222,1.2218031 73.451554 0 1 0.432573,-2.856362 2.6287222,1.2218031 73.451554 0 1 1.917672,2.186912 2.6287222,1.2218031 73.451554 0 1 -0.432573,2.856361 z m 5.338533,24.064902 a 2.6287222,1.2218031 73.451554 0 1 -1.917672,-2.186911 2.6287222,1.2218031 73.451554 0 1 0.432573,-2.856362 2.6287222,1.2218031 73.451554 0 1 1.917672,2.186912 2.6287222,1.2218031 73.451554 0 1 -0.432573,2.856361 z M 107.12181,80.763687 a 2.6287222,1.2218031 73.451554 0 1 -1.91767,-2.186908 2.6287222,1.2218031 73.451554 0 1 0.43257,-2.856358 2.6287222,1.2218031 73.451554 0 1 1.91767,2.186909 2.6287222,1.2218031 73.451554 0 1 -0.43257,2.856357 z m -2.44683,-35.222266 a 2.6287222,1.2218031 73.451554 0 1 -1.91767,-2.186912 2.6287222,1.2218031 73.451554 0 1 0.43257,-2.856362 2.6287222,1.2218031 73.451554 0 1 1.91767,2.186913 2.6287222,1.2218031 73.451554 0 1 -0.43257,2.856361 z M 53.81871,80.3024 a 2.6287222,1.2218031 73.451554 0 1 -1.917672,-2.186912 2.6287222,1.2218031 73.451554 0 1 0.432574,-2.856361 2.6287222,1.2218031 73.451554 0 1 1.917671,2.186912 2.6287222,1.2218031 73.451554 0 1 -0.432573,2.856361 z m 66.06096,12.375618 a 2.6287222,1.2218031 73.451554 0 1 -1.91768,-2.186919 2.6287222,1.2218031 73.451554 0 1 0.43258,-2.856357 2.6287222,1.2218031 73.451554 0 1 1.91767,2.186908 2.6287222,1.2218031 73.451554 0 1 -0.43257,2.856368 z" /><path
     id="path1031367-1-3-0-72"
     style="display:inline;opacity:0.614362;fill:#4d4d4d;stroke-width:5.28145;stop-color:#000000"
     d="m 27.708901,117.42921 a 2.6287222,1.2218031 73.451554 0 1 -1.917671,-2.18691 2.6287222,1.2218031 73.451554 0 1 0.432574,-2.85636 2.6287222,1.2218031 73.451554 0 1 1.917671,2.18691 2.6287222,1.2218031 73.451554 0 1 -0.432574,2.85636 z M 100.5259,29.036874 a 2.6540986,1.2101209 35.492782 0 1 -2.87671,-0.578718 2.6540986,1.2101209 35.492782 0 1 -1.432166,-2.521066 2.6540986,1.2101209 35.492782 0 1 2.876715,0.578719 2.6540986,1.2101209 35.492782 0 1 1.432161,2.521065 z m 29.13948,55.349274 a 2.6540986,1.2101209 35.492782 0 1 -2.87671,-0.578714 2.6540986,1.2101209 35.492782 0 1 -1.43216,-2.521067 2.6540986,1.2101209 35.492782 0 1 2.87671,0.578723 2.6540986,1.2101209 35.492782 0 1 1.43216,2.521058 z M 35.128738,83.904871 a 2.6540986,1.2101209 35.492782 0 1 -2.876714,-0.578718 2.6540986,1.2101209 35.492782 0 1 -1.432166,-2.521065 2.6540986,1.2101209 35.492782 0 1 2.876714,0.578718 2.6540986,1.2101209 35.492782 0 1 1.432166,2.521065 z M 86.462217,16.866604 a 2.6540986,1.2101209 35.492782 0 1 -2.876714,-0.578718 2.6540986,1.2101209 35.492782 0 1 -1.432165,-2.521064 2.6540986,1.2101209 35.492782 0 1 2.876714,0.578717 2.6540986,1.2101209 35.492782 0 1 1.432165,2.521065 z m 48.520703,46.411101 a 2.6540986,1.2101209 35.492782 0 1 -2.87672,-0.578722 2.6540986,1.2101209 35.492782 0 1 -1.43217,-2.521064 2.6540986,1.2101209 35.492782 0 1 2.87671,0.578718 2.6540986,1.2101209 35.492782 0 1 1.43218,2.521068 z M 61.850277,39.603361 a 2.6540986,1.2101209 35.492782 0 1 -2.876714,-0.57872 2.6540986,1.2101209 35.492782 0 1 -1.432166,-2.521064 2.6540986,1.2101209 35.492782 0 1 2.876714,0.578719 2.6540986,1.2101209 35.492782 0 1 1.432166,2.521065 z M 43.80151,56.948921 a 2.6540986,1.2101209 35.492782 0 1 -2.876714,-0.578718 2.6540986,1.2101209 35.492782 0 1 -1.432167,-2.521066 2.6540986,1.2101209 35.492782 0 1 2.876716,0.578719 2.6540986,1.2101209 35.492782 0 1 1.432165,2.521065 z m 30.003139,46.645499 a 2.6540986,1.2101209 35.492782 0 1 -2.87671,-0.57871 2.6540986,1.2101209 35.492782 0 1 -1.432167,-2.52107 2.6540986,1.2101209 35.492782 0 1 2.876715,0.57872 2.6540986,1.2101209 35.492782 0 1 1.432162,2.52106 z m -10.547987,20.62716 a 2.6540986,1.2101209 35.492782 0 1 -2.876712,-0.57872 2.6540986,1.2101209 35.492782 0 1 -1.432165,-2.52106 2.6540986,1.2101209 35.492782 0 1 2.876711,0.57871 2.6540986,1.2101209 35.492782 0 1 1.432166,2.52107 z m 16.582419,6.98174 a 2.6540986,1.2101209 35.492782 0 1 -2.876713,-0.57873 2.6540986,1.2101209 35.492782 0 1 -1.432164,-2.52105 2.6540986,1.2101209 35.492782 0 1 2.876712,0.57871 2.6540986,1.2101209 35.492782 0 1 1.432165,2.52107 z m -47.398736,-25.6771 a 2.6273604,1.2224364 77.178002 0 1 -1.77247,-2.30237 2.6273604,1.2224364 77.178002 0 1 0.616285,-2.82355 2.6273604,1.2224364 77.178002 0 1 1.772472,2.30238 2.6273604,1.2224364 77.178002 0 1 -0.616287,2.82354 z m 9.764211,-62.698453 a 1.2204872,2.6315563 22.564796 0 1 -0.131857,-2.884958 1.2204872,2.6315563 22.564796 0 1 2.136005,-1.981532 1.2204872,2.6315563 22.564796 0 1 0.131856,2.884957 1.2204872,2.6315563 22.564796 0 1 -2.136004,1.981533 z m 51.870622,42.871014 a 2.6540986,1.2101209 35.492782 0 1 -2.876711,-0.578712 2.6540986,1.2101209 35.492782 0 1 -1.432166,-2.521067 2.6540986,1.2101209 35.492782 0 1 2.876712,0.578713 2.6540986,1.2101209 35.492782 0 1 1.432165,2.521066 z M 69.162028,73.885102 a 2.6540986,1.2101209 35.492782 0 1 -2.876714,-0.578718 2.6540986,1.2101209 35.492782 0 1 -1.432166,-2.521066 2.6540986,1.2101209 35.492782 0 1 2.876713,0.578719 2.6540986,1.2101209 35.492782 0 1 1.432167,2.521065 z m 28.839791,50.632968 a 2.6287222,1.2218031 73.451554 0 1 -1.917674,-2.18692 2.6287222,1.2218031 73.451554 0 1 0.432575,-2.85636 2.6287222,1.2218031 73.451554 0 1 1.91767,2.18691 2.6287222,1.2218031 73.451554 0 1 -0.432571,2.85637 z M 85.84495,59.336777 a 2.6540986,1.2101209 35.492782 0 1 -2.876713,-0.578717 2.6540986,1.2101209 35.492782 0 1 -1.432166,-2.521066 2.6540986,1.2101209 35.492782 0 1 2.876714,0.578719 2.6540986,1.2101209 35.492782 0 1 1.432165,2.521064 z" /></svg>
