<?xml version="1.0" encoding="UTF-8" standalone="no"?>
<!-- Created with Inkscape (http://www.inkscape.org/) -->

<svg
   width="164.23331mm"
   height="164.76247mm"
   viewBox="0 0 164.23331 164.76247"
   version="1.1"
   id="svg392"
   xml:space="preserve"
   xmlns="http://www.w3.org/2000/svg"
   xmlns:svg="http://www.w3.org/2000/svg"><defs
     id="defs389"><style
       id="style6869">.cls-1{fill:#ffe8c2;}.cls-2{fill:none;stroke:#e5af6e;stroke-miterlimit:10;stroke-width:25.51px;}.cls-3{opacity:0.05;}.cls-4{fill:#534741;}</style></defs><g
     id="g39336"
     style="display:inline"><ellipse
       style="display:inline;opacity:0.231383;fill:#fff6d5;fill-opacity:1;stroke:none;stroke-width:2.48048;stroke-dasharray:none;stroke-opacity:1;stop-color:#000000"
       id="path660254-2-7-92"
       cx="78.424232"
       cy="80.101173"
       rx="69.805038"
       ry="71.211433" /><path
       style="display:none;fill:#aec6a8;fill-opacity:1;stroke-width:0.790259"
       d="M 273.10048,570.56646 C 211.54981,564.65155 155.50205,538.08449 111.42472,493.93094 69.80389,452.23813 43.631229,398.63524 35.015297,337.4407 c -1.996324,-14.17887 -1.977895,-55.44892 0.03106,-69.54282 4.631882,-32.4952 12.285294,-57.54577 26.196117,-85.74312 13.753909,-27.8793 29.498568,-49.93732 50.971396,-71.41015 62.19875,-62.198757 149.6338,-88.724079 235.81666,-71.540106 37.08274,7.393915 72.21336,23.145748 103.48419,46.400137 13.33669,9.917763 34.1008,28.492599 33.29971,29.788769 -0.2119,0.34286 2.29404,4.93225 5.56874,10.19866 24.6932,39.7118 38.28447,84.29112 40.38412,132.4597 l 0.5181,11.88602 -2.19835,2.33865 c -6.30994,6.71269 -6.83959,16.56956 -0.80899,15.05599 1.09225,-0.27414 1.9859,-0.39214 1.9859,-0.26222 0,2.70956 -2.91643,22.55236 -4.44149,30.21888 -10.06323,50.58842 -35.64061,97.96884 -73.37493,135.92232 -13.54575,13.62442 -20.46042,19.36362 -23.32955,19.36362 -2.72648,0 -6.9238,3.37705 -9.02084,7.25792 -3.2772,6.06495 -34.21237,24.90678 -58.55354,35.6635 -10.90514,4.81914 -11.45876,4.96383 -11.45876,2.99467 0,-0.88328 -0.72929,-1.99627 -1.62067,-2.47332 -2.31144,-1.23705 -6.07211,1.1254 -9.04783,5.68384 -2.26798,3.47428 -2.71343,3.73819 -10.27337,6.08646 -20.20297,6.27547 -40.62756,10.61517 -62.43048,13.26491 -16.26453,1.97665 -59.15209,2.01245 -74.28436,0.062 -5.65036,-0.7283 -12.05146,-1.52854 -14.22467,-1.77834 l -3.9513,-0.45417 3.9513,2.14573 c 7.77951,4.22462 22.70045,10.57413 34.11055,14.51554 25.68631,8.87285 49.62828,13.36198 78.10626,14.64497 9.68046,0.43613 16.0866,0.18832 39.9081,-1.54379 4.973,-0.3616 4.92264,-0.33683 -1.58052,0.77703 -8.05874,1.38031 -45.23662,2.14492 -55.64736,1.14447 z m -30.35555,-51.88375 c 3.96804,-3.59102 -0.62902,-18.44861 -5.70815,-18.44861 -5.14539,0 -4.05851,13.87768 1.42468,18.19076 2.40859,1.8946 2.47075,1.89834 4.28347,0.25785 z m 59.44468,-22.85967 c 0.89932,-2.34358 0.48031,-3.48628 -2.48379,-6.77381 -6.34834,-7.04104 -16.39485,-8.42097 -14.79123,-2.03163 0.56406,2.24736 5.20257,6.92921 8.66672,8.74767 3.16736,1.66267 7.98005,1.69496 8.6083,0.0578 z M 161.22046,475.73067 c 2.7438,-1.95376 6.3145,-8.91026 6.3145,-12.30202 0,-1.3827 -0.5687,-2.98597 -1.26378,-3.56283 -3.07822,-2.5547 -11.06886,5.31414 -11.93212,11.75024 -0.24008,1.78993 -0.22531,3.80479 0.0328,4.47747 0.65694,1.71198 4.19823,1.52435 6.84857,-0.36286 z m 77.77651,-5.978 c 1.51521,-1.51521 1.51441,-1.4706 0.0772,-4.2499 -3.92958,-7.5989 -17.01133,-12.20889 -17.01133,-5.99477 0,3.99419 9.11025,11.48413 13.97065,11.48588 0.9469,3.5e-4 2.28047,-0.5582 2.96347,-1.24121 z m 133.18733,-0.28673 c 1.93871,-3.62252 0.45033,-11.92378 -2.83872,-15.8326 -4.19604,-4.9867 -7.9993,-1.96464 -7.12604,5.66236 0.95331,8.32615 7.41964,14.92583 9.96476,10.17024 z m -51.26967,-12.03547 c 1.76855,-3.30457 -0.34667,-12.93645 -3.53045,-16.07626 -1.60108,-1.57896 -3.4742,-1.87867 -4.9574,-0.79322 -2.88343,2.11018 -1.33288,12.40269 2.48983,16.52747 2.31634,2.49938 4.7686,2.6392 5.99802,0.34201 z M 106.75437,442.41554 c 0.54957,-1.02687 0.74117,-3.3968 0.47955,-5.93165 -1.18852,-11.51566 -10.822292,-16.99437 -10.822292,-6.15461 0,9.1813 7.319692,17.7349 10.342742,12.08626 z m 120.90967,-28.44933 c 2.20667,-4.1232 -1.13779,-15.0788 -5.27991,-17.29559 -4.0281,-2.15577 -6.19674,3.6801 -3.98036,10.71128 2.23393,7.08684 7.12871,10.56717 9.26027,6.58431 z m 193.28424,-5.35561 c 5.08638,-3.10143 9.05041,-13.27042 6.26054,-16.0603 -3.84468,-3.84467 -12.32272,5.47892 -12.32272,13.55171 0,4.26285 1.89745,5.04803 6.06218,2.50859 z M 124.83316,397.55235 c 1.91992,-3.58741 0.30185,-13.28828 -2.78545,-16.69971 -1.77647,-1.96298 -4.80115,-1.96279 -5.8518,3.6e-4 -2.00802,3.75201 -0.38438,13.19709 2.89073,16.81604 1.68459,1.86146 4.72084,1.79981 5.74652,-0.11669 z m 154.63351,-5.98067 c 2.31851,-6.04192 -13.07014,-16.70853 -17.10001,-11.85283 -1.96245,2.36461 2.51179,8.69047 8.29713,11.73081 3.10291,1.63065 8.19687,1.70127 8.80288,0.12202 z m 51.14666,-12.25653 c 4.70064,-4.12722 7.53611,-12.40027 5.0888,-14.84759 -2.5003,-2.50029 -6.86602,-0.0524 -10.16531,5.69983 -2.19274,3.82295 -3.14324,9.6517 -1.79395,11.00098 1.21303,1.21303 4.33832,0.37003 6.87046,-1.85322 z m -251.9522,-9.75273 c 0.897203,-4.7825 -2.549176,-13.70232 -6.0098,-15.55439 -2.259666,-1.20933 -4.689035,1.5983 -4.689035,5.41915 0,7.24964 5.249431,15.41804 8.716102,13.56274 0.819089,-0.43836 1.711319,-1.98073 1.982733,-3.4275 z m 96.8458,-4.59228 c 2.24346,-4.19194 -1.65528,-16.39882 -5.6417,-17.66406 -5.49604,-1.74437 -5.94129,10.57473 -0.60199,16.65586 2.73721,3.11751 4.92569,3.4709 6.24369,1.0082 z m 278.79068,-15.15818 c 1.63325,-1.96794 1.85779,-5.83019 0.59209,-10.18406 -1.55858,-5.3613 -3.94367,-8.50928 -6.44714,-8.50928 -6.98688,0 -2.71579,18.78926 4.47679,19.69409 0.27276,0.0343 0.89298,-0.41602 1.37826,-1.00075 z m -202.94288,-6.60959 c 2.70412,-2.27536 6.2492,-8.9678 6.26206,-11.82155 0.0194,-4.31583 -2.79816,-5.51824 -6.79469,-2.8996 -3.04373,1.99432 -6.61584,8.77853 -6.62458,12.5815 -0.004,1.77479 0.22966,3.46397 0.51943,3.75373 1.15889,1.1589 4.22972,0.41217 6.63778,-1.61408 z M 72.32778,323.09329 c 3.914589,-3.43705 6.051005,-7.88624 5.753191,-11.98127 -0.212043,-2.91564 -0.48778,-3.33468 -2.335009,-3.54851 -5.69126,-0.65882 -13.829371,13.24201 -9.996393,17.07499 1.562807,1.56281 3.57733,1.0896 6.578211,-1.54521 z m 282.85924,1.43109 c 3.23841,-2.36798 -1.51965,-9.39563 -8.35098,-12.33439 -6.6039,-2.84092 -9.83223,-0.88683 -7.31135,4.42554 1.51281,3.18801 5.36023,6.3412 9.57073,7.84378 3.78047,1.34911 4.32757,1.35496 6.0916,0.065 z m -58.2076,-5.4177 c 2.266,-2.266 0.53054,-12.5812 -2.70388,-16.07119 -2.31777,-2.50092 -5.5201,-2.58675 -6.29201,-0.16864 -2.62207,8.21398 4.38045,20.85528 8.99589,16.23983 z m 193.48647,-0.23885 c 1.33169,-3.47032 -3.61692,-9.61178 -9.57986,-11.88904 -4.8827,-1.86472 -7.06772,-1.34954 -7.36744,1.7371 -0.46007,4.73804 7.2969,11.23164 13.50347,11.30417 1.95382,0.0228 3.14597,-0.37603 3.44383,-1.15223 z m -358.1621,-0.87303 c 3.07404,-1.17962 0.33304,-7.23556 -4.92291,-10.87657 -3.99485,-2.76741 -9.57773,-3.65313 -11.14245,-1.76776 -1.46556,1.76589 0.077,5.28342 3.71937,8.48148 4.43801,3.89661 9.01662,5.44044 12.34599,4.16285 z m 274.57177,-14.88818 c 2.22215,-4.56184 -1.76809,-15.69155 -6.00723,-16.7555 -2.74344,-0.68856 -4.15819,1.36668 -4.15819,6.04068 0,6.20155 4.91655,13.97897 8.29772,13.12603 0.43464,-0.10964 1.27511,-1.19468 1.8677,-2.41121 z m -201.0107,-2.81871 c 1.0784,-4.90991 -1.85176,-13.06446 -5.57079,-15.5034 -1.37152,-0.89943 -1.88171,-0.87525 -3.35861,0.15921 -3.43645,2.40699 -1.43712,13.47547 3.12798,17.31674 2.85998,2.40653 4.99938,1.67911 5.80142,-1.97255 z M 57.530873,281.17424 c 2.51293,-2.51293 0.419628,-12.38257 -3.446206,-16.24841 -2.223542,-2.22354 -2.905874,-2.51472 -4.230962,-1.80556 -2.308847,1.23566 -2.813377,5.45318 -1.282363,10.71969 1.932827,6.64869 6.173611,10.12019 8.959531,7.33428 z m 204.013457,-1.77967 c 3.06091,-3.68817 -6.76239,-13.07721 -13.68202,-13.07721 -2.6618,0 -3.6722,0.99564 -3.6722,3.61853 0,1.6714 5.41235,7.33983 8.63489,9.04344 3.39894,1.79687 7.414,1.98807 8.71933,0.41524 z m -117.27717,-6.31975 c 4.53279,-4.82417 6.28434,-10.98387 3.82318,-13.44504 -3.57763,-3.57763 -12.25789,5.63603 -12.45681,13.22229 -0.14715,5.61189 3.48202,5.70553 8.63363,0.22275 z m 218.03459,-1.2058 c 3.63909,-2.24908 6.90436,-8.61133 6.59751,-12.855 -0.21435,-2.96453 -0.4889,-3.39366 -2.30618,-3.60456 -5.52774,-0.64153 -13.74776,13.35228 -10.02811,17.07193 1.34154,1.34154 2.83287,1.18235 5.73678,-0.61237 z m 78.21133,-28.13049 c 2.99547,-2.99546 0.38113,-14.60019 -3.92474,-17.42152 -6.37826,-4.17918 -7.57328,8.99095 -1.47358,16.24003 2.28648,2.71733 3.57949,3.00032 5.39832,1.18149 z m 69.93708,-4.61606 c 0.71379,-0.86005 0.66867,-1.72182 -0.19651,-3.75373 -2.88324,-6.77137 -13.99817,-11.8212 -16.65705,-7.56778 -2.28143,3.64962 6.87017,12.43785 12.95212,12.43785 1.63623,0 3.39188,-0.50235 3.90144,-1.11634 z M 324.97607,224.12955 c 1.64836,-2.52799 -2.77917,-8.40149 -8.40978,-11.1563 -6.91733,-3.38432 -10.76854,-1.58182 -8.18696,3.8318 3.01127,6.3147 14.07226,11.19614 16.59674,7.3245 z M 165.79871,213.67791 c 0.47108,-4.83662 -7.99172,-11.70542 -13.82895,-11.22422 -2.43054,0.20037 -3.05455,0.59057 -3.26008,2.03856 -0.66876,4.71142 8.33724,12.29175 14.08372,11.85424 2.46266,-0.1875 2.79216,-0.48007 3.00531,-2.66858 z m 47.06599,-14.54187 c 6.10986,-5.36452 8.19592,-15.7959 3.15885,-15.7959 -2.94213,0 -5.69841,2.22506 -8.23536,6.64815 -2.19273,3.82295 -3.14323,9.65169 -1.79394,11.00097 1.21303,1.21304 4.33831,0.37004 6.87045,-1.85322 z m 243.00855,-9.0237 c 4.33093,-2.23962 8.72303,-10.93173 7.66131,-15.16198 -0.61064,-2.43293 -4.11764,-2.55488 -7.05383,-0.24527 -4.34999,3.4217 -7.74035,11.76684 -6.05777,14.91078 1.02511,1.91542 2.45453,2.04563 5.45029,0.49647 z m -342.96616,-7.90588 c 4.44747,-2.29988 9.01654,-12.09054 7.21408,-15.45846 -2.05655,-3.8427 -8.36095,-0.2006 -11.56573,6.68161 -3.61429,7.76164 -1.58805,11.84838 4.35165,8.77685 z M 397.4726,170.74795 c 1.98228,-3.70394 0.0332,-12.1397 -3.70692,-16.04351 -2.59227,-2.70575 -3.76389,-2.74535 -5.44218,-0.18396 -3.17545,4.84634 1.7528,17.75603 6.77832,17.75603 0.85399,0 1.92084,-0.68785 2.37078,-1.52856 z M 164.57928,159.82993 c 4.14639,-4.32893 6.11711,-13.70692 3.36107,-15.99423 -4.45677,-3.69879 -12.27902,8.52287 -10.35679,16.18167 0.70174,2.79594 4.22865,2.70144 6.99572,-0.18744 z m 136.70906,-1.58909 c 4.50974,-4.28964 6.8962,-12.92217 4.19261,-15.16595 -2.59363,-2.15251 -9.07247,3.32785 -11.46034,9.69415 -2.82188,7.52338 1.60608,10.85714 7.26773,5.4718 z m -67.40308,-8.44879 c 2.94825,-3.55242 -6.72037,-13.0772 -13.27469,-13.0772 -4.95746,0 -5.08545,4.28584 -0.26564,8.89558 5.19778,4.97126 11.3167,6.86094 13.54033,4.18162 z m 216.87645,-22.59504 c 3.64711,-3.2022 6.17646,-8.54073 5.86077,-12.36993 -0.22453,-2.72354 -0.47897,-3.0279 -2.71294,-3.24534 -2.88374,-0.28068 -6.48939,2.83877 -9.02411,7.80724 -1.49995,2.94015 -2.09893,8.61092 -1.02315,9.68669 1.2173,1.21732 4.34251,0.36635 6.89943,-1.87866 z m -71.07665,-16.83289 c 4.98435,-3.64465 -8.9956,-16.032893 -15.00369,-13.295424 -1.07381,0.489261 -1.95238,1.448275 -1.95238,2.131141 0,3.606753 4.59583,8.502103 10.30836,10.980183 3.42654,1.48643 4.81411,1.52485 6.64771,0.1841 z m -99.59461,-7.29174 c 1.62324,-1.62323 1.63341,-8.145138 0.0187,-12.009599 -2.29076,-5.482572 -6.03625,-7.999105 -8.1374,-5.467383 -2.60729,3.141597 -0.50343,13.557173 3.42016,16.932092 2.46274,2.11836 3.05622,2.18719 4.69851,0.54489 z M 190.21074,82.664226 c 4.75003,-3.99688 7.4047,-13.154668 4.50977,-15.557249 -4.10342,-3.40554 -14.16585,10.321173 -11.8981,16.230849 0.71403,1.860728 4.8215,1.486245 7.38833,-0.6736 z m 136.87065,-19.28292 c 2.43205,-4.544316 -9.2315,-14.009349 -15.36609,-12.469666 -4.07997,1.024009 -1.26467,7.602474 4.93657,11.53518 4.3718,2.772513 9.21366,3.206344 10.42952,0.934486 z"
       id="path2900"
       transform="scale(0.26458333)" /><path
       style="display:inline;fill:#ffd959;fill-opacity:0.231373;stroke-width:0.790259"
       d="m 280.1469,569.2961 c -30.30546,-3.16807 -47.76336,-6.98074 -71.709,-15.66072 -10.76637,-3.90267 -31.69797,-13.08334 -31.12831,-13.65299 0.18989,-0.1899 5.26952,0.29884 11.28807,1.08608 15.59901,2.04039 66.16119,2.02575 81.27587,-0.0236 21.12601,-2.86432 57.75631,-11.29736 65.19849,-15.01 l 2.11276,-1.05399 -0.35167,3.66 c -0.26654,2.77388 -0.0296,3.92734 0.97882,4.76422 1.15102,0.95526 1.71449,0.89782 4.17684,-0.4258 2.99366,-1.60921 6.89729,-6.95899 7.68079,-10.52623 0.36996,-1.68443 1.29283,-2.39967 4.58806,-3.55579 14.93749,-5.24082 51.94112,-25.90604 61.64624,-34.42725 l 2.59888,-2.28185 -0.0303,4.08381 c -0.029,3.9183 0.0617,4.09432 2.23919,4.34315 4.26551,0.48744 10.71097,-7.81159 10.7525,-13.84467 0.01,-1.38694 -0.35676,-2.75292 -0.81401,-3.03552 -0.45726,-0.2826 0.87631,-1.58443 2.96347,-2.89296 5.23247,-3.28043 30.00003,-28.38986 38.43487,-38.96537 30.17388,-37.83169 48.84436,-80.07688 56.23075,-127.23174 1.08932,-6.95428 1.98151,-13.83228 1.98263,-15.28444 0.002,-1.87628 0.80724,-3.58097 2.78472,-5.8912 3.09005,-3.61003 4.60787,-7.66953 4.20227,-11.23928 -0.2275,-2.00234 -0.64604,-2.39313 -2.785,-2.60031 -2.41218,-0.23365 -2.53463,-0.41506 -2.93361,-4.34643 -0.22897,-2.25642 -0.62699,-8.19218 -0.88448,-13.19057 -2.17458,-42.2152 -15.252,-84.7492 -37.85397,-123.11906 -3.29566,-5.59482 -5.99211,-10.47123 -5.99211,-10.83646 0,-1.16602 3.95182,2.94002 10.65443,11.07021 32.9597,39.97978 52.74663,85.43194 60.20487,138.29536 2.0488,14.52166 2.04915,56.33381 6.1e-4,70.65878 -4.53041,31.68007 -12.48004,57.84809 -25.82911,85.02229 -26.4234,53.78917 -71.41623,98.37795 -124.42001,123.30268 -25.50284,11.99257 -57.86408,21.42079 -75.74998,22.06921 -15.6594,0.56771 -48.63212,1.04161 -51.5136,0.74039 z M 522.43388,398.23901 c 2.64569,-1.88389 5.85774,-7.10875 6.61981,-10.76807 1.13772,-5.46308 -2.89802,-7.53647 -7.36051,-3.78153 -2.78445,2.34295 -6.44415,9.28713 -6.44415,12.22758 0,4.07041 3.25303,5.12174 7.18485,2.32202 z"
       id="path3040"
       transform="scale(0.26458333)" /></g><path
     id="path1031367-1-3-58"
     style="display:inline;opacity:0.614362;fill:#1a1a1a;stroke-width:5.28145;stop-color:#000000"
     d="m 85.877097,100.83951 a 1.2179479,2.6370429 31.590571 0 1 0.323109,-2.870334 1.2179479,2.6370429 31.590571 0 1 2.421735,-1.633022 1.2179479,2.6370429 31.590571 0 1 -0.3231,2.870337 1.2179479,2.6370429 31.590571 0 1 -2.421744,1.633019 z M 94.552216,72.1804 a 1.2179479,2.6370429 31.590571 0 1 0.3231,-2.870337 1.2179479,2.6370429 31.590571 0 1 2.421744,-1.633017 1.2179479,2.6370429 31.590571 0 1 -0.323109,2.870332 1.2179479,2.6370429 31.590571 0 1 -2.421735,1.633022 z m 44.487754,3.719112 a 1.2179479,2.6370429 31.590571 0 1 0.32311,-2.870331 1.2179479,2.6370429 31.590571 0 1 2.42173,-1.633023 1.2179479,2.6370429 31.590571 0 1 -0.3231,2.870337 1.2179479,2.6370429 31.590571 0 1 -2.42174,1.633017 z m -2.22439,29.752968 a 1.2179479,2.6370429 31.590571 0 1 0.32311,-2.87033 1.2179479,2.6370429 31.590571 0 1 2.42173,-1.63302 1.2179479,2.6370429 31.590571 0 1 -0.3231,2.87034 1.2179479,2.6370429 31.590571 0 1 -2.42174,1.63301 z M 48.729821,22.300418 a 1.2179479,2.6370429 31.590571 0 1 0.323104,-2.870334 1.2179479,2.6370429 31.590571 0 1 2.421739,-1.633019 1.2179479,2.6370429 31.590571 0 1 -0.323105,2.870333 1.2179479,2.6370429 31.590571 0 1 -2.421738,1.63302 z m 6.005841,30.846828 a 1.2179479,2.6370429 31.590571 0 1 0.323105,-2.870334 1.2179479,2.6370429 31.590571 0 1 2.421739,-1.633019 1.2179479,2.6370429 31.590571 0 1 -0.323106,2.870333 1.2179479,2.6370429 31.590571 0 1 -2.421738,1.63302 z M 117.68584,34.114091 a 1.2179479,2.6370429 31.590571 0 1 0.3231,-2.870336 1.2179479,2.6370429 31.590571 0 1 2.42175,-1.633017 1.2179479,2.6370429 31.590571 0 1 -0.32311,2.870331 1.2179479,2.6370429 31.590571 0 1 -2.42174,1.633022 z M 17.588382,85.963025 a 1.2179479,2.6370429 31.590571 0 1 0.323104,-2.870334 1.2179479,2.6370429 31.590571 0 1 2.421739,-1.633019 1.2179479,2.6370429 31.590571 0 1 -0.323105,2.870333 1.2179479,2.6370429 31.590571 0 1 -2.421738,1.63302 z M 28.710324,48.334267 a 1.2179479,2.6370429 31.590571 0 1 0.323105,-2.870334 1.2179479,2.6370429 31.590571 0 1 2.421739,-1.633019 1.2179479,2.6370429 31.590571 0 1 -0.323105,2.870333 1.2179479,2.6370429 31.590571 0 1 -2.421739,1.63302 z m 12.456574,77.882773 a 1.2179479,2.6370429 31.590571 0 1 0.323105,-2.87034 1.2179479,2.6370429 31.590571 0 1 2.421738,-1.63302 1.2179479,2.6370429 31.590571 0 1 -0.3231,2.87034 1.2179479,2.6370429 31.590571 0 1 -2.421743,1.63302 z m 48.269232,14.87649 a 1.2179479,2.6370429 31.590571 0 1 0.3231,-2.87034 1.2179479,2.6370429 31.590571 0 1 2.421744,-1.63301 1.2179479,2.6370429 31.590571 0 1 -0.323109,2.87033 1.2179479,2.6370429 31.590571 0 1 -2.421735,1.63302 z m 21.57655,-11.37614 a 1.2179479,2.6370429 31.590571 0 1 0.32311,-2.87033 1.2179479,2.6370429 31.590571 0 1 2.42174,-1.63303 1.2179479,2.6370429 31.590571 0 1 -0.3231,2.87034 1.2179479,2.6370429 31.590571 0 1 -2.42175,1.63302 z M 110.1257,108.281 a 1.2179479,2.6370429 31.590571 0 1 0.3231,-2.87034 1.2179479,2.6370429 31.590571 0 1 2.42174,-1.63301 1.2179479,2.6370429 31.590571 0 1 -0.32311,2.87033 1.2179479,2.6370429 31.590571 0 1 -2.42173,1.63302 z m 9.37598,-57.896679 a 1.2179479,2.6370429 31.590571 0 1 0.32311,-2.870331 1.2179479,2.6370429 31.590571 0 1 2.42173,-1.633022 1.2179479,2.6370429 31.590571 0 1 -0.32311,2.870331 1.2179479,2.6370429 31.590571 0 1 -2.42173,1.633022 z M 78.012964,42.414736 a 1.2179479,2.6370429 31.590571 0 1 0.323104,-2.870334 1.2179479,2.6370429 31.590571 0 1 2.42174,-1.633019 1.2179479,2.6370429 31.590571 0 1 -0.323105,2.870334 1.2179479,2.6370429 31.590571 0 1 -2.421739,1.633019 z M 36.289856,73.121072 a 1.2179479,2.6370429 31.590571 0 1 0.323105,-2.870333 1.2179479,2.6370429 31.590571 0 1 2.421739,-1.63302 1.2179479,2.6370429 31.590571 0 1 -0.323106,2.870333 1.2179479,2.6370429 31.590571 0 1 -2.421738,1.63302 z m 28.677989,18.092475 a 1.2179479,2.6370429 31.590571 0 1 0.3231,-2.870337 1.2179479,2.6370429 31.590571 0 1 2.421744,-1.633016 1.2179479,2.6370429 31.590571 0 1 -0.323109,2.870331 1.2179479,2.6370429 31.590571 0 1 -2.421735,1.633022 z" /><path
     id="path1031367-1-3-0-6"
     style="opacity:0.614362;fill:#f2f2f2;stroke-width:5.28145;stop-color:#000000"
     d="m 63.968674,137.42558 a 2.6287222,1.2218031 73.451554 0 1 -1.91767,-2.18691 2.6287222,1.2218031 73.451554 0 1 0.432573,-2.85635 2.6287222,1.2218031 73.451554 0 1 1.917672,2.18691 2.6287222,1.2218031 73.451554 0 1 -0.432575,2.85635 z m 20.464378,-15.97032 a 2.6287222,1.2218031 73.451554 0 1 -1.917674,-2.18692 2.6287222,1.2218031 73.451554 0 1 0.432574,-2.85636 2.6287222,1.2218031 73.451554 0 1 1.917671,2.18691 2.6287222,1.2218031 73.451554 0 1 -0.432571,2.85637 z m -24.697869,-11.4979 a 2.6287222,1.2218031 73.451554 0 1 -1.917674,-2.18692 2.6287222,1.2218031 73.451554 0 1 0.432574,-2.85636 2.6287222,1.2218031 73.451554 0 1 1.917671,2.18691 2.6287222,1.2218031 73.451554 0 1 -0.432571,2.85637 z M 116.22546,64.718254 a 2.6287222,1.2218031 73.451554 0 1 -1.91767,-2.186912 2.6287222,1.2218031 73.451554 0 1 0.43257,-2.856362 2.6287222,1.2218031 73.451554 0 1 1.91768,2.186913 2.6287222,1.2218031 73.451554 0 1 -0.43258,2.856361 z M 73.799157,27.448734 a 2.6287222,1.2218031 73.451554 0 1 -1.917672,-2.186912 2.6287222,1.2218031 73.451554 0 1 0.432573,-2.856361 2.6287222,1.2218031 73.451554 0 1 1.917671,2.186912 2.6287222,1.2218031 73.451554 0 1 -0.432572,2.856361 z M 45.951129,96.952793 a 2.6287222,1.2218031 73.451554 0 1 -1.917671,-2.186909 2.6287222,1.2218031 73.451554 0 1 0.432574,-2.856357 2.6287222,1.2218031 73.451554 0 1 1.917671,2.186908 2.6287222,1.2218031 73.451554 0 1 -0.432574,2.856358 z M 78.204757,84.701577 a 2.6287222,1.2218031 73.451554 0 1 -1.917674,-2.186918 2.6287222,1.2218031 73.451554 0 1 0.432574,-2.856359 2.6287222,1.2218031 73.451554 0 1 1.91767,2.18691 2.6287222,1.2218031 73.451554 0 1 -0.43257,2.856367 z M 14.8097,74.63808 a 2.6287222,1.2218031 73.451554 0 1 -1.917672,-2.186911 2.6287222,1.2218031 73.451554 0 1 0.432573,-2.856362 2.6287222,1.2218031 73.451554 0 1 1.917672,2.186912 2.6287222,1.2218031 73.451554 0 1 -0.432573,2.856361 z m 5.338533,24.064902 a 2.6287222,1.2218031 73.451554 0 1 -1.917672,-2.186911 2.6287222,1.2218031 73.451554 0 1 0.432573,-2.856362 2.6287222,1.2218031 73.451554 0 1 1.917672,2.186912 2.6287222,1.2218031 73.451554 0 1 -0.432573,2.856361 z M 107.12181,80.763687 a 2.6287222,1.2218031 73.451554 0 1 -1.91767,-2.186908 2.6287222,1.2218031 73.451554 0 1 0.43257,-2.856358 2.6287222,1.2218031 73.451554 0 1 1.91767,2.186909 2.6287222,1.2218031 73.451554 0 1 -0.43257,2.856357 z m -2.44683,-35.222266 a 2.6287222,1.2218031 73.451554 0 1 -1.91767,-2.186912 2.6287222,1.2218031 73.451554 0 1 0.43257,-2.856362 2.6287222,1.2218031 73.451554 0 1 1.91767,2.186913 2.6287222,1.2218031 73.451554 0 1 -0.43257,2.856361 z M 53.81871,80.3024 a 2.6287222,1.2218031 73.451554 0 1 -1.917672,-2.186912 2.6287222,1.2218031 73.451554 0 1 0.432574,-2.856361 2.6287222,1.2218031 73.451554 0 1 1.917671,2.186912 2.6287222,1.2218031 73.451554 0 1 -0.432573,2.856361 z m 66.06096,12.375618 a 2.6287222,1.2218031 73.451554 0 1 -1.91768,-2.186919 2.6287222,1.2218031 73.451554 0 1 0.43258,-2.856357 2.6287222,1.2218031 73.451554 0 1 1.91767,2.186908 2.6287222,1.2218031 73.451554 0 1 -0.43257,2.856368 z" /><path
     id="path1031367-1-3-0-72"
     style="display:inline;opacity:0.614362;fill:#4d4d4d;stroke-width:5.28145;stop-color:#000000"
     d="m 27.708901,117.42921 a 2.6287222,1.2218031 73.451554 0 1 -1.917671,-2.18691 2.6287222,1.2218031 73.451554 0 1 0.432574,-2.85636 2.6287222,1.2218031 73.451554 0 1 1.917671,2.18691 2.6287222,1.2218031 73.451554 0 1 -0.432574,2.85636 z M 100.5259,29.036874 a 2.6540986,1.2101209 35.492782 0 1 -2.87671,-0.578718 2.6540986,1.2101209 35.492782 0 1 -1.432166,-2.521066 2.6540986,1.2101209 35.492782 0 1 2.876715,0.578719 2.6540986,1.2101209 35.492782 0 1 1.432161,2.521065 z m 29.13948,55.349274 a 2.6540986,1.2101209 35.492782 0 1 -2.87671,-0.578714 2.6540986,1.2101209 35.492782 0 1 -1.43216,-2.521067 2.6540986,1.2101209 35.492782 0 1 2.87671,0.578723 2.6540986,1.2101209 35.492782 0 1 1.43216,2.521058 z M 35.128738,83.904871 a 2.6540986,1.2101209 35.492782 0 1 -2.876714,-0.578718 2.6540986,1.2101209 35.492782 0 1 -1.432166,-2.521065 2.6540986,1.2101209 35.492782 0 1 2.876714,0.578718 2.6540986,1.2101209 35.492782 0 1 1.432166,2.521065 z M 86.462217,16.866604 a 2.6540986,1.2101209 35.492782 0 1 -2.876714,-0.578718 2.6540986,1.2101209 35.492782 0 1 -1.432165,-2.521064 2.6540986,1.2101209 35.492782 0 1 2.876714,0.578717 2.6540986,1.2101209 35.492782 0 1 1.432165,2.521065 z m 48.520703,46.411101 a 2.6540986,1.2101209 35.492782 0 1 -2.87672,-0.578722 2.6540986,1.2101209 35.492782 0 1 -1.43217,-2.521064 2.6540986,1.2101209 35.492782 0 1 2.87671,0.578718 2.6540986,1.2101209 35.492782 0 1 1.43218,2.521068 z M 43.80151,56.948921 a 2.6540986,1.2101209 35.492782 0 1 -2.876714,-0.578718 2.6540986,1.2101209 35.492782 0 1 -1.432167,-2.521066 2.6540986,1.2101209 35.492782 0 1 2.876716,0.578719 2.6540986,1.2101209 35.492782 0 1 1.432165,2.521065 z m 30.003139,46.645499 a 2.6540986,1.2101209 35.492782 0 1 -2.87671,-0.57871 2.6540986,1.2101209 35.492782 0 1 -1.432167,-2.52107 2.6540986,1.2101209 35.492782 0 1 2.876715,0.57872 2.6540986,1.2101209 35.492782 0 1 1.432162,2.52106 z m -10.547987,20.62716 a 2.6540986,1.2101209 35.492782 0 1 -2.876712,-0.57872 2.6540986,1.2101209 35.492782 0 1 -1.432165,-2.52106 2.6540986,1.2101209 35.492782 0 1 2.876711,0.57871 2.6540986,1.2101209 35.492782 0 1 1.432166,2.52107 z m 16.582419,6.98174 a 2.6540986,1.2101209 35.492782 0 1 -2.876713,-0.57873 2.6540986,1.2101209 35.492782 0 1 -1.432164,-2.52105 2.6540986,1.2101209 35.492782 0 1 2.876712,0.57871 2.6540986,1.2101209 35.492782 0 1 1.432165,2.52107 z m -47.398736,-25.6771 a 2.6273604,1.2224364 77.178002 0 1 -1.77247,-2.30237 2.6273604,1.2224364 77.178002 0 1 0.616285,-2.82355 2.6273604,1.2224364 77.178002 0 1 1.772472,2.30238 2.6273604,1.2224364 77.178002 0 1 -0.616287,2.82354 z m 9.764211,-62.698453 a 1.2204872,2.6315563 22.564796 0 1 -0.131857,-2.884958 1.2204872,2.6315563 22.564796 0 1 2.136005,-1.981532 1.2204872,2.6315563 22.564796 0 1 0.131856,2.884957 1.2204872,2.6315563 22.564796 0 1 -2.136004,1.981533 z m 51.870622,42.871014 a 2.6540986,1.2101209 35.492782 0 1 -2.876711,-0.578712 2.6540986,1.2101209 35.492782 0 1 -1.432166,-2.521067 2.6540986,1.2101209 35.492782 0 1 2.876712,0.578713 2.6540986,1.2101209 35.492782 0 1 1.432165,2.521066 z M 69.162028,73.885102 a 2.6540986,1.2101209 35.492782 0 1 -2.876714,-0.578718 2.6540986,1.2101209 35.492782 0 1 -1.432166,-2.521066 2.6540986,1.2101209 35.492782 0 1 2.876713,0.578719 2.6540986,1.2101209 35.492782 0 1 1.432167,2.521065 z m 28.839791,50.632968 a 2.6287222,1.2218031 73.451554 0 1 -1.917674,-2.18692 2.6287222,1.2218031 73.451554 0 1 0.432575,-2.85636 2.6287222,1.2218031 73.451554 0 1 1.91767,2.18691 2.6287222,1.2218031 73.451554 0 1 -0.432571,2.85637 z M 85.84495,59.336777 a 2.6540986,1.2101209 35.492782 0 1 -2.876713,-0.578717 2.6540986,1.2101209 35.492782 0 1 -1.432166,-2.521066 2.6540986,1.2101209 35.492782 0 1 2.876714,0.578719 2.6540986,1.2101209 35.492782 0 1 1.432165,2.521064 z M 61.850277,39.603361 a 2.6540986,1.2101209 35.492782 0 1 -2.876714,-0.57872 2.6540986,1.2101209 35.492782 0 1 -1.432166,-2.521064 2.6540986,1.2101209 35.492782 0 1 2.876714,0.578719 2.6540986,1.2101209 35.492782 0 1 1.432166,2.521065 z" /></svg>
