<?xml version="1.0" encoding="UTF-8" standalone="no"?>
<!-- Created with Inkscape (http://www.inkscape.org/) -->

<svg
   width="164.23331mm"
   height="164.76247mm"
   viewBox="0 0 164.23331 164.76247"
   version="1.1"
   id="svg392"
   xml:space="preserve"
   xmlns="http://www.w3.org/2000/svg"
   xmlns:svg="http://www.w3.org/2000/svg"><defs
     id="defs389"><style
       id="style6869">.cls-1{fill:#ffe8c2;}.cls-2{fill:none;stroke:#e5af6e;stroke-miterlimit:10;stroke-width:25.51px;}.cls-3{opacity:0.05;}.cls-4{fill:#534741;}</style></defs><path
     id="path489313-7"
     style="display:inline;fill:#e6f0ed;fill-opacity:1;stroke:none;stroke-width:1.65226;stroke-dasharray:none;stroke-opacity:1;stop-color:#000000"
     d="m 28.279523,133.22668 c -4.447935,0.24288 -7.650592,1.70786 -7.650592,1.70786 0,0 -0.160561,-0.0134 -3.494067,-0.0242 -3.333522,-0.0107 -5.974018,1.00869 -8.889932,1.74797 -2.915915,0.73931 -0.866119,1.82687 -1.913847,2.29786 -1.04773,0.47102 -3.500275,0.52276 -4.847957,1.71726 -1.347694,1.19451 2.878786,1.35827 2.878786,1.35827 l -0.235993,0.0137 c -0.23617,0.0137 -2.61292,0.63045 -2.61292,0.63045 0,0 -3.031414,1.06489 0.110913,2.61266 3.142317,1.54779 10.730408,0.14902 12.880246,-0.38621 2.149845,-0.53523 2.810094,-1.53024 2.810094,-1.53024 0,0 -1.853081,0.38138 1.54423,-0.31764 3.397309,-0.69903 8.416992,-0.53606 10.699926,-0.66909 2.28296,-0.13301 11.626353,0.91675 12.934257,1.20493 1.307889,0.28819 3.790869,-0.72196 3.790869,-0.72196 0,0 3.56428,-1.82475 1.82032,-1.81421 -1.74395,0.0105 -7.535429,-1.17787 -10.169339,-1.88982 -2.633912,-0.71197 -4.659169,-2.80311 -4.659169,-2.80311 0,0 0.291029,-0.19927 1.729355,-0.71582 1.438312,-0.51654 0.838638,-1.43805 0.838638,-1.43805 0,0 0.300145,-0.72355 -5.288954,-0.99001 -0.785965,-0.0375 -1.547031,-0.0304 -2.274875,0.009 z m 3.626583,5.09156 c 0.09323,-0.0128 0.419183,0.38743 1.371187,0.60342 l 0.593419,0.13453 c 0,0 1.033383,0.49124 -0.972635,0.38268 -2.006018,-0.10856 -3.248493,-0.37837 -3.248493,-0.37837 0,0 2.181634,-0.57 2.231985,-0.71787 0.0051,-0.0151 0.01302,-0.0229 0.02448,-0.0245 z m -10.647137,1.47616 c 0,0 2.945766,0.16547 6.279739,-0.35453 l 0.05821,-0.009 c 0,0 2.324989,0.47948 1.871501,0.79629 -0.50144,0.35029 -6.866814,0.26346 -6.866814,0.26346 -0.05285,-0.24745 -1.342655,-0.69605 -1.342655,-0.69605 z m 1.487535,1.34321 c 0,0 2.419302,-0.15706 2.460965,0.15456 -0.0375,0.13907 -3.477052,0.63745 -3.477052,0.63745 1.021313,-0.33329 1.016087,-0.79201 1.016087,-0.79201 z M 136.3808,119.90456 a 44.166969,8.1849737 0 0 1 -44.166971,8.18497 44.166969,8.1849737 0 0 1 -44.166969,-8.18497 44.166969,8.1849737 0 0 1 44.166969,-8.18498 44.166969,8.1849737 0 0 1 44.166971,8.18498 z" /><path
     style="fill:#e1bfa3;fill-opacity:1;stroke:none;stroke-width:2.93301;stroke-dasharray:none;stroke-opacity:1;stop-color:#000000"
     d="m 42.993977,30.667033 c 0,0 4.509857,11.274644 7.215772,14.431544 2.705915,3.1569 109.589531,9.470702 109.589531,9.470702 l 3.1569,-8.56873 -3.75821,-6.163473 -12.47727,-7.065444 -33.37295,-5.712485 -35.477541,-0.300658 -25.555861,2.25493 z"
     id="path479444" /><path
     style="fill:#cdac97;fill-opacity:1;stroke:none;stroke-width:2.93301;stroke-dasharray:none;stroke-opacity:1;stop-color:#000000"
     d="m 43.144305,31.268345 5.712486,11.424973 -16.761637,5.411829 -6.163473,6.013143 -3.758214,-6.088305 0.676479,-5.712487 7.290937,-7.065444 12.702765,-4.058872 z"
     id="path479500" /><path
     id="path489972"
     style="display:inline;fill:#70ab53;fill-opacity:1;stroke:none;stroke-width:2.93301;stroke-dasharray:none;stroke-opacity:1;stop-color:#000000"
     d="m 31.544051,107.3641 c 0,0 0.563732,-2.29252 -1.0523,-3.68305 -1.616033,-1.39054 -3.946126,-0.0376 -3.946126,-0.0376 0,0 -2.067017,-3.38239 -6.576875,-1.12746 -4.509858,2.25493 -4.096454,4.50986 -4.096454,4.50986 0,0 -5.181481,-1.44298 -6.865394,3.5097 -1.683913,4.95269 0.495269,6.37246 0.495269,6.37246 0,0 -2.014093,-0.29716 -3.334809,1.45279 -1.320716,1.74995 -2.806522,-0.3632 -4.523453,2.37729 -1.716931,2.74048 0.03302,5.61304 0.03302,5.61304 0,0 -2.509361,1.91504 -2.410307,4.4244 0.09905,2.50936 1.271189,3.1367 1.271189,3.1367 0,0 1.700422,1.18864 2.69096,1.22166 0.990537,0.033 1.056572,0.033 1.056572,0.033 l 7.528083,-7.62713 z M 158.39082,53.219006 A 66.149635,15.237142 0 0 1 92.241188,68.456147 66.149635,15.237142 0 0 1 26.091553,53.219006 66.149635,15.237142 0 0 1 92.241188,37.981864 66.149635,15.237142 0 0 1 158.39082,53.219006 Z" /><path
     id="path476329"
     style="display:inline;fill:#d3b593;fill-opacity:1;stroke-width:4.12153;stop-color:#000000"
     d="m 21.59248,46.132068 c -0.02749,3.7e-5 -1.410766,0.0016 -1.410766,0.0016 -1e-6,35.635094 19.740876,72.624252 72.025578,71.872612 52.284698,-0.75165 72.026098,-36.370843 72.026098,-72.005937 -0.0374,-0.0016 -1.17293,-0.0013 -1.4056,-0.0026 8.9e-4,0.210068 -0.003,0.418677 -0.015,0.624768 -0.0132,0.225355 -0.034,0.448576 -0.0625,0.66921 -0.0285,0.220634 -0.0649,0.438789 -0.10852,0.65474 -0.0437,0.215951 -0.0949,0.429484 -0.15348,0.640788 -0.0586,0.211305 -0.12457,0.42014 -0.19792,0.626835 -0.0733,0.206695 -0.15393,0.411277 -0.24184,0.6134 -0.0879,0.202122 -0.18297,0.401859 -0.28526,0.599446 -0.10228,0.197587 -0.21167,0.392923 -0.32814,0.586011 -0.11647,0.193088 -0.24006,0.383949 -0.37052,0.572575 -0.13046,0.188626 -0.26812,0.374938 -0.41238,0.559139 -0.14426,0.184201 -0.29533,0.366407 -0.4532,0.54622 -0.15788,0.179812 -0.32222,0.357323 -0.49351,0.532784 -0.1713,0.175461 -0.34929,0.348718 -0.53382,0.519865 -0.18453,0.171146 -0.37604,0.340076 -0.57361,0.506945 -0.19757,0.166869 -0.40142,0.331916 -0.61185,0.494544 -0.21042,0.162628 -0.427,0.3232 -0.65009,0.481624 -0.22308,0.158424 -0.45277,0.314448 -0.68833,0.468705 -0.23556,0.154258 -0.47718,0.306693 -0.72502,0.45682 -0.24784,0.150127 -0.50177,0.297867 -0.76171,0.443901 -0.25993,0.146033 -0.52605,0.290037 -0.79788,0.432015 -0.27184,0.141977 -0.54948,0.282171 -0.83303,0.420129 -0.28355,0.137958 -0.57257,0.273752 -0.86764,0.407727 -0.29508,0.133975 -0.59587,0.266329 -0.90227,0.396358 -0.30641,0.13003 -0.61883,0.257836 -0.93638,0.383956 -0.31755,0.126121 -0.64043,0.250339 -0.96893,0.372587 -0.32851,0.122249 -0.66223,0.242288 -1.00149,0.360702 -0.67853,0.236826 -1.37866,0.466106 -2.0991,0.687813 -0.72044,0.221707 -1.46125,0.435972 -2.22209,0.642855 -0.76083,0.206883 -1.54175,0.406577 -2.34146,0.59893 -0.7997,0.192353 -1.6186,0.377403 -2.45566,0.555521 -0.83706,0.178119 -1.69232,0.349485 -2.56522,0.513664 -0.8729,0.164179 -1.76342,0.321271 -2.67064,0.471806 -0.90721,0.150535 -1.83088,0.294313 -2.77089,0.431498 -0.94,0.137185 -1.89624,0.267577 -2.86752,0.391708 -0.97129,0.12413 -1.95795,0.242095 -2.95899,0.353466 -1.00105,0.111372 -2.01653,0.21632 -3.04581,0.315227 -1.02928,0.09891 -2.07198,0.191798 -3.12798,0.278536 -1.05599,0.08674 -2.12533,0.1675 -3.20652,0.242362 -1.08119,0.07486 -2.17451,0.14394 -3.27939,0.207222 -1.10487,0.06328 -2.22108,0.120602 -3.34811,0.1726 -1.12703,0.052 -2.26504,0.09852 -3.41271,0.139526 -1.14768,0.04101 -2.30484,0.07666 -3.47163,0.10697 -1.16679,0.03031 -2.34304,0.05502 -3.52743,0.07493 -1.184393,0.01992 -2.377086,0.03515 -3.57756,0.04496 -1.200473,0.0098 -2.408516,0.01447 -3.623551,0.01447 -1.215034,0 -2.423591,-0.0067 -3.624068,-0.01964 -1.200477,-0.01296 -2.39315,-0.03248 -3.57756,-0.05839 -1.184409,-0.02591 -2.360085,-0.05831 -3.526916,-0.09715 -1.166832,-0.03884 -2.324913,-0.08415 -3.472656,-0.135909 -1.147743,-0.05176 -2.285568,-0.110005 -3.412712,-0.174666 -1.127144,-0.06466 -2.243598,-0.135359 -3.348633,-0.212907 -1.105034,-0.07755 -2.198489,-0.161761 -3.279903,-0.252181 -1.081414,-0.09042 -2.150756,-0.187145 -3.207039,-0.290422 -1.056284,-0.103277 -2.099366,-0.21306 -3.129008,-0.329179 -1.029643,-0.116118 -2.045868,-0.238474 -3.04736,-0.367419 -1.001491,-0.128945 -1.988196,-0.264421 -2.960026,-0.406177 -0.971829,-0.141756 -1.928419,-0.289865 -2.869075,-0.444417 -0.940657,-0.154552 -1.865501,-0.315842 -2.773474,-0.483175 -0.907974,-0.167333 -1.799442,-0.3408 -2.673222,-0.520898 -0.87378,-0.180099 -1.729726,-0.366807 -2.567802,-0.559656 -0.838076,-0.192849 -1.65842,-0.391795 -2.459281,-0.59738 -0.800862,-0.205585 -1.582424,-0.417831 -2.34456,-0.636136 -0.762136,-0.218306 -1.504837,-0.44285 -2.226738,-0.673861 -0.7219,-0.231011 -1.423076,-0.468401 -2.10323,-0.712101 -0.680155,-0.243701 -1.339209,-0.49345 -1.976107,-0.749825 C 33.38337,57.763886 33.070726,57.633787 32.763375,57.502433 32.456023,57.371079 32.154069,57.238526 31.858004,57.104008 31.561938,56.96949 31.271846,56.833444 30.987256,56.695764 30.702665,56.558084 30.423541,56.418542 30.150614,56.277702 29.877688,56.136862 29.610704,55.994336 29.34963,55.850338 29.088556,55.706339 28.833334,55.560827 28.584302,55.413672 28.335269,55.266517 28.092466,55.118014 27.855664,54.967704 27.618862,54.817395 27.3881,54.66538 27.163717,54.511918 26.939333,54.358456 26.721268,54.203443 26.509493,54.04683 26.297718,53.890217 26.092489,53.732203 25.89351,53.572441 c -0.198979,-0.159762 -0.391749,-0.3213 -0.577743,-0.484209 -0.185993,-0.162909 -0.365132,-0.327455 -0.537951,-0.49351 -0.172819,-0.166054 -0.339222,-0.333614 -0.498678,-0.502811 -0.159456,-0.169198 -0.312466,-0.339775 -0.45837,-0.512114 -0.145904,-0.172338 -0.284865,-0.346454 -0.417029,-0.521932 -0.132163,-0.175478 -0.257454,-0.352618 -0.375687,-0.531233 -0.118234,-0.178616 -0.229198,-0.358785 -0.333313,-0.540536 -0.104116,-0.181751 -0.20113,-0.364952 -0.290939,-0.549837 -0.08981,-0.184885 -0.172734,-0.371639 -0.248046,-0.559656 -0.07531,-0.188017 -0.142978,-0.377294 -0.203606,-0.568441 -0.06063,-0.191146 -0.113926,-0.383984 -0.15968,-0.578259 -0.04575,-0.194275 -0.08403,-0.39016 -0.114721,-0.587561 -0.03069,-0.197401 -0.05381,-0.396337 -0.06925,-0.596863 -0.01053,-0.136762 -0.01266,-0.275196 -0.01602,-0.413411 z m 35.419638,64.359452 v 6.53929 c 0,0 3.461172,9.66666 35.195679,9.69619 31.734503,0.0295 35.346003,-9.69619 35.346003,-9.69619 v -7.3661" /><path
     id="path476329-0"
     style="display:inline;fill:#bfa286;fill-opacity:1;stroke-width:4.12153;stop-color:#000000"
     d="m 92.207292,118.00628 c 52.290098,0 72.026098,-36.370843 72.026098,-72.005937 -0.0374,-0.0016 -1.17293,-0.0013 -1.4056,-0.0026 8.9e-4,0.210068 -0.003,0.418677 -0.015,0.624768 -0.0132,0.225355 -0.034,0.448576 -0.0625,0.66921 -0.0285,0.220634 -0.0649,0.438789 -0.10852,0.65474 -0.0437,0.215951 -0.0949,0.429484 -0.15348,0.640788 -0.0586,0.211305 -0.12457,0.42014 -0.19792,0.626835 -0.0733,0.206695 -0.15393,0.411277 -0.24184,0.6134 -0.0879,0.202122 -0.18297,0.401859 -0.28526,0.599446 -0.10228,0.197587 -0.21167,0.392923 -0.32814,0.586011 -0.11647,0.193088 -0.24006,0.383949 -0.37052,0.572575 -0.13046,0.188626 -0.26812,0.374938 -0.41238,0.559139 -0.14426,0.184201 -0.29533,0.366407 -0.4532,0.54622 -0.15788,0.179812 -0.32222,0.357323 -0.49351,0.532784 -0.1713,0.175461 -0.34929,0.348718 -0.53382,0.519865 -0.18453,0.171146 -0.37604,0.340076 -0.57361,0.506945 -0.19757,0.166869 -0.40142,0.331916 -0.61185,0.494544 -0.21042,0.162628 -0.427,0.3232 -0.65009,0.481624 -0.22308,0.158424 -0.45277,0.314448 -0.68833,0.468705 -0.23556,0.154258 -0.47718,0.306693 -0.72502,0.45682 -0.24784,0.150127 -0.50177,0.297867 -0.76171,0.443901 -0.25993,0.146033 -0.52605,0.290037 -0.79788,0.432015 -0.27184,0.141977 -0.54948,0.282171 -0.83303,0.420129 -0.28355,0.137958 -0.57257,0.273752 -0.86764,0.407727 -0.29508,0.133975 -0.59587,0.266329 -0.90227,0.396358 -0.30641,0.13003 -0.61883,0.257836 -0.93638,0.383956 -0.31755,0.126121 -0.64043,0.250339 -0.96893,0.372587 -0.32851,0.122249 -0.66223,0.242288 -1.00149,0.360702 -0.67853,0.236826 -1.37866,0.466106 -2.0991,0.687813 -0.72044,0.221707 -1.46125,0.435972 -2.22209,0.642855 -0.76083,0.206883 -1.54175,0.406577 -2.34146,0.59893 -0.7997,0.192353 -1.6186,0.377403 -2.45566,0.555521 -5.63321,25.649934 -31.87333,51.957004 -47.527868,56.151624 z m 15.390398,-5.11223 c 0,0 0.93459,6.52696 -0.30066,8.38218 -2.27166,3.41181 -16.856114,3.37432 -28.950801,2.16493 -13.130778,-1.313 -21.334111,-6.41035 -21.334111,-6.41035 0,0 3.461172,9.66666 35.195679,9.69619 31.734503,0.0295 35.346003,-9.69619 35.346003,-9.69619 v -7.3661 z" /><path
     id="path473283-9"
     style="display:inline;fill:none;fill-opacity:1;stroke:#f4d2af;stroke-width:2.80729;stroke-dasharray:none;stroke-opacity:1;stop-color:#000000"
     d="m 162.82926,46.362407 c 0.1476,14.727145 -31.66701,19.674192 -70.548168,19.674191 -38.88114,0 -70.69574,-6.640716 -70.69574,-19.674191 0,-15.428433 31.96221,-20.403588 70.84335,-20.403588 38.881148,-10e-7 70.277078,8.084088 70.400558,20.403588 z" /><path
     id="path476861"
     style="display:inline;opacity:0.593085;fill:#e5d2bd;fill-opacity:1;stroke-width:4.69286;stop-color:#000000"
     d="m 54.925861,74.867485 c 1.424712,2.813973 1.319629,8.774839 3.564123,12.045891 4.854013,7.07408 4.666552,10.015514 2.057009,11.686023 C 54.846028,102.24893 47.418838,95.489916 42.720168,85.840536 39.71458,79.668138 33.856696,70.047459 40.181689,67.636137 c 4.581287,-1.74656 13.193961,4.1695 14.744172,7.231348 z m 20.715864,43.286955 c -0.383464,2.01237 -3.807041,1.65636 -7.914953,0.6122 -4.107911,-1.04417 -7.355345,-2.39957 -6.961113,-4.39344 0.442678,-2.23888 3.807039,-1.65636 7.914952,-0.6122 4.107913,1.04416 7.577504,1.1587 6.961114,4.39344 z" /><path
     id="path495515"
     style="display:inline;fill:#efda80;fill-opacity:1;stroke:none;stroke-width:2.93301;stroke-dasharray:none;stroke-opacity:1;stop-color:#000000"
     d="m 126.59066,45.997709 8.18844,-8.687475 8.91484,2.047111 -9.24502,11.094016 z m -42.593104,9.934625 7.66825,-7.197204 11.734204,3.456435 -8.110334,9.287777 z m -36.45177,-12.084553 -11.226088,-2.984322 -5.702687,8.683778 8.34412,4.998344 z m 25.29171,-8.452587 4.62251,-3.698006 4.9527,14.263737 -5.92793,1.832337 z m -3.23576,9.311051 -4.16025,-9.377086 7.39601,0.06603 v -5e-6 l 3.64728,12.398068 z m -4.16025,-9.377086 6.47151,-5.150794 5.54701,1.518823 -4.62251,3.698006 z m 9.83934,3.301793 z" /><path
     id="path496577"
     style="display:inline;fill:#e3c47c;fill-opacity:1;stroke:none;stroke-width:2.93301;stroke-dasharray:none;stroke-opacity:1;stop-color:#000000"
     d="m 94.830571,55.534869 c -0.128149,0.166497 -0.252979,0.335256 -0.38344,0.500007 -0.167198,0.214982 -0.318426,0.441843 -0.490995,0.652655 -0.121825,0.143799 -0.26121,0.271286 -0.398267,0.400222 -0.03268,0.02973 -0.06535,0.05946 -0.09803,0.08919 -0.418278,0.380846 0.120321,0.972378 0.538599,0.591531 v 0 c 0.03587,-0.03268 0.07174,-0.06537 0.107614,-0.09805 0.162811,-0.153189 0.327374,-0.305702 0.470561,-0.477904 0.173781,-0.214474 0.330586,-0.441507 0.497742,-0.661064 0.126275,-0.159528 0.248338,-0.322006 0.370793,-0.484436 0.362143,-0.43457 -0.252434,-0.946719 -0.614577,-0.512146 z M 94.45749,51.952231 c 0.03224,0.01913 0.06302,0.04096 0.09671,0.05742 0.167399,0.08181 0.349885,0.132468 0.528526,0.182475 0.140896,0.03944 0.282461,0.07645 0.423418,0.115673 0.351282,0.0976 0.67846,0.238278 0.99142,0.423778 0.227454,0.133302 0.431237,0.299656 0.6355,0.464949 0.06986,0.05689 0.137546,0.116338 0.20496,0.176083 0.423542,0.374981 0.953846,-0.223999 0.530304,-0.598982 v 0 c -0.07635,-0.06753 -0.152979,-0.134755 -0.2321,-0.199054 -0.235159,-0.190198 -0.471366,-0.379645 -0.733301,-0.532694 -0.155562,-0.09082 -0.190545,-0.115538 -0.351697,-0.192891 -0.267092,-0.128207 -0.546595,-0.228754 -0.830681,-0.311923 -0.26684,-0.07421 -0.539181,-0.136993 -0.798065,-0.235823 -0.460317,-0.328798 -0.925309,0.322188 -0.464992,0.650989 z m -5.064961,2.519693 c 0.486045,-0.08787 0.961747,-0.219676 1.430657,-0.373314 0.311269,-0.112842 0.625298,-0.226975 0.910749,-0.396793 0.483428,-0.293762 0.06798,-0.977434 -0.415443,-0.68367 v 0 c -0.22859,0.145005 -0.496195,0.21993 -0.745104,0.320461 -0.421881,0.139147 -0.8499,0.257074 -1.286589,0.340333 -0.560724,0.07476 -0.454994,0.867746 0.10573,0.792983 z m 45.613911,-8.875617 c -0.002,0.0019 -0.005,0.003 -0.006,0.0057 -0.0655,0.155667 0.0356,-0.04354 -0.0786,0.1934 -0.10254,0.212854 -0.23173,0.405675 -0.36437,0.600509 -0.25177,0.357237 -0.53501,0.690459 -0.81418,1.026181 -0.36168,0.434951 0.25343,0.946454 0.61512,0.5115 v 0 c 0.29595,-0.355904 0.5957,-0.709591 0.86147,-1.089128 0.22362,-0.331756 0.48459,-0.712655 0.56972,-1.111247 0.01,-0.04497 0.0115,-0.09125 0.0173,-0.136869 0,-0.565685 -0.8,-0.565685 -0.8,0 z m 1.59132,-1.091203 c 0.24592,-0.256061 0.51754,-0.48646 0.78302,-0.721873 0.14287,-0.129109 0.28124,-0.262935 0.42076,-0.395608 0.40987,-0.389876 -0.1415,-0.969526 -0.55137,-0.579649 v 0 c -0.13273,0.12628 -0.26438,0.253627 -0.40015,0.376687 -0.28792,0.255305 -0.58229,0.505418 -0.84689,0.785271 -0.37842,0.42047 0.21621,0.955643 0.59463,0.535172 z m 2.44944,-2.373775 c 0.28513,-0.08126 0.57482,-0.147561 0.86537,-0.206738 0.55427,-0.113099 0.39432,-0.896948 -0.15994,-0.783849 v 0 c -0.32194,0.0658 -0.64311,0.139076 -0.95841,0.23164 -0.53666,0.178885 -0.28367,0.937832 0.25298,0.758947 z m -3.24992,-2.539074 c 0.23253,0.0095 0.46439,0.03994 0.69628,0.06115 0.14004,0.01638 0.28367,0.03243 0.41916,0.07412 0.0612,0.01881 0.0991,0.0383 0.15798,0.06481 0.14111,0.06379 0.2828,0.127473 0.41239,0.213008 0.005,0.0048 0.0104,0.0096 0.0157,0.01442 0.44687,0.346855 0.9374,-0.285113 0.49053,-0.631968 v 0 c -0.0259,-0.01934 -0.0518,-0.03868 -0.0777,-0.05802 -0.16693,-0.103939 -0.34131,-0.193866 -0.52219,-0.271227 -0.12881,-0.05473 -0.15046,-0.06837 -0.28519,-0.107773 -0.17466,-0.05108 -0.35777,-0.0737 -0.5379,-0.09407 -0.25608,-0.02336 -0.51191,-0.05741 -0.76904,-0.06446 -0.56569,0 -0.56569,0.799999 0,0.799999 z m -3.03166,2.703425 c 0.33165,0.09736 0.66354,0.192207 0.99945,0.273846 0.30194,0.07009 0.60459,0.136441 0.91246,0.174014 0.16325,0.01834 0.32761,0.02008 0.49168,0.02029 0.019,-6.4e-5 0.038,-1.27e-4 0.057,-1.91e-4 0.56568,-0.0019 0.56295,-0.801928 -0.003,-0.799994 v 0 c -0.0178,6.1e-5 -0.0356,1.22e-4 -0.0534,1.85e-4 -0.13241,-1.16e-4 -0.2651,-5.29e-4 -0.39693,-0.01455 -0.27668,-0.03269 -0.54795,-0.09568 -0.8194,-0.157184 -0.33419,-0.08096 -0.66377,-0.177138 -0.99407,-0.27252 -0.5488,-0.1372 -0.74283,0.638913 -0.19403,0.776113 z m -2.29742,3.123803 c 0.12845,-0.08345 0.2657,-0.152276 0.39779,-0.229767 0.18924,-0.108508 0.38929,-0.195167 0.59027,-0.279291 0.20866,-0.08027 0.41687,-0.161632 0.623,-0.248206 0.20677,-0.0886 0.41795,-0.166552 0.6279,-0.247269 0.0254,-0.01119 0.0509,-0.02238 0.0763,-0.03356 0.51616,-0.231487 0.18879,-0.961438 -0.32737,-0.729954 v 0 c -0.012,0.0056 -0.0241,0.01122 -0.0361,0.01683 -0.21759,0.08372 -0.43644,0.164592 -0.65076,0.256465 -0.2058,0.08662 -0.41406,0.167056 -0.62219,0.24787 -0.23481,0.09853 -0.46814,0.201356 -0.68891,0.328896 -0.14328,0.08626 -0.29513,0.158154 -0.43367,0.252335 -0.47068,0.313788 -0.0269,0.979427 0.44376,0.665642 z M 72.969251,43.526802 c -0.0029,-0.0013 -0.01077,-0.0059 -0.0086,-0.0036 0.0094,0.01 0.02058,0.0181 0.03083,0.02722 0.01931,0.01722 0.03845,0.03465 0.05786,0.05177 0.1011,0.0892 0.204411,0.175096 0.309216,0.2599 0.180726,0.14463 0.372102,0.274966 0.567803,0.398257 0.07609,0.04814 0.155927,0.08983 0.238281,0.126026 0.05796,0.0226 0.115174,0.04664 0.17172,0.07254 7.94e-4,5.29e-4 0.0016,0.0013 0.0024,0.0019 0.501271,0.262157 0.872016,-0.446749 0.370744,-0.708906 v 0 c -0.01333,-0.0067 -0.02664,-0.01352 -0.03996,-0.02029 -0.06495,-0.02975 -0.130627,-0.05753 -0.197109,-0.08364 0.0037,0.0079 0.0013,0.0021 -0.01831,-0.0081 -0.02249,-0.01169 -0.04528,-0.02302 -0.06714,-0.03587 -0.01148,-0.0067 -0.02281,-0.0137 -0.03421,-0.02056 -0.169214,-0.106582 -0.335084,-0.218675 -0.491437,-0.343643 -0.106841,-0.08617 -0.09823,-0.07782 -0.200099,-0.165341 -0.06817,-0.05857 -0.133053,-0.12192 -0.203335,-0.177985 -0.02098,-0.01675 -0.04307,-0.03203 -0.0646,-0.04805 -0.4797,-0.299813 -0.903701,0.378587 -0.424,0.678399 z M 69.900553,40.3729 c 0.0888,0.07175 0.178292,0.143034 0.267235,0.214752 0.177014,0.147441 0.360997,0.286197 0.539638,0.43158 0.127112,0.102854 0.247362,0.21373 0.373761,0.317392 0.114324,0.09063 0.226928,0.183538 0.342781,0.272203 0.05203,0.03848 0.02574,0.01969 0.07883,0.05641 0.466767,0.319572 0.918712,-0.34054 0.451942,-0.660111 v 0 c -0.02683,-0.01786 -0.01127,-0.0071 -0.04625,-0.03289 -0.109295,-0.08247 -0.213855,-0.171233 -0.321694,-0.255587 -0.127434,-0.103095 -0.24634,-0.216424 -0.374864,-0.318291 -0.179637,-0.145772 -0.364019,-0.285626 -0.541999,-0.433488 -0.101066,-0.08148 -0.202079,-0.163044 -0.304388,-0.242962 -0.460316,-0.328797 -0.925306,0.322191 -0.464989,0.650989 z m 1.485887,-3.728516 c 0.02625,0.07788 0.05548,0.155188 0.07865,0.234296 0.03738,0.139859 0.06513,0.282242 0.08769,0.425188 0.01564,0.125992 0.02617,0.252572 0.03813,0.378958 0.0076,0.07933 0.01026,0.158969 0.01558,0.238463 0.0013,0.04014 0.0053,0.08034 0.0052,0.120529 -8e-5,0.0196 -0.0043,0.04061 -0.0063,0.06004 -0.0036,0.04117 -0.0097,0.08233 -0.01074,0.123692 -2.64e-4,0.01109 0.0013,-0.02215 0.0028,-0.03312 -0.138231,0.548537 0.637516,0.744024 0.775748,0.195487 v 0 c 0.01601,-0.06891 0.02204,-0.135196 0.02805,-0.205068 0.01045,-0.104806 0.01267,-0.209711 0.0035,-0.314774 -0.0058,-0.08692 -0.0087,-0.174027 -0.01738,-0.260745 -0.0136,-0.143311 -0.02519,-0.286903 -0.04457,-0.42958 -0.02868,-0.178011 -0.063,-0.355459 -0.111506,-0.529243 -0.04077,-0.133628 -0.08545,-0.275847 -0.150365,-0.399791 -0.0087,-0.01656 -0.01921,-0.03206 -0.02882,-0.04809 -0.313785,-0.470681 -0.979424,-0.02692 -0.665639,0.443759 z m -3.486547,-0.506048 c -7.94e-4,-5.29e-4 -0.0031,-0.0021 -0.0024,-0.0013 0.0011,0.0011 0.03011,0.02725 0.03626,0.03459 5.29e-4,7.94e-4 -0.003,-0.0016 -0.0024,-7.94e-4 0.0095,0.0132 0.0204,0.02529 0.03037,0.03814 0.03205,0.04249 0.05132,0.09237 0.07325,0.140407 0.02776,0.06011 0.0536,0.121412 0.07105,0.185364 0.02524,0.07955 0.03779,0.162237 0.05516,0.243684 0.01336,0.07071 0.02482,0.141473 0.04236,0.211325 0.0096,0.03538 0.0054,0.01947 0.01281,0.04772 0.144163,0.547008 0.917747,0.343128 0.773583,-0.20388 v 0 c -0.0085,-0.03214 -0.0044,-0.01696 -0.01225,-0.04554 -0.01765,-0.05764 -0.01804,-0.119489 -0.03434,-0.177544 -0.02172,-0.100258 -0.03764,-0.201988 -0.06936,-0.299836 -0.03007,-0.100364 -0.06628,-0.198789 -0.111281,-0.293529 -0.04822,-0.105611 -0.09872,-0.210714 -0.171638,-0.30204 -0.05193,-0.06582 -0.106645,-0.129196 -0.170413,-0.183952 -0.4295,-0.368144 -0.950134,0.239263 -0.520634,0.607404 z m 3.275356,-2.342599 c 0.152223,-0.02053 0.304771,-0.03793 0.457441,-0.05485 0.122836,-0.01439 0.24492,-0.0343 0.366665,-0.0559 0.07245,-0.01431 0.144912,-0.02811 0.216641,-0.04574 0.07098,-0.01807 0.144383,-0.02408 0.216754,-0.03449 0.08116,-0.01151 0.159362,-0.03352 0.234591,-0.06584 0.516728,-0.230201 0.191174,-0.960964 -0.325554,-0.730763 v 0 c 0.05677,-0.01204 -0.01296,0.0019 -0.02413,0.0049 -0.09821,0.01447 -0.197612,0.02355 -0.293741,0.04957 -0.05436,0.01357 -0.109474,0.02326 -0.164324,0.03464 -0.104622,0.01857 -0.209492,0.03591 -0.315035,0.04847 -0.142287,0.01577 -0.284797,0.03003 -0.426309,0.05201 -0.564248,0.0403 -0.507252,0.838272 0.057,0.797968 z M 37.170508,50.429715 c 0.231351,0 0.462706,0 0.694057,0 0.295918,-0.0016 0.591587,-0.01815 0.884624,-0.05959 0.263329,-0.04016 0.513141,-0.135136 0.762831,-0.224089 0.165814,-0.05139 0.326221,-0.116425 0.483232,-0.190018 0.07507,-0.03459 0.03692,-0.01701 0.11444,-0.05273 0.449533,-0.207174 0.156546,-0.842906 -0.292986,-0.635732 v 0 c -0.07901,0.03641 -0.03939,0.01815 -0.118885,0.0548 -0.13657,0.06421 -0.276228,0.120068 -0.420746,0.16429 -0.205727,0.07331 -0.410924,0.154223 -0.627226,0.190569 -0.259972,0.03791 -0.522724,0.05006 -0.785284,0.05251 -0.231351,0 -0.462706,0 -0.694057,0 -0.494975,0 -0.494975,0.7 0,0.7 z m 6.488938,-5.154941 c -0.03386,0.173504 -0.06917,0.346732 -0.105474,0.51978 -0.02835,0.170717 -0.09028,0.33139 -0.149466,0.49295 -0.06777,0.165449 -0.132246,0.331875 -0.177432,0.505021 -0.02265,0.08848 -0.03141,0.179321 -0.0353,0.270282 -0.01934,0.494599 0.68013,0.521941 0.699466,0.02735 v 0 c 0.0013,-0.04156 0.0038,-0.08323 0.01389,-0.123759 0.03757,-0.150984 0.10073,-0.293351 0.156663,-0.438129 0.07074,-0.193159 0.141824,-0.386434 0.177265,-0.590018 0.03941,-0.18796 0.08704,-0.384109 0.112832,-0.573942 0.004,-0.02967 0.005,-0.05969 0.0075,-0.08953 0,-0.494974 -0.700001,-0.494974 -0.700001,0 z m -2.718872,-1.055412 c 0.290978,-0.01093 0.582142,-0.01511 0.873279,-0.01916 0.172635,-0.0024 0.345278,-0.0039 0.517929,-0.0043 0.01879,-1.8e-5 0.03758,-4e-5 0.05638,-5.8e-5 0.494975,-5.29e-4 0.49426,-0.700503 -7.94e-4,-0.7 v 0 c -0.0191,2.1e-5 -0.03822,3.9e-5 -0.05732,6.1e-5 -0.175334,5.29e-4 -0.35066,0.0019 -0.525979,0.0044 -0.287893,0.004 -0.575849,0.0077 -0.863565,0.01908 -0.494975,0 -0.494975,0.7 0,0.7 z m -4.239927,1.03391 c 0.10382,-0.07004 0.206788,-0.140632 0.304213,-0.219544 0.08967,-0.07965 0.183338,-0.154418 0.270611,-0.236767 0.0577,-0.06235 0.117178,-0.12273 0.181017,-0.178758 0.07873,-0.06108 0.137581,-0.140446 0.191624,-0.223004 1.59e-4,2.65e-4 2.65e-4,7.94e-4 5.3e-4,0.0011 0.0067,-0.0092 0.01336,-0.01831 0.02003,-0.02745 0.290315,-0.400897 -0.27664,-0.811464 -0.566951,-0.410567 v 0 c -0.01929,0.02709 -0.006,0.0085 -0.04043,0.05541 -0.0315,0.04911 -0.0097,0.02907 -0.06735,0.07919 -0.07007,0.06185 -0.137917,0.126294 -0.200086,0.196181 -0.0746,0.07129 -0.156607,0.134006 -0.23286,0.203462 -0.08832,0.07416 -0.187084,0.133239 -0.280292,0.200776 -0.395978,0.296984 0.02402,0.856986 0.420003,0.560001 z m 1.577153,2.328293 c 0.164991,-0.04107 0.330726,-0.07934 0.495138,-0.122713 0.152667,-0.03762 0.288581,-0.117608 0.429937,-0.183118 0.134552,-0.0594 0.271333,-0.11243 0.403477,-0.177279 0.117872,-0.05495 0.228415,-0.123346 0.339833,-0.190016 0.09853,-0.05756 0.193464,-0.120497 0.287123,-0.185563 0.05411,-0.03859 0.02559,-0.01714 0.08509,-0.06498 0.381228,-0.3157 -0.06524,-0.854837 -0.446465,-0.539136 v 0 c -0.0167,0.01633 -0.0049,0.0055 -0.03809,0.02929 -0.08066,0.05607 -0.162219,0.110559 -0.247298,0.159843 -0.09501,0.05694 -0.188553,0.116287 -0.289415,0.162565 -0.127553,0.06308 -0.261106,0.111467 -0.390308,0.170966 -0.103529,0.04857 -0.20316,0.108135 -0.31324,0.140795 -0.171582,0.04576 -0.345154,0.08383 -0.516919,0.128868 -0.474102,0.14223 -0.272957,0.812708 0.201142,0.670478 z m -3.904634,1.063117 c 0.165886,-0.01177 0.332266,-0.0122 0.498345,-0.01974 0.146646,-0.01204 0.293228,-0.0272 0.43814,-0.05296 0.12559,-0.02138 0.24997,-0.04849 0.374234,-0.07638 0.113361,-0.02521 0.221629,-0.06897 0.328674,-0.113247 0.01916,-0.0088 0.03832,-0.0176 0.05748,-0.02641 0.32081,-0.148595 0.110668,-0.60229 -0.210145,-0.453694 v 0 c -0.01304,0.0061 -0.02611,0.01222 -0.03916,0.01836 -0.0803,0.03355 -0.161457,0.06741 -0.246383,0.08713 -0.117308,0.02635 -0.234688,0.05208 -0.353282,0.07214 -0.123132,0.02254 -0.248013,0.03392 -0.372565,0.04557 -0.174985,0.0082 -0.35038,0.0077 -0.525092,0.0217 -0.351798,0.03518 -0.302046,0.532699 0.04975,0.497518 z m 109.320774,-9.287337 0.85846,8.122406 -5.18381,4.193273 -4.91967,-1.221663 z m -40.29393,12.83422 -1.30864,5.853917 -6.801694,3.43386 z m -55.854224,-8.343784 -8.584655,10.6978 8.122405,-2.113145 z m 29.91422,-12.150592 -4.62251,3.698004 3.64728,12.398068 5.92793,-1.832337 z" /><path
     id="path497040"
     style="display:inline;fill:#5c8e45;fill-opacity:1;stroke:none;stroke-width:2.93301;stroke-dasharray:none;stroke-opacity:1;stop-color:#000000"
     d="m 126.82593,41.685268 h -1.02156 c -0.48439,-0.02432 -0.96001,0.05452 -1.43114,0.157924 -0.41348,0.125074 -0.86389,0.220731 -1.22803,0.467461 -0.0822,0.05567 -0.15578,0.122997 -0.23366,0.184494 -0.4059,0.409686 -0.73003,0.984187 -0.79517,1.537843 -0.0303,0.374486 -0.0283,0.750478 -0.0273,1.125877 -0.0126,0.505939 0.30387,0.959616 0.48507,1.426997 0.15692,0.378294 0.3711,0.736428 0.71118,0.978361 0.0754,0.05365 0.15738,0.09743 0.23607,0.146153 0.27782,0.151365 0.58063,0.248086 0.87795,0.353081 0.2211,0.105103 0.45773,0.168476 0.696,0.219922 1.24648,0.257492 1.61063,-1.505289 0.36415,-1.762782 v 0 c -0.16275,-0.02957 -0.31587,-0.08875 -0.46666,-0.156485 -1.73253,-0.778501 -0.96366,-2.904683 0.81151,-2.878839 h 1.02156 c 1.27279,0 1.27279,-1.8 0,-1.8 z M 72.485276,56.048973 c 2.217607,-0.2105 4.429452,0.0058 5.938385,1.531679 0.03356,0.03653 0.07152,0.06945 0.100679,0.109582 0.01672,0.02302 0.02281,0.05218 0.03541,0.07772 0.46302,1.257208 0.299556,2.059855 -0.601032,2.757054 -0.170595,0.109347 -0.348877,0.218567 -0.542843,0.281818 -0.01188,0.0026 -0.02376,0.005 -0.03565,0.0075 -1.223846,0.34957 -0.72948,2.080349 0.494366,1.730782 v 0 l 0.163867,-0.04944 c 0.315865,-0.12057 0.62039,-0.271235 0.900793,-0.461232 0.348879,-0.239768 0.66965,-0.517787 0.942755,-0.843034 0.32312,-0.410752 0.607571,-0.840057 0.751718,-1.349954 0.02392,-0.111977 0.05509,-0.222647 0.07176,-0.335931 0.07156,-0.486286 -0.02246,-0.981573 -0.121256,-1.456129 -0.175789,-0.627867 -0.416208,-1.258152 -0.879993,-1.733751 -0.681446,-0.620561 -1.447588,-1.185407 -2.233798,-1.520889 -0.558154,-0.242308 -1.134536,-0.444357 -1.731703,-0.56719 -0.298754,-0.05605 -0.413925,-0.08584 -0.719889,-0.109627 -0.401315,-0.0312 -0.805399,0.0079 -1.206868,0.0099 -0.574378,0.02569 -1.151077,0.05764 -1.71718,0.163973 -1.24248,0.276106 -0.852006,2.033244 0.390478,1.757135 z m -0.856792,-6.977696 c 0.469998,0.328406 1.004022,0.550992 1.538031,0.752102 0.612235,0.20765 1.237358,0.377081 1.862399,0.541652 0.609841,0.180885 1.234673,0.290563 1.863857,0.376629 0.736698,0.114793 1.480397,0.166029 2.224672,0.196112 0.824926,0.02037 1.650567,0.03293 2.475543,0.01135 0.76809,-0.04178 1.533747,-0.135996 2.279554,-0.326081 0.471178,-0.109032 0.885772,-0.341003 1.277491,-0.615497 0.299484,-0.204428 0.588801,-0.409998 0.847397,-0.666049 0.189171,-0.218289 0.380915,-0.44287 0.507566,-0.705268 0.112493,-0.233066 0.119353,-0.298283 0.186706,-0.54116 0.106097,-0.442418 0.121136,-0.889985 0.06515,-1.339437 -0.08958,-0.521809 -0.354102,-0.971588 -0.710295,-1.35372 -0.226377,-0.221131 -0.45538,-0.43915 -0.716928,-0.618363 -0.139451,-0.06436 -0.268055,-0.146148 -0.400185,-0.22316 -1.101378,-0.637937 -2.00356,0.919647 -0.902179,1.557586 v 0 c 0.105114,0.06025 0.210259,0.1407 0.32448,0.176781 0.071,0.01791 0.09849,0.07787 0.154673,0.131766 0.126216,0.121062 0.13948,0.111355 0.245914,0.226382 0.01892,0.01688 0.0464,0.02484 0.06088,0.04567 0.0658,0.09459 0.132787,0.200467 0.161767,0.311878 0.04329,0.210656 0.009,0.425619 -0.02635,0.635513 -0.0081,0.04157 -0.0095,0.08468 -0.02209,0.125114 -0.03658,0.117443 -0.141235,0.202154 -0.206685,0.302424 -0.03581,0.03742 -0.06358,0.08323 -0.104444,0.115059 -0.159036,0.12387 -0.344562,0.213529 -0.498544,0.345019 -0.216482,0.151786 -0.430811,0.295982 -0.697246,0.347374 -0.611613,0.163656 -1.245121,0.225206 -1.875274,0.268825 -0.784701,0.02199 -1.570159,0.007 -2.35485,-0.01056 -0.68744,-0.02728 -1.374336,-0.07424 -2.054648,-0.181203 -0.557109,-0.07492 -1.10961,-0.171931 -1.648942,-0.334007 -0.566695,-0.148219 -1.13276,-0.303376 -1.689134,-0.48668 -0.37478,-0.138742 -0.75043,-0.290518 -1.088292,-0.50605 -1.018233,-0.763675 -2.098233,0.676326 -1.079998,1.44 z" /><path
     id="path489313-2-73"
     style="display:inline;fill:#547e3d;fill-opacity:1;stroke:none;stroke-width:1.04818;stroke-dasharray:none;stroke-opacity:1;stop-color:#000000"
     d="m 101.14893,50.275123 c 1.97654,0.513815 3.85191,-0.167034 3.85191,-0.167034 0,0 0.0636,0.03667 1.47731,0.578761 1.41377,0.542083 2.89389,0.134216 4.39296,-0.0014 1.49907,-0.13564 1.00862,-1.349451 1.61923,-1.565465 0.61062,-0.216013 1.67166,0.134237 2.66342,-0.623096 0.99175,-0.757334 -0.74809,-1.566956 -0.74809,-1.566956 l 0.10516,0.02655 c 0.10525,0.02657 1.33209,-0.09547 1.33209,-0.09547 0,0 1.6623,-0.382363 0.86856,-2.145834 -0.79373,-1.763476 -4.51071,-1.83821 -5.6125,-1.746218 -1.10178,0.09199 -1.73129,0.796812 -1.73129,0.796812 0,0 0.92167,-0.01415 -0.76799,0.01167 -1.68965,0.02581 -3.76708,-0.910063 -4.7845,-1.166966 -1.01742,-0.256903 -4.622597,-2.606907 -5.077757,-3.0509 -0.45515,-0.443993 -1.86504,-0.01846 -1.86504,-0.01846 0,0 -2.15523,0.916031 -1.40995,1.186484 0.74529,0.270455 2.79148,2.165049 3.66197,3.166379 0.87049,1.001329 0.998747,3.028666 0.998747,3.028666 0,0 -0.193597,0.115759 -0.986267,0.306368 -0.79267,0.190609 -0.86065,1.03716 -0.86065,1.03716 0,0 -0.38124,0.54133 1.902047,1.652602 0.32109,0.156273 0.64719,0.272291 0.97063,0.356368 z m 0.24243,-4.727482 c -0.0441,-0.0045 -0.0425,-0.382637 -0.37157,-0.710882 l -0.2052,-0.204524 c 0,0 -0.26725,-0.565471 0.54773,-0.156083 0.81497,0.409381 1.24878,0.827887 1.24878,0.827887 0,0 -1.12749,0.115227 -1.20073,0.227614 -0.008,0.01146 -0.0136,0.01654 -0.019,0.016 z m 5.04494,0.501134 c 0,0 -1.19465,-0.606092 -2.79463,-0.715971 l -0.028,-0.0018 c 0,0 -0.82062,-0.762543 -0.51673,-0.948035 0.336,-0.205097 3.01235,0.884074 3.01235,0.884074 -0.0642,0.210022 0.32698,0.781775 0.32698,0.781775 z m -0.16176,-1.332083 c 0,0 -1.08382,-0.259167 -0.99232,-0.519647 0.0647,-0.107274 1.70199,0.0371 1.70199,0.0371 -0.55111,0.108065 -0.70967,0.482544 -0.70967,0.482545 z m 12.49294,4.924117 c 2.04215,-0.02043 3.6971,1.09384 3.6971,1.09384 0,0 0.0705,-0.02022 1.57344,-0.204214 1.50292,-0.183994 2.84043,0.5698 4.26218,1.064011 1.42174,0.494233 0.65223,1.553355 1.19246,1.910661 0.54022,0.357304 1.65447,0.274119 2.43358,1.248865 0.7791,0.974745 -1.10491,1.339459 -1.10491,1.339459 l 0.10846,-3.24e-4 c 0.10855,-3.21e-4 1.26943,0.414865 1.26943,0.414865 0,0 1.52044,0.773114 0.32369,2.292209 -1.19673,1.519102 -4.8214,0.692487 -5.86821,0.336708 -1.04681,-0.355776 -1.48713,-1.191943 -1.48713,-1.191943 0,0 0.89087,0.236677 -0.74237,-0.197101 -1.63323,-0.433769 -3.87534,-0.02821 -4.92469,-0.02505 -1.04934,0.0032 -5.11592,1.411289 -5.66496,1.731996 -0.54904,0.320705 -1.81412,-0.43324 -1.81412,-0.43324 0,0 -1.86964,-1.410172 -1.08106,-1.492309 0.78857,-0.08214 3.23229,-1.4255 4.31914,-2.186522 1.08686,-0.761022 1.70173,-2.697122 1.70173,-2.697122 0,0 -0.15986,-0.159155 -0.88288,-0.535849 -0.72302,-0.376693 -0.5842,-1.214547 -0.5842,-1.214547 0,0 -0.23897,-0.617475 2.24532,-1.143421 0.34936,-0.07396 0.69385,-0.107648 1.02801,-0.110991 z m -0.90832,4.64573 c -0.0439,-0.0063 -0.1338,0.360993 -0.53251,0.599886 l -0.24857,0.148815 c 0,0 -0.3961,0.48403 0.49371,0.283942 0.88979,-0.200084 1.41195,-0.501225 1.41195,-0.501225 0,0 -1.06613,-0.38454 -1.11002,-0.511309 -0.005,-0.01306 -0.009,-0.01934 -0.0146,-0.02012 z m 5.01631,0.734104 c 0,0 -1.30578,0.299109 -2.88481,0.0187 l -0.0276,-0.005 c 0,0 -0.98069,0.541393 -0.73071,0.794884 0.27641,0.280284 3.13674,-0.12914 3.13674,-0.12914 -0.0115,-0.219314 0.50638,-0.679462 0.50638,-0.679462 z m -0.47918,1.253393 c 0,0 -1.11432,-0.0107 -1.08854,0.264177 0.0368,0.119739 1.66042,0.37571 1.66042,0.37571 -0.50862,-0.238171 -0.57188,-0.639884 -0.57188,-0.639885 z M 68.6531,49.002034 c -1.976545,-0.513815 -3.8519,0.167034 -3.8519,0.167034 0,0 -0.06355,-0.03667 -1.477312,-0.578761 -1.413771,-0.542083 -2.893902,-0.134216 -4.392971,0.0014 -1.499069,0.13564 -1.008614,1.349451 -1.619232,1.565465 -0.610616,0.216013 -1.671655,-0.134237 -2.66341,0.623096 -0.991754,0.757334 0.748088,1.566956 0.748088,1.566956 l -0.105165,-0.02655 c -0.105249,-0.02657 -1.332082,0.09547 -1.332082,0.09547 0,0 -1.662299,0.382363 -0.868568,2.145834 0.793731,1.763476 4.510714,1.83821 5.612498,1.746218 1.101781,-0.09199 1.731289,-0.796812 1.731289,-0.796812 0,0 -0.921663,0.01415 0.767996,-0.01167 1.689658,-0.02581 3.767085,0.910063 4.784499,1.166966 1.017417,0.256903 4.622602,2.606907 5.077756,3.0509 0.455154,0.443993 1.865047,0.01846 1.865047,0.01846 0,0 2.155231,-0.916031 1.409945,-1.186484 -0.745286,-0.270455 -2.791478,-2.165049 -3.661965,-3.166379 -0.870493,-1.001329 -0.998758,-3.028666 -0.998758,-3.028666 0,0 0.193605,-0.115759 0.986275,-0.306368 0.792668,-0.190609 0.860651,-1.03716 0.860651,-1.03716 0,0 0.381238,-0.54133 -1.902051,-1.652602 -0.321087,-0.156273 -0.647195,-0.272291 -0.97063,-0.356368 z m -0.242435,4.727482 c 0.04411,0.0045 0.04246,0.382637 0.371577,0.710882 l 0.205195,0.204524 c 0,0 0.267249,0.565471 -0.547729,0.156083 -0.814974,-0.409381 -1.248775,-0.827887 -1.248775,-0.827887 0,0 1.127483,-0.115227 1.200726,-0.227614 0.0076,-0.01146 0.01356,-0.01654 0.01897,-0.016 z m -5.044921,-0.501134 c 0,0 1.194645,0.606092 2.794619,0.715971 l 0.02799,0.0018 c 0,0 0.820612,0.762543 0.516729,0.948035 -0.336002,0.205097 -3.012342,-0.884074 -3.012342,-0.884074 0.0642,-0.210022 -0.326981,-0.781775 -0.326981,-0.781775 z m 0.161759,1.332083 c 0,0 1.083819,0.259167 0.992314,0.519647 -0.06469,0.107274 -1.701991,-0.0371 -1.701991,-0.0371 0.551117,-0.108065 0.709677,-0.482544 0.709677,-0.482545 z M 31.636171,105.8886 c -4.244833,-0.0538 -7.464661,4.16512 -7.464661,4.16512 0,0 -0.150395,-0.0754 -3.307292,-0.75189 -3.156897,-0.67648 -5.787676,2.18007 -8.643917,4.05918 -2.85624,1.87911 -1.051965,5.86262 -2.104264,7.21558 -1.052299,1.35296 -3.382439,1.05206 -4.810559,4.73511 -1.428121,3.68305 2.555399,5.03639 2.555399,5.03639 H 7.635568 c -0.225493,0 -2.5554,1.57819 -2.5554,1.57819 0,0 -3.006902,2.93145 -0.225826,8.64392 2.781077,5.71249 10.147368,2.55547 12.251966,1.20251 2.104598,-1.35295 2.856156,-4.5098 2.856156,-4.5098 0,0 -1.803958,0.90224 1.503268,-0.75138 3.307226,-1.6536 8.042353,-0.15037 10.222115,-0.15037 2.179763,0 10.898957,5.26157 12.101589,6.4642 1.20263,1.20263 3.68298,-1.65365 3.68298,-1.65365 0,0 3.60801,-5.33673 1.9544,-5.63738 -1.65361,-0.30066 -6.990042,-5.33654 -9.395292,-8.19278 -2.405256,-2.85624 -4.059184,-10.14718 -4.059184,-10.14718 0,0 0.300972,-0.60173 1.729093,-2.02985 1.428119,-1.42812 0.976685,-4.58474 0.976685,-4.58474 0,0 0.376004,-2.33022 -4.88549,-4.28449 -0.739898,-0.27482 -1.461848,-0.39789 -2.156457,-0.40669 z m 2.791044,17.50125 c 0.08991,-0.0242 0.348064,1.35924 1.222664,2.25516 l 0.545186,0.55811 c 0,0 0.916826,1.82 -0.969966,1.0759 -1.886795,-0.74408 -3.029789,-1.87327 -3.029789,-1.87327 0,0 2.139114,-1.4616 2.20555,-1.93993 0.0068,-0.0489 0.01531,-0.073 0.02635,-0.076 z m -10.274309,2.82412 c 0,0 2.769931,1.11263 5.994467,0.0377 l 0.05633,-0.0191 c 0,0 2.142026,2.02958 1.672249,2.98793 -0.519433,1.05964 -6.539136,-0.45114 -6.539136,-0.45114 -0.01879,-0.82681 -1.183907,-2.5554 -1.183907,-2.5554 z m 1.239201,4.71909 c 0,0 2.312004,-0.053 2.312004,0.98341 -0.05315,0.45176 -3.374988,1.43505 -3.374988,1.43505 1.009833,-0.90353 1.062984,-2.41846 1.062984,-2.41846 z" /><path
     id="rect491811-1"
     style="display:inline;fill:#7fbb5c;stroke-width:1.80275;stop-color:#000000"
     d="m 28.80519,112.31846 1.70235,0.48749 c 0.131673,0.0377 0.206574,0.17385 0.167943,0.30525 -0.03863,0.13141 -0.175737,0.20684 -0.307409,0.16913 l -1.702351,-0.48749 c -0.131673,-0.0377 -0.206577,-0.17384 -0.167944,-0.30525 0.03863,-0.1314 0.175738,-0.20684 0.307411,-0.16913 z m 3.91502,-0.97394 0.69262,-1.09851 c 0.07724,-0.1225 0.251434,-0.18875 0.390561,-0.14854 0.13913,0.0402 0.188945,0.17123 0.111706,0.29373 l -0.692621,1.0985 c -0.07724,0.12252 -0.251432,0.18876 -0.39056,0.14855 -0.139128,-0.0402 -0.18895,-0.17122 -0.111706,-0.29373 z m -23.2897431,25.1965 0.6037191,-1.01207 c 0.114533,-0.19199 0.350812,-0.23869 0.52977,-0.10469 0.178948,0.13404 0.230824,0.39646 0.116294,0.58845 l -0.603718,1.01207 c -0.1145353,0.192 -0.3508104,0.23869 -0.5297697,0.10469 -0.1789471,-0.13404 -0.2308314,-0.39644 -0.1162954,-0.58845 z m -3.7352761,1.81455 -0.1181806,-1.17252 c -0.022419,-0.22243 0.1395125,-0.40072 0.3630792,-0.39974 0.2235649,9.9e-4 0.4216,0.18085 0.4440175,0.4033 l 0.1181806,1.17251 c 0.022417,0.22244 -0.1395125,0.40073 -0.3630792,0.39974 -0.2235658,-9.9e-4 -0.4215971,-0.18085 -0.4440175,-0.40329 z m 8.9338702,-7.13573 0.741325,-0.91608 c 0.140638,-0.17379 0.381152,-0.18646 0.53927,-0.0284 0.158118,0.15805 0.172187,0.42521 0.03155,0.59899 l -0.741325,0.91608 c -0.140638,0.17379 -0.381156,0.18647 -0.539271,0.0284 -0.158117,-0.15805 -0.172189,-0.4252 -0.03155,-0.59899 z m -5.5474036,-7.86681 1.1655966,-0.17363 c 0.221143,-0.033 0.4068,0.12065 0.416503,0.34372 0.0096,0.22336 -0.160661,0.42969 -0.38179,0.46262 l -1.1655963,0.17364 c -0.2211429,0.033 -0.4068005,-0.12066 -0.4165032,-0.34372 -0.00962,-0.22337 0.1606611,-0.42969 0.3817899,-0.46263 z m 7.9380406,-6.91077 1.165597,-0.17363 c 0.221115,-0.0329 0.406801,0.12065 0.416504,0.34372 0.0096,0.22336 -0.160664,0.4297 -0.381793,0.46264 l -1.165596,0.17363 c -0.221144,0.033 -0.406801,-0.12066 -0.416504,-0.34372 -0.0096,-0.22336 0.160662,-0.42969 0.381792,-0.46264 z m 0.266322,6.52671 1.165597,-0.17363 c 0.221142,-0.033 0.406803,0.12066 0.416503,0.34373 0.0096,0.22335 -0.160661,0.42969 -0.38179,0.46263 l -1.165596,0.17363 c -0.221143,0.033 -0.406804,-0.12065 -0.416506,-0.34371 -0.0096,-0.22337 0.160666,-0.42971 0.381792,-0.46265 z m 12.03027,-3.45022 1.643127,1.38714 c 0.171039,0.14437 0.187784,0.39422 0.03757,0.56014 -0.15022,0.16593 -0.408838,0.18328 -0.579869,0.0389 l -1.643127,-1.38715 c -0.17104,-0.14436 -0.187785,-0.39421 -0.03757,-0.56013 0.150219,-0.16593 0.408838,-0.18328 0.57987,-0.0389 z m -14.411752,-5.36324 1.411684,-1.62211 c 0.146936,-0.16883 0.396981,-0.18183 0.560635,-0.0291 0.163656,0.1527 0.177113,0.41155 0.03018,0.58038 l -1.411686,1.62211 c -0.146936,0.16884 -0.396979,0.18183 -0.560635,0.0291 -0.163654,-0.15269 -0.177112,-0.41154 -0.03017,-0.58038 z m -2.489718,12.57902 2.139826,-0.21265 c 0.222729,-0.0221 0.413636,0.13988 0.428053,0.36323 0.01441,0.22335 -0.153299,0.42099 -0.376021,0.44312 l -2.139825,0.21265 c -0.22273,0.0221 -0.413637,-0.13988 -0.428053,-0.36322 -0.01441,-0.22336 0.153289,-0.421 0.37602,-0.44313 z m 6.978866,-15.63248 2.139822,-0.21264 c 0.22273,-0.0221 0.413637,0.13988 0.428057,0.36321 0.01441,0.22337 -0.153292,0.42101 -0.376024,0.44314 l -2.139823,0.21264 c -0.222729,0.0221 -0.413636,-0.13988 -0.428052,-0.36323 -0.01441,-0.22335 0.153295,-0.42098 0.37602,-0.44312 z m -10.4582231,14.45527 1.2357591,1.75982 c 0.128625,0.18317 0.08122,0.42903 -0.106301,0.55125 -0.1875138,0.1222 -0.4420316,0.0731 -0.5706539,-0.11006 l -1.2357615,-1.75982 c -0.1286224,-0.18317 -0.081211,-0.42902 0.1063097,-0.55124 0.1875142,-0.1222 0.4420272,-0.0731 0.5706467,0.11006 z m -2.1239675,6.96731 2.1398252,-0.21265 c 0.2227301,-0.0221 0.4136364,0.13987 0.4280528,0.36322 0.014412,0.22336 -0.1532918,0.421 -0.3760201,0.44313 l -2.1398252,0.21265 c -0.2227301,0.0221 -0.4136364,-0.13988 -0.4280538,-0.36323 -0.014414,-0.22336 0.1532862,-0.42099 0.3760211,-0.44312 z m 22.0176306,-22.60574 2.139825,-0.21265 c 0.222729,-0.0221 0.413639,0.13987 0.428054,0.36323 0.01441,0.22337 -0.15329,0.421 -0.376021,0.44314 l -2.139824,0.21264 c -0.222729,0.0221 -0.413639,-0.13987 -0.428053,-0.36323 -0.01441,-0.22336 0.15329,-0.421 0.376019,-0.44313 z m -16.007829,8.70984 1.121371,-2.6267 c 0.08798,-0.20607 0.32471,-0.30115 0.530791,-0.21317 0.206095,0.0879 0.301162,0.32471 0.213188,0.53078 l -1.121372,2.62671 c -0.08798,0.20607 -0.324712,0.30115 -0.530796,0.21318 -0.206066,-0.088 -0.301162,-0.32471 -0.213182,-0.5308 z m 12.547361,-4.34463 1.121369,-2.62669 c 0.08798,-0.20608 0.324712,-0.30116 0.530794,-0.21318 0.206081,0.088 0.301161,0.32471 0.213183,0.53079 l -1.121369,2.6267 c -0.08798,0.20609 -0.324715,0.30116 -0.530796,0.21318 -0.206095,-0.0879 -0.301162,-0.32471 -0.213181,-0.5308 z" /></svg>
