<?xml version="1.0" encoding="UTF-8" standalone="no"?>
<!-- Created with Inkscape (http://www.inkscape.org/) -->

<svg
   width="164.23331mm"
   height="164.76247mm"
   viewBox="0 0 164.23331 164.76247"
   version="1.1"
   id="svg392"
   xml:space="preserve"
   xmlns="http://www.w3.org/2000/svg"
   xmlns:svg="http://www.w3.org/2000/svg"><defs
     id="defs389"><style
       id="style6869">.cls-1{fill:#ffe8c2;}.cls-2{fill:none;stroke:#e5af6e;stroke-miterlimit:10;stroke-width:25.51px;}.cls-3{opacity:0.05;}.cls-4{fill:#534741;}</style></defs><g
     id="layer15"
     style="display:inline"><path
       id="path33923"
       style="font-variation-settings:normal;display:inline;fill:#343434;fill-opacity:0.192157;stroke:none;stroke-width:0.811001;stroke-linecap:butt;stroke-linejoin:miter;stroke-miterlimit:4;stroke-dasharray:none;stroke-dashoffset:0;stroke-opacity:1;stop-color:#000000"
       d="m 27.258799,139.7416 c 0,0 3.35791,1.74245 6.772743,1.83546 1.50146,1.06298 -1.82701,-0.27187 -3.886543,0.75126 -0.87696,0.45176 -1.51996,2.19266 -2.14446,2.33882 -0.67994,0.20687 -1.59891,-0.42402 -2.46258,-0.38416 -0.35876,0.0797 -1.57232,1.419 -3.27309,1.33928 -0.27904,0.0797 -1.35022,-0.79945 -2.21389,-1.03862 -0.47834,-0.22588 -3.08753,-0.0209 -4.07972,-0.72012 -3.39973,-3.29088 -0.40738,-6.83617 -0.40738,-6.83617 0,0 -1.87037,0.038 -2.44172,-1.38371 -0.69792,-2.71433 1.52635,-3.17085 1.52635,-3.17085 0,0 0.28188,-0.39461 -0.72344,-1.10867 -1.37175,-0.66708 -3.48575,0.60131 -4.77293,0.46977 -1.62543,0.25368 -6.71782,-0.87378 -7.42249,-3.10052 -0.37582,-0.68588 -0.24427,-2.18916 -0.24427,-2.18916 l 11.3498,0.22549 3.68305,0.97713 2.63076,0.15033 1.0523,3.1569 -1.65362,2.63075 z m 20.739633,3.23702 c 0,0 2.88321,1.35594 3.22868,2.29934 -2.68404,1.91337 -4.03726,1.3359 -4.03726,1.3359 0,0 0.89858,1.25799 0.22093,2.02865 -0.7308,1.51475 -8.92957,3.37939 -12.58358,1.97094 -4.411383,-1.96652 -3.30761,-4.65901 -3.30761,-4.65901 0.39862,-2.35185 6.99108,-2.82928 6.99108,-2.82928 z M 136.3808,119.90456 a 44.166969,8.1849737 0 0 1 -44.166971,8.18497 44.166969,8.1849737 0 0 1 -44.166969,-8.18497 44.166969,8.1849737 0 0 1 44.166969,-8.18498 44.166969,8.1849737 0 0 1 44.166971,8.18498 z" /><path
       style="fill:#e1bfa3;fill-opacity:1;stroke:none;stroke-width:2.93301;stroke-dasharray:none;stroke-opacity:1;stop-color:#000000"
       d="m 42.993977,30.667033 c 0,0 4.509857,11.274644 7.215772,14.431544 2.705915,3.1569 109.589531,9.470702 109.589531,9.470702 l 3.1569,-8.56873 -3.75821,-6.163473 -12.47727,-7.065444 -33.37295,-5.712485 -35.477541,-0.300658 -25.555861,2.25493 z"
       id="path479444" /><path
       style="display:inline;fill:#cdac97;fill-opacity:1;stroke:none;stroke-width:2.93301;stroke-dasharray:none;stroke-opacity:1;stop-color:#000000"
       d="m 43.144305,31.268345 5.712486,11.424973 -16.761637,5.411829 -6.163473,6.013143 -3.758214,-6.088305 0.676479,-5.712487 7.290937,-7.065444 12.702765,-4.058872 z"
       id="path479500" /><ellipse
       style="display:inline;fill:#dd9f3c;fill-opacity:1;stroke:none;stroke-width:2.81051;stroke-dasharray:none;stroke-opacity:1;stop-color:#000000"
       id="path488926-6-2"
       cx="92.241188"
       cy="53.219006"
       rx="66.149635"
       ry="15.237142" /><path
       id="path476329"
       style="display:inline;fill:#d3b593;fill-opacity:1;stroke-width:4.12153;stop-color:#000000"
       d="m 21.59248,46.132068 c -0.02749,3.7e-5 -1.410766,0.0016 -1.410766,0.0016 -1e-6,35.635094 19.740876,72.624252 72.025578,71.872612 52.284698,-0.75165 72.026098,-36.370843 72.026098,-72.005937 -0.0374,-0.0016 -1.17293,-0.0013 -1.4056,-0.0026 8.9e-4,0.210068 -0.003,0.418677 -0.015,0.624768 -0.0132,0.225355 -0.034,0.448576 -0.0625,0.66921 -0.0285,0.220634 -0.0649,0.438789 -0.10852,0.65474 -0.0437,0.215951 -0.0949,0.429484 -0.15348,0.640788 -0.0586,0.211305 -0.12457,0.42014 -0.19792,0.626835 -0.0733,0.206695 -0.15393,0.411277 -0.24184,0.6134 -0.0879,0.202122 -0.18297,0.401859 -0.28526,0.599446 -0.10228,0.197587 -0.21167,0.392923 -0.32814,0.586011 -0.11647,0.193088 -0.24006,0.383949 -0.37052,0.572575 -0.13046,0.188626 -0.26812,0.374938 -0.41238,0.559139 -0.14426,0.184201 -0.29533,0.366407 -0.4532,0.54622 -0.15788,0.179812 -0.32222,0.357323 -0.49351,0.532784 -0.1713,0.175461 -0.34929,0.348718 -0.53382,0.519865 -0.18453,0.171146 -0.37604,0.340076 -0.57361,0.506945 -0.19757,0.166869 -0.40142,0.331916 -0.61185,0.494544 -0.21042,0.162628 -0.427,0.3232 -0.65009,0.481624 -0.22308,0.158424 -0.45277,0.314448 -0.68833,0.468705 -0.23556,0.154258 -0.47718,0.306693 -0.72502,0.45682 -0.24784,0.150127 -0.50177,0.297867 -0.76171,0.443901 -0.25993,0.146033 -0.52605,0.290037 -0.79788,0.432015 -0.27184,0.141977 -0.54948,0.282171 -0.83303,0.420129 -0.28355,0.137958 -0.57257,0.273752 -0.86764,0.407727 -0.29508,0.133975 -0.59587,0.266329 -0.90227,0.396358 -0.30641,0.13003 -0.61883,0.257836 -0.93638,0.383956 -0.31755,0.126121 -0.64043,0.250339 -0.96893,0.372587 -0.32851,0.122249 -0.66223,0.242288 -1.00149,0.360702 -0.67853,0.236826 -1.37866,0.466106 -2.0991,0.687813 -0.72044,0.221707 -1.46125,0.435972 -2.22209,0.642855 -0.76083,0.206883 -1.54175,0.406577 -2.34146,0.59893 -0.7997,0.192353 -1.6186,0.377403 -2.45566,0.555521 -0.83706,0.178119 -1.69232,0.349485 -2.56522,0.513664 -0.8729,0.164179 -1.76342,0.321271 -2.67064,0.471806 -0.90721,0.150535 -1.83088,0.294313 -2.77089,0.431498 -0.94,0.137185 -1.89624,0.267577 -2.86752,0.391708 -0.97129,0.12413 -1.95795,0.242095 -2.95899,0.353466 -1.00105,0.111372 -2.01653,0.21632 -3.04581,0.315227 -1.02928,0.09891 -2.07198,0.191798 -3.12798,0.278536 -1.05599,0.08674 -2.12533,0.1675 -3.20652,0.242362 -1.08119,0.07486 -2.17451,0.14394 -3.27939,0.207222 -1.10487,0.06328 -2.22108,0.120602 -3.34811,0.1726 -1.12703,0.052 -2.26504,0.09852 -3.41271,0.139526 -1.14768,0.04101 -2.30484,0.07666 -3.47163,0.10697 -1.16679,0.03031 -2.34304,0.05502 -3.52743,0.07493 -1.184393,0.01992 -2.377086,0.03515 -3.57756,0.04496 -1.200473,0.0098 -2.408516,0.01447 -3.623551,0.01447 -1.215034,0 -2.423591,-0.0067 -3.624068,-0.01964 -1.200477,-0.01296 -2.39315,-0.03248 -3.57756,-0.05839 -1.184409,-0.02591 -2.360085,-0.05831 -3.526916,-0.09715 -1.166832,-0.03884 -2.324913,-0.08415 -3.472656,-0.135909 -1.147743,-0.05176 -2.285568,-0.110005 -3.412712,-0.174666 -1.127144,-0.06466 -2.243598,-0.135359 -3.348633,-0.212907 -1.105034,-0.07755 -2.198489,-0.161761 -3.279903,-0.252181 -1.081414,-0.09042 -2.150756,-0.187145 -3.207039,-0.290422 -1.056284,-0.103277 -2.099366,-0.21306 -3.129008,-0.329179 -1.029643,-0.116118 -2.045868,-0.238474 -3.04736,-0.367419 -1.001491,-0.128945 -1.988196,-0.264421 -2.960026,-0.406177 -0.971829,-0.141756 -1.928419,-0.289865 -2.869075,-0.444417 -0.940657,-0.154552 -1.865501,-0.315842 -2.773474,-0.483175 -0.907974,-0.167333 -1.799442,-0.3408 -2.673222,-0.520898 -0.87378,-0.180099 -1.729726,-0.366807 -2.567802,-0.559656 -0.838076,-0.192849 -1.65842,-0.391795 -2.459281,-0.59738 -0.800862,-0.205585 -1.582424,-0.417831 -2.34456,-0.636136 -0.762136,-0.218306 -1.504837,-0.44285 -2.226738,-0.673861 -0.7219,-0.231011 -1.423076,-0.468401 -2.10323,-0.712101 -0.680155,-0.243701 -1.339209,-0.49345 -1.976107,-0.749825 C 33.38337,57.763886 33.070726,57.633787 32.763375,57.502433 32.456023,57.371079 32.154069,57.238526 31.858004,57.104008 31.561938,56.96949 31.271846,56.833444 30.987256,56.695764 30.702665,56.558084 30.423541,56.418542 30.150614,56.277702 29.877688,56.136862 29.610704,55.994336 29.34963,55.850338 29.088556,55.706339 28.833334,55.560827 28.584302,55.413672 28.335269,55.266517 28.092466,55.118014 27.855664,54.967704 27.618862,54.817395 27.3881,54.66538 27.163717,54.511918 26.939333,54.358456 26.721268,54.203443 26.509493,54.04683 26.297718,53.890217 26.092489,53.732203 25.89351,53.572441 c -0.198979,-0.159762 -0.391749,-0.3213 -0.577743,-0.484209 -0.185993,-0.162909 -0.365132,-0.327455 -0.537951,-0.49351 -0.172819,-0.166054 -0.339222,-0.333614 -0.498678,-0.502811 -0.159456,-0.169198 -0.312466,-0.339775 -0.45837,-0.512114 -0.145904,-0.172338 -0.284865,-0.346454 -0.417029,-0.521932 -0.132163,-0.175478 -0.257454,-0.352618 -0.375687,-0.531233 -0.118234,-0.178616 -0.229198,-0.358785 -0.333313,-0.540536 -0.104116,-0.181751 -0.20113,-0.364952 -0.290939,-0.549837 -0.08981,-0.184885 -0.172734,-0.371639 -0.248046,-0.559656 -0.07531,-0.188017 -0.142978,-0.377294 -0.203606,-0.568441 -0.06063,-0.191146 -0.113926,-0.383984 -0.15968,-0.578259 -0.04575,-0.194275 -0.08403,-0.39016 -0.114721,-0.587561 -0.03069,-0.197401 -0.05381,-0.396337 -0.06925,-0.596863 -0.01053,-0.136762 -0.01266,-0.275196 -0.01602,-0.413411 z m 35.419638,64.359452 v 6.53929 c 0,0 3.461172,9.66666 35.195679,9.69619 31.734503,0.0295 35.346003,-9.69619 35.346003,-9.69619 v -7.3661" /><path
       id="path476329-0"
       style="display:inline;fill:#bfa286;fill-opacity:1;stroke-width:4.12153;stop-color:#000000"
       d="m 92.207292,118.00628 c 52.290098,0 72.026098,-36.370843 72.026098,-72.005937 -0.0374,-0.0016 -1.17293,-0.0013 -1.4056,-0.0026 8.9e-4,0.210068 -0.003,0.418677 -0.015,0.624768 -0.0132,0.225355 -0.034,0.448576 -0.0625,0.66921 -0.0285,0.220634 -0.0649,0.438789 -0.10852,0.65474 -0.0437,0.215951 -0.0949,0.429484 -0.15348,0.640788 -0.0586,0.211305 -0.12457,0.42014 -0.19792,0.626835 -0.0733,0.206695 -0.15393,0.411277 -0.24184,0.6134 -0.0879,0.202122 -0.18297,0.401859 -0.28526,0.599446 -0.10228,0.197587 -0.21167,0.392923 -0.32814,0.586011 -0.11647,0.193088 -0.24006,0.383949 -0.37052,0.572575 -0.13046,0.188626 -0.26812,0.374938 -0.41238,0.559139 -0.14426,0.184201 -0.29533,0.366407 -0.4532,0.54622 -0.15788,0.179812 -0.32222,0.357323 -0.49351,0.532784 -0.1713,0.175461 -0.34929,0.348718 -0.53382,0.519865 -0.18453,0.171146 -0.37604,0.340076 -0.57361,0.506945 -0.19757,0.166869 -0.40142,0.331916 -0.61185,0.494544 -0.21042,0.162628 -0.427,0.3232 -0.65009,0.481624 -0.22308,0.158424 -0.45277,0.314448 -0.68833,0.468705 -0.23556,0.154258 -0.47718,0.306693 -0.72502,0.45682 -0.24784,0.150127 -0.50177,0.297867 -0.76171,0.443901 -0.25993,0.146033 -0.52605,0.290037 -0.79788,0.432015 -0.27184,0.141977 -0.54948,0.282171 -0.83303,0.420129 -0.28355,0.137958 -0.57257,0.273752 -0.86764,0.407727 -0.29508,0.133975 -0.59587,0.266329 -0.90227,0.396358 -0.30641,0.13003 -0.61883,0.257836 -0.93638,0.383956 -0.31755,0.126121 -0.64043,0.250339 -0.96893,0.372587 -0.32851,0.122249 -0.66223,0.242288 -1.00149,0.360702 -0.67853,0.236826 -1.37866,0.466106 -2.0991,0.687813 -0.72044,0.221707 -1.46125,0.435972 -2.22209,0.642855 -0.76083,0.206883 -1.54175,0.406577 -2.34146,0.59893 -0.7997,0.192353 -1.6186,0.377403 -2.45566,0.555521 -5.63321,25.649934 -31.87333,51.957004 -47.527868,56.151624 z m 15.390398,-5.11223 c 0,0 0.93459,6.52696 -0.30066,8.38218 -2.27166,3.41181 -16.856114,3.37432 -28.950801,2.16493 -13.130778,-1.313 -21.334111,-6.41035 -21.334111,-6.41035 0,0 3.461172,9.66666 35.195679,9.69619 31.734503,0.0295 35.346003,-9.69619 35.346003,-9.69619 v -7.3661 z" /><path
       id="path473283-9"
       style="display:inline;fill:none;fill-opacity:1;stroke:#f4d2af;stroke-width:2.80729;stroke-dasharray:none;stroke-opacity:1;stop-color:#000000"
       d="m 162.82926,46.362407 c 0.1476,14.727145 -31.66701,19.674192 -70.548168,19.674191 -38.88114,0 -70.69574,-6.640716 -70.69574,-19.674191 0,-15.428433 31.96221,-20.403588 70.84335,-20.403588 38.881148,-10e-7 70.277078,8.084088 70.400558,20.403588 z" /><path
       id="path476861"
       style="display:inline;opacity:0.593085;fill:#e5d2bd;fill-opacity:1;stroke-width:4.69286;stop-color:#000000"
       d="m 54.925861,74.867485 c 1.424712,2.813973 1.319629,8.774839 3.564123,12.045891 4.854013,7.07408 4.666552,10.015514 2.057009,11.686023 C 54.846028,102.24893 47.418838,95.489916 42.720168,85.840536 39.71458,79.668138 33.856696,70.047459 40.181689,67.636137 c 4.581287,-1.74656 13.193961,4.1695 14.744172,7.231348 z m 20.715864,43.286955 c -0.383464,2.01237 -3.807041,1.65636 -7.914953,0.6122 -4.107911,-1.04417 -7.355345,-2.39957 -6.961113,-4.39344 0.442678,-2.23888 3.807039,-1.65636 7.914952,-0.6122 4.107913,1.04416 7.577504,1.1587 6.961114,4.39344 z" /><path
       id="path27466"
       style="font-variation-settings:normal;display:inline;vector-effect:none;fill:#ffb83c;fill-opacity:1;stroke:none;stroke-width:2.81051;stroke-linecap:butt;stroke-linejoin:miter;stroke-miterlimit:4;stroke-dasharray:none;stroke-dashoffset:0;stroke-opacity:1;-inkscape-stroke:none;stop-color:#000000"
       d="m 62.796148,47.647703 c -1.12745,0.37582 -3.30495,1.17456 -4.13175,3.09126 -0.82682,1.91669 -1.46703,4.19623 1.72577,6.60989 1.85461,1.40202 5.01936,2.36098 8.38363,1.83091 2.89755,-0.45653 12.24416,-1.36686 12.8051,-2.47743 0.88491,-1.75196 -1.33133,-5.67034 -2.08299,-6.26521 -0.70296,-0.55632 -3.46323,-2.36956 -4.06075,-2.96632 -0.50455,-0.5039 -0.94031,-2.59611 -2.49921,-3.06294 -1.56041,-0.46729 -5.70698,0.52748 -7.09753,1.39187 -1.39054,0.86439 -3.04227,1.84797 -3.04227,1.84797 z m 54.233412,11.22022 c 0,0 2.47142,-3.69387 2.57773,-3.98618 0.10631,-0.29233 1.31546,-1.97982 3.20225,-2.16584 1.88677,-0.18602 8.39997,-1.78227 8.91578,-1.76721 1.09191,0.0319 4.02604,0.70424 5.26176,1.48818 1.72802,1.09626 4.03934,3.80017 4.35822,4.09249 0.3189,0.29232 0.74409,0.69094 0.0532,1.03641 -0.69094,0.34547 -3.69387,2.01967 -3.95962,2.13926 -0.24354,0.1096 -4.63534,1.15993 -5.03589,1.19585 -1.92666,0.17279 -6.31144,0.23917 -7.78635,0.30561 -1.45334,0.0655 -5.62032,-0.003 -7.13528,-1.24901 -0.8238,-0.67765 -0.45176,-1.08956 -0.45176,-1.08956 z m -81.262372,-8.0711 9.79017,1.35296 c 1.31538,0.39462 5.32188,-4.57386 4.88566,-5.35546 l -0.45097,-0.80802 c 0,0 -4.21529,-3.57814 -5.52459,-3.92732 -1.40932,-0.37586 -9.47069,0.67647 -10.42905,3.38239 -0.60641,1.7122 -0.45096,4.45348 1.72878,5.35545 z m 96.155352,-4.93749 c 0,0 -6.87896,-0.0797 -7.89366,-0.3428 -1.01473,-0.26307 -3.27862,-0.7455 -3.23436,-3.03841 0.0584,-3.02372 3.38806,-3.81443 4.05243,-3.89416 1.36859,-0.37204 8.63288,-0.14163 8.63288,-0.14163 0.7308,0.21259 0.83084,0.53585 0.83084,0.53585 l 3.35289,3.83917 c 1.74063,2.07282 -2.32703,2.82062 -2.32703,2.82062 z M 99.938719,35.594843 c -1.21672,0.0846 -7.711341,3.91456 -8.138741,4.11088 -1.55987,0.71651 -1.66081,1.29156 -1.73598,1.46068 0,0 -0.23442,3.85862 -0.0183,4.63845 0.35291,1.12416 7.440811,3.16924 12.082202,3.93967 1.81334,0.22549 6.99027,-1.47509 8.73784,-2.56497 0,0 0.72346,-4.80113 -0.33823,-6.36079 -0.29127,-1.20263 -7.50703,-4.97024 -10.588771,-5.22392 z" /><path
       id="path27588"
       style="font-variation-settings:normal;display:inline;vector-effect:none;fill:#fed385;fill-opacity:1;stroke:none;stroke-width:2.81051;stroke-linecap:butt;stroke-linejoin:miter;stroke-miterlimit:4;stroke-dasharray:none;stroke-dashoffset:0;stroke-opacity:1;-inkscape-stroke:none;stop-color:#000000"
       d="m 36.030278,44.840063 c 0.77044,-0.60132 3.81458,-1.20263 4.50986,-1.31538 0.69527,-0.11275 1.79633,-0.49194 2.34889,-0.26308 0.56504,0.23403 0.6421,0.94225 0.50828,1.44692 -0.27637,1.04226 -1.39414,1.62287 -2.6317,1.6724 -1.51155,0.0605 -2.0776,0.1218 -2.98778,1.27779 -1.03351,0.24428 -2.08579,-1.01471 -2.08579,-1.01471 0,0 -0.46977,-1.14626 0.33824,-1.80394 z m 34.33128,0.54493 c 1.07109,0.62011 -0.18791,2.36768 -0.18791,2.36768 0,0 -1.91669,1.52208 -2.08581,2.29251 -0.18791,0.77043 0.37584,2.78108 0.37584,2.78108 0,0 -0.0188,2.44284 -2.68714,2.57438 l -4.54744,-2.9502 c 0,0 -0.6389,-1.86031 0.26307,-2.66833 0.54494,-1.08988 3.30724,-1.31538 4.77294,-1.74757 1.0523,-0.6389 2.33009,-3.40119 4.09645,-2.64955 z m 30.967702,-8.4184 c 1.45502,0.37045 1.56761,1.74163 1.91668,2.46163 0.33942,0.70012 1.0189,1.65968 1.16506,1.99186 0,0 0.66152,1.15759 -0.28188,2.27372 -1.23572,1.28887 -3.38239,0.58252 -3.38239,0.58252 0,0 -3.079621,-1.34611 -3.664261,-1.4657 -0.6245,0 -3.64546,-0.48857 -3.64546,-0.48857 0,0 -1.109631,-0.1913 -1.096341,-0.62978 -0.1063,-0.62451 0.732461,-1.73278 1.968181,-2.1314 2.09253,-0.9095 5.46543,-2.97975 7.020411,-2.59428 z m 23.28214,2.7435 c 0,0 5.95676,-1.42812 7.46004,-0.73285 1.50329,0.69527 2.81866,1.6724 2.5744,2.55558 -0.24429,0.88319 -1.33419,1.40934 -5.01722,0.30066 -3.68305,-1.10867 -4.84811,0.46978 -4.84811,0.46978 0,0 -0.86438,0.97714 -1.18383,1.27779 -0.25232,0.23748 -1.55967,-0.54494 -1.37176,-1.6912 0.18791,-1.14625 0.80803,-2.01064 2.38648,-2.17976 z m 10.20356,14.26243 c 0,0 -0.13155,2.53679 -2.66835,2.63075 -2.5368,0.094 -6.05073,-1.46571 -6.99026,-1.46571 -0.93957,0 -3.32603,0.43219 -3.4012,-0.8456 -0.0752,-1.27779 3.13812,-1.10867 3.75822,-1.16504 0.62011,-0.0564 4.92327,-0.78923 5.41182,-0.92077 0.48858,-0.13153 2.96899,-0.73285 3.47636,0.20671 0.50736,0.93955 0.41341,1.55966 0.41341,1.55966 z" /><path
       id="path30558"
       style="font-variation-settings:normal;display:inline;vector-effect:none;fill:#629b4c;fill-opacity:1;stroke:none;stroke-width:2.81051;stroke-linecap:butt;stroke-linejoin:miter;stroke-miterlimit:4;stroke-dasharray:none;stroke-dashoffset:0;stroke-opacity:1;-inkscape-stroke:none;stop-color:#000000"
       d="m 148.05793,53.550344 c -0.75164,-0.0752 -2.63075,1.84152 -3.3824,2.0858 0,0 -1.62542,0.2443 -1.83212,-1.55964 0.10335,-2.35828 2.3207,-1.80396 2.3207,-1.80396 0,0 -0.77044,-2.03882 0.3946,-3.08173 1.08049,-0.96774 1.87912,-0.13154 1.87912,-0.13154 0,0 0.60132,-2.41465 2.37708,-2.33009 1.11807,-0.0282 1.15564,0.73285 1.15564,0.73285 0,0 1.15566,-1.8979 2.34889,-1.12747 2.38647,2.14219 -1.42814,4.15283 -1.42814,4.15283 0,0 1.37176,0.61072 1.17445,1.74758 -0.27247,1.15565 -1.26841,1.42811 -1.26841,1.42811 0,0 1.19325,0.81742 0.39463,1.70999 -1.08988,0.91137 -1.93548,-0.13154 -1.93548,-0.13154 0,0 -1.14626,-1.663 -2.19856,-1.69119 z m -36.16867,-13.14197 c -1.26701,-1.49329 0.10694,-6.51727 3.561,-7.20172 0.56731,-0.11241 -0.10631,1.46161 -0.10631,1.46161 0,0 2.94145,-1.20931 3.41122,-0.64557 0.45099,0.33824 -0.83349,1.94772 -0.83349,1.94772 0,0 2.61422,-0.93153 3.21553,0.79724 0.69527,1.03351 -2.68403,2.44942 -2.68403,2.44942 0,0 2.07282,0.18492 2.07282,0.89898 -0.43219,0.97714 -1.50052,0.73041 -1.50052,0.73041 0,0 1.24768,0.52394 1.02218,1.05009 -0.24428,0.78923 -7.9329,-0.21038 -8.1584,-1.48818 z M 93.595355,57.417795 c 0.31945,-0.8456 0.0519,-3.443913 2.55114,-4.251933 1.82274,-0.46978 2.07282,0.95668 2.07282,0.95668 0,0 0.49705,-1.52631 2.338575,-1.3384 1.08989,0.0188 1.1258,1.466713 1.1258,1.466713 0,0 2.63646,-1.975733 3.76392,-0.340913 0.69527,0.808023 -1.74157,1.782393 -1.74157,1.782393 0,0 2.15819,-0.3469 1.95149,1.21276 -1.01472,2.63075 -4.6213,1.62883 -4.6213,1.62883 0,0 -1.498315,1.67231 -2.870065,1.86022 -1.54086,0.30066 -2.09751,-0.93144 -2.09751,-0.93144 0,0 -1.15416,1.91927 -3.05206,1.75015 -1.65361,-0.24429 -0.37795,-1.4565 -0.37795,-1.4565 0,0 -2.73795,1.01739 -3.18894,0.26575 0.0564,-0.56373 1.87193,-1.81508 4.14565,-2.60431 z M 63.162417,45.082671 c -2.76229,0.56373 -10.33798,0.63218 -10.33798,0.63218 0,0 -0.86437,-0.22549 -0.86437,-0.50736 -0.30066,-1.10867 1.39053,-1.18383 1.39053,-1.18383 0,0 -1.86032,-0.2255 -1.93549,-0.95835 0.0564,-0.75164 1.31539,-0.75164 1.31539,-0.75164 0,0 -1.24023,-0.22549 -0.82682,-1.40933 0.46978,-0.93955 1.46572,-0.45099 1.46572,-0.45099 0,0 -0.95836,-0.48856 -0.37584,-1.59724 0.73285,-0.67648 1.35298,0.0752 1.35298,0.0752 0,0 -0.0564,-1.40933 0.88318,-1.59724 1.14626,-0.094 1.259,1.39054 1.80394,1.2778 0,0 -0.0564,-1.72879 1.74755,-1.9167 1.33417,0.0752 0.97716,1.39054 0.97716,1.39054 0,0 1.86032,-1.50328 2.64954,-0.39461 1.52208,1.10868 -0.18793,2.89383 -0.18793,2.89383 0,0 1.82275,-0.90197 2.49923,0.16912 0.92076,1.24021 -0.4698,2.01064 -0.4698,2.01064 0,0 1.42814,-0.50735 1.78517,0.30066 0.54494,0.80802 -0.24141,1.58513 -2.87216,2.01732 z" /><path
       id="path32007-3-2"
       style="display:inline;fill:none;fill-opacity:1;stroke:#629b4c;stroke-width:0.811;stroke-opacity:1;stop-color:#000000"
       d="m 10.462913,124.85365 c 3.10785,4.33052 9.45026,2.05467 9.45026,2.05467 m 3.31143,-4.47532 c -1.96936,4.95316 3.36877,9.06535 3.36877,9.06535 m 20.15709,5.13445 c -5.31743,0.37022 -8.55341,5.23396 -8.55341,5.23396 m 0.55609,-15.40008 c -1.96936,4.95316 3.36877,9.06535 3.36877,9.06535 m -13.777,-16.77085 c -1.969363,4.95316 3.157481,12.22992 12.080705,16.11841 8.923225,3.88849 21.587655,1.58765 26.768275,0.95609 m -52.00475,-22.41001 c -1.96936,4.95316 2.481,14.18419 11.40423,18.07268 8.92322,3.88849 13.64632,3.94221 18.63553,4.86294 m -19.59278,-3.59127 c 4.76456,2.3898 10.88856,0.0549 10.88856,0.0549" /><path
       id="path32255-1-23"
       style="font-variation-settings:normal;display:inline;fill:#629b4c;fill-opacity:1;stroke:none;stroke-width:0.729129;stroke-linecap:butt;stroke-linejoin:miter;stroke-miterlimit:4;stroke-dasharray:none;stroke-dashoffset:0;stroke-opacity:1;stop-color:#000000"
       d="m 27.988503,131.76353 c 0,0 -0.37554,1.27142 -2.27797,2.98396 -1.84395,1.6599 -2.83826,3.19231 -3.47545,2.27249 -0.37937,-0.54765 -0.41625,-1.48185 -0.41625,-1.48185 0,0 -3.09468,2.35132 -3.9458,0.45411 -0.59529,-1.32691 2.90979,-3.19198 2.90979,-3.19198 0,0 -5.52101,0.44914 -4.8573,-1.97695 0.25081,-0.91678 1.57903,-1.45906 1.57903,-1.45906 0,0 -1.50851,-0.61956 -0.88928,-1.26573 1.80583,-1.88441 6.67856,1.67676 6.95266,1.55636 -0.79615,-0.49191 -1.45518,-3.45453 0.49135,-3.47837 1.46901,-0.0181 1.07254,1.13951 1.07254,1.13951 0,0 1.35359,-1.73643 2.77022,-1.41455 2.11756,0.48114 0.60464,3.4666 0.41587,5.26446 z m -0.79069,-8.60264 c 0,0 2.21798,0.0556 4.18063,-1.37737 1.96263,-1.43297 3.0661,-2.12006 2.275,-2.82592 -0.47102,-0.42024 -2.19971,0.41387 -2.19971,0.41387 0,0 2.24597,-1.72597 1.38696,-2.21671 -0.859,-0.49077 -3.4931,1.37357 -3.4931,1.37357 0,0 -0.007,-3.77082 -1.90547,-3.78668 -1.01551,-0.008 -1.16582,1.80566 -1.16582,1.80566 0,0 -0.95179,-1.13705 -1.59806,-0.51781 -0.59513,0.57024 0.2162,3.3396 0.82906,3.90223 -0.78514,-0.3632 -4.34801,-0.27494 -4.87144,1.23943 -0.39511,1.14312 2.52025,0.7501 2.52025,0.7501 0,0 -1.99115,0.53331 -1.76639,1.74274 0.32219,1.7337 4.11988,-0.14259 5.80808,-0.50311 z m 14.12164,16.4133 c 0,0 -1.58569,-2.01677 -4.3933,-1.59095 -2.80757,0.42584 -4.36259,1.29494 -4.16023,2.54267 0.12049,0.74287 1.9715,0.726 1.9715,0.726 0,0 -2.52319,1.28281 -2.10382,2.33275 0.41932,1.04996 4.47185,-0.25177 4.47185,-0.25177 0,0 -4.10463,4.10172 -2.40427,5.24006 0.90969,0.60903 2.36764,-0.47141 2.36764,-0.47141 0,0 0.0168,1.30269 1.00875,1.41924 2.89276,0.33988 2.6906,-5.38539 3.00185,-5.47673 0.31124,-0.26151 2.48024,2.91933 4.04883,1.55365 1.18404,-1.03087 -0.2909,-2.44445 -0.2909,-2.44445 0,0 0.77097,0.22629 1.09978,-0.31144 1.21571,-1.98815 -3.07978,-1.85055 -4.61767,-3.26762 z m -3.78688,-10.95202 c 0,0 1.35295,2.17976 4.19042,2.06702 2.83745,-0.11275 4.47903,-0.80456 4.4159,-2.06702 -0.0376,-0.75164 -1.87913,-0.93956 -1.87913,-0.93956 0,0 2.64957,-0.99592 2.34889,-2.0858 -0.30064,-1.08989 -4.47227,-0.24429 -4.47227,-0.24429 0,0 4.53304,-3.62265 2.96899,-4.94205 -0.83676,-0.70588 -2.40525,0.2067 -2.40525,0.2067 0,0 0.12735,-1.29656 -0.84561,-1.52208 -2.83744,-0.65769 -3.26964,5.05481 -3.58909,5.11118 -0.33824,0.22549 -2.14219,-3.1757 -3.85218,-1.99186 -1.29078,0.89362 0.0188,2.46163 0.0188,2.46163 0,0 -0.74123,-0.31014 -1.12747,0.18791 -1.42812,1.84152 2.85624,2.17977 4.22799,3.75822 z" /><path
       id="path32255-6-0"
       style="font-variation-settings:normal;display:inline;fill:#568541;fill-opacity:1;stroke:none;stroke-width:0.679404;stroke-linecap:butt;stroke-linejoin:miter;stroke-miterlimit:4;stroke-dasharray:none;stroke-dashoffset:0;stroke-opacity:1;stop-color:#000000"
       d="m 13.392073,115.94239 c 0,0 2.15762,0.51691 4.37594,-0.47527 2.21831,-0.99218 3.4408,-1.43405 2.81429,-2.28937 -0.37301,-0.50922 -2.23765,-0.0539 -2.23765,-0.0539 0,0 2.55653,-1.21965 1.81874,-1.87874 -0.73778,-0.65912 -3.70275,0.61493 -3.70275,0.61493 0,0 0.77951,-3.68938 -1.07391,-4.10079 -0.99151,-0.2196 -1.51674,1.52284 -1.51674,1.52284 0,0 -0.69374,-1.31054 -1.45494,-0.83968 -0.70096,0.43359 -0.48499,3.31126 -0.003,3.98933 -0.69214,-0.51895 -4.19508,-1.17562 -5.02281,0.1963 -0.6248,1.03559 2.30842,1.25917 2.30842,1.25917 0,0 -2.05859,0.10636 -2.09098,1.33607 -0.0464,1.76277 4.05903,0.71969 5.7853,0.71915 z m -1.3632,10.47865 c 0,0 -0.9862,1.16414 -3.66693,2.10097 -2.59833,0.90804 -4.3115,2.06634 -4.47811,0.81336 -0.0992,-0.74601 0.32253,-1.74275 0.32253,-1.74275 0,0 -4.148,1.06815 -4.04318,-1.3069 0.0733,-1.66112 4.38061,-2.03366 4.38061,-2.03366 0,0 -5.56606,-2.02404 -3.73541,-4.26931 0.69178,-0.84846 2.24345,-0.81708 2.24345,-0.81708 0,0 -1.15735,-1.33176 -0.24134,-1.7298 2.67136,-1.1608 5.64598,4.77751 5.97036,4.77507 -0.53007,-0.87589 0.28246,-4.28187 2.17861,-3.42738 1.43131,0.64501 0.48059,1.68021 0.48059,1.68021 0,0 2.16097,-1.20994 3.37513,-0.232 1.81489,1.4618 -1.11197,3.91012 -2.17509,5.71095 z m 14.20514,-2.83609 c 0,0 -1.44638,-0.31885 -3.84969,-1.41628 -2.32943,-1.0637 -5.07037,0.80018 -5.28085,-2.0373 -0.10111,-1.36315 1.89586,-1.31412 1.89586,-1.31412 0,0 -1.48997,-1.18911 -0.21207,-1.89722 0.9449,-0.52359 4.57424,1.16712 4.57424,1.16712 0,0 -1.50379,-4.51079 1.36562,-4.72509 1.08431,-0.081 1.46752,1.38423 1.46752,1.38423 0,0 2.81333,-0.97467 3.69416,-0.64644 2.56874,0.95719 -2.93428,4.97145 -2.72833,5.17082 0.33655,-0.85395 4.59791,-1.47957 5.13721,0.20735 0.40712,1.27337 -2.0866,2.40435 -2.0866,2.40435 0,0 2.495,-1.62621 2.51077,-0.28745 0.0236,2.00116 -3.69084,1.65862 -5.73736,2.08135 z m -5.1682,9.62859 c 0,0 1.31218,0.68694 3.34365,2.37613 1.96903,1.63726 5.10279,0.55727 4.56191,3.35067 -0.25985,1.34197 -2.1741,0.77104 -2.1741,0.77104 0,0 1.12606,1.53818 -0.2928,1.88645 -1.04913,0.25751 -4.10818,-2.32566 -4.10818,-2.32566 0,0 0.26844,4.74727 -2.55677,4.2017 -1.06761,-0.20616 -1.05323,-1.72058 -1.05323,-1.72058 0,0 -2.97046,0.2029 -3.73441,-0.3448 -2.22789,-1.59723 4.13515,-4.02814 3.98867,-4.27453 -0.54868,0.73583 -4.82498,0.22222 -4.9031,-1.54708 -0.059,-1.33557 2.64402,-1.77312 2.64402,-1.77312 0,0 -2.8341,0.91512 -2.4983,-0.38094 0.50194,-1.93733 3.99661,-0.63284 6.08237,-0.50418 z" /></g></svg>
